G75*
%MOIN*%
%OFA0B0*%
%FSLAX25Y25*%
%IPPOS*%
%LPD*%
%AMOC8*
5,1,8,0,0,1.08239X$1,22.5*
%
%ADD10C,0.00000*%
%ADD11C,0.00800*%
%ADD12C,0.00500*%
%ADD13C,0.01969*%
%ADD14C,0.00591*%
D10*
X0001000Y0001000D02*
X0001000Y0158480D01*
X0079740Y0158480D01*
X0079740Y0001000D01*
X0001000Y0001000D01*
X0006512Y0016748D02*
X0006514Y0016906D01*
X0006520Y0017064D01*
X0006530Y0017222D01*
X0006544Y0017380D01*
X0006562Y0017537D01*
X0006583Y0017694D01*
X0006609Y0017850D01*
X0006639Y0018006D01*
X0006672Y0018161D01*
X0006710Y0018314D01*
X0006751Y0018467D01*
X0006796Y0018619D01*
X0006845Y0018770D01*
X0006898Y0018919D01*
X0006954Y0019067D01*
X0007014Y0019213D01*
X0007078Y0019358D01*
X0007146Y0019501D01*
X0007217Y0019643D01*
X0007291Y0019783D01*
X0007369Y0019920D01*
X0007451Y0020056D01*
X0007535Y0020190D01*
X0007624Y0020321D01*
X0007715Y0020450D01*
X0007810Y0020577D01*
X0007907Y0020702D01*
X0008008Y0020824D01*
X0008112Y0020943D01*
X0008219Y0021060D01*
X0008329Y0021174D01*
X0008442Y0021285D01*
X0008557Y0021394D01*
X0008675Y0021499D01*
X0008796Y0021601D01*
X0008919Y0021701D01*
X0009045Y0021797D01*
X0009173Y0021890D01*
X0009303Y0021980D01*
X0009436Y0022066D01*
X0009571Y0022150D01*
X0009707Y0022229D01*
X0009846Y0022306D01*
X0009987Y0022378D01*
X0010129Y0022448D01*
X0010273Y0022513D01*
X0010419Y0022575D01*
X0010566Y0022633D01*
X0010715Y0022688D01*
X0010865Y0022739D01*
X0011016Y0022786D01*
X0011168Y0022829D01*
X0011321Y0022868D01*
X0011476Y0022904D01*
X0011631Y0022935D01*
X0011787Y0022963D01*
X0011943Y0022987D01*
X0012100Y0023007D01*
X0012258Y0023023D01*
X0012415Y0023035D01*
X0012574Y0023043D01*
X0012732Y0023047D01*
X0012890Y0023047D01*
X0013048Y0023043D01*
X0013207Y0023035D01*
X0013364Y0023023D01*
X0013522Y0023007D01*
X0013679Y0022987D01*
X0013835Y0022963D01*
X0013991Y0022935D01*
X0014146Y0022904D01*
X0014301Y0022868D01*
X0014454Y0022829D01*
X0014606Y0022786D01*
X0014757Y0022739D01*
X0014907Y0022688D01*
X0015056Y0022633D01*
X0015203Y0022575D01*
X0015349Y0022513D01*
X0015493Y0022448D01*
X0015635Y0022378D01*
X0015776Y0022306D01*
X0015915Y0022229D01*
X0016051Y0022150D01*
X0016186Y0022066D01*
X0016319Y0021980D01*
X0016449Y0021890D01*
X0016577Y0021797D01*
X0016703Y0021701D01*
X0016826Y0021601D01*
X0016947Y0021499D01*
X0017065Y0021394D01*
X0017180Y0021285D01*
X0017293Y0021174D01*
X0017403Y0021060D01*
X0017510Y0020943D01*
X0017614Y0020824D01*
X0017715Y0020702D01*
X0017812Y0020577D01*
X0017907Y0020450D01*
X0017998Y0020321D01*
X0018087Y0020190D01*
X0018171Y0020056D01*
X0018253Y0019920D01*
X0018331Y0019783D01*
X0018405Y0019643D01*
X0018476Y0019501D01*
X0018544Y0019358D01*
X0018608Y0019213D01*
X0018668Y0019067D01*
X0018724Y0018919D01*
X0018777Y0018770D01*
X0018826Y0018619D01*
X0018871Y0018467D01*
X0018912Y0018314D01*
X0018950Y0018161D01*
X0018983Y0018006D01*
X0019013Y0017850D01*
X0019039Y0017694D01*
X0019060Y0017537D01*
X0019078Y0017380D01*
X0019092Y0017222D01*
X0019102Y0017064D01*
X0019108Y0016906D01*
X0019110Y0016748D01*
X0019108Y0016590D01*
X0019102Y0016432D01*
X0019092Y0016274D01*
X0019078Y0016116D01*
X0019060Y0015959D01*
X0019039Y0015802D01*
X0019013Y0015646D01*
X0018983Y0015490D01*
X0018950Y0015335D01*
X0018912Y0015182D01*
X0018871Y0015029D01*
X0018826Y0014877D01*
X0018777Y0014726D01*
X0018724Y0014577D01*
X0018668Y0014429D01*
X0018608Y0014283D01*
X0018544Y0014138D01*
X0018476Y0013995D01*
X0018405Y0013853D01*
X0018331Y0013713D01*
X0018253Y0013576D01*
X0018171Y0013440D01*
X0018087Y0013306D01*
X0017998Y0013175D01*
X0017907Y0013046D01*
X0017812Y0012919D01*
X0017715Y0012794D01*
X0017614Y0012672D01*
X0017510Y0012553D01*
X0017403Y0012436D01*
X0017293Y0012322D01*
X0017180Y0012211D01*
X0017065Y0012102D01*
X0016947Y0011997D01*
X0016826Y0011895D01*
X0016703Y0011795D01*
X0016577Y0011699D01*
X0016449Y0011606D01*
X0016319Y0011516D01*
X0016186Y0011430D01*
X0016051Y0011346D01*
X0015915Y0011267D01*
X0015776Y0011190D01*
X0015635Y0011118D01*
X0015493Y0011048D01*
X0015349Y0010983D01*
X0015203Y0010921D01*
X0015056Y0010863D01*
X0014907Y0010808D01*
X0014757Y0010757D01*
X0014606Y0010710D01*
X0014454Y0010667D01*
X0014301Y0010628D01*
X0014146Y0010592D01*
X0013991Y0010561D01*
X0013835Y0010533D01*
X0013679Y0010509D01*
X0013522Y0010489D01*
X0013364Y0010473D01*
X0013207Y0010461D01*
X0013048Y0010453D01*
X0012890Y0010449D01*
X0012732Y0010449D01*
X0012574Y0010453D01*
X0012415Y0010461D01*
X0012258Y0010473D01*
X0012100Y0010489D01*
X0011943Y0010509D01*
X0011787Y0010533D01*
X0011631Y0010561D01*
X0011476Y0010592D01*
X0011321Y0010628D01*
X0011168Y0010667D01*
X0011016Y0010710D01*
X0010865Y0010757D01*
X0010715Y0010808D01*
X0010566Y0010863D01*
X0010419Y0010921D01*
X0010273Y0010983D01*
X0010129Y0011048D01*
X0009987Y0011118D01*
X0009846Y0011190D01*
X0009707Y0011267D01*
X0009571Y0011346D01*
X0009436Y0011430D01*
X0009303Y0011516D01*
X0009173Y0011606D01*
X0009045Y0011699D01*
X0008919Y0011795D01*
X0008796Y0011895D01*
X0008675Y0011997D01*
X0008557Y0012102D01*
X0008442Y0012211D01*
X0008329Y0012322D01*
X0008219Y0012436D01*
X0008112Y0012553D01*
X0008008Y0012672D01*
X0007907Y0012794D01*
X0007810Y0012919D01*
X0007715Y0013046D01*
X0007624Y0013175D01*
X0007535Y0013306D01*
X0007451Y0013440D01*
X0007369Y0013576D01*
X0007291Y0013713D01*
X0007217Y0013853D01*
X0007146Y0013995D01*
X0007078Y0014138D01*
X0007014Y0014283D01*
X0006954Y0014429D01*
X0006898Y0014577D01*
X0006845Y0014726D01*
X0006796Y0014877D01*
X0006751Y0015029D01*
X0006710Y0015182D01*
X0006672Y0015335D01*
X0006639Y0015490D01*
X0006609Y0015646D01*
X0006583Y0015802D01*
X0006562Y0015959D01*
X0006544Y0016116D01*
X0006530Y0016274D01*
X0006520Y0016432D01*
X0006514Y0016590D01*
X0006512Y0016748D01*
X0006512Y0107299D02*
X0006514Y0107457D01*
X0006520Y0107615D01*
X0006530Y0107773D01*
X0006544Y0107931D01*
X0006562Y0108088D01*
X0006583Y0108245D01*
X0006609Y0108401D01*
X0006639Y0108557D01*
X0006672Y0108712D01*
X0006710Y0108865D01*
X0006751Y0109018D01*
X0006796Y0109170D01*
X0006845Y0109321D01*
X0006898Y0109470D01*
X0006954Y0109618D01*
X0007014Y0109764D01*
X0007078Y0109909D01*
X0007146Y0110052D01*
X0007217Y0110194D01*
X0007291Y0110334D01*
X0007369Y0110471D01*
X0007451Y0110607D01*
X0007535Y0110741D01*
X0007624Y0110872D01*
X0007715Y0111001D01*
X0007810Y0111128D01*
X0007907Y0111253D01*
X0008008Y0111375D01*
X0008112Y0111494D01*
X0008219Y0111611D01*
X0008329Y0111725D01*
X0008442Y0111836D01*
X0008557Y0111945D01*
X0008675Y0112050D01*
X0008796Y0112152D01*
X0008919Y0112252D01*
X0009045Y0112348D01*
X0009173Y0112441D01*
X0009303Y0112531D01*
X0009436Y0112617D01*
X0009571Y0112701D01*
X0009707Y0112780D01*
X0009846Y0112857D01*
X0009987Y0112929D01*
X0010129Y0112999D01*
X0010273Y0113064D01*
X0010419Y0113126D01*
X0010566Y0113184D01*
X0010715Y0113239D01*
X0010865Y0113290D01*
X0011016Y0113337D01*
X0011168Y0113380D01*
X0011321Y0113419D01*
X0011476Y0113455D01*
X0011631Y0113486D01*
X0011787Y0113514D01*
X0011943Y0113538D01*
X0012100Y0113558D01*
X0012258Y0113574D01*
X0012415Y0113586D01*
X0012574Y0113594D01*
X0012732Y0113598D01*
X0012890Y0113598D01*
X0013048Y0113594D01*
X0013207Y0113586D01*
X0013364Y0113574D01*
X0013522Y0113558D01*
X0013679Y0113538D01*
X0013835Y0113514D01*
X0013991Y0113486D01*
X0014146Y0113455D01*
X0014301Y0113419D01*
X0014454Y0113380D01*
X0014606Y0113337D01*
X0014757Y0113290D01*
X0014907Y0113239D01*
X0015056Y0113184D01*
X0015203Y0113126D01*
X0015349Y0113064D01*
X0015493Y0112999D01*
X0015635Y0112929D01*
X0015776Y0112857D01*
X0015915Y0112780D01*
X0016051Y0112701D01*
X0016186Y0112617D01*
X0016319Y0112531D01*
X0016449Y0112441D01*
X0016577Y0112348D01*
X0016703Y0112252D01*
X0016826Y0112152D01*
X0016947Y0112050D01*
X0017065Y0111945D01*
X0017180Y0111836D01*
X0017293Y0111725D01*
X0017403Y0111611D01*
X0017510Y0111494D01*
X0017614Y0111375D01*
X0017715Y0111253D01*
X0017812Y0111128D01*
X0017907Y0111001D01*
X0017998Y0110872D01*
X0018087Y0110741D01*
X0018171Y0110607D01*
X0018253Y0110471D01*
X0018331Y0110334D01*
X0018405Y0110194D01*
X0018476Y0110052D01*
X0018544Y0109909D01*
X0018608Y0109764D01*
X0018668Y0109618D01*
X0018724Y0109470D01*
X0018777Y0109321D01*
X0018826Y0109170D01*
X0018871Y0109018D01*
X0018912Y0108865D01*
X0018950Y0108712D01*
X0018983Y0108557D01*
X0019013Y0108401D01*
X0019039Y0108245D01*
X0019060Y0108088D01*
X0019078Y0107931D01*
X0019092Y0107773D01*
X0019102Y0107615D01*
X0019108Y0107457D01*
X0019110Y0107299D01*
X0019108Y0107141D01*
X0019102Y0106983D01*
X0019092Y0106825D01*
X0019078Y0106667D01*
X0019060Y0106510D01*
X0019039Y0106353D01*
X0019013Y0106197D01*
X0018983Y0106041D01*
X0018950Y0105886D01*
X0018912Y0105733D01*
X0018871Y0105580D01*
X0018826Y0105428D01*
X0018777Y0105277D01*
X0018724Y0105128D01*
X0018668Y0104980D01*
X0018608Y0104834D01*
X0018544Y0104689D01*
X0018476Y0104546D01*
X0018405Y0104404D01*
X0018331Y0104264D01*
X0018253Y0104127D01*
X0018171Y0103991D01*
X0018087Y0103857D01*
X0017998Y0103726D01*
X0017907Y0103597D01*
X0017812Y0103470D01*
X0017715Y0103345D01*
X0017614Y0103223D01*
X0017510Y0103104D01*
X0017403Y0102987D01*
X0017293Y0102873D01*
X0017180Y0102762D01*
X0017065Y0102653D01*
X0016947Y0102548D01*
X0016826Y0102446D01*
X0016703Y0102346D01*
X0016577Y0102250D01*
X0016449Y0102157D01*
X0016319Y0102067D01*
X0016186Y0101981D01*
X0016051Y0101897D01*
X0015915Y0101818D01*
X0015776Y0101741D01*
X0015635Y0101669D01*
X0015493Y0101599D01*
X0015349Y0101534D01*
X0015203Y0101472D01*
X0015056Y0101414D01*
X0014907Y0101359D01*
X0014757Y0101308D01*
X0014606Y0101261D01*
X0014454Y0101218D01*
X0014301Y0101179D01*
X0014146Y0101143D01*
X0013991Y0101112D01*
X0013835Y0101084D01*
X0013679Y0101060D01*
X0013522Y0101040D01*
X0013364Y0101024D01*
X0013207Y0101012D01*
X0013048Y0101004D01*
X0012890Y0101000D01*
X0012732Y0101000D01*
X0012574Y0101004D01*
X0012415Y0101012D01*
X0012258Y0101024D01*
X0012100Y0101040D01*
X0011943Y0101060D01*
X0011787Y0101084D01*
X0011631Y0101112D01*
X0011476Y0101143D01*
X0011321Y0101179D01*
X0011168Y0101218D01*
X0011016Y0101261D01*
X0010865Y0101308D01*
X0010715Y0101359D01*
X0010566Y0101414D01*
X0010419Y0101472D01*
X0010273Y0101534D01*
X0010129Y0101599D01*
X0009987Y0101669D01*
X0009846Y0101741D01*
X0009707Y0101818D01*
X0009571Y0101897D01*
X0009436Y0101981D01*
X0009303Y0102067D01*
X0009173Y0102157D01*
X0009045Y0102250D01*
X0008919Y0102346D01*
X0008796Y0102446D01*
X0008675Y0102548D01*
X0008557Y0102653D01*
X0008442Y0102762D01*
X0008329Y0102873D01*
X0008219Y0102987D01*
X0008112Y0103104D01*
X0008008Y0103223D01*
X0007907Y0103345D01*
X0007810Y0103470D01*
X0007715Y0103597D01*
X0007624Y0103726D01*
X0007535Y0103857D01*
X0007451Y0103991D01*
X0007369Y0104127D01*
X0007291Y0104264D01*
X0007217Y0104404D01*
X0007146Y0104546D01*
X0007078Y0104689D01*
X0007014Y0104834D01*
X0006954Y0104980D01*
X0006898Y0105128D01*
X0006845Y0105277D01*
X0006796Y0105428D01*
X0006751Y0105580D01*
X0006710Y0105733D01*
X0006672Y0105886D01*
X0006639Y0106041D01*
X0006609Y0106197D01*
X0006583Y0106353D01*
X0006562Y0106510D01*
X0006544Y0106667D01*
X0006530Y0106825D01*
X0006520Y0106983D01*
X0006514Y0107141D01*
X0006512Y0107299D01*
X0061630Y0146669D02*
X0061632Y0146827D01*
X0061638Y0146985D01*
X0061648Y0147143D01*
X0061662Y0147301D01*
X0061680Y0147458D01*
X0061701Y0147615D01*
X0061727Y0147771D01*
X0061757Y0147927D01*
X0061790Y0148082D01*
X0061828Y0148235D01*
X0061869Y0148388D01*
X0061914Y0148540D01*
X0061963Y0148691D01*
X0062016Y0148840D01*
X0062072Y0148988D01*
X0062132Y0149134D01*
X0062196Y0149279D01*
X0062264Y0149422D01*
X0062335Y0149564D01*
X0062409Y0149704D01*
X0062487Y0149841D01*
X0062569Y0149977D01*
X0062653Y0150111D01*
X0062742Y0150242D01*
X0062833Y0150371D01*
X0062928Y0150498D01*
X0063025Y0150623D01*
X0063126Y0150745D01*
X0063230Y0150864D01*
X0063337Y0150981D01*
X0063447Y0151095D01*
X0063560Y0151206D01*
X0063675Y0151315D01*
X0063793Y0151420D01*
X0063914Y0151522D01*
X0064037Y0151622D01*
X0064163Y0151718D01*
X0064291Y0151811D01*
X0064421Y0151901D01*
X0064554Y0151987D01*
X0064689Y0152071D01*
X0064825Y0152150D01*
X0064964Y0152227D01*
X0065105Y0152299D01*
X0065247Y0152369D01*
X0065391Y0152434D01*
X0065537Y0152496D01*
X0065684Y0152554D01*
X0065833Y0152609D01*
X0065983Y0152660D01*
X0066134Y0152707D01*
X0066286Y0152750D01*
X0066439Y0152789D01*
X0066594Y0152825D01*
X0066749Y0152856D01*
X0066905Y0152884D01*
X0067061Y0152908D01*
X0067218Y0152928D01*
X0067376Y0152944D01*
X0067533Y0152956D01*
X0067692Y0152964D01*
X0067850Y0152968D01*
X0068008Y0152968D01*
X0068166Y0152964D01*
X0068325Y0152956D01*
X0068482Y0152944D01*
X0068640Y0152928D01*
X0068797Y0152908D01*
X0068953Y0152884D01*
X0069109Y0152856D01*
X0069264Y0152825D01*
X0069419Y0152789D01*
X0069572Y0152750D01*
X0069724Y0152707D01*
X0069875Y0152660D01*
X0070025Y0152609D01*
X0070174Y0152554D01*
X0070321Y0152496D01*
X0070467Y0152434D01*
X0070611Y0152369D01*
X0070753Y0152299D01*
X0070894Y0152227D01*
X0071033Y0152150D01*
X0071169Y0152071D01*
X0071304Y0151987D01*
X0071437Y0151901D01*
X0071567Y0151811D01*
X0071695Y0151718D01*
X0071821Y0151622D01*
X0071944Y0151522D01*
X0072065Y0151420D01*
X0072183Y0151315D01*
X0072298Y0151206D01*
X0072411Y0151095D01*
X0072521Y0150981D01*
X0072628Y0150864D01*
X0072732Y0150745D01*
X0072833Y0150623D01*
X0072930Y0150498D01*
X0073025Y0150371D01*
X0073116Y0150242D01*
X0073205Y0150111D01*
X0073289Y0149977D01*
X0073371Y0149841D01*
X0073449Y0149704D01*
X0073523Y0149564D01*
X0073594Y0149422D01*
X0073662Y0149279D01*
X0073726Y0149134D01*
X0073786Y0148988D01*
X0073842Y0148840D01*
X0073895Y0148691D01*
X0073944Y0148540D01*
X0073989Y0148388D01*
X0074030Y0148235D01*
X0074068Y0148082D01*
X0074101Y0147927D01*
X0074131Y0147771D01*
X0074157Y0147615D01*
X0074178Y0147458D01*
X0074196Y0147301D01*
X0074210Y0147143D01*
X0074220Y0146985D01*
X0074226Y0146827D01*
X0074228Y0146669D01*
X0074226Y0146511D01*
X0074220Y0146353D01*
X0074210Y0146195D01*
X0074196Y0146037D01*
X0074178Y0145880D01*
X0074157Y0145723D01*
X0074131Y0145567D01*
X0074101Y0145411D01*
X0074068Y0145256D01*
X0074030Y0145103D01*
X0073989Y0144950D01*
X0073944Y0144798D01*
X0073895Y0144647D01*
X0073842Y0144498D01*
X0073786Y0144350D01*
X0073726Y0144204D01*
X0073662Y0144059D01*
X0073594Y0143916D01*
X0073523Y0143774D01*
X0073449Y0143634D01*
X0073371Y0143497D01*
X0073289Y0143361D01*
X0073205Y0143227D01*
X0073116Y0143096D01*
X0073025Y0142967D01*
X0072930Y0142840D01*
X0072833Y0142715D01*
X0072732Y0142593D01*
X0072628Y0142474D01*
X0072521Y0142357D01*
X0072411Y0142243D01*
X0072298Y0142132D01*
X0072183Y0142023D01*
X0072065Y0141918D01*
X0071944Y0141816D01*
X0071821Y0141716D01*
X0071695Y0141620D01*
X0071567Y0141527D01*
X0071437Y0141437D01*
X0071304Y0141351D01*
X0071169Y0141267D01*
X0071033Y0141188D01*
X0070894Y0141111D01*
X0070753Y0141039D01*
X0070611Y0140969D01*
X0070467Y0140904D01*
X0070321Y0140842D01*
X0070174Y0140784D01*
X0070025Y0140729D01*
X0069875Y0140678D01*
X0069724Y0140631D01*
X0069572Y0140588D01*
X0069419Y0140549D01*
X0069264Y0140513D01*
X0069109Y0140482D01*
X0068953Y0140454D01*
X0068797Y0140430D01*
X0068640Y0140410D01*
X0068482Y0140394D01*
X0068325Y0140382D01*
X0068166Y0140374D01*
X0068008Y0140370D01*
X0067850Y0140370D01*
X0067692Y0140374D01*
X0067533Y0140382D01*
X0067376Y0140394D01*
X0067218Y0140410D01*
X0067061Y0140430D01*
X0066905Y0140454D01*
X0066749Y0140482D01*
X0066594Y0140513D01*
X0066439Y0140549D01*
X0066286Y0140588D01*
X0066134Y0140631D01*
X0065983Y0140678D01*
X0065833Y0140729D01*
X0065684Y0140784D01*
X0065537Y0140842D01*
X0065391Y0140904D01*
X0065247Y0140969D01*
X0065105Y0141039D01*
X0064964Y0141111D01*
X0064825Y0141188D01*
X0064689Y0141267D01*
X0064554Y0141351D01*
X0064421Y0141437D01*
X0064291Y0141527D01*
X0064163Y0141620D01*
X0064037Y0141716D01*
X0063914Y0141816D01*
X0063793Y0141918D01*
X0063675Y0142023D01*
X0063560Y0142132D01*
X0063447Y0142243D01*
X0063337Y0142357D01*
X0063230Y0142474D01*
X0063126Y0142593D01*
X0063025Y0142715D01*
X0062928Y0142840D01*
X0062833Y0142967D01*
X0062742Y0143096D01*
X0062653Y0143227D01*
X0062569Y0143361D01*
X0062487Y0143497D01*
X0062409Y0143634D01*
X0062335Y0143774D01*
X0062264Y0143916D01*
X0062196Y0144059D01*
X0062132Y0144204D01*
X0062072Y0144350D01*
X0062016Y0144498D01*
X0061963Y0144647D01*
X0061914Y0144798D01*
X0061869Y0144950D01*
X0061828Y0145103D01*
X0061790Y0145256D01*
X0061757Y0145411D01*
X0061727Y0145567D01*
X0061701Y0145723D01*
X0061680Y0145880D01*
X0061662Y0146037D01*
X0061648Y0146195D01*
X0061638Y0146353D01*
X0061632Y0146511D01*
X0061630Y0146669D01*
X0061630Y0016748D02*
X0061632Y0016906D01*
X0061638Y0017064D01*
X0061648Y0017222D01*
X0061662Y0017380D01*
X0061680Y0017537D01*
X0061701Y0017694D01*
X0061727Y0017850D01*
X0061757Y0018006D01*
X0061790Y0018161D01*
X0061828Y0018314D01*
X0061869Y0018467D01*
X0061914Y0018619D01*
X0061963Y0018770D01*
X0062016Y0018919D01*
X0062072Y0019067D01*
X0062132Y0019213D01*
X0062196Y0019358D01*
X0062264Y0019501D01*
X0062335Y0019643D01*
X0062409Y0019783D01*
X0062487Y0019920D01*
X0062569Y0020056D01*
X0062653Y0020190D01*
X0062742Y0020321D01*
X0062833Y0020450D01*
X0062928Y0020577D01*
X0063025Y0020702D01*
X0063126Y0020824D01*
X0063230Y0020943D01*
X0063337Y0021060D01*
X0063447Y0021174D01*
X0063560Y0021285D01*
X0063675Y0021394D01*
X0063793Y0021499D01*
X0063914Y0021601D01*
X0064037Y0021701D01*
X0064163Y0021797D01*
X0064291Y0021890D01*
X0064421Y0021980D01*
X0064554Y0022066D01*
X0064689Y0022150D01*
X0064825Y0022229D01*
X0064964Y0022306D01*
X0065105Y0022378D01*
X0065247Y0022448D01*
X0065391Y0022513D01*
X0065537Y0022575D01*
X0065684Y0022633D01*
X0065833Y0022688D01*
X0065983Y0022739D01*
X0066134Y0022786D01*
X0066286Y0022829D01*
X0066439Y0022868D01*
X0066594Y0022904D01*
X0066749Y0022935D01*
X0066905Y0022963D01*
X0067061Y0022987D01*
X0067218Y0023007D01*
X0067376Y0023023D01*
X0067533Y0023035D01*
X0067692Y0023043D01*
X0067850Y0023047D01*
X0068008Y0023047D01*
X0068166Y0023043D01*
X0068325Y0023035D01*
X0068482Y0023023D01*
X0068640Y0023007D01*
X0068797Y0022987D01*
X0068953Y0022963D01*
X0069109Y0022935D01*
X0069264Y0022904D01*
X0069419Y0022868D01*
X0069572Y0022829D01*
X0069724Y0022786D01*
X0069875Y0022739D01*
X0070025Y0022688D01*
X0070174Y0022633D01*
X0070321Y0022575D01*
X0070467Y0022513D01*
X0070611Y0022448D01*
X0070753Y0022378D01*
X0070894Y0022306D01*
X0071033Y0022229D01*
X0071169Y0022150D01*
X0071304Y0022066D01*
X0071437Y0021980D01*
X0071567Y0021890D01*
X0071695Y0021797D01*
X0071821Y0021701D01*
X0071944Y0021601D01*
X0072065Y0021499D01*
X0072183Y0021394D01*
X0072298Y0021285D01*
X0072411Y0021174D01*
X0072521Y0021060D01*
X0072628Y0020943D01*
X0072732Y0020824D01*
X0072833Y0020702D01*
X0072930Y0020577D01*
X0073025Y0020450D01*
X0073116Y0020321D01*
X0073205Y0020190D01*
X0073289Y0020056D01*
X0073371Y0019920D01*
X0073449Y0019783D01*
X0073523Y0019643D01*
X0073594Y0019501D01*
X0073662Y0019358D01*
X0073726Y0019213D01*
X0073786Y0019067D01*
X0073842Y0018919D01*
X0073895Y0018770D01*
X0073944Y0018619D01*
X0073989Y0018467D01*
X0074030Y0018314D01*
X0074068Y0018161D01*
X0074101Y0018006D01*
X0074131Y0017850D01*
X0074157Y0017694D01*
X0074178Y0017537D01*
X0074196Y0017380D01*
X0074210Y0017222D01*
X0074220Y0017064D01*
X0074226Y0016906D01*
X0074228Y0016748D01*
X0074226Y0016590D01*
X0074220Y0016432D01*
X0074210Y0016274D01*
X0074196Y0016116D01*
X0074178Y0015959D01*
X0074157Y0015802D01*
X0074131Y0015646D01*
X0074101Y0015490D01*
X0074068Y0015335D01*
X0074030Y0015182D01*
X0073989Y0015029D01*
X0073944Y0014877D01*
X0073895Y0014726D01*
X0073842Y0014577D01*
X0073786Y0014429D01*
X0073726Y0014283D01*
X0073662Y0014138D01*
X0073594Y0013995D01*
X0073523Y0013853D01*
X0073449Y0013713D01*
X0073371Y0013576D01*
X0073289Y0013440D01*
X0073205Y0013306D01*
X0073116Y0013175D01*
X0073025Y0013046D01*
X0072930Y0012919D01*
X0072833Y0012794D01*
X0072732Y0012672D01*
X0072628Y0012553D01*
X0072521Y0012436D01*
X0072411Y0012322D01*
X0072298Y0012211D01*
X0072183Y0012102D01*
X0072065Y0011997D01*
X0071944Y0011895D01*
X0071821Y0011795D01*
X0071695Y0011699D01*
X0071567Y0011606D01*
X0071437Y0011516D01*
X0071304Y0011430D01*
X0071169Y0011346D01*
X0071033Y0011267D01*
X0070894Y0011190D01*
X0070753Y0011118D01*
X0070611Y0011048D01*
X0070467Y0010983D01*
X0070321Y0010921D01*
X0070174Y0010863D01*
X0070025Y0010808D01*
X0069875Y0010757D01*
X0069724Y0010710D01*
X0069572Y0010667D01*
X0069419Y0010628D01*
X0069264Y0010592D01*
X0069109Y0010561D01*
X0068953Y0010533D01*
X0068797Y0010509D01*
X0068640Y0010489D01*
X0068482Y0010473D01*
X0068325Y0010461D01*
X0068166Y0010453D01*
X0068008Y0010449D01*
X0067850Y0010449D01*
X0067692Y0010453D01*
X0067533Y0010461D01*
X0067376Y0010473D01*
X0067218Y0010489D01*
X0067061Y0010509D01*
X0066905Y0010533D01*
X0066749Y0010561D01*
X0066594Y0010592D01*
X0066439Y0010628D01*
X0066286Y0010667D01*
X0066134Y0010710D01*
X0065983Y0010757D01*
X0065833Y0010808D01*
X0065684Y0010863D01*
X0065537Y0010921D01*
X0065391Y0010983D01*
X0065247Y0011048D01*
X0065105Y0011118D01*
X0064964Y0011190D01*
X0064825Y0011267D01*
X0064689Y0011346D01*
X0064554Y0011430D01*
X0064421Y0011516D01*
X0064291Y0011606D01*
X0064163Y0011699D01*
X0064037Y0011795D01*
X0063914Y0011895D01*
X0063793Y0011997D01*
X0063675Y0012102D01*
X0063560Y0012211D01*
X0063447Y0012322D01*
X0063337Y0012436D01*
X0063230Y0012553D01*
X0063126Y0012672D01*
X0063025Y0012794D01*
X0062928Y0012919D01*
X0062833Y0013046D01*
X0062742Y0013175D01*
X0062653Y0013306D01*
X0062569Y0013440D01*
X0062487Y0013576D01*
X0062409Y0013713D01*
X0062335Y0013853D01*
X0062264Y0013995D01*
X0062196Y0014138D01*
X0062132Y0014283D01*
X0062072Y0014429D01*
X0062016Y0014577D01*
X0061963Y0014726D01*
X0061914Y0014877D01*
X0061869Y0015029D01*
X0061828Y0015182D01*
X0061790Y0015335D01*
X0061757Y0015490D01*
X0061727Y0015646D01*
X0061701Y0015802D01*
X0061680Y0015959D01*
X0061662Y0016116D01*
X0061648Y0016274D01*
X0061638Y0016432D01*
X0061632Y0016590D01*
X0061630Y0016748D01*
D11*
X0055370Y0014248D02*
X0052870Y0011748D01*
X0047870Y0011748D01*
X0045370Y0014248D01*
X0042870Y0011748D01*
X0037870Y0011748D01*
X0035370Y0014248D01*
X0032870Y0011748D01*
X0027870Y0011748D01*
X0025370Y0014248D01*
X0025370Y0019248D01*
X0027870Y0021748D01*
X0032870Y0021748D01*
X0035370Y0019248D01*
X0037870Y0021748D01*
X0042870Y0021748D01*
X0045370Y0019248D01*
X0047870Y0021748D01*
X0052870Y0021748D01*
X0055370Y0019248D01*
X0055370Y0014248D01*
D12*
X0052817Y0009302D02*
X0052817Y0004798D01*
X0051316Y0004798D02*
X0054319Y0004798D01*
X0051316Y0007801D02*
X0052817Y0009302D01*
X0049715Y0008551D02*
X0049715Y0007050D01*
X0048964Y0006299D01*
X0046712Y0006299D01*
X0046712Y0004798D02*
X0046712Y0009302D01*
X0048964Y0009302D01*
X0049715Y0008551D01*
X0045111Y0009302D02*
X0043610Y0009302D01*
X0044360Y0009302D02*
X0044360Y0005549D01*
X0043610Y0004798D01*
X0042859Y0004798D01*
X0042108Y0005549D01*
X0037614Y0126984D02*
X0037616Y0127089D01*
X0037622Y0127194D01*
X0037632Y0127298D01*
X0037646Y0127402D01*
X0037664Y0127506D01*
X0037686Y0127608D01*
X0037711Y0127710D01*
X0037741Y0127811D01*
X0037774Y0127910D01*
X0037811Y0128008D01*
X0037852Y0128105D01*
X0037897Y0128200D01*
X0037945Y0128293D01*
X0037996Y0128385D01*
X0038052Y0128474D01*
X0038110Y0128561D01*
X0038172Y0128646D01*
X0038236Y0128729D01*
X0038304Y0128809D01*
X0038375Y0128886D01*
X0038449Y0128960D01*
X0038526Y0129032D01*
X0038605Y0129101D01*
X0038687Y0129166D01*
X0038771Y0129229D01*
X0038858Y0129288D01*
X0038947Y0129344D01*
X0039038Y0129397D01*
X0039131Y0129446D01*
X0039225Y0129491D01*
X0039321Y0129533D01*
X0039419Y0129571D01*
X0039518Y0129605D01*
X0039619Y0129636D01*
X0039720Y0129662D01*
X0039823Y0129685D01*
X0039926Y0129704D01*
X0040030Y0129719D01*
X0040134Y0129730D01*
X0040239Y0129737D01*
X0040344Y0129740D01*
X0040449Y0129739D01*
X0040554Y0129734D01*
X0040658Y0129725D01*
X0040762Y0129712D01*
X0040866Y0129695D01*
X0040969Y0129674D01*
X0041071Y0129649D01*
X0041172Y0129621D01*
X0041271Y0129588D01*
X0041370Y0129552D01*
X0041467Y0129512D01*
X0041562Y0129469D01*
X0041656Y0129421D01*
X0041748Y0129371D01*
X0041838Y0129317D01*
X0041926Y0129259D01*
X0042011Y0129198D01*
X0042094Y0129134D01*
X0042175Y0129067D01*
X0042253Y0128997D01*
X0042328Y0128923D01*
X0042400Y0128848D01*
X0042470Y0128769D01*
X0042536Y0128688D01*
X0042600Y0128604D01*
X0042660Y0128518D01*
X0042716Y0128430D01*
X0042770Y0128339D01*
X0042820Y0128247D01*
X0042866Y0128153D01*
X0042909Y0128057D01*
X0042948Y0127959D01*
X0042983Y0127861D01*
X0043014Y0127760D01*
X0043042Y0127659D01*
X0043066Y0127557D01*
X0043086Y0127454D01*
X0043102Y0127350D01*
X0043114Y0127246D01*
X0043122Y0127141D01*
X0043126Y0127036D01*
X0043126Y0126932D01*
X0043122Y0126827D01*
X0043114Y0126722D01*
X0043102Y0126618D01*
X0043086Y0126514D01*
X0043066Y0126411D01*
X0043042Y0126309D01*
X0043014Y0126208D01*
X0042983Y0126107D01*
X0042948Y0126009D01*
X0042909Y0125911D01*
X0042866Y0125815D01*
X0042820Y0125721D01*
X0042770Y0125629D01*
X0042716Y0125538D01*
X0042660Y0125450D01*
X0042600Y0125364D01*
X0042536Y0125280D01*
X0042470Y0125199D01*
X0042400Y0125120D01*
X0042328Y0125045D01*
X0042253Y0124971D01*
X0042175Y0124901D01*
X0042094Y0124834D01*
X0042011Y0124770D01*
X0041926Y0124709D01*
X0041838Y0124651D01*
X0041748Y0124597D01*
X0041656Y0124547D01*
X0041562Y0124499D01*
X0041467Y0124456D01*
X0041370Y0124416D01*
X0041271Y0124380D01*
X0041172Y0124347D01*
X0041071Y0124319D01*
X0040969Y0124294D01*
X0040866Y0124273D01*
X0040762Y0124256D01*
X0040658Y0124243D01*
X0040554Y0124234D01*
X0040449Y0124229D01*
X0040344Y0124228D01*
X0040239Y0124231D01*
X0040134Y0124238D01*
X0040030Y0124249D01*
X0039926Y0124264D01*
X0039823Y0124283D01*
X0039720Y0124306D01*
X0039619Y0124332D01*
X0039518Y0124363D01*
X0039419Y0124397D01*
X0039321Y0124435D01*
X0039225Y0124477D01*
X0039131Y0124522D01*
X0039038Y0124571D01*
X0038947Y0124624D01*
X0038858Y0124680D01*
X0038771Y0124739D01*
X0038687Y0124802D01*
X0038605Y0124867D01*
X0038526Y0124936D01*
X0038449Y0125008D01*
X0038375Y0125082D01*
X0038304Y0125159D01*
X0038236Y0125239D01*
X0038172Y0125322D01*
X0038110Y0125407D01*
X0038052Y0125494D01*
X0037996Y0125583D01*
X0037945Y0125675D01*
X0037897Y0125768D01*
X0037852Y0125863D01*
X0037811Y0125960D01*
X0037774Y0126058D01*
X0037741Y0126157D01*
X0037711Y0126258D01*
X0037686Y0126360D01*
X0037664Y0126462D01*
X0037646Y0126566D01*
X0037632Y0126670D01*
X0037622Y0126774D01*
X0037616Y0126879D01*
X0037614Y0126984D01*
D13*
X0039386Y0126984D02*
X0039388Y0127046D01*
X0039394Y0127109D01*
X0039404Y0127170D01*
X0039418Y0127231D01*
X0039435Y0127291D01*
X0039456Y0127350D01*
X0039482Y0127407D01*
X0039510Y0127462D01*
X0039542Y0127516D01*
X0039578Y0127567D01*
X0039616Y0127617D01*
X0039658Y0127663D01*
X0039702Y0127707D01*
X0039750Y0127748D01*
X0039799Y0127786D01*
X0039851Y0127820D01*
X0039905Y0127851D01*
X0039961Y0127879D01*
X0040019Y0127903D01*
X0040078Y0127924D01*
X0040138Y0127940D01*
X0040199Y0127953D01*
X0040261Y0127962D01*
X0040323Y0127967D01*
X0040386Y0127968D01*
X0040448Y0127965D01*
X0040510Y0127958D01*
X0040572Y0127947D01*
X0040632Y0127932D01*
X0040692Y0127914D01*
X0040750Y0127892D01*
X0040807Y0127866D01*
X0040862Y0127836D01*
X0040915Y0127803D01*
X0040966Y0127767D01*
X0041014Y0127728D01*
X0041060Y0127685D01*
X0041103Y0127640D01*
X0041143Y0127592D01*
X0041180Y0127542D01*
X0041214Y0127489D01*
X0041245Y0127435D01*
X0041271Y0127379D01*
X0041295Y0127321D01*
X0041314Y0127261D01*
X0041330Y0127201D01*
X0041342Y0127139D01*
X0041350Y0127078D01*
X0041354Y0127015D01*
X0041354Y0126953D01*
X0041350Y0126890D01*
X0041342Y0126829D01*
X0041330Y0126767D01*
X0041314Y0126707D01*
X0041295Y0126647D01*
X0041271Y0126589D01*
X0041245Y0126533D01*
X0041214Y0126479D01*
X0041180Y0126426D01*
X0041143Y0126376D01*
X0041103Y0126328D01*
X0041060Y0126283D01*
X0041014Y0126240D01*
X0040966Y0126201D01*
X0040915Y0126165D01*
X0040862Y0126132D01*
X0040807Y0126102D01*
X0040750Y0126076D01*
X0040692Y0126054D01*
X0040632Y0126036D01*
X0040572Y0126021D01*
X0040510Y0126010D01*
X0040448Y0126003D01*
X0040386Y0126000D01*
X0040323Y0126001D01*
X0040261Y0126006D01*
X0040199Y0126015D01*
X0040138Y0126028D01*
X0040078Y0126044D01*
X0040019Y0126065D01*
X0039961Y0126089D01*
X0039905Y0126117D01*
X0039851Y0126148D01*
X0039799Y0126182D01*
X0039750Y0126220D01*
X0039702Y0126261D01*
X0039658Y0126305D01*
X0039616Y0126351D01*
X0039578Y0126401D01*
X0039542Y0126452D01*
X0039510Y0126506D01*
X0039482Y0126561D01*
X0039456Y0126618D01*
X0039435Y0126677D01*
X0039418Y0126737D01*
X0039404Y0126798D01*
X0039394Y0126859D01*
X0039388Y0126922D01*
X0039386Y0126984D01*
D14*
X0031709Y0134071D02*
X0031709Y0115961D01*
X0049031Y0115961D01*
X0049031Y0134071D01*
X0031709Y0134071D01*
M02*
