%
M48
M72
T01C0.02362
T02C0.03150
T03C0.03200
T04C0.03937
T05C0.04000
T06C0.07874
T07C0.12598
%
T01
X131036Y153532
X150721Y153532
X166469Y153532
X186154Y153532
X253083Y133847
X335761Y125973
X339698Y118099
X335761Y110225
X350524Y101367
X359383Y101367
X359383Y138769
X355446Y157469
X359383Y165343
X355446Y173217
X339698Y173217
X335761Y165343
X339698Y157469
X104461Y219477
X98556Y219477
X92650Y219477
X71981Y173217
T02
X358398Y67902
T03
X75789Y184509
X75789Y224509
T04
X110209Y59044
X130209Y59044
X120209Y79044
X190170Y37548
X200170Y37548
X210170Y37548
X220170Y37548
X230170Y37548
X240170Y37548
X260170Y37548
X270170Y37548
X280170Y37548
X290170Y37548
X300170Y37548
X310170Y37548
X349540Y90540
X339698Y90540
X329855Y90540
X310170Y227548
X300170Y227548
X290170Y227548
X280170Y227548
X270170Y227548
X260170Y227548
X250170Y227548
X240170Y227548
X224170Y227548
X214170Y227548
X204170Y227548
X194170Y227548
X184170Y227548
X174170Y227548
X164170Y227548
X154170Y227548
T05
X90603Y114595
X100603Y114595
X100603Y124595
X90603Y124595
X90603Y134595
X100603Y134595
X100603Y144595
X90603Y144595
X90603Y154595
X100603Y154595
X100603Y164595
X90603Y164595
X90603Y174595
X100603Y174595
X100603Y184595
X90603Y184595
X246189Y74834
X246189Y57034
X271789Y57034
X281622Y57034
X281622Y74834
X271789Y74834
X307222Y74834
X307222Y57034
T06
X322375Y118099
X357020Y118099
T07
X40485Y31485
X40485Y267706
X355446Y267706
X355446Y31485
M30
