G75*
%MOIN*%
%OFA0B0*%
%FSLAX25Y25*%
%IPPOS*%
%LPD*%
%AMOC8*
5,1,8,0,0,1.08239X$1,22.5*
%
%ADD10C,0.00394*%
%ADD11OC8,0.06600*%
%ADD12C,0.00000*%
%ADD13C,0.07400*%
%ADD14C,0.02953*%
%ADD15R,0.11811X0.05906*%
%ADD16R,0.07400X0.07400*%
%ADD17OC8,0.11811*%
%ADD18C,0.01600*%
%ADD19C,0.03562*%
%ADD20C,0.01181*%
%ADD21C,0.01969*%
%ADD22C,0.03346*%
%ADD23C,0.03150*%
%ADD24C,0.03937*%
%ADD25C,0.04724*%
%ADD26C,0.01575*%
D10*
X0020800Y0011800D02*
X0020800Y0287391D01*
X0375131Y0287391D01*
X0375131Y0011800D01*
X0020800Y0011800D01*
D11*
X0090603Y0114595D03*
X0100603Y0114595D03*
X0100603Y0124595D03*
X0090603Y0124595D03*
X0090603Y0134595D03*
X0100603Y0134595D03*
X0100603Y0144595D03*
X0090603Y0144595D03*
X0090603Y0154595D03*
X0100603Y0154595D03*
X0100603Y0164595D03*
X0090603Y0164595D03*
X0090603Y0174595D03*
X0100603Y0174595D03*
X0100603Y0184595D03*
X0090603Y0184595D03*
X0075789Y0184509D03*
X0075789Y0224509D03*
X0154170Y0227548D03*
X0164170Y0227548D03*
X0174170Y0227548D03*
X0184170Y0227548D03*
X0194170Y0227548D03*
X0204170Y0227548D03*
X0214170Y0227548D03*
X0224170Y0227548D03*
X0240170Y0227548D03*
X0250170Y0227548D03*
X0260170Y0227548D03*
X0270170Y0227548D03*
X0280170Y0227548D03*
X0290170Y0227548D03*
X0300170Y0227548D03*
X0310170Y0227548D03*
X0310170Y0037548D03*
X0300170Y0037548D03*
X0290170Y0037548D03*
X0280170Y0037548D03*
X0270170Y0037548D03*
X0260170Y0037548D03*
X0240170Y0037548D03*
X0230170Y0037548D03*
X0220170Y0037548D03*
X0210170Y0037548D03*
X0200170Y0037548D03*
X0190170Y0037548D03*
D12*
X0034186Y0031485D02*
X0034188Y0031643D01*
X0034194Y0031801D01*
X0034204Y0031959D01*
X0034218Y0032117D01*
X0034236Y0032274D01*
X0034257Y0032431D01*
X0034283Y0032587D01*
X0034313Y0032743D01*
X0034346Y0032898D01*
X0034384Y0033051D01*
X0034425Y0033204D01*
X0034470Y0033356D01*
X0034519Y0033507D01*
X0034572Y0033656D01*
X0034628Y0033804D01*
X0034688Y0033950D01*
X0034752Y0034095D01*
X0034820Y0034238D01*
X0034891Y0034380D01*
X0034965Y0034520D01*
X0035043Y0034657D01*
X0035125Y0034793D01*
X0035209Y0034927D01*
X0035298Y0035058D01*
X0035389Y0035187D01*
X0035484Y0035314D01*
X0035581Y0035439D01*
X0035682Y0035561D01*
X0035786Y0035680D01*
X0035893Y0035797D01*
X0036003Y0035911D01*
X0036116Y0036022D01*
X0036231Y0036131D01*
X0036349Y0036236D01*
X0036470Y0036338D01*
X0036593Y0036438D01*
X0036719Y0036534D01*
X0036847Y0036627D01*
X0036977Y0036717D01*
X0037110Y0036803D01*
X0037245Y0036887D01*
X0037381Y0036966D01*
X0037520Y0037043D01*
X0037661Y0037115D01*
X0037803Y0037185D01*
X0037947Y0037250D01*
X0038093Y0037312D01*
X0038240Y0037370D01*
X0038389Y0037425D01*
X0038539Y0037476D01*
X0038690Y0037523D01*
X0038842Y0037566D01*
X0038995Y0037605D01*
X0039150Y0037641D01*
X0039305Y0037672D01*
X0039461Y0037700D01*
X0039617Y0037724D01*
X0039774Y0037744D01*
X0039932Y0037760D01*
X0040089Y0037772D01*
X0040248Y0037780D01*
X0040406Y0037784D01*
X0040564Y0037784D01*
X0040722Y0037780D01*
X0040881Y0037772D01*
X0041038Y0037760D01*
X0041196Y0037744D01*
X0041353Y0037724D01*
X0041509Y0037700D01*
X0041665Y0037672D01*
X0041820Y0037641D01*
X0041975Y0037605D01*
X0042128Y0037566D01*
X0042280Y0037523D01*
X0042431Y0037476D01*
X0042581Y0037425D01*
X0042730Y0037370D01*
X0042877Y0037312D01*
X0043023Y0037250D01*
X0043167Y0037185D01*
X0043309Y0037115D01*
X0043450Y0037043D01*
X0043589Y0036966D01*
X0043725Y0036887D01*
X0043860Y0036803D01*
X0043993Y0036717D01*
X0044123Y0036627D01*
X0044251Y0036534D01*
X0044377Y0036438D01*
X0044500Y0036338D01*
X0044621Y0036236D01*
X0044739Y0036131D01*
X0044854Y0036022D01*
X0044967Y0035911D01*
X0045077Y0035797D01*
X0045184Y0035680D01*
X0045288Y0035561D01*
X0045389Y0035439D01*
X0045486Y0035314D01*
X0045581Y0035187D01*
X0045672Y0035058D01*
X0045761Y0034927D01*
X0045845Y0034793D01*
X0045927Y0034657D01*
X0046005Y0034520D01*
X0046079Y0034380D01*
X0046150Y0034238D01*
X0046218Y0034095D01*
X0046282Y0033950D01*
X0046342Y0033804D01*
X0046398Y0033656D01*
X0046451Y0033507D01*
X0046500Y0033356D01*
X0046545Y0033204D01*
X0046586Y0033051D01*
X0046624Y0032898D01*
X0046657Y0032743D01*
X0046687Y0032587D01*
X0046713Y0032431D01*
X0046734Y0032274D01*
X0046752Y0032117D01*
X0046766Y0031959D01*
X0046776Y0031801D01*
X0046782Y0031643D01*
X0046784Y0031485D01*
X0046782Y0031327D01*
X0046776Y0031169D01*
X0046766Y0031011D01*
X0046752Y0030853D01*
X0046734Y0030696D01*
X0046713Y0030539D01*
X0046687Y0030383D01*
X0046657Y0030227D01*
X0046624Y0030072D01*
X0046586Y0029919D01*
X0046545Y0029766D01*
X0046500Y0029614D01*
X0046451Y0029463D01*
X0046398Y0029314D01*
X0046342Y0029166D01*
X0046282Y0029020D01*
X0046218Y0028875D01*
X0046150Y0028732D01*
X0046079Y0028590D01*
X0046005Y0028450D01*
X0045927Y0028313D01*
X0045845Y0028177D01*
X0045761Y0028043D01*
X0045672Y0027912D01*
X0045581Y0027783D01*
X0045486Y0027656D01*
X0045389Y0027531D01*
X0045288Y0027409D01*
X0045184Y0027290D01*
X0045077Y0027173D01*
X0044967Y0027059D01*
X0044854Y0026948D01*
X0044739Y0026839D01*
X0044621Y0026734D01*
X0044500Y0026632D01*
X0044377Y0026532D01*
X0044251Y0026436D01*
X0044123Y0026343D01*
X0043993Y0026253D01*
X0043860Y0026167D01*
X0043725Y0026083D01*
X0043589Y0026004D01*
X0043450Y0025927D01*
X0043309Y0025855D01*
X0043167Y0025785D01*
X0043023Y0025720D01*
X0042877Y0025658D01*
X0042730Y0025600D01*
X0042581Y0025545D01*
X0042431Y0025494D01*
X0042280Y0025447D01*
X0042128Y0025404D01*
X0041975Y0025365D01*
X0041820Y0025329D01*
X0041665Y0025298D01*
X0041509Y0025270D01*
X0041353Y0025246D01*
X0041196Y0025226D01*
X0041038Y0025210D01*
X0040881Y0025198D01*
X0040722Y0025190D01*
X0040564Y0025186D01*
X0040406Y0025186D01*
X0040248Y0025190D01*
X0040089Y0025198D01*
X0039932Y0025210D01*
X0039774Y0025226D01*
X0039617Y0025246D01*
X0039461Y0025270D01*
X0039305Y0025298D01*
X0039150Y0025329D01*
X0038995Y0025365D01*
X0038842Y0025404D01*
X0038690Y0025447D01*
X0038539Y0025494D01*
X0038389Y0025545D01*
X0038240Y0025600D01*
X0038093Y0025658D01*
X0037947Y0025720D01*
X0037803Y0025785D01*
X0037661Y0025855D01*
X0037520Y0025927D01*
X0037381Y0026004D01*
X0037245Y0026083D01*
X0037110Y0026167D01*
X0036977Y0026253D01*
X0036847Y0026343D01*
X0036719Y0026436D01*
X0036593Y0026532D01*
X0036470Y0026632D01*
X0036349Y0026734D01*
X0036231Y0026839D01*
X0036116Y0026948D01*
X0036003Y0027059D01*
X0035893Y0027173D01*
X0035786Y0027290D01*
X0035682Y0027409D01*
X0035581Y0027531D01*
X0035484Y0027656D01*
X0035389Y0027783D01*
X0035298Y0027912D01*
X0035209Y0028043D01*
X0035125Y0028177D01*
X0035043Y0028313D01*
X0034965Y0028450D01*
X0034891Y0028590D01*
X0034820Y0028732D01*
X0034752Y0028875D01*
X0034688Y0029020D01*
X0034628Y0029166D01*
X0034572Y0029314D01*
X0034519Y0029463D01*
X0034470Y0029614D01*
X0034425Y0029766D01*
X0034384Y0029919D01*
X0034346Y0030072D01*
X0034313Y0030227D01*
X0034283Y0030383D01*
X0034257Y0030539D01*
X0034236Y0030696D01*
X0034218Y0030853D01*
X0034204Y0031011D01*
X0034194Y0031169D01*
X0034188Y0031327D01*
X0034186Y0031485D01*
X0034186Y0267706D02*
X0034188Y0267864D01*
X0034194Y0268022D01*
X0034204Y0268180D01*
X0034218Y0268338D01*
X0034236Y0268495D01*
X0034257Y0268652D01*
X0034283Y0268808D01*
X0034313Y0268964D01*
X0034346Y0269119D01*
X0034384Y0269272D01*
X0034425Y0269425D01*
X0034470Y0269577D01*
X0034519Y0269728D01*
X0034572Y0269877D01*
X0034628Y0270025D01*
X0034688Y0270171D01*
X0034752Y0270316D01*
X0034820Y0270459D01*
X0034891Y0270601D01*
X0034965Y0270741D01*
X0035043Y0270878D01*
X0035125Y0271014D01*
X0035209Y0271148D01*
X0035298Y0271279D01*
X0035389Y0271408D01*
X0035484Y0271535D01*
X0035581Y0271660D01*
X0035682Y0271782D01*
X0035786Y0271901D01*
X0035893Y0272018D01*
X0036003Y0272132D01*
X0036116Y0272243D01*
X0036231Y0272352D01*
X0036349Y0272457D01*
X0036470Y0272559D01*
X0036593Y0272659D01*
X0036719Y0272755D01*
X0036847Y0272848D01*
X0036977Y0272938D01*
X0037110Y0273024D01*
X0037245Y0273108D01*
X0037381Y0273187D01*
X0037520Y0273264D01*
X0037661Y0273336D01*
X0037803Y0273406D01*
X0037947Y0273471D01*
X0038093Y0273533D01*
X0038240Y0273591D01*
X0038389Y0273646D01*
X0038539Y0273697D01*
X0038690Y0273744D01*
X0038842Y0273787D01*
X0038995Y0273826D01*
X0039150Y0273862D01*
X0039305Y0273893D01*
X0039461Y0273921D01*
X0039617Y0273945D01*
X0039774Y0273965D01*
X0039932Y0273981D01*
X0040089Y0273993D01*
X0040248Y0274001D01*
X0040406Y0274005D01*
X0040564Y0274005D01*
X0040722Y0274001D01*
X0040881Y0273993D01*
X0041038Y0273981D01*
X0041196Y0273965D01*
X0041353Y0273945D01*
X0041509Y0273921D01*
X0041665Y0273893D01*
X0041820Y0273862D01*
X0041975Y0273826D01*
X0042128Y0273787D01*
X0042280Y0273744D01*
X0042431Y0273697D01*
X0042581Y0273646D01*
X0042730Y0273591D01*
X0042877Y0273533D01*
X0043023Y0273471D01*
X0043167Y0273406D01*
X0043309Y0273336D01*
X0043450Y0273264D01*
X0043589Y0273187D01*
X0043725Y0273108D01*
X0043860Y0273024D01*
X0043993Y0272938D01*
X0044123Y0272848D01*
X0044251Y0272755D01*
X0044377Y0272659D01*
X0044500Y0272559D01*
X0044621Y0272457D01*
X0044739Y0272352D01*
X0044854Y0272243D01*
X0044967Y0272132D01*
X0045077Y0272018D01*
X0045184Y0271901D01*
X0045288Y0271782D01*
X0045389Y0271660D01*
X0045486Y0271535D01*
X0045581Y0271408D01*
X0045672Y0271279D01*
X0045761Y0271148D01*
X0045845Y0271014D01*
X0045927Y0270878D01*
X0046005Y0270741D01*
X0046079Y0270601D01*
X0046150Y0270459D01*
X0046218Y0270316D01*
X0046282Y0270171D01*
X0046342Y0270025D01*
X0046398Y0269877D01*
X0046451Y0269728D01*
X0046500Y0269577D01*
X0046545Y0269425D01*
X0046586Y0269272D01*
X0046624Y0269119D01*
X0046657Y0268964D01*
X0046687Y0268808D01*
X0046713Y0268652D01*
X0046734Y0268495D01*
X0046752Y0268338D01*
X0046766Y0268180D01*
X0046776Y0268022D01*
X0046782Y0267864D01*
X0046784Y0267706D01*
X0046782Y0267548D01*
X0046776Y0267390D01*
X0046766Y0267232D01*
X0046752Y0267074D01*
X0046734Y0266917D01*
X0046713Y0266760D01*
X0046687Y0266604D01*
X0046657Y0266448D01*
X0046624Y0266293D01*
X0046586Y0266140D01*
X0046545Y0265987D01*
X0046500Y0265835D01*
X0046451Y0265684D01*
X0046398Y0265535D01*
X0046342Y0265387D01*
X0046282Y0265241D01*
X0046218Y0265096D01*
X0046150Y0264953D01*
X0046079Y0264811D01*
X0046005Y0264671D01*
X0045927Y0264534D01*
X0045845Y0264398D01*
X0045761Y0264264D01*
X0045672Y0264133D01*
X0045581Y0264004D01*
X0045486Y0263877D01*
X0045389Y0263752D01*
X0045288Y0263630D01*
X0045184Y0263511D01*
X0045077Y0263394D01*
X0044967Y0263280D01*
X0044854Y0263169D01*
X0044739Y0263060D01*
X0044621Y0262955D01*
X0044500Y0262853D01*
X0044377Y0262753D01*
X0044251Y0262657D01*
X0044123Y0262564D01*
X0043993Y0262474D01*
X0043860Y0262388D01*
X0043725Y0262304D01*
X0043589Y0262225D01*
X0043450Y0262148D01*
X0043309Y0262076D01*
X0043167Y0262006D01*
X0043023Y0261941D01*
X0042877Y0261879D01*
X0042730Y0261821D01*
X0042581Y0261766D01*
X0042431Y0261715D01*
X0042280Y0261668D01*
X0042128Y0261625D01*
X0041975Y0261586D01*
X0041820Y0261550D01*
X0041665Y0261519D01*
X0041509Y0261491D01*
X0041353Y0261467D01*
X0041196Y0261447D01*
X0041038Y0261431D01*
X0040881Y0261419D01*
X0040722Y0261411D01*
X0040564Y0261407D01*
X0040406Y0261407D01*
X0040248Y0261411D01*
X0040089Y0261419D01*
X0039932Y0261431D01*
X0039774Y0261447D01*
X0039617Y0261467D01*
X0039461Y0261491D01*
X0039305Y0261519D01*
X0039150Y0261550D01*
X0038995Y0261586D01*
X0038842Y0261625D01*
X0038690Y0261668D01*
X0038539Y0261715D01*
X0038389Y0261766D01*
X0038240Y0261821D01*
X0038093Y0261879D01*
X0037947Y0261941D01*
X0037803Y0262006D01*
X0037661Y0262076D01*
X0037520Y0262148D01*
X0037381Y0262225D01*
X0037245Y0262304D01*
X0037110Y0262388D01*
X0036977Y0262474D01*
X0036847Y0262564D01*
X0036719Y0262657D01*
X0036593Y0262753D01*
X0036470Y0262853D01*
X0036349Y0262955D01*
X0036231Y0263060D01*
X0036116Y0263169D01*
X0036003Y0263280D01*
X0035893Y0263394D01*
X0035786Y0263511D01*
X0035682Y0263630D01*
X0035581Y0263752D01*
X0035484Y0263877D01*
X0035389Y0264004D01*
X0035298Y0264133D01*
X0035209Y0264264D01*
X0035125Y0264398D01*
X0035043Y0264534D01*
X0034965Y0264671D01*
X0034891Y0264811D01*
X0034820Y0264953D01*
X0034752Y0265096D01*
X0034688Y0265241D01*
X0034628Y0265387D01*
X0034572Y0265535D01*
X0034519Y0265684D01*
X0034470Y0265835D01*
X0034425Y0265987D01*
X0034384Y0266140D01*
X0034346Y0266293D01*
X0034313Y0266448D01*
X0034283Y0266604D01*
X0034257Y0266760D01*
X0034236Y0266917D01*
X0034218Y0267074D01*
X0034204Y0267232D01*
X0034194Y0267390D01*
X0034188Y0267548D01*
X0034186Y0267706D01*
X0349147Y0267706D02*
X0349149Y0267864D01*
X0349155Y0268022D01*
X0349165Y0268180D01*
X0349179Y0268338D01*
X0349197Y0268495D01*
X0349218Y0268652D01*
X0349244Y0268808D01*
X0349274Y0268964D01*
X0349307Y0269119D01*
X0349345Y0269272D01*
X0349386Y0269425D01*
X0349431Y0269577D01*
X0349480Y0269728D01*
X0349533Y0269877D01*
X0349589Y0270025D01*
X0349649Y0270171D01*
X0349713Y0270316D01*
X0349781Y0270459D01*
X0349852Y0270601D01*
X0349926Y0270741D01*
X0350004Y0270878D01*
X0350086Y0271014D01*
X0350170Y0271148D01*
X0350259Y0271279D01*
X0350350Y0271408D01*
X0350445Y0271535D01*
X0350542Y0271660D01*
X0350643Y0271782D01*
X0350747Y0271901D01*
X0350854Y0272018D01*
X0350964Y0272132D01*
X0351077Y0272243D01*
X0351192Y0272352D01*
X0351310Y0272457D01*
X0351431Y0272559D01*
X0351554Y0272659D01*
X0351680Y0272755D01*
X0351808Y0272848D01*
X0351938Y0272938D01*
X0352071Y0273024D01*
X0352206Y0273108D01*
X0352342Y0273187D01*
X0352481Y0273264D01*
X0352622Y0273336D01*
X0352764Y0273406D01*
X0352908Y0273471D01*
X0353054Y0273533D01*
X0353201Y0273591D01*
X0353350Y0273646D01*
X0353500Y0273697D01*
X0353651Y0273744D01*
X0353803Y0273787D01*
X0353956Y0273826D01*
X0354111Y0273862D01*
X0354266Y0273893D01*
X0354422Y0273921D01*
X0354578Y0273945D01*
X0354735Y0273965D01*
X0354893Y0273981D01*
X0355050Y0273993D01*
X0355209Y0274001D01*
X0355367Y0274005D01*
X0355525Y0274005D01*
X0355683Y0274001D01*
X0355842Y0273993D01*
X0355999Y0273981D01*
X0356157Y0273965D01*
X0356314Y0273945D01*
X0356470Y0273921D01*
X0356626Y0273893D01*
X0356781Y0273862D01*
X0356936Y0273826D01*
X0357089Y0273787D01*
X0357241Y0273744D01*
X0357392Y0273697D01*
X0357542Y0273646D01*
X0357691Y0273591D01*
X0357838Y0273533D01*
X0357984Y0273471D01*
X0358128Y0273406D01*
X0358270Y0273336D01*
X0358411Y0273264D01*
X0358550Y0273187D01*
X0358686Y0273108D01*
X0358821Y0273024D01*
X0358954Y0272938D01*
X0359084Y0272848D01*
X0359212Y0272755D01*
X0359338Y0272659D01*
X0359461Y0272559D01*
X0359582Y0272457D01*
X0359700Y0272352D01*
X0359815Y0272243D01*
X0359928Y0272132D01*
X0360038Y0272018D01*
X0360145Y0271901D01*
X0360249Y0271782D01*
X0360350Y0271660D01*
X0360447Y0271535D01*
X0360542Y0271408D01*
X0360633Y0271279D01*
X0360722Y0271148D01*
X0360806Y0271014D01*
X0360888Y0270878D01*
X0360966Y0270741D01*
X0361040Y0270601D01*
X0361111Y0270459D01*
X0361179Y0270316D01*
X0361243Y0270171D01*
X0361303Y0270025D01*
X0361359Y0269877D01*
X0361412Y0269728D01*
X0361461Y0269577D01*
X0361506Y0269425D01*
X0361547Y0269272D01*
X0361585Y0269119D01*
X0361618Y0268964D01*
X0361648Y0268808D01*
X0361674Y0268652D01*
X0361695Y0268495D01*
X0361713Y0268338D01*
X0361727Y0268180D01*
X0361737Y0268022D01*
X0361743Y0267864D01*
X0361745Y0267706D01*
X0361743Y0267548D01*
X0361737Y0267390D01*
X0361727Y0267232D01*
X0361713Y0267074D01*
X0361695Y0266917D01*
X0361674Y0266760D01*
X0361648Y0266604D01*
X0361618Y0266448D01*
X0361585Y0266293D01*
X0361547Y0266140D01*
X0361506Y0265987D01*
X0361461Y0265835D01*
X0361412Y0265684D01*
X0361359Y0265535D01*
X0361303Y0265387D01*
X0361243Y0265241D01*
X0361179Y0265096D01*
X0361111Y0264953D01*
X0361040Y0264811D01*
X0360966Y0264671D01*
X0360888Y0264534D01*
X0360806Y0264398D01*
X0360722Y0264264D01*
X0360633Y0264133D01*
X0360542Y0264004D01*
X0360447Y0263877D01*
X0360350Y0263752D01*
X0360249Y0263630D01*
X0360145Y0263511D01*
X0360038Y0263394D01*
X0359928Y0263280D01*
X0359815Y0263169D01*
X0359700Y0263060D01*
X0359582Y0262955D01*
X0359461Y0262853D01*
X0359338Y0262753D01*
X0359212Y0262657D01*
X0359084Y0262564D01*
X0358954Y0262474D01*
X0358821Y0262388D01*
X0358686Y0262304D01*
X0358550Y0262225D01*
X0358411Y0262148D01*
X0358270Y0262076D01*
X0358128Y0262006D01*
X0357984Y0261941D01*
X0357838Y0261879D01*
X0357691Y0261821D01*
X0357542Y0261766D01*
X0357392Y0261715D01*
X0357241Y0261668D01*
X0357089Y0261625D01*
X0356936Y0261586D01*
X0356781Y0261550D01*
X0356626Y0261519D01*
X0356470Y0261491D01*
X0356314Y0261467D01*
X0356157Y0261447D01*
X0355999Y0261431D01*
X0355842Y0261419D01*
X0355683Y0261411D01*
X0355525Y0261407D01*
X0355367Y0261407D01*
X0355209Y0261411D01*
X0355050Y0261419D01*
X0354893Y0261431D01*
X0354735Y0261447D01*
X0354578Y0261467D01*
X0354422Y0261491D01*
X0354266Y0261519D01*
X0354111Y0261550D01*
X0353956Y0261586D01*
X0353803Y0261625D01*
X0353651Y0261668D01*
X0353500Y0261715D01*
X0353350Y0261766D01*
X0353201Y0261821D01*
X0353054Y0261879D01*
X0352908Y0261941D01*
X0352764Y0262006D01*
X0352622Y0262076D01*
X0352481Y0262148D01*
X0352342Y0262225D01*
X0352206Y0262304D01*
X0352071Y0262388D01*
X0351938Y0262474D01*
X0351808Y0262564D01*
X0351680Y0262657D01*
X0351554Y0262753D01*
X0351431Y0262853D01*
X0351310Y0262955D01*
X0351192Y0263060D01*
X0351077Y0263169D01*
X0350964Y0263280D01*
X0350854Y0263394D01*
X0350747Y0263511D01*
X0350643Y0263630D01*
X0350542Y0263752D01*
X0350445Y0263877D01*
X0350350Y0264004D01*
X0350259Y0264133D01*
X0350170Y0264264D01*
X0350086Y0264398D01*
X0350004Y0264534D01*
X0349926Y0264671D01*
X0349852Y0264811D01*
X0349781Y0264953D01*
X0349713Y0265096D01*
X0349649Y0265241D01*
X0349589Y0265387D01*
X0349533Y0265535D01*
X0349480Y0265684D01*
X0349431Y0265835D01*
X0349386Y0265987D01*
X0349345Y0266140D01*
X0349307Y0266293D01*
X0349274Y0266448D01*
X0349244Y0266604D01*
X0349218Y0266760D01*
X0349197Y0266917D01*
X0349179Y0267074D01*
X0349165Y0267232D01*
X0349155Y0267390D01*
X0349149Y0267548D01*
X0349147Y0267706D01*
X0349147Y0031485D02*
X0349149Y0031643D01*
X0349155Y0031801D01*
X0349165Y0031959D01*
X0349179Y0032117D01*
X0349197Y0032274D01*
X0349218Y0032431D01*
X0349244Y0032587D01*
X0349274Y0032743D01*
X0349307Y0032898D01*
X0349345Y0033051D01*
X0349386Y0033204D01*
X0349431Y0033356D01*
X0349480Y0033507D01*
X0349533Y0033656D01*
X0349589Y0033804D01*
X0349649Y0033950D01*
X0349713Y0034095D01*
X0349781Y0034238D01*
X0349852Y0034380D01*
X0349926Y0034520D01*
X0350004Y0034657D01*
X0350086Y0034793D01*
X0350170Y0034927D01*
X0350259Y0035058D01*
X0350350Y0035187D01*
X0350445Y0035314D01*
X0350542Y0035439D01*
X0350643Y0035561D01*
X0350747Y0035680D01*
X0350854Y0035797D01*
X0350964Y0035911D01*
X0351077Y0036022D01*
X0351192Y0036131D01*
X0351310Y0036236D01*
X0351431Y0036338D01*
X0351554Y0036438D01*
X0351680Y0036534D01*
X0351808Y0036627D01*
X0351938Y0036717D01*
X0352071Y0036803D01*
X0352206Y0036887D01*
X0352342Y0036966D01*
X0352481Y0037043D01*
X0352622Y0037115D01*
X0352764Y0037185D01*
X0352908Y0037250D01*
X0353054Y0037312D01*
X0353201Y0037370D01*
X0353350Y0037425D01*
X0353500Y0037476D01*
X0353651Y0037523D01*
X0353803Y0037566D01*
X0353956Y0037605D01*
X0354111Y0037641D01*
X0354266Y0037672D01*
X0354422Y0037700D01*
X0354578Y0037724D01*
X0354735Y0037744D01*
X0354893Y0037760D01*
X0355050Y0037772D01*
X0355209Y0037780D01*
X0355367Y0037784D01*
X0355525Y0037784D01*
X0355683Y0037780D01*
X0355842Y0037772D01*
X0355999Y0037760D01*
X0356157Y0037744D01*
X0356314Y0037724D01*
X0356470Y0037700D01*
X0356626Y0037672D01*
X0356781Y0037641D01*
X0356936Y0037605D01*
X0357089Y0037566D01*
X0357241Y0037523D01*
X0357392Y0037476D01*
X0357542Y0037425D01*
X0357691Y0037370D01*
X0357838Y0037312D01*
X0357984Y0037250D01*
X0358128Y0037185D01*
X0358270Y0037115D01*
X0358411Y0037043D01*
X0358550Y0036966D01*
X0358686Y0036887D01*
X0358821Y0036803D01*
X0358954Y0036717D01*
X0359084Y0036627D01*
X0359212Y0036534D01*
X0359338Y0036438D01*
X0359461Y0036338D01*
X0359582Y0036236D01*
X0359700Y0036131D01*
X0359815Y0036022D01*
X0359928Y0035911D01*
X0360038Y0035797D01*
X0360145Y0035680D01*
X0360249Y0035561D01*
X0360350Y0035439D01*
X0360447Y0035314D01*
X0360542Y0035187D01*
X0360633Y0035058D01*
X0360722Y0034927D01*
X0360806Y0034793D01*
X0360888Y0034657D01*
X0360966Y0034520D01*
X0361040Y0034380D01*
X0361111Y0034238D01*
X0361179Y0034095D01*
X0361243Y0033950D01*
X0361303Y0033804D01*
X0361359Y0033656D01*
X0361412Y0033507D01*
X0361461Y0033356D01*
X0361506Y0033204D01*
X0361547Y0033051D01*
X0361585Y0032898D01*
X0361618Y0032743D01*
X0361648Y0032587D01*
X0361674Y0032431D01*
X0361695Y0032274D01*
X0361713Y0032117D01*
X0361727Y0031959D01*
X0361737Y0031801D01*
X0361743Y0031643D01*
X0361745Y0031485D01*
X0361743Y0031327D01*
X0361737Y0031169D01*
X0361727Y0031011D01*
X0361713Y0030853D01*
X0361695Y0030696D01*
X0361674Y0030539D01*
X0361648Y0030383D01*
X0361618Y0030227D01*
X0361585Y0030072D01*
X0361547Y0029919D01*
X0361506Y0029766D01*
X0361461Y0029614D01*
X0361412Y0029463D01*
X0361359Y0029314D01*
X0361303Y0029166D01*
X0361243Y0029020D01*
X0361179Y0028875D01*
X0361111Y0028732D01*
X0361040Y0028590D01*
X0360966Y0028450D01*
X0360888Y0028313D01*
X0360806Y0028177D01*
X0360722Y0028043D01*
X0360633Y0027912D01*
X0360542Y0027783D01*
X0360447Y0027656D01*
X0360350Y0027531D01*
X0360249Y0027409D01*
X0360145Y0027290D01*
X0360038Y0027173D01*
X0359928Y0027059D01*
X0359815Y0026948D01*
X0359700Y0026839D01*
X0359582Y0026734D01*
X0359461Y0026632D01*
X0359338Y0026532D01*
X0359212Y0026436D01*
X0359084Y0026343D01*
X0358954Y0026253D01*
X0358821Y0026167D01*
X0358686Y0026083D01*
X0358550Y0026004D01*
X0358411Y0025927D01*
X0358270Y0025855D01*
X0358128Y0025785D01*
X0357984Y0025720D01*
X0357838Y0025658D01*
X0357691Y0025600D01*
X0357542Y0025545D01*
X0357392Y0025494D01*
X0357241Y0025447D01*
X0357089Y0025404D01*
X0356936Y0025365D01*
X0356781Y0025329D01*
X0356626Y0025298D01*
X0356470Y0025270D01*
X0356314Y0025246D01*
X0356157Y0025226D01*
X0355999Y0025210D01*
X0355842Y0025198D01*
X0355683Y0025190D01*
X0355525Y0025186D01*
X0355367Y0025186D01*
X0355209Y0025190D01*
X0355050Y0025198D01*
X0354893Y0025210D01*
X0354735Y0025226D01*
X0354578Y0025246D01*
X0354422Y0025270D01*
X0354266Y0025298D01*
X0354111Y0025329D01*
X0353956Y0025365D01*
X0353803Y0025404D01*
X0353651Y0025447D01*
X0353500Y0025494D01*
X0353350Y0025545D01*
X0353201Y0025600D01*
X0353054Y0025658D01*
X0352908Y0025720D01*
X0352764Y0025785D01*
X0352622Y0025855D01*
X0352481Y0025927D01*
X0352342Y0026004D01*
X0352206Y0026083D01*
X0352071Y0026167D01*
X0351938Y0026253D01*
X0351808Y0026343D01*
X0351680Y0026436D01*
X0351554Y0026532D01*
X0351431Y0026632D01*
X0351310Y0026734D01*
X0351192Y0026839D01*
X0351077Y0026948D01*
X0350964Y0027059D01*
X0350854Y0027173D01*
X0350747Y0027290D01*
X0350643Y0027409D01*
X0350542Y0027531D01*
X0350445Y0027656D01*
X0350350Y0027783D01*
X0350259Y0027912D01*
X0350170Y0028043D01*
X0350086Y0028177D01*
X0350004Y0028313D01*
X0349926Y0028450D01*
X0349852Y0028590D01*
X0349781Y0028732D01*
X0349713Y0028875D01*
X0349649Y0029020D01*
X0349589Y0029166D01*
X0349533Y0029314D01*
X0349480Y0029463D01*
X0349431Y0029614D01*
X0349386Y0029766D01*
X0349345Y0029919D01*
X0349307Y0030072D01*
X0349274Y0030227D01*
X0349244Y0030383D01*
X0349218Y0030539D01*
X0349197Y0030696D01*
X0349179Y0030853D01*
X0349165Y0031011D01*
X0349155Y0031169D01*
X0349149Y0031327D01*
X0349147Y0031485D01*
D13*
X0307222Y0057034D03*
X0307222Y0074834D03*
X0281622Y0074834D03*
X0271789Y0074834D03*
X0271789Y0057034D03*
X0281622Y0057034D03*
X0246189Y0057034D03*
X0246189Y0074834D03*
X0130209Y0059044D03*
X0110209Y0059044D03*
X0120209Y0079044D03*
D14*
X0334605Y0241753D02*
X0343463Y0241753D01*
X0343463Y0238799D01*
X0334605Y0238799D01*
X0334605Y0241753D01*
X0334605Y0241751D02*
X0343463Y0241751D01*
D15*
X0356750Y0235276D03*
X0356750Y0225276D03*
X0356750Y0215276D03*
X0356750Y0205276D03*
X0356750Y0195276D03*
X0339034Y0200276D03*
X0339034Y0210276D03*
X0339034Y0220276D03*
X0339034Y0230276D03*
D16*
X0339698Y0090540D03*
X0329855Y0090540D03*
X0349540Y0090540D03*
D17*
X0357020Y0118099D03*
X0322375Y0118099D03*
D18*
X0331480Y0117302D02*
X0343584Y0117302D01*
X0343584Y0118900D02*
X0331480Y0118900D01*
X0331480Y0120499D02*
X0343584Y0120499D01*
X0343584Y0122097D02*
X0331254Y0122097D01*
X0331480Y0121871D02*
X0326146Y0127205D01*
X0318603Y0127205D01*
X0313269Y0121871D01*
X0313269Y0114328D01*
X0318603Y0108994D01*
X0326146Y0108994D01*
X0331480Y0114328D01*
X0331480Y0121871D01*
X0329655Y0123696D02*
X0343584Y0123696D01*
X0343584Y0125294D02*
X0328057Y0125294D01*
X0326458Y0126893D02*
X0343584Y0126893D01*
X0343584Y0128491D02*
X0275973Y0128491D01*
X0275973Y0126893D02*
X0318291Y0126893D01*
X0316693Y0125294D02*
X0275973Y0125294D01*
X0275973Y0123696D02*
X0315094Y0123696D01*
X0313496Y0122097D02*
X0275973Y0122097D01*
X0275973Y0120499D02*
X0313269Y0120499D01*
X0313269Y0118900D02*
X0275973Y0118900D01*
X0275973Y0117302D02*
X0313269Y0117302D01*
X0313269Y0115703D02*
X0275973Y0115703D01*
X0275973Y0114105D02*
X0313492Y0114105D01*
X0315091Y0112506D02*
X0275973Y0112506D01*
X0275973Y0110908D02*
X0316689Y0110908D01*
X0318288Y0109309D02*
X0275973Y0109309D01*
X0275973Y0107711D02*
X0340124Y0107711D01*
X0338949Y0106535D02*
X0326070Y0106535D01*
X0324532Y0105898D01*
X0314497Y0095863D01*
X0313860Y0094325D01*
X0313860Y0076839D01*
X0313072Y0078742D01*
X0311131Y0080683D01*
X0308595Y0081734D01*
X0305850Y0081734D01*
X0303314Y0080683D01*
X0301373Y0078742D01*
X0300322Y0076206D01*
X0300322Y0073461D01*
X0301299Y0071102D01*
X0295558Y0071102D01*
X0294020Y0070465D01*
X0292843Y0069288D01*
X0292646Y0068813D01*
X0287911Y0064078D01*
X0286790Y0062956D01*
X0286400Y0062014D01*
X0285531Y0062883D01*
X0282995Y0063934D01*
X0280250Y0063934D01*
X0277714Y0062883D01*
X0275773Y0060942D01*
X0275739Y0060862D01*
X0275372Y0061229D01*
X0274672Y0061738D01*
X0273900Y0062131D01*
X0273077Y0062398D01*
X0272222Y0062534D01*
X0271989Y0062534D01*
X0271989Y0057234D01*
X0271589Y0057234D01*
X0271589Y0062534D01*
X0271356Y0062534D01*
X0270501Y0062398D01*
X0269678Y0062131D01*
X0268906Y0061738D01*
X0268206Y0061229D01*
X0267594Y0060617D01*
X0267085Y0059916D01*
X0266692Y0059145D01*
X0266424Y0058322D01*
X0266289Y0057467D01*
X0266289Y0057234D01*
X0271589Y0057234D01*
X0271589Y0056834D01*
X0266289Y0056834D01*
X0266289Y0056601D01*
X0266424Y0055746D01*
X0266692Y0054923D01*
X0267085Y0054151D01*
X0267594Y0053451D01*
X0268206Y0052839D01*
X0268906Y0052330D01*
X0269678Y0051937D01*
X0270501Y0051669D01*
X0271356Y0051534D01*
X0271589Y0051534D01*
X0271589Y0056834D01*
X0271989Y0056834D01*
X0271989Y0051534D01*
X0272222Y0051534D01*
X0273077Y0051669D01*
X0273342Y0051755D01*
X0273004Y0051417D01*
X0264062Y0051417D01*
X0262524Y0050780D01*
X0261347Y0049603D01*
X0256623Y0044879D01*
X0255986Y0043341D01*
X0255986Y0042556D01*
X0253670Y0040240D01*
X0253670Y0034856D01*
X0257478Y0031048D01*
X0262862Y0031048D01*
X0265170Y0033356D01*
X0267478Y0031048D01*
X0272862Y0031048D01*
X0275170Y0033356D01*
X0275986Y0032540D01*
X0275986Y0030141D01*
X0276623Y0028603D01*
X0282746Y0022480D01*
X0221597Y0022480D01*
X0217943Y0026134D01*
X0217845Y0026371D01*
X0214650Y0029567D01*
X0214650Y0032835D01*
X0216160Y0034346D01*
X0218058Y0032448D01*
X0219986Y0032448D01*
X0219986Y0037364D01*
X0220354Y0037364D01*
X0220354Y0032448D01*
X0222283Y0032448D01*
X0225170Y0035336D01*
X0228058Y0032448D01*
X0229986Y0032448D01*
X0229986Y0037364D01*
X0230354Y0037364D01*
X0230354Y0032448D01*
X0232283Y0032448D01*
X0234180Y0034346D01*
X0237478Y0031048D01*
X0242862Y0031048D01*
X0246670Y0034856D01*
X0246670Y0040240D01*
X0242862Y0044048D01*
X0237478Y0044048D01*
X0234180Y0040750D01*
X0232283Y0042648D01*
X0230354Y0042648D01*
X0230354Y0037732D01*
X0229986Y0037732D01*
X0229986Y0037364D01*
X0220354Y0037364D01*
X0220354Y0037732D01*
X0219986Y0037732D01*
X0219986Y0042648D01*
X0218058Y0042648D01*
X0216160Y0040750D01*
X0214551Y0042359D01*
X0214551Y0048183D01*
X0213824Y0049938D01*
X0209887Y0053875D01*
X0208544Y0055218D01*
X0206789Y0055945D01*
X0174891Y0055945D01*
X0173560Y0056496D01*
X0171504Y0056496D01*
X0170174Y0055945D01*
X0143866Y0055945D01*
X0142111Y0055218D01*
X0139885Y0052992D01*
X0135378Y0052992D01*
X0135378Y0054455D01*
X0136059Y0055136D01*
X0137109Y0057672D01*
X0137109Y0060417D01*
X0136059Y0062953D01*
X0134118Y0064894D01*
X0131582Y0065944D01*
X0128837Y0065944D01*
X0126301Y0064894D01*
X0124360Y0062953D01*
X0123309Y0060417D01*
X0123309Y0057672D01*
X0124360Y0055136D01*
X0125041Y0054455D01*
X0125041Y0052992D01*
X0100534Y0052992D01*
X0099394Y0054132D01*
X0099394Y0100373D01*
X0099651Y0100631D01*
X0100378Y0102386D01*
X0100378Y0104285D01*
X0099651Y0106040D01*
X0098308Y0107383D01*
X0096628Y0108079D01*
X0095378Y0109329D01*
X0095378Y0110178D01*
X0096593Y0111393D01*
X0098491Y0109495D01*
X0100403Y0109495D01*
X0100403Y0114395D01*
X0100803Y0114395D01*
X0100803Y0109495D01*
X0102716Y0109495D01*
X0105703Y0112483D01*
X0105703Y0114395D01*
X0100803Y0114395D01*
X0100803Y0114795D01*
X0105703Y0114795D01*
X0105703Y0116708D01*
X0103806Y0118605D01*
X0105021Y0119820D01*
X0113147Y0119820D01*
X0115041Y0117927D01*
X0115041Y0083634D01*
X0114360Y0082953D01*
X0113309Y0080417D01*
X0113309Y0077672D01*
X0114360Y0075136D01*
X0116301Y0073195D01*
X0118837Y0072144D01*
X0121582Y0072144D01*
X0124118Y0073195D01*
X0126059Y0075136D01*
X0127109Y0077672D01*
X0127109Y0080417D01*
X0126059Y0082953D01*
X0125378Y0083634D01*
X0125378Y0121096D01*
X0124591Y0122995D01*
X0119670Y0127917D01*
X0118216Y0129371D01*
X0116316Y0130157D01*
X0104233Y0130157D01*
X0103806Y0130585D01*
X0105703Y0132483D01*
X0105703Y0134395D01*
X0100803Y0134395D01*
X0100803Y0134795D01*
X0105703Y0134795D01*
X0105703Y0135569D01*
X0192735Y0135569D01*
X0194128Y0136146D01*
X0195195Y0137212D01*
X0279031Y0221048D01*
X0282862Y0221048D01*
X0285170Y0223356D01*
X0286301Y0222225D01*
X0286301Y0211368D01*
X0268242Y0193309D01*
X0267605Y0191771D01*
X0267605Y0080408D01*
X0265939Y0078742D01*
X0264889Y0076206D01*
X0264889Y0073461D01*
X0265939Y0070925D01*
X0267880Y0068984D01*
X0270416Y0067934D01*
X0273161Y0067934D01*
X0275698Y0068984D01*
X0277639Y0070925D01*
X0277672Y0071006D01*
X0278039Y0070639D01*
X0278739Y0070130D01*
X0279511Y0069737D01*
X0280334Y0069469D01*
X0281189Y0069334D01*
X0281422Y0069334D01*
X0281422Y0074634D01*
X0281822Y0074634D01*
X0281822Y0075034D01*
X0281422Y0075034D01*
X0281422Y0080334D01*
X0281189Y0080334D01*
X0280334Y0080198D01*
X0279511Y0079931D01*
X0278739Y0079538D01*
X0278039Y0079029D01*
X0277672Y0078662D01*
X0277639Y0078742D01*
X0275973Y0080408D01*
X0275973Y0189205D01*
X0292855Y0206087D01*
X0294032Y0207264D01*
X0294669Y0208802D01*
X0294669Y0222855D01*
X0295170Y0223356D01*
X0297478Y0221048D01*
X0302862Y0221048D01*
X0305170Y0223356D01*
X0307478Y0221048D01*
X0312862Y0221048D01*
X0316670Y0224856D01*
X0316670Y0230240D01*
X0312862Y0234048D01*
X0307478Y0234048D01*
X0305170Y0231740D01*
X0302862Y0234048D01*
X0297478Y0234048D01*
X0295170Y0231740D01*
X0292862Y0234048D01*
X0287478Y0234048D01*
X0285170Y0231740D01*
X0282862Y0234048D01*
X0277478Y0234048D01*
X0275170Y0231740D01*
X0272862Y0234048D01*
X0267478Y0234048D01*
X0265170Y0231740D01*
X0264354Y0232556D01*
X0264354Y0233689D01*
X0266628Y0235962D01*
X0330829Y0235962D01*
X0331083Y0235709D01*
X0330416Y0235042D01*
X0329928Y0233866D01*
X0329928Y0226687D01*
X0330416Y0225511D01*
X0331316Y0224611D01*
X0331774Y0224421D01*
X0331688Y0224334D01*
X0331451Y0223924D01*
X0331328Y0223466D01*
X0331328Y0220953D01*
X0338357Y0220953D01*
X0338357Y0219600D01*
X0331328Y0219600D01*
X0331328Y0217087D01*
X0331451Y0216629D01*
X0331688Y0216218D01*
X0332023Y0215883D01*
X0332434Y0215646D01*
X0332891Y0215524D01*
X0338357Y0215524D01*
X0338357Y0219600D01*
X0339710Y0219600D01*
X0339710Y0215524D01*
X0345176Y0215524D01*
X0345634Y0215646D01*
X0346045Y0215883D01*
X0346380Y0216218D01*
X0346617Y0216629D01*
X0346739Y0217087D01*
X0346739Y0219600D01*
X0339710Y0219600D01*
X0339710Y0220953D01*
X0346739Y0220953D01*
X0346739Y0223466D01*
X0346617Y0223924D01*
X0346380Y0224334D01*
X0346293Y0224421D01*
X0346752Y0224611D01*
X0347645Y0225504D01*
X0347645Y0221687D01*
X0348132Y0220511D01*
X0349032Y0219611D01*
X0349491Y0219421D01*
X0349405Y0219334D01*
X0349168Y0218924D01*
X0349045Y0218466D01*
X0349045Y0215953D01*
X0356074Y0215953D01*
X0356074Y0214600D01*
X0349045Y0214600D01*
X0349045Y0212087D01*
X0349168Y0211629D01*
X0349405Y0211218D01*
X0349491Y0211132D01*
X0349032Y0210942D01*
X0348132Y0210042D01*
X0347645Y0208866D01*
X0347645Y0206489D01*
X0345906Y0204750D01*
X0345634Y0204906D01*
X0345176Y0205029D01*
X0339710Y0205029D01*
X0339710Y0200953D01*
X0338357Y0200953D01*
X0338357Y0199600D01*
X0331328Y0199600D01*
X0331328Y0197087D01*
X0331451Y0196629D01*
X0331688Y0196218D01*
X0332023Y0195883D01*
X0332434Y0195646D01*
X0332891Y0195524D01*
X0338357Y0195524D01*
X0338357Y0199600D01*
X0339710Y0199600D01*
X0339710Y0195524D01*
X0343584Y0195524D01*
X0343584Y0111171D01*
X0338949Y0106535D01*
X0341722Y0109309D02*
X0326462Y0109309D01*
X0328060Y0110908D02*
X0343321Y0110908D01*
X0343584Y0112506D02*
X0329659Y0112506D01*
X0331257Y0114105D02*
X0343584Y0114105D01*
X0343584Y0115703D02*
X0331480Y0115703D01*
X0325048Y0106112D02*
X0275973Y0106112D01*
X0275973Y0104514D02*
X0323147Y0104514D01*
X0321549Y0102915D02*
X0275973Y0102915D01*
X0275973Y0101317D02*
X0319950Y0101317D01*
X0318352Y0099718D02*
X0275973Y0099718D01*
X0275973Y0098120D02*
X0316753Y0098120D01*
X0315155Y0096521D02*
X0275973Y0096521D01*
X0275973Y0094923D02*
X0314107Y0094923D01*
X0313860Y0093324D02*
X0275973Y0093324D01*
X0275973Y0091726D02*
X0313860Y0091726D01*
X0313860Y0090127D02*
X0275973Y0090127D01*
X0275973Y0088529D02*
X0313860Y0088529D01*
X0313860Y0086930D02*
X0275973Y0086930D01*
X0275973Y0085332D02*
X0313860Y0085332D01*
X0313860Y0083733D02*
X0275973Y0083733D01*
X0275973Y0082134D02*
X0313860Y0082134D01*
X0313860Y0080536D02*
X0311278Y0080536D01*
X0312876Y0078937D02*
X0313860Y0078937D01*
X0313860Y0077339D02*
X0313653Y0077339D01*
X0303166Y0080536D02*
X0275973Y0080536D01*
X0277443Y0078937D02*
X0277948Y0078937D01*
X0281422Y0078937D02*
X0281822Y0078937D01*
X0281822Y0080334D02*
X0281822Y0075034D01*
X0287122Y0075034D01*
X0287122Y0075267D01*
X0286987Y0076122D01*
X0286719Y0076945D01*
X0286326Y0077716D01*
X0285817Y0078417D01*
X0285205Y0079029D01*
X0284505Y0079538D01*
X0283733Y0079931D01*
X0282910Y0080198D01*
X0282055Y0080334D01*
X0281822Y0080334D01*
X0281822Y0077339D02*
X0281422Y0077339D01*
X0281422Y0075740D02*
X0281822Y0075740D01*
X0281822Y0074634D02*
X0287122Y0074634D01*
X0287122Y0074401D01*
X0286987Y0073546D01*
X0286719Y0072723D01*
X0286326Y0071951D01*
X0285817Y0071251D01*
X0285205Y0070639D01*
X0284505Y0070130D01*
X0283733Y0069737D01*
X0282910Y0069469D01*
X0282055Y0069334D01*
X0281822Y0069334D01*
X0281822Y0074634D01*
X0281822Y0074142D02*
X0281422Y0074142D01*
X0281422Y0072543D02*
X0281822Y0072543D01*
X0281822Y0070945D02*
X0281422Y0070945D01*
X0281422Y0069346D02*
X0281822Y0069346D01*
X0282134Y0069346D02*
X0292901Y0069346D01*
X0291581Y0067748D02*
X0099394Y0067748D01*
X0099394Y0069346D02*
X0241918Y0069346D01*
X0242280Y0068984D02*
X0244816Y0067934D01*
X0247561Y0067934D01*
X0250098Y0068984D01*
X0252039Y0070925D01*
X0253089Y0073461D01*
X0253089Y0076206D01*
X0252039Y0078742D01*
X0250098Y0080683D01*
X0247561Y0081734D01*
X0244816Y0081734D01*
X0242280Y0080683D01*
X0240339Y0078742D01*
X0239289Y0076206D01*
X0239289Y0073461D01*
X0240339Y0070925D01*
X0242280Y0068984D01*
X0240331Y0070945D02*
X0099394Y0070945D01*
X0099394Y0072543D02*
X0117873Y0072543D01*
X0115354Y0074142D02*
X0099394Y0074142D01*
X0099394Y0075740D02*
X0114109Y0075740D01*
X0113447Y0077339D02*
X0099394Y0077339D01*
X0099394Y0078937D02*
X0113309Y0078937D01*
X0113359Y0080536D02*
X0099394Y0080536D01*
X0099394Y0082134D02*
X0114021Y0082134D01*
X0115041Y0083733D02*
X0099394Y0083733D01*
X0099394Y0085332D02*
X0115041Y0085332D01*
X0115041Y0086930D02*
X0099394Y0086930D01*
X0099394Y0088529D02*
X0115041Y0088529D01*
X0115041Y0090127D02*
X0099394Y0090127D01*
X0099394Y0091726D02*
X0115041Y0091726D01*
X0115041Y0093324D02*
X0099394Y0093324D01*
X0099394Y0094923D02*
X0115041Y0094923D01*
X0115041Y0096521D02*
X0099394Y0096521D01*
X0099394Y0098120D02*
X0115041Y0098120D01*
X0115041Y0099718D02*
X0099394Y0099718D01*
X0099935Y0101317D02*
X0115041Y0101317D01*
X0115041Y0102915D02*
X0100378Y0102915D01*
X0100283Y0104514D02*
X0115041Y0104514D01*
X0115041Y0106112D02*
X0099579Y0106112D01*
X0097518Y0107711D02*
X0115041Y0107711D01*
X0115041Y0109309D02*
X0095398Y0109309D01*
X0096108Y0110908D02*
X0097078Y0110908D01*
X0100403Y0110908D02*
X0100803Y0110908D01*
X0100803Y0112506D02*
X0100403Y0112506D01*
X0100403Y0114105D02*
X0100803Y0114105D01*
X0104128Y0110908D02*
X0115041Y0110908D01*
X0115041Y0112506D02*
X0105703Y0112506D01*
X0105703Y0114105D02*
X0115041Y0114105D01*
X0115041Y0115703D02*
X0105703Y0115703D01*
X0105109Y0117302D02*
X0115041Y0117302D01*
X0114068Y0118900D02*
X0104101Y0118900D01*
X0116480Y0130090D02*
X0267605Y0130090D01*
X0267605Y0131688D02*
X0104909Y0131688D01*
X0105703Y0133287D02*
X0267605Y0133287D01*
X0267605Y0134885D02*
X0105703Y0134885D01*
X0107103Y0143150D02*
X0107103Y0147288D01*
X0104796Y0149595D01*
X0107103Y0151903D01*
X0107103Y0157288D01*
X0104796Y0159595D01*
X0106005Y0160805D01*
X0207971Y0160805D01*
X0208133Y0160872D01*
X0190411Y0143150D01*
X0107103Y0143150D01*
X0107103Y0144476D02*
X0191738Y0144476D01*
X0193336Y0146075D02*
X0107103Y0146075D01*
X0106717Y0147673D02*
X0194935Y0147673D01*
X0196533Y0149272D02*
X0105119Y0149272D01*
X0106071Y0150870D02*
X0198132Y0150870D01*
X0199730Y0152469D02*
X0107103Y0152469D01*
X0107103Y0154068D02*
X0201329Y0154068D01*
X0202927Y0155666D02*
X0107103Y0155666D01*
X0107103Y0157265D02*
X0204526Y0157265D01*
X0206124Y0158863D02*
X0105528Y0158863D01*
X0105662Y0160462D02*
X0207723Y0160462D01*
X0213649Y0155666D02*
X0267605Y0155666D01*
X0267605Y0154068D02*
X0212050Y0154068D01*
X0210452Y0152469D02*
X0267605Y0152469D01*
X0267605Y0150870D02*
X0208853Y0150870D01*
X0207255Y0149272D02*
X0267605Y0149272D01*
X0267605Y0147673D02*
X0205656Y0147673D01*
X0204058Y0146075D02*
X0267605Y0146075D01*
X0267605Y0144476D02*
X0202459Y0144476D01*
X0200861Y0142878D02*
X0267605Y0142878D01*
X0267605Y0141279D02*
X0199262Y0141279D01*
X0197664Y0139681D02*
X0267605Y0139681D01*
X0267605Y0138082D02*
X0196065Y0138082D01*
X0194467Y0136484D02*
X0267605Y0136484D01*
X0275973Y0136484D02*
X0343584Y0136484D01*
X0343584Y0138082D02*
X0275973Y0138082D01*
X0275973Y0139681D02*
X0343584Y0139681D01*
X0343584Y0141279D02*
X0275973Y0141279D01*
X0275973Y0142878D02*
X0343584Y0142878D01*
X0343584Y0144476D02*
X0275973Y0144476D01*
X0275973Y0146075D02*
X0343584Y0146075D01*
X0343584Y0147673D02*
X0275973Y0147673D01*
X0275973Y0149272D02*
X0343584Y0149272D01*
X0343584Y0150870D02*
X0275973Y0150870D01*
X0275973Y0152469D02*
X0343584Y0152469D01*
X0343584Y0154068D02*
X0275973Y0154068D01*
X0275973Y0155666D02*
X0343584Y0155666D01*
X0343584Y0157265D02*
X0275973Y0157265D01*
X0275973Y0158863D02*
X0343584Y0158863D01*
X0343584Y0160462D02*
X0275973Y0160462D01*
X0275973Y0162060D02*
X0343584Y0162060D01*
X0343584Y0163659D02*
X0275973Y0163659D01*
X0275973Y0165257D02*
X0343584Y0165257D01*
X0343584Y0166856D02*
X0275973Y0166856D01*
X0275973Y0168454D02*
X0343584Y0168454D01*
X0343584Y0170053D02*
X0275973Y0170053D01*
X0275973Y0171651D02*
X0343584Y0171651D01*
X0343584Y0173250D02*
X0275973Y0173250D01*
X0275973Y0174848D02*
X0343584Y0174848D01*
X0343584Y0176447D02*
X0275973Y0176447D01*
X0275973Y0178045D02*
X0343584Y0178045D01*
X0343584Y0179644D02*
X0275973Y0179644D01*
X0275973Y0181242D02*
X0343584Y0181242D01*
X0343584Y0182841D02*
X0275973Y0182841D01*
X0275973Y0184439D02*
X0343584Y0184439D01*
X0343584Y0186038D02*
X0275973Y0186038D01*
X0275973Y0187636D02*
X0343584Y0187636D01*
X0343584Y0189235D02*
X0276003Y0189235D01*
X0277601Y0190833D02*
X0343584Y0190833D01*
X0343584Y0192432D02*
X0279200Y0192432D01*
X0280798Y0194030D02*
X0343584Y0194030D01*
X0339710Y0195629D02*
X0338357Y0195629D01*
X0338357Y0197227D02*
X0339710Y0197227D01*
X0339710Y0198826D02*
X0338357Y0198826D01*
X0338357Y0200424D02*
X0287192Y0200424D01*
X0285594Y0198826D02*
X0331328Y0198826D01*
X0331328Y0197227D02*
X0283995Y0197227D01*
X0282397Y0195629D02*
X0332499Y0195629D01*
X0331328Y0200953D02*
X0338357Y0200953D01*
X0338357Y0205029D01*
X0332891Y0205029D01*
X0332434Y0204906D01*
X0332023Y0204669D01*
X0331688Y0204334D01*
X0331451Y0203924D01*
X0331328Y0203466D01*
X0331328Y0200953D01*
X0331328Y0202023D02*
X0288791Y0202023D01*
X0290389Y0203621D02*
X0331370Y0203621D01*
X0332434Y0205646D02*
X0332891Y0205524D01*
X0338357Y0205524D01*
X0338357Y0209600D01*
X0331328Y0209600D01*
X0331328Y0207087D01*
X0331451Y0206629D01*
X0331688Y0206218D01*
X0332023Y0205883D01*
X0332434Y0205646D01*
X0331400Y0206818D02*
X0293586Y0206818D01*
X0294510Y0208417D02*
X0331328Y0208417D01*
X0331328Y0210953D02*
X0338357Y0210953D01*
X0338357Y0209600D01*
X0339710Y0209600D01*
X0339710Y0205524D01*
X0345176Y0205524D01*
X0345634Y0205646D01*
X0346045Y0205883D01*
X0346380Y0206218D01*
X0346617Y0206629D01*
X0346739Y0207087D01*
X0346739Y0209600D01*
X0339710Y0209600D01*
X0339710Y0210953D01*
X0338357Y0210953D01*
X0338357Y0215029D01*
X0332891Y0215029D01*
X0332434Y0214906D01*
X0332023Y0214669D01*
X0331688Y0214334D01*
X0331451Y0213924D01*
X0331328Y0213466D01*
X0331328Y0210953D01*
X0331328Y0211614D02*
X0294669Y0211614D01*
X0294669Y0213212D02*
X0331328Y0213212D01*
X0332268Y0214811D02*
X0294669Y0214811D01*
X0294669Y0216409D02*
X0331578Y0216409D01*
X0331328Y0218008D02*
X0294669Y0218008D01*
X0294669Y0219606D02*
X0338357Y0219606D01*
X0339710Y0219606D02*
X0349043Y0219606D01*
X0349045Y0218008D02*
X0346739Y0218008D01*
X0346490Y0216409D02*
X0349045Y0216409D01*
X0349045Y0213212D02*
X0346739Y0213212D01*
X0346739Y0213466D02*
X0346617Y0213924D01*
X0346380Y0214334D01*
X0346045Y0214669D01*
X0345634Y0214906D01*
X0345176Y0215029D01*
X0339710Y0215029D01*
X0339710Y0210953D01*
X0346739Y0210953D01*
X0346739Y0213466D01*
X0345800Y0214811D02*
X0356074Y0214811D01*
X0349176Y0211614D02*
X0346739Y0211614D01*
X0348121Y0210015D02*
X0339710Y0210015D01*
X0338357Y0210015D02*
X0294669Y0210015D01*
X0291988Y0205220D02*
X0346376Y0205220D01*
X0346667Y0206818D02*
X0347645Y0206818D01*
X0347645Y0208417D02*
X0346739Y0208417D01*
X0339710Y0208417D02*
X0338357Y0208417D01*
X0338357Y0206818D02*
X0339710Y0206818D01*
X0339710Y0203621D02*
X0338357Y0203621D01*
X0338357Y0202023D02*
X0339710Y0202023D01*
X0339710Y0211614D02*
X0338357Y0211614D01*
X0338357Y0213212D02*
X0339710Y0213212D01*
X0339710Y0214811D02*
X0338357Y0214811D01*
X0338357Y0216409D02*
X0339710Y0216409D01*
X0339710Y0218008D02*
X0338357Y0218008D01*
X0331328Y0221205D02*
X0313019Y0221205D01*
X0314618Y0222803D02*
X0331328Y0222803D01*
X0331756Y0224402D02*
X0316216Y0224402D01*
X0316670Y0226001D02*
X0330213Y0226001D01*
X0329928Y0227599D02*
X0316670Y0227599D01*
X0316670Y0229198D02*
X0329928Y0229198D01*
X0329928Y0230796D02*
X0316114Y0230796D01*
X0314516Y0232395D02*
X0329928Y0232395D01*
X0329981Y0233993D02*
X0312917Y0233993D01*
X0307423Y0233993D02*
X0302917Y0233993D01*
X0304516Y0232395D02*
X0305824Y0232395D01*
X0297423Y0233993D02*
X0292917Y0233993D01*
X0294516Y0232395D02*
X0295824Y0232395D01*
X0287423Y0233993D02*
X0282917Y0233993D01*
X0284516Y0232395D02*
X0285824Y0232395D01*
X0277423Y0233993D02*
X0272917Y0233993D01*
X0274516Y0232395D02*
X0275824Y0232395D01*
X0267423Y0233993D02*
X0264659Y0233993D01*
X0264516Y0232395D02*
X0265824Y0232395D01*
X0266257Y0235592D02*
X0330965Y0235592D01*
X0346312Y0224402D02*
X0347645Y0224402D01*
X0347645Y0222803D02*
X0346739Y0222803D01*
X0346739Y0221205D02*
X0347845Y0221205D01*
X0356074Y0194600D02*
X0357427Y0194600D01*
X0357427Y0190524D01*
X0362088Y0190524D01*
X0362088Y0125909D01*
X0360792Y0127205D01*
X0353249Y0127205D01*
X0351559Y0125515D01*
X0351559Y0190524D01*
X0356074Y0190524D01*
X0356074Y0194600D01*
X0356074Y0194030D02*
X0357427Y0194030D01*
X0357427Y0192432D02*
X0356074Y0192432D01*
X0356074Y0190833D02*
X0357427Y0190833D01*
X0362088Y0189235D02*
X0351559Y0189235D01*
X0351559Y0187636D02*
X0362088Y0187636D01*
X0362088Y0186038D02*
X0351559Y0186038D01*
X0351559Y0184439D02*
X0362088Y0184439D01*
X0362088Y0182841D02*
X0351559Y0182841D01*
X0351559Y0181242D02*
X0362088Y0181242D01*
X0362088Y0179644D02*
X0351559Y0179644D01*
X0351559Y0178045D02*
X0362088Y0178045D01*
X0362088Y0176447D02*
X0351559Y0176447D01*
X0351559Y0174848D02*
X0362088Y0174848D01*
X0362088Y0173250D02*
X0351559Y0173250D01*
X0351559Y0171651D02*
X0362088Y0171651D01*
X0362088Y0170053D02*
X0351559Y0170053D01*
X0351559Y0168454D02*
X0362088Y0168454D01*
X0362088Y0166856D02*
X0351559Y0166856D01*
X0351559Y0165257D02*
X0362088Y0165257D01*
X0362088Y0163659D02*
X0351559Y0163659D01*
X0351559Y0162060D02*
X0362088Y0162060D01*
X0362088Y0160462D02*
X0351559Y0160462D01*
X0351559Y0158863D02*
X0362088Y0158863D01*
X0362088Y0157265D02*
X0351559Y0157265D01*
X0351559Y0155666D02*
X0362088Y0155666D01*
X0362088Y0154068D02*
X0351559Y0154068D01*
X0351559Y0152469D02*
X0362088Y0152469D01*
X0362088Y0150870D02*
X0351559Y0150870D01*
X0351559Y0149272D02*
X0362088Y0149272D01*
X0362088Y0147673D02*
X0351559Y0147673D01*
X0351559Y0146075D02*
X0362088Y0146075D01*
X0362088Y0144476D02*
X0351559Y0144476D01*
X0351559Y0142878D02*
X0362088Y0142878D01*
X0362088Y0141279D02*
X0351559Y0141279D01*
X0351559Y0139681D02*
X0362088Y0139681D01*
X0362088Y0138082D02*
X0351559Y0138082D01*
X0351559Y0136484D02*
X0362088Y0136484D01*
X0362088Y0134885D02*
X0351559Y0134885D01*
X0351559Y0133287D02*
X0362088Y0133287D01*
X0362088Y0131688D02*
X0351559Y0131688D01*
X0351559Y0130090D02*
X0362088Y0130090D01*
X0362088Y0128491D02*
X0351559Y0128491D01*
X0351559Y0126893D02*
X0352937Y0126893D01*
X0361104Y0126893D02*
X0362088Y0126893D01*
X0362088Y0110290D02*
X0362088Y0094242D01*
X0356440Y0088594D01*
X0356440Y0094877D01*
X0355953Y0096053D01*
X0355053Y0096953D01*
X0353877Y0097440D01*
X0345204Y0097440D01*
X0344619Y0097198D01*
X0344034Y0097440D01*
X0335361Y0097440D01*
X0334185Y0096953D01*
X0333285Y0096053D01*
X0333280Y0096040D01*
X0330039Y0096040D01*
X0330039Y0090724D01*
X0329671Y0090724D01*
X0329671Y0090356D01*
X0330039Y0090356D01*
X0330039Y0085040D01*
X0333280Y0085040D01*
X0333285Y0085027D01*
X0334185Y0084127D01*
X0335361Y0083640D01*
X0344034Y0083640D01*
X0344619Y0083882D01*
X0345204Y0083640D01*
X0351487Y0083640D01*
X0317450Y0049603D01*
X0316813Y0048065D01*
X0316813Y0046401D01*
X0316813Y0032234D01*
X0313358Y0028780D01*
X0288281Y0028780D01*
X0284438Y0032623D01*
X0285170Y0033356D01*
X0287478Y0031048D01*
X0292862Y0031048D01*
X0295170Y0033356D01*
X0297478Y0031048D01*
X0302862Y0031048D01*
X0305170Y0033356D01*
X0307478Y0031048D01*
X0312862Y0031048D01*
X0316670Y0034856D01*
X0316670Y0040240D01*
X0312862Y0044048D01*
X0307478Y0044048D01*
X0305170Y0041740D01*
X0302862Y0044048D01*
X0297478Y0044048D01*
X0295170Y0041740D01*
X0294157Y0042753D01*
X0294157Y0059046D01*
X0297845Y0062734D01*
X0303164Y0062734D01*
X0301373Y0060942D01*
X0300322Y0058406D01*
X0300322Y0055661D01*
X0301373Y0053125D01*
X0303314Y0051184D01*
X0305850Y0050134D01*
X0308595Y0050134D01*
X0311131Y0051184D01*
X0313072Y0053125D01*
X0314122Y0055661D01*
X0314122Y0058406D01*
X0313072Y0060942D01*
X0311280Y0062734D01*
X0313955Y0062734D01*
X0315493Y0063371D01*
X0320414Y0068292D01*
X0321591Y0069469D01*
X0322228Y0071007D01*
X0322228Y0091760D01*
X0324355Y0093887D01*
X0324355Y0090724D01*
X0329671Y0090724D01*
X0329671Y0096040D01*
X0326509Y0096040D01*
X0328636Y0098167D01*
X0341514Y0098167D01*
X0343052Y0098804D01*
X0351119Y0106871D01*
X0351756Y0108409D01*
X0351756Y0110073D01*
X0351559Y0110548D01*
X0351559Y0110684D01*
X0353249Y0108994D01*
X0360792Y0108994D01*
X0362088Y0110290D01*
X0362088Y0109309D02*
X0361108Y0109309D01*
X0362088Y0107711D02*
X0351467Y0107711D01*
X0351756Y0109309D02*
X0352933Y0109309D01*
X0350360Y0106112D02*
X0362088Y0106112D01*
X0362088Y0104514D02*
X0348762Y0104514D01*
X0347163Y0102915D02*
X0362088Y0102915D01*
X0362088Y0101317D02*
X0345565Y0101317D01*
X0343966Y0099718D02*
X0362088Y0099718D01*
X0362088Y0098120D02*
X0328588Y0098120D01*
X0326990Y0096521D02*
X0333753Y0096521D01*
X0330039Y0094923D02*
X0329671Y0094923D01*
X0329671Y0093324D02*
X0330039Y0093324D01*
X0330039Y0091726D02*
X0329671Y0091726D01*
X0329671Y0090356D02*
X0324355Y0090356D01*
X0324355Y0086603D01*
X0324478Y0086145D01*
X0324715Y0085735D01*
X0325050Y0085400D01*
X0325460Y0085163D01*
X0325918Y0085040D01*
X0329671Y0085040D01*
X0329671Y0090356D01*
X0329671Y0090127D02*
X0330039Y0090127D01*
X0330039Y0088529D02*
X0329671Y0088529D01*
X0329671Y0086930D02*
X0330039Y0086930D01*
X0330039Y0085332D02*
X0329671Y0085332D01*
X0335137Y0083733D02*
X0322228Y0083733D01*
X0322228Y0082134D02*
X0349981Y0082134D01*
X0348382Y0080536D02*
X0322228Y0080536D01*
X0322228Y0078937D02*
X0346784Y0078937D01*
X0345185Y0077339D02*
X0322228Y0077339D01*
X0322228Y0075740D02*
X0343587Y0075740D01*
X0341988Y0074142D02*
X0322228Y0074142D01*
X0322228Y0072543D02*
X0340390Y0072543D01*
X0338791Y0070945D02*
X0322203Y0070945D01*
X0321469Y0069346D02*
X0337193Y0069346D01*
X0335594Y0067748D02*
X0319870Y0067748D01*
X0318272Y0066149D02*
X0333996Y0066149D01*
X0332397Y0064551D02*
X0316673Y0064551D01*
X0314483Y0062952D02*
X0330799Y0062952D01*
X0329200Y0061354D02*
X0312660Y0061354D01*
X0313563Y0059755D02*
X0327602Y0059755D01*
X0326003Y0058157D02*
X0314122Y0058157D01*
X0314122Y0056558D02*
X0324405Y0056558D01*
X0322806Y0054960D02*
X0313831Y0054960D01*
X0313169Y0053361D02*
X0321208Y0053361D01*
X0319609Y0051763D02*
X0311709Y0051763D01*
X0308668Y0050164D02*
X0318011Y0050164D01*
X0317020Y0048566D02*
X0294157Y0048566D01*
X0294157Y0050164D02*
X0305776Y0050164D01*
X0302735Y0051763D02*
X0294157Y0051763D01*
X0294157Y0053361D02*
X0301275Y0053361D01*
X0300613Y0054960D02*
X0294157Y0054960D01*
X0294157Y0056558D02*
X0300322Y0056558D01*
X0300322Y0058157D02*
X0294157Y0058157D01*
X0294867Y0059755D02*
X0300881Y0059755D01*
X0301784Y0061354D02*
X0296465Y0061354D01*
X0289983Y0066149D02*
X0099394Y0066149D01*
X0099394Y0064551D02*
X0125958Y0064551D01*
X0124360Y0062952D02*
X0114079Y0062952D01*
X0113792Y0063239D02*
X0113092Y0063748D01*
X0112321Y0064141D01*
X0111497Y0064409D01*
X0110642Y0064544D01*
X0110394Y0064544D01*
X0110394Y0059228D01*
X0115709Y0059228D01*
X0115709Y0059477D01*
X0115574Y0060332D01*
X0115306Y0061155D01*
X0114913Y0061927D01*
X0114405Y0062627D01*
X0113792Y0063239D01*
X0115205Y0061354D02*
X0123698Y0061354D01*
X0123309Y0059755D02*
X0115665Y0059755D01*
X0115709Y0058860D02*
X0110394Y0058860D01*
X0110394Y0059228D01*
X0110025Y0059228D01*
X0110025Y0058860D01*
X0104709Y0058860D01*
X0104709Y0058611D01*
X0104845Y0057756D01*
X0105112Y0056933D01*
X0105505Y0056161D01*
X0106014Y0055461D01*
X0106626Y0054849D01*
X0107327Y0054340D01*
X0108098Y0053947D01*
X0108922Y0053680D01*
X0109777Y0053544D01*
X0110025Y0053544D01*
X0110025Y0058860D01*
X0110394Y0058860D01*
X0110394Y0053544D01*
X0110642Y0053544D01*
X0111497Y0053680D01*
X0112321Y0053947D01*
X0113092Y0054340D01*
X0113792Y0054849D01*
X0114405Y0055461D01*
X0114913Y0056161D01*
X0115306Y0056933D01*
X0115574Y0057756D01*
X0115709Y0058611D01*
X0115709Y0058860D01*
X0115637Y0058157D02*
X0123309Y0058157D01*
X0123771Y0056558D02*
X0115116Y0056558D01*
X0113903Y0054960D02*
X0124536Y0054960D01*
X0125041Y0053361D02*
X0100165Y0053361D01*
X0099394Y0054960D02*
X0106516Y0054960D01*
X0105303Y0056558D02*
X0099394Y0056558D01*
X0099394Y0058157D02*
X0104781Y0058157D01*
X0104709Y0059228D02*
X0110025Y0059228D01*
X0110025Y0064544D01*
X0109777Y0064544D01*
X0108922Y0064409D01*
X0108098Y0064141D01*
X0107327Y0063748D01*
X0106626Y0063239D01*
X0106014Y0062627D01*
X0105505Y0061927D01*
X0105112Y0061155D01*
X0104845Y0060332D01*
X0104709Y0059477D01*
X0104709Y0059228D01*
X0104754Y0059755D02*
X0099394Y0059755D01*
X0099394Y0061354D02*
X0105214Y0061354D01*
X0106340Y0062952D02*
X0099394Y0062952D01*
X0110025Y0062952D02*
X0110394Y0062952D01*
X0110394Y0061354D02*
X0110025Y0061354D01*
X0110025Y0059755D02*
X0110394Y0059755D01*
X0110394Y0058157D02*
X0110025Y0058157D01*
X0110025Y0056558D02*
X0110394Y0056558D01*
X0110394Y0054960D02*
X0110025Y0054960D01*
X0122546Y0072543D02*
X0239669Y0072543D01*
X0239289Y0074142D02*
X0125065Y0074142D01*
X0126310Y0075740D02*
X0239289Y0075740D01*
X0239758Y0077339D02*
X0126972Y0077339D01*
X0127109Y0078937D02*
X0240535Y0078937D01*
X0242133Y0080536D02*
X0127060Y0080536D01*
X0126398Y0082134D02*
X0267605Y0082134D01*
X0267605Y0080536D02*
X0250245Y0080536D01*
X0251843Y0078937D02*
X0266135Y0078937D01*
X0265358Y0077339D02*
X0252620Y0077339D01*
X0253089Y0075740D02*
X0264889Y0075740D01*
X0264889Y0074142D02*
X0253089Y0074142D01*
X0252709Y0072543D02*
X0265269Y0072543D01*
X0265931Y0070945D02*
X0252047Y0070945D01*
X0250460Y0069346D02*
X0267518Y0069346D01*
X0276060Y0069346D02*
X0281110Y0069346D01*
X0277733Y0070945D02*
X0277647Y0070945D01*
X0285511Y0070945D02*
X0295178Y0070945D01*
X0300702Y0072543D02*
X0286628Y0072543D01*
X0287081Y0074142D02*
X0300322Y0074142D01*
X0300322Y0075740D02*
X0287047Y0075740D01*
X0286518Y0077339D02*
X0300791Y0077339D01*
X0301568Y0078937D02*
X0285297Y0078937D01*
X0267605Y0083733D02*
X0125378Y0083733D01*
X0125378Y0085332D02*
X0267605Y0085332D01*
X0267605Y0086930D02*
X0125378Y0086930D01*
X0125378Y0088529D02*
X0267605Y0088529D01*
X0267605Y0090127D02*
X0125378Y0090127D01*
X0125378Y0091726D02*
X0267605Y0091726D01*
X0267605Y0093324D02*
X0125378Y0093324D01*
X0125378Y0094923D02*
X0267605Y0094923D01*
X0267605Y0096521D02*
X0125378Y0096521D01*
X0125378Y0098120D02*
X0267605Y0098120D01*
X0267605Y0099718D02*
X0125378Y0099718D01*
X0125378Y0101317D02*
X0267605Y0101317D01*
X0267605Y0102915D02*
X0125378Y0102915D01*
X0125378Y0104514D02*
X0267605Y0104514D01*
X0267605Y0106112D02*
X0125378Y0106112D01*
X0125378Y0107711D02*
X0267605Y0107711D01*
X0267605Y0109309D02*
X0125378Y0109309D01*
X0125378Y0110908D02*
X0267605Y0110908D01*
X0267605Y0112506D02*
X0125378Y0112506D01*
X0125378Y0114105D02*
X0267605Y0114105D01*
X0267605Y0115703D02*
X0125378Y0115703D01*
X0125378Y0117302D02*
X0267605Y0117302D01*
X0267605Y0118900D02*
X0125378Y0118900D01*
X0125378Y0120499D02*
X0267605Y0120499D01*
X0267605Y0122097D02*
X0124963Y0122097D01*
X0123891Y0123696D02*
X0267605Y0123696D01*
X0267605Y0125294D02*
X0122292Y0125294D01*
X0120694Y0126893D02*
X0267605Y0126893D01*
X0267605Y0128491D02*
X0119095Y0128491D01*
X0076852Y0150085D02*
X0076097Y0150840D01*
X0074704Y0151417D01*
X0061740Y0151417D01*
X0046244Y0166913D01*
X0046244Y0210033D01*
X0071583Y0235372D01*
X0226907Y0235372D01*
X0227639Y0234639D01*
X0227639Y0233271D01*
X0226862Y0234048D01*
X0221478Y0234048D01*
X0219170Y0231740D01*
X0216862Y0234048D01*
X0211478Y0234048D01*
X0209170Y0231740D01*
X0206862Y0234048D01*
X0201478Y0234048D01*
X0199170Y0231740D01*
X0196862Y0234048D01*
X0191478Y0234048D01*
X0189170Y0231740D01*
X0186862Y0234048D01*
X0181478Y0234048D01*
X0179170Y0231740D01*
X0176862Y0234048D01*
X0171478Y0234048D01*
X0168180Y0230750D01*
X0166283Y0232648D01*
X0164354Y0232648D01*
X0164354Y0227732D01*
X0163986Y0227732D01*
X0163986Y0232648D01*
X0162058Y0232648D01*
X0160160Y0230750D01*
X0156862Y0234048D01*
X0151478Y0234048D01*
X0147670Y0230240D01*
X0147670Y0224856D01*
X0151478Y0221048D01*
X0156862Y0221048D01*
X0160160Y0224346D01*
X0162058Y0222448D01*
X0163986Y0222448D01*
X0163986Y0227364D01*
X0164354Y0227364D01*
X0164354Y0222448D01*
X0166283Y0222448D01*
X0168180Y0224346D01*
X0171478Y0221048D01*
X0176862Y0221048D01*
X0179170Y0223356D01*
X0181478Y0221048D01*
X0186862Y0221048D01*
X0189170Y0223356D01*
X0191478Y0221048D01*
X0196862Y0221048D01*
X0199170Y0223356D01*
X0201478Y0221048D01*
X0202309Y0221048D01*
X0188191Y0206929D01*
X0064928Y0206929D01*
X0063535Y0206352D01*
X0050936Y0193754D01*
X0049870Y0192687D01*
X0049293Y0191294D01*
X0049293Y0166952D01*
X0049870Y0165558D01*
X0059319Y0156110D01*
X0060385Y0155043D01*
X0061778Y0154466D01*
X0076852Y0154466D01*
X0076852Y0150085D01*
X0076852Y0150870D02*
X0076024Y0150870D01*
X0076852Y0152469D02*
X0060688Y0152469D01*
X0059090Y0154068D02*
X0076852Y0154068D01*
X0085162Y0168346D02*
X0067252Y0168346D01*
X0063173Y0172425D01*
X0063173Y0186608D01*
X0068827Y0192261D01*
X0192948Y0192261D01*
X0189072Y0188386D01*
X0106005Y0188386D01*
X0103296Y0191095D01*
X0097911Y0191095D01*
X0095603Y0188788D01*
X0093296Y0191095D01*
X0087911Y0191095D01*
X0085201Y0188386D01*
X0081105Y0188386D01*
X0078481Y0191009D01*
X0073097Y0191009D01*
X0069289Y0187202D01*
X0069289Y0181817D01*
X0073097Y0178009D01*
X0078481Y0178009D01*
X0081277Y0180805D01*
X0085201Y0180805D01*
X0086411Y0179595D01*
X0084103Y0177288D01*
X0084103Y0171903D01*
X0086411Y0169595D01*
X0085162Y0168346D01*
X0085270Y0168454D02*
X0067144Y0168454D01*
X0065546Y0170053D02*
X0085953Y0170053D01*
X0084355Y0171651D02*
X0063947Y0171651D01*
X0063173Y0173250D02*
X0084103Y0173250D01*
X0084103Y0174848D02*
X0063173Y0174848D01*
X0063173Y0176447D02*
X0084103Y0176447D01*
X0084861Y0178045D02*
X0078517Y0178045D01*
X0080116Y0179644D02*
X0086362Y0179644D01*
X0086050Y0189235D02*
X0080256Y0189235D01*
X0078658Y0190833D02*
X0087649Y0190833D01*
X0093558Y0190833D02*
X0097649Y0190833D01*
X0096050Y0189235D02*
X0095156Y0189235D01*
X0103558Y0190833D02*
X0191520Y0190833D01*
X0189921Y0189235D02*
X0105156Y0189235D01*
X0072920Y0190833D02*
X0067399Y0190833D01*
X0065800Y0189235D02*
X0071322Y0189235D01*
X0069723Y0187636D02*
X0064202Y0187636D01*
X0063173Y0186038D02*
X0069289Y0186038D01*
X0069289Y0184439D02*
X0063173Y0184439D01*
X0063173Y0182841D02*
X0069289Y0182841D01*
X0069864Y0181242D02*
X0063173Y0181242D01*
X0063173Y0179644D02*
X0071462Y0179644D01*
X0073061Y0178045D02*
X0063173Y0178045D01*
X0049293Y0178045D02*
X0046244Y0178045D01*
X0046244Y0176447D02*
X0049293Y0176447D01*
X0049293Y0174848D02*
X0046244Y0174848D01*
X0046244Y0173250D02*
X0049293Y0173250D01*
X0049293Y0171651D02*
X0046244Y0171651D01*
X0046244Y0170053D02*
X0049293Y0170053D01*
X0049293Y0168454D02*
X0046244Y0168454D01*
X0046302Y0166856D02*
X0049333Y0166856D01*
X0050171Y0165257D02*
X0047900Y0165257D01*
X0049499Y0163659D02*
X0051770Y0163659D01*
X0051097Y0162060D02*
X0053368Y0162060D01*
X0052696Y0160462D02*
X0054967Y0160462D01*
X0054294Y0158863D02*
X0056565Y0158863D01*
X0055893Y0157265D02*
X0058164Y0157265D01*
X0057491Y0155666D02*
X0059762Y0155666D01*
X0049293Y0179644D02*
X0046244Y0179644D01*
X0046244Y0181242D02*
X0049293Y0181242D01*
X0049293Y0182841D02*
X0046244Y0182841D01*
X0046244Y0184439D02*
X0049293Y0184439D01*
X0049293Y0186038D02*
X0046244Y0186038D01*
X0046244Y0187636D02*
X0049293Y0187636D01*
X0049293Y0189235D02*
X0046244Y0189235D01*
X0046244Y0190833D02*
X0049293Y0190833D01*
X0049764Y0192432D02*
X0046244Y0192432D01*
X0046244Y0194030D02*
X0051213Y0194030D01*
X0052811Y0195629D02*
X0046244Y0195629D01*
X0046244Y0197227D02*
X0054410Y0197227D01*
X0056008Y0198826D02*
X0046244Y0198826D01*
X0046244Y0200424D02*
X0057607Y0200424D01*
X0059206Y0202023D02*
X0046244Y0202023D01*
X0046244Y0203621D02*
X0060804Y0203621D01*
X0062403Y0205220D02*
X0046244Y0205220D01*
X0046244Y0206818D02*
X0064661Y0206818D01*
X0051022Y0214811D02*
X0196072Y0214811D01*
X0194474Y0213212D02*
X0049423Y0213212D01*
X0047825Y0211614D02*
X0192875Y0211614D01*
X0191277Y0210015D02*
X0046244Y0210015D01*
X0046244Y0208417D02*
X0189678Y0208417D01*
X0197671Y0216409D02*
X0052620Y0216409D01*
X0054219Y0218008D02*
X0199269Y0218008D01*
X0200868Y0219606D02*
X0078098Y0219606D01*
X0077901Y0219409D02*
X0080889Y0222397D01*
X0080889Y0224509D01*
X0075789Y0224509D01*
X0075789Y0219409D01*
X0077901Y0219409D01*
X0075789Y0219409D02*
X0075789Y0224509D01*
X0075789Y0224509D01*
X0075789Y0224509D01*
X0070689Y0224509D01*
X0070689Y0222397D01*
X0073676Y0219409D01*
X0075789Y0219409D01*
X0075789Y0219606D02*
X0075789Y0219606D01*
X0075789Y0221205D02*
X0075789Y0221205D01*
X0075789Y0222803D02*
X0075789Y0222803D01*
X0075789Y0224402D02*
X0075789Y0224402D01*
X0075789Y0224509D02*
X0075789Y0224509D01*
X0080889Y0224509D01*
X0080889Y0226622D01*
X0077901Y0229609D01*
X0075789Y0229609D01*
X0073676Y0229609D01*
X0070689Y0226622D01*
X0070689Y0224509D01*
X0075789Y0224509D01*
X0075789Y0224510D02*
X0075789Y0229609D01*
X0075789Y0224510D01*
X0075789Y0224510D01*
X0075789Y0226001D02*
X0075789Y0226001D01*
X0075789Y0227599D02*
X0075789Y0227599D01*
X0075789Y0229198D02*
X0075789Y0229198D01*
X0078313Y0229198D02*
X0147670Y0229198D01*
X0147670Y0227599D02*
X0079912Y0227599D01*
X0080889Y0226001D02*
X0147670Y0226001D01*
X0148124Y0224402D02*
X0080889Y0224402D01*
X0080889Y0222803D02*
X0149722Y0222803D01*
X0151321Y0221205D02*
X0079697Y0221205D01*
X0073479Y0219606D02*
X0055818Y0219606D01*
X0057416Y0221205D02*
X0071881Y0221205D01*
X0070689Y0222803D02*
X0059015Y0222803D01*
X0060613Y0224402D02*
X0070689Y0224402D01*
X0070689Y0226001D02*
X0062212Y0226001D01*
X0063810Y0227599D02*
X0071666Y0227599D01*
X0073265Y0229198D02*
X0065409Y0229198D01*
X0067007Y0230796D02*
X0148226Y0230796D01*
X0149824Y0232395D02*
X0068606Y0232395D01*
X0070204Y0233993D02*
X0151423Y0233993D01*
X0156917Y0233993D02*
X0171423Y0233993D01*
X0169824Y0232395D02*
X0166536Y0232395D01*
X0164354Y0232395D02*
X0163986Y0232395D01*
X0163986Y0230796D02*
X0164354Y0230796D01*
X0164354Y0229198D02*
X0163986Y0229198D01*
X0163986Y0226001D02*
X0164354Y0226001D01*
X0164354Y0224402D02*
X0163986Y0224402D01*
X0163986Y0222803D02*
X0164354Y0222803D01*
X0166638Y0222803D02*
X0169722Y0222803D01*
X0171321Y0221205D02*
X0157019Y0221205D01*
X0158618Y0222803D02*
X0161702Y0222803D01*
X0160206Y0230796D02*
X0160114Y0230796D01*
X0158516Y0232395D02*
X0161804Y0232395D01*
X0168135Y0230796D02*
X0168226Y0230796D01*
X0176917Y0233993D02*
X0181423Y0233993D01*
X0179824Y0232395D02*
X0178516Y0232395D01*
X0186917Y0233993D02*
X0191423Y0233993D01*
X0189824Y0232395D02*
X0188516Y0232395D01*
X0196917Y0233993D02*
X0201423Y0233993D01*
X0199824Y0232395D02*
X0198516Y0232395D01*
X0206917Y0233993D02*
X0211423Y0233993D01*
X0209824Y0232395D02*
X0208516Y0232395D01*
X0216917Y0233993D02*
X0221423Y0233993D01*
X0219824Y0232395D02*
X0218516Y0232395D01*
X0226917Y0233993D02*
X0227639Y0233993D01*
X0201321Y0221205D02*
X0197019Y0221205D01*
X0198618Y0222803D02*
X0199722Y0222803D01*
X0191321Y0221205D02*
X0187019Y0221205D01*
X0188618Y0222803D02*
X0189722Y0222803D01*
X0181321Y0221205D02*
X0177019Y0221205D01*
X0178618Y0222803D02*
X0179722Y0222803D01*
X0236028Y0178045D02*
X0267605Y0178045D01*
X0267605Y0176447D02*
X0234429Y0176447D01*
X0232831Y0174848D02*
X0267605Y0174848D01*
X0267605Y0173250D02*
X0231232Y0173250D01*
X0229634Y0171651D02*
X0267605Y0171651D01*
X0267605Y0170053D02*
X0228035Y0170053D01*
X0226437Y0168454D02*
X0267605Y0168454D01*
X0267605Y0166856D02*
X0224838Y0166856D01*
X0223240Y0165257D02*
X0267605Y0165257D01*
X0267605Y0163659D02*
X0221641Y0163659D01*
X0220043Y0162060D02*
X0267605Y0162060D01*
X0267605Y0160462D02*
X0218444Y0160462D01*
X0216846Y0158863D02*
X0267605Y0158863D01*
X0267605Y0157265D02*
X0215247Y0157265D01*
X0237626Y0179644D02*
X0267605Y0179644D01*
X0267605Y0181242D02*
X0239225Y0181242D01*
X0240823Y0182841D02*
X0267605Y0182841D01*
X0267605Y0184439D02*
X0242422Y0184439D01*
X0244020Y0186038D02*
X0267605Y0186038D01*
X0267605Y0187636D02*
X0245619Y0187636D01*
X0247217Y0189235D02*
X0267605Y0189235D01*
X0267605Y0190833D02*
X0248816Y0190833D01*
X0250414Y0192432D02*
X0267878Y0192432D01*
X0268963Y0194030D02*
X0252013Y0194030D01*
X0253611Y0195629D02*
X0270562Y0195629D01*
X0272160Y0197227D02*
X0255210Y0197227D01*
X0256809Y0198826D02*
X0273759Y0198826D01*
X0275357Y0200424D02*
X0258407Y0200424D01*
X0260006Y0202023D02*
X0276956Y0202023D01*
X0278554Y0203621D02*
X0261604Y0203621D01*
X0263203Y0205220D02*
X0280153Y0205220D01*
X0281751Y0206818D02*
X0264801Y0206818D01*
X0266400Y0208417D02*
X0283350Y0208417D01*
X0284948Y0210015D02*
X0267998Y0210015D01*
X0269597Y0211614D02*
X0286301Y0211614D01*
X0286301Y0213212D02*
X0271195Y0213212D01*
X0272794Y0214811D02*
X0286301Y0214811D01*
X0286301Y0216409D02*
X0274392Y0216409D01*
X0275991Y0218008D02*
X0286301Y0218008D01*
X0286301Y0219606D02*
X0277589Y0219606D01*
X0283019Y0221205D02*
X0286301Y0221205D01*
X0285722Y0222803D02*
X0284618Y0222803D01*
X0294669Y0222803D02*
X0295722Y0222803D01*
X0294669Y0221205D02*
X0297321Y0221205D01*
X0303019Y0221205D02*
X0307321Y0221205D01*
X0305722Y0222803D02*
X0304618Y0222803D01*
X0275973Y0134885D02*
X0343584Y0134885D01*
X0343584Y0133287D02*
X0275973Y0133287D01*
X0275973Y0131688D02*
X0343584Y0131688D01*
X0343584Y0130090D02*
X0275973Y0130090D01*
X0322228Y0091726D02*
X0324355Y0091726D01*
X0324355Y0093324D02*
X0323793Y0093324D01*
X0324355Y0090127D02*
X0322228Y0090127D01*
X0322228Y0088529D02*
X0324355Y0088529D01*
X0324355Y0086930D02*
X0322228Y0086930D01*
X0322228Y0085332D02*
X0325168Y0085332D01*
X0344258Y0083733D02*
X0344979Y0083733D01*
X0356440Y0090127D02*
X0357973Y0090127D01*
X0356440Y0091726D02*
X0359572Y0091726D01*
X0361170Y0093324D02*
X0356440Y0093324D01*
X0356421Y0094923D02*
X0362088Y0094923D01*
X0362088Y0096521D02*
X0355485Y0096521D01*
X0316813Y0046967D02*
X0294157Y0046967D01*
X0294157Y0045369D02*
X0316813Y0045369D01*
X0316813Y0043770D02*
X0313140Y0043770D01*
X0314739Y0042172D02*
X0316813Y0042172D01*
X0316813Y0040573D02*
X0316337Y0040573D01*
X0316670Y0038975D02*
X0316813Y0038975D01*
X0316813Y0037376D02*
X0316670Y0037376D01*
X0316670Y0035778D02*
X0316813Y0035778D01*
X0316813Y0034179D02*
X0315994Y0034179D01*
X0316813Y0032581D02*
X0314395Y0032581D01*
X0315561Y0030982D02*
X0286079Y0030982D01*
X0285945Y0032581D02*
X0284480Y0032581D01*
X0287677Y0029384D02*
X0313962Y0029384D01*
X0305945Y0032581D02*
X0304395Y0032581D01*
X0295945Y0032581D02*
X0294395Y0032581D01*
X0294739Y0042172D02*
X0295601Y0042172D01*
X0294157Y0043770D02*
X0297200Y0043770D01*
X0303140Y0043770D02*
X0307200Y0043770D01*
X0305601Y0042172D02*
X0304739Y0042172D01*
X0280638Y0024588D02*
X0219489Y0024588D01*
X0217921Y0026187D02*
X0279039Y0026187D01*
X0277441Y0027785D02*
X0216431Y0027785D01*
X0214833Y0029384D02*
X0276299Y0029384D01*
X0275986Y0030982D02*
X0214650Y0030982D01*
X0214650Y0032581D02*
X0217925Y0032581D01*
X0219986Y0032581D02*
X0220354Y0032581D01*
X0220354Y0034179D02*
X0219986Y0034179D01*
X0219986Y0035778D02*
X0220354Y0035778D01*
X0220354Y0037376D02*
X0229986Y0037376D01*
X0229986Y0037732D02*
X0225070Y0037732D01*
X0220354Y0037732D01*
X0220354Y0042648D01*
X0222283Y0042648D01*
X0225170Y0039760D01*
X0228058Y0042648D01*
X0229986Y0042648D01*
X0229986Y0037732D01*
X0229986Y0038975D02*
X0230354Y0038975D01*
X0230354Y0040573D02*
X0229986Y0040573D01*
X0229986Y0042172D02*
X0230354Y0042172D01*
X0232759Y0042172D02*
X0235601Y0042172D01*
X0237200Y0043770D02*
X0214551Y0043770D01*
X0214551Y0045369D02*
X0257113Y0045369D01*
X0256164Y0043770D02*
X0243140Y0043770D01*
X0244739Y0042172D02*
X0255601Y0042172D01*
X0254003Y0040573D02*
X0246337Y0040573D01*
X0246670Y0038975D02*
X0253670Y0038975D01*
X0253670Y0037376D02*
X0246670Y0037376D01*
X0246670Y0035778D02*
X0253670Y0035778D01*
X0254347Y0034179D02*
X0245994Y0034179D01*
X0244395Y0032581D02*
X0255945Y0032581D01*
X0264395Y0032581D02*
X0265945Y0032581D01*
X0274395Y0032581D02*
X0275945Y0032581D01*
X0282236Y0022990D02*
X0221087Y0022990D01*
X0222415Y0032581D02*
X0227925Y0032581D01*
X0229986Y0032581D02*
X0230354Y0032581D01*
X0230354Y0034179D02*
X0229986Y0034179D01*
X0229986Y0035778D02*
X0230354Y0035778D01*
X0232415Y0032581D02*
X0235945Y0032581D01*
X0234347Y0034179D02*
X0234014Y0034179D01*
X0226326Y0034179D02*
X0224014Y0034179D01*
X0220354Y0038975D02*
X0219986Y0038975D01*
X0219986Y0040573D02*
X0220354Y0040573D01*
X0220354Y0042172D02*
X0219986Y0042172D01*
X0217581Y0042172D02*
X0214739Y0042172D01*
X0214551Y0046967D02*
X0258711Y0046967D01*
X0260310Y0048566D02*
X0214393Y0048566D01*
X0213598Y0050164D02*
X0244743Y0050164D01*
X0244816Y0050134D02*
X0247561Y0050134D01*
X0250098Y0051184D01*
X0252039Y0053125D01*
X0253089Y0055661D01*
X0253089Y0058406D01*
X0252039Y0060942D01*
X0250098Y0062883D01*
X0247561Y0063934D01*
X0244816Y0063934D01*
X0242280Y0062883D01*
X0240339Y0060942D01*
X0239289Y0058406D01*
X0239289Y0055661D01*
X0240339Y0053125D01*
X0242280Y0051184D01*
X0244816Y0050134D01*
X0247635Y0050164D02*
X0261908Y0050164D01*
X0267683Y0053361D02*
X0252136Y0053361D01*
X0252798Y0054960D02*
X0266680Y0054960D01*
X0266296Y0056558D02*
X0253089Y0056558D01*
X0253089Y0058157D02*
X0266398Y0058157D01*
X0267003Y0059755D02*
X0252530Y0059755D01*
X0251627Y0061354D02*
X0268378Y0061354D01*
X0271589Y0061354D02*
X0271989Y0061354D01*
X0271989Y0059755D02*
X0271589Y0059755D01*
X0271589Y0058157D02*
X0271989Y0058157D01*
X0271989Y0056558D02*
X0271589Y0056558D01*
X0271589Y0054960D02*
X0271989Y0054960D01*
X0271989Y0053361D02*
X0271589Y0053361D01*
X0271589Y0051763D02*
X0271989Y0051763D01*
X0270213Y0051763D02*
X0250676Y0051763D01*
X0241702Y0051763D02*
X0211999Y0051763D01*
X0210401Y0053361D02*
X0240242Y0053361D01*
X0239580Y0054960D02*
X0208802Y0054960D01*
X0222759Y0042172D02*
X0227581Y0042172D01*
X0225983Y0040573D02*
X0224357Y0040573D01*
X0216326Y0034179D02*
X0215994Y0034179D01*
X0239289Y0056558D02*
X0136648Y0056558D01*
X0137109Y0058157D02*
X0239289Y0058157D01*
X0239848Y0059755D02*
X0137109Y0059755D01*
X0136721Y0061354D02*
X0240751Y0061354D01*
X0242447Y0062952D02*
X0136059Y0062952D01*
X0134461Y0064551D02*
X0288384Y0064551D01*
X0286788Y0062952D02*
X0285364Y0062952D01*
X0277880Y0062952D02*
X0249931Y0062952D01*
X0275200Y0061354D02*
X0276184Y0061354D01*
X0141853Y0054960D02*
X0135883Y0054960D01*
X0135378Y0053361D02*
X0140254Y0053361D01*
D19*
X0253083Y0133847D03*
X0186154Y0153532D03*
X0166469Y0153532D03*
X0150721Y0153532D03*
X0131036Y0153532D03*
X0071981Y0173217D03*
X0092650Y0219477D03*
X0098556Y0219477D03*
X0104461Y0219477D03*
X0335761Y0165343D03*
X0339698Y0157469D03*
X0355446Y0157469D03*
X0359383Y0165343D03*
X0355446Y0173217D03*
X0339698Y0173217D03*
X0359383Y0138769D03*
X0335761Y0125973D03*
X0339698Y0118099D03*
X0335761Y0110225D03*
X0350524Y0101367D03*
X0359383Y0101367D03*
D20*
X0270170Y0227548D02*
X0207217Y0164595D01*
X0100603Y0164595D01*
X0090603Y0164595D02*
X0090564Y0164556D01*
X0065682Y0164556D01*
X0059383Y0170855D01*
X0059383Y0188178D01*
X0067257Y0196052D01*
X0192674Y0196052D01*
X0224170Y0227548D01*
X0231430Y0225383D02*
X0231430Y0236209D01*
X0228477Y0239162D01*
X0070013Y0239162D01*
X0042454Y0211603D01*
X0042454Y0165343D01*
X0060170Y0147627D01*
X0073950Y0147627D01*
X0076902Y0144674D01*
X0076902Y0117115D01*
X0078871Y0115146D01*
X0090052Y0115146D01*
X0090603Y0114595D01*
X0090406Y0124398D02*
X0085367Y0124398D01*
X0080643Y0129123D01*
X0080643Y0156682D01*
X0079068Y0158257D01*
X0062532Y0158257D01*
X0053083Y0167706D01*
X0053083Y0190540D01*
X0065682Y0203139D01*
X0189761Y0203139D01*
X0214170Y0227548D01*
X0231430Y0225383D02*
X0190643Y0184595D01*
X0100603Y0184595D01*
X0095524Y0179517D02*
X0090603Y0174595D01*
X0095524Y0179517D02*
X0192139Y0179517D01*
X0240170Y0227548D01*
X0250170Y0227548D02*
X0197217Y0174595D01*
X0100603Y0174595D01*
X0090603Y0184595D02*
X0076859Y0184595D01*
X0075789Y0184509D01*
X0095367Y0139359D02*
X0090603Y0134595D01*
X0095367Y0139359D02*
X0191981Y0139359D01*
X0280170Y0227548D01*
X0090603Y0124595D02*
X0090406Y0124398D01*
D21*
X0260170Y0042509D02*
X0260170Y0037548D01*
X0260170Y0042509D02*
X0264894Y0047233D01*
X0274737Y0047233D01*
X0281627Y0054123D01*
X0281627Y0057029D01*
X0281622Y0057034D01*
X0296391Y0066918D02*
X0313123Y0066918D01*
X0318044Y0071839D01*
X0318044Y0093493D01*
X0326902Y0102351D01*
X0340682Y0102351D01*
X0347572Y0109241D01*
X0366272Y0092509D02*
X0366272Y0222430D01*
X0363320Y0225383D01*
X0356857Y0225383D01*
X0356750Y0225276D01*
X0339698Y0240146D02*
X0264894Y0240146D01*
X0260170Y0235422D01*
X0260170Y0227548D01*
X0290170Y0227548D02*
X0290485Y0227233D01*
X0290485Y0209635D01*
X0271789Y0190939D01*
X0271789Y0074834D01*
X0320997Y0047233D02*
X0366272Y0092509D01*
X0353477Y0072824D02*
X0358398Y0067902D01*
X0320997Y0047233D02*
X0320997Y0030501D01*
X0315091Y0024595D01*
X0286548Y0024595D01*
X0280170Y0030973D01*
X0280170Y0037548D01*
D22*
X0323950Y0023611D02*
X0327887Y0027548D01*
X0327887Y0047233D01*
X0353477Y0072824D01*
X0367257Y0086603D01*
X0213713Y0023611D02*
X0209776Y0027548D01*
X0209776Y0037154D01*
X0210170Y0037548D01*
X0339034Y0240276D02*
X0339568Y0240276D01*
X0339698Y0240146D01*
D23*
X0356750Y0235276D02*
X0367206Y0235276D01*
X0370209Y0232272D01*
X0370209Y0089556D01*
X0367257Y0086603D01*
X0323950Y0023611D02*
X0318044Y0017706D01*
X0219619Y0017706D01*
X0213713Y0023611D01*
X0209776Y0037154D02*
X0209776Y0047233D01*
X0205839Y0051170D01*
X0172375Y0051170D01*
X0144816Y0051170D01*
X0141863Y0048217D01*
X0131036Y0048217D01*
X0098556Y0048217D01*
X0094619Y0052154D01*
X0094619Y0102351D01*
X0095603Y0103335D01*
X0094619Y0103335D01*
X0090603Y0107351D01*
X0090603Y0114595D01*
D24*
X0100603Y0124595D02*
X0100997Y0124989D01*
X0115288Y0124989D01*
X0120209Y0120068D01*
X0120209Y0079044D01*
X0130209Y0059044D02*
X0130209Y0049044D01*
X0131036Y0048217D01*
X0172375Y0051170D02*
X0172532Y0051328D01*
D25*
X0358398Y0067902D03*
D26*
X0347572Y0109241D02*
X0347572Y0200776D01*
X0352072Y0205276D01*
X0356750Y0205276D01*
X0296391Y0066918D02*
X0290170Y0060698D01*
X0290170Y0037548D01*
M02*
