G75*
%MOIN*%
%OFA0B0*%
%FSLAX25Y25*%
%IPPOS*%
%LPD*%
%AMOC8*
5,1,8,0,0,1.08239X$1,22.5*
%
%ADD10C,0.00394*%
%ADD11C,0.00500*%
%ADD12C,0.00000*%
%ADD13C,0.00400*%
D10*
X0020800Y0011800D02*
X0020800Y0287391D01*
X0375131Y0287391D01*
X0375131Y0011800D01*
X0020800Y0011800D01*
D11*
X0070018Y0098664D02*
X0070018Y0099566D01*
X0070018Y0101369D02*
X0070018Y0104976D01*
X0072751Y0102271D02*
X0071849Y0101369D01*
X0071849Y0098664D01*
X0073652Y0098664D02*
X0073652Y0101369D01*
X0072751Y0102271D01*
X0073652Y0101369D02*
X0074554Y0102271D01*
X0075456Y0102271D01*
X0075456Y0098664D01*
X0077287Y0098664D02*
X0077287Y0102271D01*
X0080893Y0102271D02*
X0080893Y0099566D01*
X0079992Y0098664D01*
X0077287Y0098664D01*
X0082715Y0098664D02*
X0084518Y0098664D01*
X0083617Y0098664D02*
X0083617Y0102271D01*
X0084518Y0102271D01*
X0086345Y0102271D02*
X0087246Y0102271D01*
X0089050Y0100468D01*
X0089050Y0102271D02*
X0089050Y0098664D01*
X0090881Y0098664D02*
X0090881Y0101369D01*
X0091782Y0102271D01*
X0093586Y0102271D01*
X0093586Y0100468D02*
X0090881Y0100468D01*
X0090881Y0098664D02*
X0093586Y0098664D01*
X0094488Y0099566D01*
X0093586Y0100468D01*
X0096318Y0098664D02*
X0096318Y0102271D01*
X0096318Y0098664D02*
X0099024Y0098664D01*
X0099925Y0099566D01*
X0099925Y0102271D01*
X0101752Y0102271D02*
X0104457Y0100468D01*
X0101752Y0098664D01*
X0104457Y0098664D02*
X0104457Y0104074D01*
X0106288Y0102271D02*
X0108993Y0102271D01*
X0109894Y0101369D01*
X0109894Y0099566D01*
X0108993Y0098664D01*
X0106288Y0098664D01*
X0111725Y0098664D02*
X0111725Y0101369D01*
X0112627Y0102271D01*
X0114430Y0102271D01*
X0114430Y0100468D02*
X0111725Y0100468D01*
X0111725Y0098664D02*
X0114430Y0098664D01*
X0115332Y0099566D01*
X0114430Y0100468D01*
X0117163Y0101369D02*
X0120770Y0101369D01*
X0120770Y0098664D02*
X0120770Y0104074D01*
X0117163Y0104074D02*
X0117163Y0098664D01*
X0128038Y0098664D02*
X0130744Y0098664D01*
X0131645Y0099566D01*
X0131645Y0101369D01*
X0130744Y0102271D01*
X0128038Y0102271D01*
X0128038Y0104074D02*
X0128038Y0098664D01*
X0133476Y0098664D02*
X0133476Y0101369D01*
X0134378Y0102271D01*
X0137083Y0102271D01*
X0137083Y0098664D01*
X0138914Y0098664D02*
X0138914Y0101369D01*
X0139816Y0102271D01*
X0141619Y0102271D01*
X0141619Y0100468D02*
X0138914Y0100468D01*
X0138914Y0098664D02*
X0141619Y0098664D01*
X0142521Y0099566D01*
X0141619Y0100468D01*
X0149789Y0100468D02*
X0152494Y0100468D01*
X0153396Y0099566D01*
X0152494Y0098664D01*
X0149789Y0098664D01*
X0149789Y0101369D01*
X0150691Y0102271D01*
X0152494Y0102271D01*
X0156120Y0102271D02*
X0156120Y0098664D01*
X0157021Y0098664D02*
X0155218Y0098664D01*
X0156120Y0102271D02*
X0157021Y0102271D01*
X0158848Y0102271D02*
X0159749Y0102271D01*
X0161553Y0100468D01*
X0161553Y0102271D02*
X0161553Y0098664D01*
X0163384Y0100468D02*
X0166990Y0100468D01*
X0166990Y0101369D02*
X0166990Y0099566D01*
X0166089Y0098664D01*
X0164285Y0098664D01*
X0163384Y0100468D02*
X0163384Y0101369D01*
X0164285Y0102271D01*
X0166089Y0102271D01*
X0166990Y0101369D01*
X0168812Y0102271D02*
X0170615Y0102271D01*
X0169714Y0103173D02*
X0169714Y0099566D01*
X0168812Y0098664D01*
X0172442Y0098664D02*
X0175147Y0100468D01*
X0172442Y0102271D01*
X0175147Y0104074D02*
X0175147Y0098664D01*
X0176978Y0098664D02*
X0179683Y0098664D01*
X0180585Y0099566D01*
X0180585Y0101369D01*
X0179683Y0102271D01*
X0176978Y0102271D01*
X0182416Y0101369D02*
X0182416Y0098664D01*
X0185121Y0098664D01*
X0186022Y0099566D01*
X0185121Y0100468D01*
X0182416Y0100468D01*
X0182416Y0101369D02*
X0183317Y0102271D01*
X0185121Y0102271D01*
X0187853Y0101369D02*
X0191460Y0101369D01*
X0191460Y0098664D02*
X0191460Y0104074D01*
X0187853Y0104074D02*
X0187853Y0098664D01*
X0198719Y0098664D02*
X0199621Y0099566D01*
X0199621Y0103173D01*
X0200523Y0102271D02*
X0198719Y0102271D01*
X0202354Y0101369D02*
X0202354Y0098664D01*
X0205059Y0098664D01*
X0205961Y0099566D01*
X0205059Y0100468D01*
X0202354Y0100468D01*
X0202354Y0101369D02*
X0203255Y0102271D01*
X0205059Y0102271D01*
X0213229Y0102271D02*
X0213229Y0097762D01*
X0214131Y0096861D01*
X0215033Y0096861D01*
X0215934Y0098664D02*
X0213229Y0098664D01*
X0215934Y0098664D02*
X0216836Y0099566D01*
X0216836Y0102271D01*
X0218667Y0102271D02*
X0221372Y0102271D01*
X0222274Y0101369D01*
X0222274Y0099566D01*
X0221372Y0098664D01*
X0218667Y0098664D01*
X0218667Y0104074D01*
X0224105Y0101369D02*
X0224105Y0099566D01*
X0225006Y0098664D01*
X0226810Y0098664D01*
X0227711Y0099566D01*
X0227711Y0101369D01*
X0226810Y0102271D01*
X0225006Y0102271D01*
X0224105Y0101369D01*
X0229542Y0101369D02*
X0229542Y0099566D01*
X0230444Y0098664D01*
X0233149Y0098664D01*
X0233149Y0104074D01*
X0233149Y0102271D02*
X0230444Y0102271D01*
X0229542Y0101369D01*
X0234980Y0102271D02*
X0234980Y0097762D01*
X0235882Y0096861D01*
X0236783Y0096861D01*
X0237685Y0098664D02*
X0234980Y0098664D01*
X0237685Y0098664D02*
X0238587Y0099566D01*
X0238587Y0102271D01*
X0240413Y0102271D02*
X0241315Y0102271D01*
X0243118Y0100468D01*
X0243118Y0102271D02*
X0243118Y0098664D01*
X0244949Y0100468D02*
X0248556Y0100468D01*
X0248556Y0101369D02*
X0248556Y0099566D01*
X0247654Y0098664D01*
X0245851Y0098664D01*
X0244949Y0100468D02*
X0244949Y0101369D01*
X0245851Y0102271D01*
X0247654Y0102271D01*
X0248556Y0101369D01*
X0250387Y0102271D02*
X0252190Y0098664D01*
X0253994Y0102271D01*
X0255825Y0101369D02*
X0255825Y0100468D01*
X0259431Y0100468D01*
X0259431Y0101369D02*
X0259431Y0099566D01*
X0258530Y0098664D01*
X0256726Y0098664D01*
X0255825Y0101369D02*
X0256726Y0102271D01*
X0258530Y0102271D01*
X0259431Y0101369D01*
X0266700Y0101369D02*
X0266700Y0099566D01*
X0267602Y0098664D01*
X0269405Y0098664D01*
X0270307Y0099566D01*
X0270307Y0101369D01*
X0269405Y0102271D01*
X0267602Y0102271D01*
X0266700Y0101369D01*
X0272129Y0102271D02*
X0273932Y0102271D01*
X0273030Y0103173D02*
X0273030Y0099566D01*
X0272129Y0098664D01*
X0281191Y0098664D02*
X0282093Y0099566D01*
X0282093Y0103173D01*
X0282995Y0102271D02*
X0281191Y0102271D01*
X0284826Y0102271D02*
X0284826Y0098664D01*
X0287531Y0098664D01*
X0288432Y0099566D01*
X0288432Y0102271D01*
X0290263Y0101369D02*
X0290263Y0099566D01*
X0291165Y0098664D01*
X0292968Y0098664D01*
X0293870Y0099566D01*
X0293870Y0101369D01*
X0292968Y0102271D01*
X0291165Y0102271D01*
X0290263Y0101369D01*
X0301130Y0102271D02*
X0302933Y0102271D01*
X0302031Y0103173D02*
X0302031Y0099566D01*
X0301130Y0098664D01*
X0304764Y0098664D02*
X0304764Y0102271D01*
X0308371Y0102271D02*
X0308371Y0099566D01*
X0307469Y0098664D01*
X0304764Y0098664D01*
X0310202Y0099566D02*
X0310202Y0101369D01*
X0311103Y0102271D01*
X0312907Y0102271D01*
X0313808Y0101369D01*
X0313808Y0099566D01*
X0312907Y0098664D01*
X0311103Y0098664D01*
X0310202Y0099566D01*
X0315639Y0098664D02*
X0315639Y0101369D01*
X0316541Y0102271D01*
X0318344Y0102271D01*
X0319246Y0101369D01*
X0321077Y0100468D02*
X0321077Y0099566D01*
X0321979Y0098664D01*
X0323782Y0098664D01*
X0324684Y0099566D01*
X0323782Y0101369D02*
X0321979Y0101369D01*
X0321077Y0100468D01*
X0319246Y0098664D02*
X0319246Y0104074D01*
X0321077Y0103173D02*
X0321979Y0104074D01*
X0323782Y0104074D01*
X0324684Y0103173D01*
X0324684Y0102271D01*
X0323782Y0101369D01*
X0323700Y0127207D02*
X0323700Y0132618D01*
X0321896Y0130814D01*
X0320093Y0132618D01*
X0320093Y0127207D01*
X0318262Y0128109D02*
X0317360Y0129011D01*
X0314655Y0129011D01*
X0314655Y0129913D02*
X0314655Y0127207D01*
X0317360Y0127207D01*
X0318262Y0128109D01*
X0317360Y0130814D02*
X0315557Y0130814D01*
X0314655Y0129913D01*
X0312824Y0130814D02*
X0312824Y0127207D01*
X0312824Y0129011D02*
X0311021Y0130814D01*
X0310119Y0130814D01*
X0308293Y0130814D02*
X0307391Y0130814D01*
X0307391Y0127207D01*
X0308293Y0127207D02*
X0306489Y0127207D01*
X0304668Y0128109D02*
X0304668Y0129913D01*
X0303766Y0130814D01*
X0301963Y0130814D01*
X0301061Y0129913D01*
X0301061Y0129011D01*
X0304668Y0129011D01*
X0304668Y0128109D02*
X0303766Y0127207D01*
X0301963Y0127207D01*
X0307391Y0132618D02*
X0307391Y0133519D01*
X0307396Y0136066D02*
X0309199Y0136066D01*
X0308297Y0136066D02*
X0308297Y0141476D01*
X0309199Y0141476D01*
X0311923Y0141476D02*
X0311923Y0142378D01*
X0312833Y0144924D02*
X0314637Y0144924D01*
X0313735Y0144924D02*
X0313735Y0150334D01*
X0314637Y0150334D01*
X0317360Y0150334D02*
X0317360Y0144924D01*
X0316459Y0144924D02*
X0318262Y0144924D01*
X0320093Y0144924D02*
X0320093Y0148531D01*
X0321896Y0150334D01*
X0323700Y0148531D01*
X0323700Y0144924D01*
X0323700Y0147629D02*
X0320093Y0147629D01*
X0318262Y0150334D02*
X0317360Y0150334D01*
X0320093Y0141476D02*
X0323700Y0141476D01*
X0323700Y0136066D01*
X0320093Y0136066D01*
X0318262Y0136066D02*
X0318262Y0139673D01*
X0317360Y0139673D01*
X0316459Y0138771D01*
X0315557Y0139673D01*
X0314655Y0138771D01*
X0314655Y0136066D01*
X0316459Y0136066D02*
X0316459Y0138771D01*
X0312824Y0139673D02*
X0311923Y0139673D01*
X0311923Y0136066D01*
X0312824Y0136066D02*
X0311021Y0136066D01*
X0305574Y0136066D02*
X0303771Y0136066D01*
X0304672Y0136066D02*
X0304672Y0139673D01*
X0305574Y0139673D01*
X0304672Y0141476D02*
X0304672Y0142378D01*
X0303771Y0144924D02*
X0304672Y0145826D01*
X0304672Y0149432D01*
X0305574Y0148531D02*
X0303771Y0148531D01*
X0301949Y0147629D02*
X0301047Y0148531D01*
X0299244Y0148531D01*
X0298342Y0147629D01*
X0298342Y0144924D01*
X0296511Y0145826D02*
X0296511Y0147629D01*
X0295609Y0148531D01*
X0293806Y0148531D01*
X0292904Y0147629D01*
X0292904Y0146727D01*
X0296511Y0146727D01*
X0296511Y0145826D02*
X0295609Y0144924D01*
X0293806Y0144924D01*
X0287448Y0141476D02*
X0284743Y0141476D01*
X0283841Y0140574D01*
X0283841Y0138771D01*
X0284743Y0137869D01*
X0287448Y0137869D01*
X0285645Y0137869D02*
X0283841Y0136066D01*
X0282011Y0136967D02*
X0281109Y0136066D01*
X0279305Y0136066D01*
X0278404Y0136967D01*
X0278404Y0138771D01*
X0279305Y0139673D01*
X0281109Y0139673D01*
X0282011Y0138771D01*
X0282011Y0136967D01*
X0276573Y0136066D02*
X0276573Y0139673D01*
X0275671Y0139673D01*
X0274769Y0138771D01*
X0273868Y0139673D01*
X0272966Y0138771D01*
X0272966Y0136066D01*
X0274769Y0136066D02*
X0274769Y0138771D01*
X0271135Y0136967D02*
X0270233Y0137869D01*
X0267528Y0137869D01*
X0267528Y0138771D02*
X0267528Y0136066D01*
X0270233Y0136066D01*
X0271135Y0136967D01*
X0270233Y0139673D02*
X0268430Y0139673D01*
X0267528Y0138771D01*
X0265697Y0139673D02*
X0264796Y0139673D01*
X0264796Y0136066D01*
X0265697Y0136066D02*
X0263894Y0136066D01*
X0262072Y0136066D02*
X0262072Y0139673D01*
X0259367Y0139673D01*
X0258466Y0138771D01*
X0258466Y0136066D01*
X0256635Y0134262D02*
X0254831Y0136066D01*
X0255733Y0136066D01*
X0255733Y0136967D01*
X0254831Y0136967D01*
X0254831Y0136066D01*
X0247572Y0136066D02*
X0247572Y0141476D01*
X0243965Y0141476D01*
X0245768Y0138771D02*
X0247572Y0138771D01*
X0247576Y0133519D02*
X0247576Y0132618D01*
X0247576Y0130814D02*
X0247576Y0127207D01*
X0246675Y0127207D02*
X0248478Y0127207D01*
X0250309Y0128109D02*
X0250309Y0129913D01*
X0251211Y0130814D01*
X0253916Y0130814D01*
X0253916Y0132618D02*
X0253916Y0127207D01*
X0251211Y0127207D01*
X0250309Y0128109D01*
X0248478Y0130814D02*
X0247576Y0130814D01*
X0244853Y0130814D02*
X0244853Y0127207D01*
X0241246Y0127207D02*
X0241246Y0129913D01*
X0242148Y0130814D01*
X0244853Y0130814D01*
X0239415Y0129913D02*
X0238513Y0130814D01*
X0236710Y0130814D01*
X0235808Y0129913D01*
X0235808Y0129011D01*
X0239415Y0129011D01*
X0239415Y0128109D02*
X0239415Y0129913D01*
X0239415Y0128109D02*
X0238513Y0127207D01*
X0236710Y0127207D01*
X0233977Y0125404D02*
X0232174Y0127207D01*
X0233076Y0127207D01*
X0233076Y0128109D01*
X0232174Y0128109D01*
X0232174Y0127207D01*
X0224915Y0127207D02*
X0224915Y0132618D01*
X0223111Y0130814D01*
X0221308Y0132618D01*
X0221308Y0127207D01*
X0219477Y0128109D02*
X0218575Y0129011D01*
X0215870Y0129011D01*
X0215870Y0129913D02*
X0215870Y0127207D01*
X0218575Y0127207D01*
X0219477Y0128109D01*
X0218575Y0130814D02*
X0216772Y0130814D01*
X0215870Y0129913D01*
X0214039Y0130814D02*
X0212236Y0130814D01*
X0213137Y0131716D02*
X0213137Y0128109D01*
X0212236Y0127207D01*
X0210414Y0127207D02*
X0210414Y0132618D01*
X0209512Y0130814D02*
X0207709Y0130814D01*
X0206807Y0129913D01*
X0206807Y0127207D01*
X0204976Y0127207D02*
X0203173Y0127207D01*
X0204075Y0127207D02*
X0204075Y0130814D01*
X0204976Y0130814D01*
X0204075Y0132618D02*
X0204075Y0133519D01*
X0204088Y0136066D02*
X0206793Y0136066D01*
X0207695Y0136967D01*
X0206793Y0137869D01*
X0204088Y0137869D01*
X0204088Y0138771D02*
X0204088Y0136066D01*
X0202257Y0136066D02*
X0199552Y0136066D01*
X0198651Y0136967D01*
X0199552Y0137869D01*
X0201356Y0137869D01*
X0202257Y0138771D01*
X0201356Y0139673D01*
X0198651Y0139673D01*
X0196820Y0139673D02*
X0195016Y0139673D01*
X0195918Y0140574D02*
X0195918Y0136967D01*
X0195016Y0136066D01*
X0193195Y0136066D02*
X0191391Y0136066D01*
X0192293Y0136066D02*
X0192293Y0139673D01*
X0193195Y0139673D01*
X0192293Y0141476D02*
X0192293Y0142378D01*
X0194105Y0144924D02*
X0195007Y0144924D01*
X0195007Y0145826D01*
X0194105Y0145826D01*
X0194105Y0144924D01*
X0194105Y0147629D02*
X0195007Y0147629D01*
X0195007Y0148531D01*
X0194105Y0148531D01*
X0194105Y0147629D01*
X0196838Y0148531D02*
X0199543Y0148531D01*
X0200445Y0147629D01*
X0199543Y0146727D01*
X0197740Y0146727D01*
X0196838Y0145826D01*
X0197740Y0144924D01*
X0200445Y0144924D01*
X0202267Y0144924D02*
X0203168Y0145826D01*
X0203168Y0149432D01*
X0204070Y0148531D02*
X0202267Y0148531D01*
X0205901Y0147629D02*
X0205901Y0144924D01*
X0205901Y0147629D02*
X0206803Y0148531D01*
X0209508Y0148531D01*
X0209508Y0144924D01*
X0211339Y0146727D02*
X0214945Y0146727D01*
X0214945Y0145826D02*
X0214945Y0147629D01*
X0214044Y0148531D01*
X0212240Y0148531D01*
X0211339Y0147629D01*
X0211339Y0146727D01*
X0212240Y0144924D02*
X0214044Y0144924D01*
X0214945Y0145826D01*
X0216776Y0144924D02*
X0216776Y0150334D01*
X0216776Y0148531D02*
X0219481Y0148531D01*
X0220383Y0147629D01*
X0220383Y0145826D01*
X0219481Y0144924D01*
X0216776Y0144924D01*
X0222214Y0144924D02*
X0222214Y0148531D01*
X0225821Y0148531D02*
X0225821Y0145826D01*
X0224919Y0144924D01*
X0222214Y0144924D01*
X0227643Y0144924D02*
X0228544Y0145826D01*
X0228544Y0149432D01*
X0229446Y0148531D02*
X0227643Y0148531D01*
X0231277Y0148531D02*
X0233982Y0148531D01*
X0234884Y0147629D01*
X0233982Y0146727D01*
X0232179Y0146727D01*
X0231277Y0145826D01*
X0232179Y0144924D01*
X0234884Y0144924D01*
X0235795Y0141476D02*
X0235795Y0136066D01*
X0236696Y0136066D02*
X0234893Y0136066D01*
X0233071Y0136967D02*
X0232169Y0136066D01*
X0229464Y0136066D01*
X0227633Y0136967D02*
X0226732Y0136066D01*
X0224928Y0136066D01*
X0224027Y0136967D01*
X0224027Y0138771D01*
X0224928Y0139673D01*
X0226732Y0139673D01*
X0227633Y0138771D01*
X0227633Y0136967D01*
X0229464Y0139673D02*
X0232169Y0139673D01*
X0233071Y0138771D01*
X0233071Y0136967D01*
X0235795Y0141476D02*
X0236696Y0141476D01*
X0238527Y0138771D02*
X0238527Y0136066D01*
X0241232Y0136066D01*
X0242134Y0136967D01*
X0241232Y0137869D01*
X0238527Y0137869D01*
X0238527Y0138771D02*
X0239429Y0139673D01*
X0241232Y0139673D01*
X0242152Y0144924D02*
X0242152Y0147629D01*
X0243054Y0148531D01*
X0245759Y0148531D01*
X0245759Y0144924D01*
X0247590Y0144924D02*
X0250295Y0144924D01*
X0251197Y0145826D01*
X0251197Y0147629D01*
X0250295Y0148531D01*
X0247590Y0148531D01*
X0247590Y0144022D01*
X0248492Y0143121D01*
X0249393Y0143121D01*
X0253019Y0144924D02*
X0254822Y0144924D01*
X0253920Y0144924D02*
X0253920Y0148531D01*
X0254822Y0148531D01*
X0256653Y0148531D02*
X0259358Y0148531D01*
X0260260Y0147629D01*
X0259358Y0146727D01*
X0257555Y0146727D01*
X0256653Y0145826D01*
X0257555Y0144924D01*
X0260260Y0144924D01*
X0262091Y0146727D02*
X0265697Y0146727D01*
X0265697Y0145826D02*
X0265697Y0147629D01*
X0264796Y0148531D01*
X0262992Y0148531D01*
X0262091Y0147629D01*
X0262091Y0146727D01*
X0262992Y0144924D02*
X0264796Y0144924D01*
X0265697Y0145826D01*
X0267528Y0145826D02*
X0267528Y0149432D01*
X0268430Y0150334D01*
X0271135Y0150334D01*
X0271135Y0144924D01*
X0268430Y0144924D01*
X0267528Y0145826D01*
X0264796Y0142378D02*
X0264796Y0141476D01*
X0272966Y0145826D02*
X0272966Y0147629D01*
X0273868Y0148531D01*
X0275671Y0148531D01*
X0276573Y0147629D01*
X0276573Y0145826D01*
X0275671Y0144924D01*
X0273868Y0144924D01*
X0272966Y0145826D01*
X0278395Y0144924D02*
X0280198Y0144924D01*
X0279296Y0144924D02*
X0279296Y0148531D01*
X0280198Y0148531D01*
X0282029Y0148531D02*
X0282931Y0147629D01*
X0285636Y0147629D01*
X0285636Y0144924D02*
X0282931Y0144924D01*
X0282029Y0145826D01*
X0282029Y0146727D01*
X0282931Y0147629D01*
X0282029Y0148531D02*
X0282029Y0149432D01*
X0282931Y0150334D01*
X0285636Y0150334D01*
X0285636Y0144924D01*
X0279296Y0150334D02*
X0279296Y0151236D01*
X0281040Y0161656D02*
X0282843Y0161656D01*
X0283745Y0162558D01*
X0283745Y0164361D01*
X0282843Y0165263D01*
X0281040Y0165263D01*
X0280138Y0164361D01*
X0280138Y0163460D01*
X0283745Y0163460D01*
X0285576Y0163460D02*
X0285576Y0167066D01*
X0284656Y0170515D02*
X0282853Y0170515D01*
X0281951Y0171416D01*
X0281951Y0173220D01*
X0283754Y0173220D01*
X0281951Y0175023D02*
X0282853Y0175925D01*
X0284656Y0175925D01*
X0285558Y0175023D01*
X0285558Y0171416D01*
X0284656Y0170515D01*
X0280120Y0171416D02*
X0280120Y0173220D01*
X0279218Y0174121D01*
X0277415Y0174121D01*
X0276513Y0173220D01*
X0276513Y0172318D01*
X0280120Y0172318D01*
X0280120Y0171416D02*
X0279218Y0170515D01*
X0277415Y0170515D01*
X0274682Y0170515D02*
X0272879Y0170515D01*
X0273781Y0170515D02*
X0273781Y0174121D01*
X0274682Y0174121D01*
X0273781Y0175925D02*
X0273781Y0176826D01*
X0274687Y0179373D02*
X0271982Y0179373D01*
X0271982Y0182078D01*
X0272883Y0182980D01*
X0274687Y0182980D01*
X0274687Y0181176D02*
X0271982Y0181176D01*
X0270151Y0181176D02*
X0268347Y0182980D01*
X0267446Y0182980D01*
X0265619Y0182980D02*
X0263816Y0182980D01*
X0264718Y0183881D02*
X0264718Y0180275D01*
X0263816Y0179373D01*
X0261994Y0179373D02*
X0258388Y0179373D01*
X0256557Y0177569D02*
X0254753Y0179373D01*
X0255655Y0179373D01*
X0255655Y0180275D01*
X0254753Y0180275D01*
X0254753Y0179373D01*
X0258388Y0182980D02*
X0261994Y0179373D01*
X0261994Y0182980D02*
X0258388Y0182980D01*
X0254753Y0186428D02*
X0253852Y0186428D01*
X0252950Y0187329D01*
X0252950Y0191838D01*
X0255655Y0191838D01*
X0256557Y0190936D01*
X0256557Y0189133D01*
X0255655Y0188231D01*
X0252950Y0188231D01*
X0251119Y0186428D02*
X0249316Y0188231D01*
X0250217Y0188231D01*
X0250217Y0189133D01*
X0249316Y0189133D01*
X0249316Y0188231D01*
X0247494Y0184783D02*
X0244789Y0184783D01*
X0243887Y0183881D01*
X0243887Y0182078D01*
X0244789Y0181176D01*
X0247494Y0181176D01*
X0247494Y0179373D02*
X0247494Y0184783D01*
X0242056Y0184783D02*
X0242056Y0179373D01*
X0242056Y0182078D02*
X0241154Y0182980D01*
X0239351Y0182980D01*
X0238449Y0182078D01*
X0238449Y0179373D01*
X0236618Y0179373D02*
X0234815Y0179373D01*
X0235717Y0179373D02*
X0235717Y0182980D01*
X0236618Y0182980D01*
X0235717Y0184783D02*
X0235717Y0185685D01*
X0235717Y0188231D02*
X0235717Y0191838D01*
X0236618Y0191838D01*
X0235717Y0193641D02*
X0235717Y0194543D01*
X0237525Y0195286D02*
X0235721Y0197089D01*
X0236623Y0197089D01*
X0236623Y0197991D01*
X0235721Y0197991D01*
X0235721Y0197089D01*
X0239351Y0193641D02*
X0238449Y0192740D01*
X0239351Y0193641D02*
X0241154Y0193641D01*
X0242056Y0192740D01*
X0242056Y0189133D01*
X0241154Y0188231D01*
X0239351Y0188231D01*
X0238449Y0189133D01*
X0238449Y0190936D01*
X0240253Y0190936D01*
X0236618Y0188231D02*
X0234815Y0188231D01*
X0232993Y0188231D02*
X0230288Y0188231D01*
X0229386Y0189133D01*
X0230288Y0190034D01*
X0232091Y0190034D01*
X0232993Y0190936D01*
X0232091Y0191838D01*
X0229386Y0191838D01*
X0227555Y0190936D02*
X0227555Y0189133D01*
X0226654Y0188231D01*
X0224850Y0188231D01*
X0223949Y0189133D01*
X0223949Y0190936D01*
X0224850Y0191838D01*
X0226654Y0191838D01*
X0227555Y0190936D01*
X0228466Y0185685D02*
X0228466Y0184783D01*
X0228466Y0182980D02*
X0228466Y0179373D01*
X0227565Y0179373D02*
X0229368Y0179373D01*
X0231190Y0179373D02*
X0232993Y0179373D01*
X0232091Y0179373D02*
X0232091Y0184783D01*
X0232993Y0184783D01*
X0229368Y0182980D02*
X0228466Y0182980D01*
X0225743Y0182980D02*
X0225743Y0177569D01*
X0225743Y0179373D02*
X0223038Y0179373D01*
X0222136Y0180275D01*
X0222136Y0182078D01*
X0223038Y0182980D01*
X0225743Y0182980D01*
X0220305Y0182980D02*
X0220305Y0177569D01*
X0220305Y0179373D02*
X0217600Y0179373D01*
X0216698Y0180275D01*
X0216698Y0182078D01*
X0217600Y0182980D01*
X0220305Y0182980D01*
X0221216Y0188231D02*
X0218511Y0188231D01*
X0218511Y0191838D01*
X0222118Y0191838D02*
X0222118Y0189133D01*
X0221216Y0188231D01*
X0214867Y0182078D02*
X0213966Y0182980D01*
X0212162Y0182980D01*
X0211261Y0182078D01*
X0211261Y0181176D01*
X0214867Y0181176D01*
X0214867Y0180275D02*
X0214867Y0182078D01*
X0214867Y0180275D02*
X0213966Y0179373D01*
X0212162Y0179373D01*
X0214872Y0176826D02*
X0214872Y0175925D01*
X0214872Y0174121D02*
X0214872Y0170515D01*
X0215774Y0170515D02*
X0213970Y0170515D01*
X0212149Y0171416D02*
X0211247Y0170515D01*
X0208542Y0170515D01*
X0209444Y0167066D02*
X0212149Y0167066D01*
X0212149Y0161656D01*
X0209444Y0161656D01*
X0208542Y0162558D01*
X0208542Y0166165D01*
X0209444Y0167066D01*
X0206711Y0167066D02*
X0206711Y0161656D01*
X0203104Y0161656D01*
X0201273Y0163460D02*
X0199470Y0161656D01*
X0197666Y0163460D01*
X0197666Y0167066D01*
X0201273Y0167066D02*
X0201273Y0163460D01*
X0204908Y0164361D02*
X0206711Y0164361D01*
X0206711Y0167066D02*
X0203104Y0167066D01*
X0199470Y0170515D02*
X0199470Y0175925D01*
X0201273Y0175925D02*
X0197666Y0175925D01*
X0195836Y0174121D02*
X0195836Y0170515D01*
X0195836Y0172318D02*
X0194032Y0174121D01*
X0193130Y0174121D01*
X0191304Y0174121D02*
X0191304Y0171416D01*
X0190402Y0170515D01*
X0187697Y0170515D01*
X0187697Y0174121D01*
X0185866Y0173220D02*
X0184063Y0173220D01*
X0182241Y0173220D02*
X0180438Y0173220D01*
X0178616Y0173220D02*
X0178616Y0171416D01*
X0177714Y0170515D01*
X0175911Y0170515D01*
X0175009Y0172318D02*
X0178616Y0172318D01*
X0178616Y0173220D02*
X0177714Y0174121D01*
X0175911Y0174121D01*
X0175009Y0173220D01*
X0175009Y0172318D01*
X0173178Y0172318D02*
X0171375Y0174121D01*
X0170473Y0174121D01*
X0173178Y0174121D02*
X0173178Y0170515D01*
X0174085Y0167066D02*
X0171380Y0167066D01*
X0170478Y0166165D01*
X0170478Y0162558D01*
X0171380Y0161656D01*
X0174085Y0161656D01*
X0174085Y0167066D01*
X0175916Y0167066D02*
X0179522Y0167066D01*
X0179522Y0161656D01*
X0175916Y0161656D01*
X0177719Y0164361D02*
X0179522Y0164361D01*
X0181353Y0161656D02*
X0184960Y0161656D01*
X0184960Y0167066D01*
X0181353Y0167066D01*
X0183157Y0164361D02*
X0184960Y0164361D01*
X0186791Y0163460D02*
X0186791Y0162558D01*
X0187693Y0161656D01*
X0189496Y0161656D01*
X0190398Y0162558D01*
X0189496Y0164361D02*
X0187693Y0164361D01*
X0186791Y0163460D01*
X0186791Y0166165D02*
X0187693Y0167066D01*
X0189496Y0167066D01*
X0190398Y0166165D01*
X0190398Y0165263D01*
X0189496Y0164361D01*
X0184965Y0170515D02*
X0184965Y0175023D01*
X0184063Y0175925D01*
X0181340Y0175023D02*
X0180438Y0175925D01*
X0181340Y0175023D02*
X0181340Y0170515D01*
X0181340Y0179373D02*
X0178634Y0179373D01*
X0178634Y0182980D01*
X0176804Y0182078D02*
X0175902Y0182980D01*
X0173197Y0182980D01*
X0173197Y0184783D02*
X0173197Y0179373D01*
X0175902Y0179373D01*
X0176804Y0180275D01*
X0176804Y0182078D01*
X0181340Y0179373D02*
X0182241Y0180275D01*
X0182241Y0182980D01*
X0184072Y0182078D02*
X0184072Y0179373D01*
X0186777Y0179373D01*
X0187679Y0180275D01*
X0186777Y0181176D01*
X0184072Y0181176D01*
X0184072Y0182078D02*
X0184974Y0182980D01*
X0186777Y0182980D01*
X0189510Y0182078D02*
X0189510Y0179373D01*
X0189510Y0182078D02*
X0190412Y0182980D01*
X0193117Y0182980D01*
X0193117Y0179373D01*
X0194948Y0181176D02*
X0198554Y0181176D01*
X0198554Y0180275D02*
X0198554Y0182078D01*
X0197653Y0182980D01*
X0195849Y0182980D01*
X0194948Y0182078D01*
X0194948Y0181176D01*
X0195849Y0179373D02*
X0197653Y0179373D01*
X0198554Y0180275D01*
X0200385Y0179373D02*
X0202189Y0181176D01*
X0201287Y0181176D02*
X0203992Y0181176D01*
X0203992Y0179373D02*
X0203992Y0184783D01*
X0201287Y0184783D01*
X0200385Y0183881D01*
X0200385Y0182078D01*
X0201287Y0181176D01*
X0202198Y0188231D02*
X0204903Y0188231D01*
X0205805Y0189133D01*
X0204903Y0190034D01*
X0202198Y0190034D01*
X0202198Y0190936D02*
X0202198Y0188231D01*
X0200367Y0188231D02*
X0200367Y0191838D01*
X0197662Y0191838D01*
X0196760Y0190936D01*
X0196760Y0188231D01*
X0202198Y0190936D02*
X0203100Y0191838D01*
X0204903Y0191838D01*
X0207636Y0191838D02*
X0209439Y0188231D01*
X0211242Y0191838D01*
X0212158Y0197089D02*
X0213961Y0197089D01*
X0213059Y0197089D02*
X0213059Y0200696D01*
X0213961Y0200696D01*
X0215792Y0200696D02*
X0218497Y0200696D01*
X0219399Y0199794D01*
X0219399Y0197991D01*
X0218497Y0197089D01*
X0215792Y0197089D01*
X0215792Y0202499D01*
X0213059Y0202499D02*
X0213059Y0203401D01*
X0210336Y0199794D02*
X0209434Y0200696D01*
X0207631Y0200696D01*
X0206729Y0199794D01*
X0206729Y0198893D01*
X0210336Y0198893D01*
X0210336Y0199794D02*
X0210336Y0197991D01*
X0209434Y0197089D01*
X0207631Y0197089D01*
X0204898Y0197089D02*
X0204898Y0200696D01*
X0204898Y0198893D02*
X0203095Y0200696D01*
X0202193Y0200696D01*
X0194929Y0202499D02*
X0191322Y0202499D01*
X0193126Y0202499D02*
X0193126Y0197089D01*
X0189491Y0197089D02*
X0189491Y0200696D01*
X0189491Y0198893D02*
X0187688Y0200696D01*
X0186786Y0200696D01*
X0184960Y0199794D02*
X0184960Y0197991D01*
X0184058Y0197089D01*
X0182255Y0197089D01*
X0181353Y0197991D01*
X0181353Y0199794D01*
X0182255Y0200696D01*
X0184058Y0200696D01*
X0184960Y0199794D01*
X0179522Y0200696D02*
X0179522Y0197089D01*
X0175916Y0197089D02*
X0175916Y0199794D01*
X0176817Y0200696D01*
X0179522Y0200696D01*
X0174085Y0199794D02*
X0174085Y0197991D01*
X0173183Y0197089D01*
X0171380Y0197089D01*
X0170478Y0197991D01*
X0170478Y0199794D01*
X0171380Y0200696D01*
X0173183Y0200696D01*
X0174085Y0199794D01*
X0168647Y0195286D02*
X0166844Y0197089D01*
X0167745Y0197089D01*
X0167745Y0197991D01*
X0166844Y0197991D01*
X0166844Y0197089D01*
X0167745Y0193641D02*
X0168647Y0192740D01*
X0168647Y0189133D01*
X0167745Y0188231D01*
X0165942Y0188231D01*
X0165040Y0189133D01*
X0165040Y0190936D01*
X0166844Y0190936D01*
X0165040Y0192740D02*
X0165942Y0193641D01*
X0167745Y0193641D01*
X0163209Y0190936D02*
X0163209Y0189133D01*
X0162308Y0188231D01*
X0160504Y0188231D01*
X0159602Y0189133D01*
X0159602Y0190936D01*
X0160504Y0191838D01*
X0162308Y0191838D01*
X0163209Y0190936D01*
X0157772Y0190936D02*
X0157772Y0189133D01*
X0156870Y0188231D01*
X0155066Y0188231D01*
X0154165Y0189133D01*
X0154165Y0190936D01*
X0155066Y0191838D01*
X0156870Y0191838D01*
X0157772Y0190936D01*
X0152334Y0191838D02*
X0150530Y0191838D01*
X0151432Y0192740D02*
X0151432Y0189133D01*
X0150530Y0188231D01*
X0148709Y0186428D02*
X0146905Y0188231D01*
X0147807Y0188231D01*
X0147807Y0189133D01*
X0146905Y0189133D01*
X0146905Y0188231D01*
X0169562Y0180275D02*
X0170464Y0180275D01*
X0170464Y0179373D01*
X0169562Y0179373D01*
X0169562Y0180275D01*
X0169562Y0179373D02*
X0171366Y0177569D01*
X0167745Y0171416D02*
X0167745Y0170515D01*
X0166844Y0170515D01*
X0166844Y0171416D01*
X0167745Y0171416D01*
X0166844Y0170515D02*
X0168647Y0168711D01*
X0163209Y0167066D02*
X0160504Y0167066D01*
X0159602Y0166165D01*
X0159602Y0164361D01*
X0160504Y0163460D01*
X0163209Y0163460D01*
X0163209Y0161656D02*
X0163209Y0167066D01*
X0157772Y0165263D02*
X0157772Y0161656D01*
X0157772Y0163460D02*
X0155968Y0165263D01*
X0155066Y0165263D01*
X0153240Y0164361D02*
X0153240Y0162558D01*
X0152338Y0161656D01*
X0150535Y0161656D01*
X0149633Y0162558D01*
X0149633Y0164361D01*
X0150535Y0165263D01*
X0152338Y0165263D01*
X0153240Y0164361D01*
X0147802Y0164361D02*
X0147802Y0162558D01*
X0146901Y0161656D01*
X0144196Y0161656D01*
X0144196Y0160755D02*
X0144196Y0165263D01*
X0146901Y0165263D01*
X0147802Y0164361D01*
X0145999Y0159853D02*
X0145097Y0159853D01*
X0144196Y0160755D01*
X0142365Y0161656D02*
X0142365Y0165263D01*
X0142365Y0163460D02*
X0140561Y0165263D01*
X0139660Y0165263D01*
X0136932Y0165263D02*
X0135128Y0165263D01*
X0134227Y0164361D01*
X0134227Y0161656D01*
X0136932Y0161656D01*
X0137833Y0162558D01*
X0136932Y0163460D01*
X0134227Y0163460D01*
X0132396Y0165263D02*
X0132396Y0161656D01*
X0130592Y0161656D02*
X0130592Y0164361D01*
X0129691Y0165263D01*
X0128789Y0164361D01*
X0128789Y0161656D01*
X0126958Y0161656D02*
X0126056Y0161656D01*
X0126056Y0162558D01*
X0126958Y0162558D01*
X0126958Y0161656D01*
X0130592Y0164361D02*
X0131494Y0165263D01*
X0132396Y0165263D01*
X0120696Y0151236D02*
X0120696Y0150334D01*
X0120696Y0148531D02*
X0120696Y0144924D01*
X0119795Y0144924D02*
X0121598Y0144924D01*
X0123429Y0144924D02*
X0123429Y0147629D01*
X0124331Y0148531D01*
X0125232Y0147629D01*
X0125232Y0144924D01*
X0127036Y0144924D02*
X0127036Y0148531D01*
X0126134Y0148531D01*
X0125232Y0147629D01*
X0121598Y0148531D02*
X0120696Y0148531D01*
X0117973Y0148531D02*
X0115268Y0148531D01*
X0114366Y0147629D01*
X0114366Y0144924D01*
X0112535Y0145826D02*
X0112535Y0147629D01*
X0111634Y0148531D01*
X0109830Y0148531D01*
X0108929Y0147629D01*
X0108929Y0146727D01*
X0112535Y0146727D01*
X0112535Y0145826D02*
X0111634Y0144924D01*
X0109830Y0144924D01*
X0107098Y0143121D02*
X0105294Y0144924D01*
X0106196Y0144924D01*
X0106196Y0145826D01*
X0105294Y0145826D01*
X0105294Y0144924D01*
X0117973Y0144924D02*
X0117973Y0148531D01*
X0128867Y0148531D02*
X0131572Y0148531D01*
X0132474Y0147629D01*
X0131572Y0146727D01*
X0129768Y0146727D01*
X0128867Y0145826D01*
X0129768Y0144924D01*
X0132474Y0144924D01*
X0134305Y0144924D02*
X0137010Y0144924D01*
X0137911Y0145826D01*
X0137010Y0146727D01*
X0134305Y0146727D01*
X0134305Y0147629D02*
X0134305Y0144924D01*
X0134305Y0147629D02*
X0135206Y0148531D01*
X0137010Y0148531D01*
X0139742Y0150334D02*
X0141546Y0150334D01*
X0140644Y0150334D02*
X0140644Y0145826D01*
X0141546Y0144924D01*
X0142447Y0144924D01*
X0143349Y0145826D01*
X0139724Y0141476D02*
X0139724Y0136066D01*
X0137920Y0137869D01*
X0136117Y0136066D01*
X0136117Y0141476D01*
X0133384Y0136967D02*
X0132483Y0136967D01*
X0132483Y0136066D01*
X0133384Y0136066D01*
X0133384Y0136967D01*
X0132483Y0136066D02*
X0134286Y0134262D01*
X0133384Y0130814D02*
X0131581Y0130814D01*
X0130679Y0129913D01*
X0130679Y0127207D01*
X0133384Y0127207D01*
X0134286Y0128109D01*
X0133384Y0129011D01*
X0130679Y0129011D01*
X0128848Y0129913D02*
X0127947Y0130814D01*
X0125242Y0130814D01*
X0126143Y0129011D02*
X0125242Y0128109D01*
X0126143Y0127207D01*
X0128848Y0127207D01*
X0127947Y0129011D02*
X0128848Y0129913D01*
X0127947Y0129011D02*
X0126143Y0129011D01*
X0123411Y0129913D02*
X0123411Y0133519D01*
X0123411Y0128109D02*
X0123411Y0127207D01*
X0136117Y0127207D02*
X0136117Y0129913D01*
X0137019Y0130814D01*
X0137920Y0129913D01*
X0137920Y0127207D01*
X0139724Y0127207D02*
X0139724Y0130814D01*
X0138822Y0130814D01*
X0137920Y0129913D01*
X0141555Y0129913D02*
X0142456Y0130814D01*
X0144260Y0130814D01*
X0145162Y0129913D01*
X0145162Y0128109D01*
X0144260Y0127207D01*
X0142456Y0127207D01*
X0141555Y0128109D01*
X0141555Y0129913D01*
X0146992Y0129913D02*
X0147894Y0130814D01*
X0149698Y0130814D01*
X0150599Y0129913D01*
X0150599Y0132618D02*
X0150599Y0127207D01*
X0146992Y0127207D02*
X0146992Y0129913D01*
X0152430Y0132618D02*
X0156037Y0132618D01*
X0154234Y0132618D02*
X0154234Y0127207D01*
X0163306Y0127207D02*
X0166011Y0127207D01*
X0166912Y0128109D01*
X0166912Y0129913D01*
X0166011Y0130814D01*
X0163306Y0130814D01*
X0163306Y0132618D02*
X0163306Y0127207D01*
X0168743Y0127207D02*
X0168743Y0129913D01*
X0169645Y0130814D01*
X0172350Y0130814D01*
X0172350Y0127207D01*
X0174181Y0127207D02*
X0176886Y0127207D01*
X0177788Y0128109D01*
X0176886Y0129011D01*
X0174181Y0129011D01*
X0174181Y0129913D02*
X0174181Y0127207D01*
X0174181Y0129913D02*
X0175083Y0130814D01*
X0176886Y0130814D01*
X0178694Y0134262D02*
X0176891Y0136066D01*
X0177792Y0136066D01*
X0177792Y0136967D01*
X0176891Y0136967D01*
X0176891Y0136066D01*
X0180525Y0136066D02*
X0180525Y0138771D01*
X0181427Y0139673D01*
X0184132Y0139673D01*
X0184132Y0136066D01*
X0185963Y0137869D02*
X0189569Y0137869D01*
X0189569Y0136967D02*
X0189569Y0138771D01*
X0188668Y0139673D01*
X0186864Y0139673D01*
X0185963Y0138771D01*
X0185963Y0137869D01*
X0186864Y0136066D02*
X0188668Y0136066D01*
X0189569Y0136967D01*
X0189583Y0130814D02*
X0188682Y0129913D01*
X0188682Y0129011D01*
X0192288Y0129011D01*
X0192288Y0129913D02*
X0191387Y0130814D01*
X0189583Y0130814D01*
X0192288Y0129913D02*
X0192288Y0128109D01*
X0191387Y0127207D01*
X0189583Y0127207D01*
X0186851Y0125404D02*
X0185047Y0127207D01*
X0185949Y0127207D01*
X0185949Y0128109D01*
X0185047Y0128109D01*
X0185047Y0127207D01*
X0194119Y0127207D02*
X0196824Y0127207D01*
X0197726Y0128109D01*
X0197726Y0129913D01*
X0196824Y0130814D01*
X0194119Y0130814D01*
X0194119Y0132618D02*
X0194119Y0127207D01*
X0199548Y0127207D02*
X0201351Y0127207D01*
X0200449Y0127207D02*
X0200449Y0132618D01*
X0201351Y0132618D01*
X0204088Y0138771D02*
X0204990Y0139673D01*
X0206793Y0139673D01*
X0209526Y0139673D02*
X0210428Y0138771D01*
X0213133Y0138771D01*
X0213133Y0136066D02*
X0213133Y0141476D01*
X0210428Y0141476D01*
X0209526Y0140574D01*
X0209526Y0139673D01*
X0210428Y0138771D02*
X0209526Y0137869D01*
X0209526Y0136967D01*
X0210428Y0136066D01*
X0213133Y0136066D01*
X0209512Y0130814D02*
X0210414Y0129913D01*
X0220392Y0136066D02*
X0221294Y0136066D01*
X0221294Y0136967D01*
X0220392Y0136967D01*
X0220392Y0136066D01*
X0222196Y0134262D01*
X0253920Y0150334D02*
X0253920Y0151236D01*
X0253838Y0159853D02*
X0252034Y0161656D01*
X0252936Y0161656D01*
X0252936Y0162558D01*
X0252034Y0162558D01*
X0252034Y0161656D01*
X0255659Y0161656D02*
X0257463Y0161656D01*
X0256561Y0161656D02*
X0256561Y0165263D01*
X0257463Y0165263D01*
X0256561Y0167066D02*
X0256561Y0167968D01*
X0255650Y0168711D02*
X0253847Y0170515D01*
X0254749Y0170515D01*
X0254749Y0171416D01*
X0253847Y0171416D01*
X0253847Y0170515D01*
X0257477Y0174121D02*
X0258378Y0174121D01*
X0260182Y0172318D01*
X0260182Y0170515D02*
X0260182Y0174121D01*
X0262013Y0173220D02*
X0262013Y0172318D01*
X0265619Y0172318D01*
X0265619Y0173220D02*
X0264718Y0174121D01*
X0262914Y0174121D01*
X0262013Y0173220D01*
X0262914Y0170515D02*
X0264718Y0170515D01*
X0265619Y0171416D01*
X0265619Y0173220D01*
X0267450Y0174121D02*
X0270155Y0174121D01*
X0271057Y0173220D01*
X0270155Y0172318D01*
X0268352Y0172318D01*
X0267450Y0171416D01*
X0268352Y0170515D01*
X0271057Y0170515D01*
X0273781Y0166165D02*
X0273781Y0162558D01*
X0272879Y0161656D01*
X0271057Y0162558D02*
X0271057Y0164361D01*
X0270155Y0165263D01*
X0268352Y0165263D01*
X0267450Y0164361D01*
X0267450Y0163460D01*
X0271057Y0163460D01*
X0271057Y0162558D02*
X0270155Y0161656D01*
X0268352Y0161656D01*
X0265619Y0161656D02*
X0265619Y0165263D01*
X0263816Y0165263D02*
X0262914Y0165263D01*
X0263816Y0165263D02*
X0265619Y0163460D01*
X0261088Y0161656D02*
X0259285Y0161656D01*
X0260186Y0161656D02*
X0260186Y0167066D01*
X0261088Y0167066D01*
X0272879Y0165263D02*
X0274682Y0165263D01*
X0276504Y0165263D02*
X0278307Y0165263D01*
X0277406Y0166165D02*
X0277406Y0162558D01*
X0276504Y0161656D01*
X0285576Y0163460D02*
X0287379Y0161656D01*
X0289183Y0163460D01*
X0289183Y0167066D01*
X0292817Y0170515D02*
X0294621Y0170515D01*
X0293719Y0170515D02*
X0293719Y0175925D01*
X0294621Y0175925D01*
X0294634Y0177569D02*
X0293733Y0178471D01*
X0293733Y0182980D01*
X0297339Y0182980D02*
X0297339Y0180275D01*
X0296438Y0179373D01*
X0293733Y0179373D01*
X0294634Y0177569D02*
X0295536Y0177569D01*
X0299170Y0179373D02*
X0301875Y0179373D01*
X0302777Y0180275D01*
X0302777Y0182078D01*
X0301875Y0182980D01*
X0299170Y0182980D01*
X0299170Y0184783D02*
X0299170Y0179373D01*
X0302782Y0176826D02*
X0302782Y0175925D01*
X0302782Y0174121D02*
X0302782Y0170515D01*
X0303683Y0170515D02*
X0301880Y0170515D01*
X0300058Y0171416D02*
X0299157Y0172318D01*
X0296451Y0172318D01*
X0296451Y0173220D02*
X0296451Y0170515D01*
X0299157Y0170515D01*
X0300058Y0171416D01*
X0299157Y0174121D02*
X0297353Y0174121D01*
X0296451Y0173220D01*
X0302782Y0174121D02*
X0303683Y0174121D01*
X0305505Y0174121D02*
X0307309Y0174121D01*
X0306407Y0175023D02*
X0306407Y0171416D01*
X0305505Y0170515D01*
X0302782Y0167968D02*
X0302782Y0167066D01*
X0302782Y0165263D02*
X0302782Y0161656D01*
X0303683Y0161656D02*
X0301880Y0161656D01*
X0300058Y0161656D02*
X0300058Y0165263D01*
X0297353Y0165263D01*
X0296451Y0164361D01*
X0296451Y0161656D01*
X0302782Y0165263D02*
X0303683Y0165263D01*
X0305505Y0165263D02*
X0307309Y0165263D01*
X0306407Y0166165D02*
X0306407Y0162558D01*
X0305505Y0161656D01*
X0309135Y0165263D02*
X0310037Y0165263D01*
X0311840Y0163460D01*
X0311840Y0165263D02*
X0311840Y0161656D01*
X0313671Y0161656D02*
X0313671Y0164361D01*
X0314573Y0165263D01*
X0316376Y0165263D01*
X0316376Y0163460D02*
X0313671Y0163460D01*
X0313671Y0161656D02*
X0316376Y0161656D01*
X0317278Y0162558D01*
X0316376Y0163460D01*
X0319109Y0161656D02*
X0319109Y0167066D01*
X0320912Y0165263D01*
X0322715Y0167066D01*
X0322715Y0161656D01*
X0322715Y0170515D02*
X0322715Y0175925D01*
X0320912Y0174121D01*
X0319109Y0175925D01*
X0319109Y0170515D01*
X0317278Y0171416D02*
X0316376Y0172318D01*
X0313671Y0172318D01*
X0313671Y0173220D02*
X0313671Y0170515D01*
X0316376Y0170515D01*
X0317278Y0171416D01*
X0316376Y0174121D02*
X0314573Y0174121D01*
X0313671Y0173220D01*
X0311840Y0174121D02*
X0311840Y0170515D01*
X0311840Y0172318D02*
X0310037Y0174121D01*
X0309135Y0174121D01*
X0310037Y0179373D02*
X0311840Y0179373D01*
X0310938Y0179373D02*
X0310938Y0184783D01*
X0311840Y0184783D01*
X0313671Y0182078D02*
X0313671Y0181176D01*
X0317278Y0181176D01*
X0317278Y0180275D02*
X0317278Y0182078D01*
X0316376Y0182980D01*
X0314573Y0182980D01*
X0313671Y0182078D01*
X0314573Y0179373D02*
X0316376Y0179373D01*
X0317278Y0180275D01*
X0319109Y0179373D02*
X0319109Y0184783D01*
X0320912Y0182980D01*
X0322715Y0184783D01*
X0322715Y0179373D01*
X0322715Y0188231D02*
X0320912Y0190034D01*
X0319109Y0188231D01*
X0319109Y0193641D01*
X0317278Y0191838D02*
X0316376Y0191838D01*
X0316376Y0188231D01*
X0317278Y0188231D02*
X0315474Y0188231D01*
X0313653Y0188231D02*
X0311849Y0188231D01*
X0312751Y0188231D02*
X0312751Y0193641D01*
X0313653Y0193641D01*
X0316376Y0193641D02*
X0316376Y0194543D01*
X0316376Y0197089D02*
X0317278Y0197991D01*
X0316376Y0198893D01*
X0313671Y0198893D01*
X0313671Y0199794D02*
X0313671Y0197089D01*
X0316376Y0197089D01*
X0316376Y0200696D02*
X0314573Y0200696D01*
X0313671Y0199794D01*
X0311840Y0200696D02*
X0311840Y0197089D01*
X0308233Y0197089D02*
X0308233Y0199794D01*
X0309135Y0200696D01*
X0311840Y0200696D01*
X0310938Y0205948D02*
X0308233Y0205948D01*
X0308233Y0208653D01*
X0309135Y0209554D01*
X0310938Y0209554D01*
X0310938Y0207751D02*
X0308233Y0207751D01*
X0306402Y0205948D02*
X0306402Y0209554D01*
X0303697Y0209554D01*
X0302795Y0208653D01*
X0302795Y0205948D01*
X0300965Y0205948D02*
X0300965Y0211358D01*
X0298259Y0209554D02*
X0300965Y0207751D01*
X0298259Y0205948D01*
X0296433Y0205948D02*
X0293728Y0205948D01*
X0292826Y0206849D01*
X0293728Y0207751D01*
X0295531Y0207751D01*
X0296433Y0208653D01*
X0295531Y0209554D01*
X0292826Y0209554D01*
X0290995Y0209554D02*
X0290995Y0208653D01*
X0290094Y0208653D01*
X0290094Y0209554D01*
X0290995Y0209554D01*
X0290995Y0206849D02*
X0290094Y0206849D01*
X0290094Y0205948D01*
X0290995Y0205948D01*
X0290995Y0206849D01*
X0290089Y0200696D02*
X0287384Y0200696D01*
X0286482Y0199794D01*
X0286482Y0197089D01*
X0286464Y0193641D02*
X0283759Y0193641D01*
X0282857Y0192740D01*
X0282857Y0190936D01*
X0283759Y0190034D01*
X0286464Y0190034D01*
X0286464Y0188231D02*
X0286464Y0193641D01*
X0290089Y0197089D02*
X0290089Y0200696D01*
X0291920Y0199794D02*
X0291920Y0197089D01*
X0294625Y0197089D01*
X0295527Y0197991D01*
X0294625Y0198893D01*
X0291920Y0198893D01*
X0291920Y0199794D02*
X0292822Y0200696D01*
X0294625Y0200696D01*
X0297358Y0200696D02*
X0299161Y0197089D01*
X0300965Y0200696D01*
X0305501Y0194543D02*
X0305501Y0193641D01*
X0305501Y0191838D02*
X0305501Y0188231D01*
X0306402Y0188231D02*
X0304599Y0188231D01*
X0302777Y0189133D02*
X0301875Y0190034D01*
X0299170Y0190034D01*
X0299170Y0190936D02*
X0299170Y0188231D01*
X0301875Y0188231D01*
X0302777Y0189133D01*
X0301875Y0191838D02*
X0300072Y0191838D01*
X0299170Y0190936D01*
X0297339Y0191838D02*
X0297339Y0188231D01*
X0295536Y0188231D02*
X0295536Y0190936D01*
X0294634Y0191838D01*
X0293733Y0190936D01*
X0293733Y0188231D01*
X0295536Y0190936D02*
X0296438Y0191838D01*
X0297339Y0191838D01*
X0305501Y0191838D02*
X0306402Y0191838D01*
X0309126Y0193641D02*
X0309126Y0188231D01*
X0310027Y0188231D02*
X0308224Y0188231D01*
X0307313Y0182980D02*
X0305510Y0182980D01*
X0304608Y0182078D01*
X0304608Y0180275D01*
X0305510Y0179373D01*
X0307313Y0179373D01*
X0308215Y0180275D01*
X0308215Y0182078D01*
X0307313Y0182980D01*
X0309126Y0193641D02*
X0310027Y0193641D01*
X0320010Y0197991D02*
X0320010Y0202499D01*
X0319109Y0202499D02*
X0320912Y0202499D01*
X0320912Y0205948D02*
X0320912Y0211358D01*
X0322715Y0211358D02*
X0319109Y0211358D01*
X0317278Y0211358D02*
X0317278Y0205948D01*
X0317278Y0208653D02*
X0316376Y0209554D01*
X0314573Y0209554D01*
X0313671Y0208653D01*
X0313671Y0205948D01*
X0311840Y0206849D02*
X0310938Y0207751D01*
X0311840Y0206849D02*
X0310938Y0205948D01*
X0320010Y0197991D02*
X0320912Y0197089D01*
X0321814Y0197089D01*
X0322715Y0197991D01*
X0322715Y0193641D02*
X0322715Y0188231D01*
X0331002Y0188898D02*
X0364624Y0188898D01*
X0364624Y0246654D01*
X0331002Y0246654D01*
X0331002Y0188898D01*
X0286464Y0183881D02*
X0286464Y0182980D01*
X0285562Y0182078D01*
X0283759Y0182078D01*
X0282857Y0181176D01*
X0282857Y0180275D01*
X0283759Y0179373D01*
X0285562Y0179373D01*
X0286464Y0180275D01*
X0286464Y0183881D02*
X0285562Y0184783D01*
X0283759Y0184783D01*
X0282857Y0183881D01*
X0281026Y0182980D02*
X0281026Y0180275D01*
X0280125Y0179373D01*
X0279223Y0180275D01*
X0278321Y0179373D01*
X0277420Y0180275D01*
X0277420Y0182980D01*
X0275589Y0180275D02*
X0274687Y0181176D01*
X0275589Y0180275D02*
X0274687Y0179373D01*
X0270151Y0179373D02*
X0270151Y0182980D01*
X0270155Y0188231D02*
X0270155Y0193641D01*
X0271057Y0193641D01*
X0272888Y0190936D02*
X0272888Y0188231D01*
X0275593Y0188231D01*
X0276495Y0189133D01*
X0275593Y0190034D01*
X0272888Y0190034D01*
X0272888Y0190936D02*
X0273790Y0191838D01*
X0275593Y0191838D01*
X0278321Y0191838D02*
X0279223Y0191838D01*
X0281026Y0190034D01*
X0281026Y0188231D02*
X0281026Y0191838D01*
X0278312Y0197089D02*
X0279214Y0197991D01*
X0279214Y0199794D01*
X0278312Y0200696D01*
X0275607Y0200696D01*
X0275607Y0202499D02*
X0275607Y0197089D01*
X0278312Y0197089D01*
X0273776Y0197991D02*
X0273776Y0199794D01*
X0272874Y0200696D01*
X0271071Y0200696D01*
X0270169Y0199794D01*
X0270169Y0198893D01*
X0273776Y0198893D01*
X0273776Y0197991D02*
X0272874Y0197089D01*
X0271071Y0197089D01*
X0268338Y0197089D02*
X0268338Y0200696D01*
X0268338Y0198893D02*
X0266535Y0200696D01*
X0265633Y0200696D01*
X0258369Y0202499D02*
X0258369Y0197089D01*
X0254762Y0197089D02*
X0254762Y0202499D01*
X0256566Y0200696D01*
X0258369Y0202499D01*
X0252931Y0199794D02*
X0252030Y0200696D01*
X0250226Y0200696D01*
X0249325Y0199794D01*
X0249325Y0198893D01*
X0252931Y0198893D01*
X0252931Y0199794D02*
X0252931Y0197991D01*
X0252030Y0197089D01*
X0250226Y0197089D01*
X0247494Y0197991D02*
X0247494Y0199794D01*
X0246592Y0200696D01*
X0244789Y0200696D01*
X0243887Y0199794D01*
X0243887Y0198893D01*
X0247494Y0198893D01*
X0247494Y0197991D02*
X0246592Y0197089D01*
X0244789Y0197089D01*
X0242056Y0197089D02*
X0242056Y0200696D01*
X0242056Y0198893D02*
X0240253Y0200696D01*
X0239351Y0200696D01*
X0228462Y0202499D02*
X0228462Y0197089D01*
X0225757Y0197089D01*
X0224855Y0197991D01*
X0224855Y0201598D01*
X0225757Y0202499D01*
X0228462Y0202499D01*
X0223024Y0200696D02*
X0222122Y0200696D01*
X0222122Y0197089D01*
X0221221Y0197089D02*
X0223024Y0197089D01*
X0222122Y0202499D02*
X0222122Y0203401D01*
X0189492Y0190936D02*
X0189492Y0189133D01*
X0188590Y0188231D01*
X0185885Y0188231D01*
X0185885Y0193641D01*
X0185885Y0191838D02*
X0188590Y0191838D01*
X0189492Y0190936D01*
X0184054Y0190936D02*
X0184054Y0189133D01*
X0183152Y0188231D01*
X0181349Y0188231D01*
X0180447Y0190034D02*
X0184054Y0190034D01*
X0184054Y0190936D02*
X0183152Y0191838D01*
X0181349Y0191838D01*
X0180447Y0190936D01*
X0180447Y0190034D01*
X0178616Y0190034D02*
X0176813Y0191838D01*
X0175911Y0191838D01*
X0178616Y0191838D02*
X0178616Y0188231D01*
X0208542Y0174121D02*
X0211247Y0174121D01*
X0212149Y0173220D01*
X0212149Y0171416D01*
X0214872Y0174121D02*
X0215774Y0174121D01*
X0217600Y0174121D02*
X0218502Y0174121D01*
X0220305Y0172318D01*
X0220305Y0170515D02*
X0220305Y0174121D01*
X0222136Y0173220D02*
X0222136Y0172318D01*
X0225743Y0172318D01*
X0225743Y0173220D02*
X0224841Y0174121D01*
X0223038Y0174121D01*
X0222136Y0173220D01*
X0223038Y0170515D02*
X0224841Y0170515D01*
X0225743Y0171416D01*
X0225743Y0173220D01*
X0227574Y0174121D02*
X0230279Y0174121D01*
X0231181Y0173220D01*
X0231181Y0171416D01*
X0230279Y0170515D01*
X0227574Y0170515D01*
X0227574Y0175925D01*
X0233012Y0173220D02*
X0233012Y0172318D01*
X0236618Y0172318D01*
X0236618Y0173220D02*
X0235717Y0174121D01*
X0233913Y0174121D01*
X0233012Y0173220D01*
X0233913Y0170515D02*
X0235717Y0170515D01*
X0236618Y0171416D01*
X0236618Y0173220D01*
X0238445Y0174121D02*
X0239346Y0174121D01*
X0241150Y0172318D01*
X0241150Y0170515D02*
X0241150Y0174121D01*
X0242981Y0175925D02*
X0246587Y0175925D01*
X0246587Y0170515D01*
X0246587Y0173220D02*
X0244784Y0173220D01*
X0243873Y0165263D02*
X0242070Y0165263D01*
X0241168Y0164361D01*
X0241168Y0161656D01*
X0243873Y0161656D01*
X0244775Y0162558D01*
X0243873Y0163460D01*
X0241168Y0163460D01*
X0239337Y0165263D02*
X0236632Y0165263D01*
X0235730Y0164361D01*
X0235730Y0161656D01*
X0233899Y0162558D02*
X0233899Y0164361D01*
X0232998Y0165263D01*
X0230293Y0165263D01*
X0230293Y0167066D02*
X0230293Y0161656D01*
X0232998Y0161656D01*
X0233899Y0162558D01*
X0239337Y0161656D02*
X0239337Y0165263D01*
X0223024Y0166165D02*
X0223024Y0162558D01*
X0222122Y0161656D01*
X0220319Y0161656D01*
X0219417Y0162558D01*
X0217586Y0162558D02*
X0216685Y0161656D01*
X0214881Y0161656D01*
X0213980Y0162558D01*
X0213980Y0166165D01*
X0214881Y0167066D01*
X0216685Y0167066D01*
X0217586Y0166165D01*
X0217586Y0162558D01*
X0219417Y0166165D02*
X0220319Y0167066D01*
X0222122Y0167066D01*
X0223024Y0166165D01*
X0186851Y0150334D02*
X0186851Y0144924D01*
X0183244Y0144924D02*
X0183244Y0150334D01*
X0181413Y0148531D02*
X0180511Y0148531D01*
X0180511Y0144924D01*
X0179610Y0144924D02*
X0181413Y0144924D01*
X0183244Y0144924D02*
X0186851Y0150334D01*
X0180511Y0150334D02*
X0180511Y0151236D01*
X0177788Y0147629D02*
X0176886Y0148531D01*
X0174181Y0148531D01*
X0172350Y0147629D02*
X0172350Y0145826D01*
X0171448Y0144924D01*
X0169645Y0144924D01*
X0168743Y0145826D01*
X0168743Y0147629D01*
X0169645Y0148531D01*
X0171448Y0148531D01*
X0172350Y0147629D01*
X0174181Y0144924D02*
X0176886Y0144924D01*
X0177788Y0145826D01*
X0177788Y0147629D01*
X0169631Y0141476D02*
X0167828Y0139673D01*
X0166024Y0141476D01*
X0166024Y0136066D01*
X0164194Y0136967D02*
X0163292Y0137869D01*
X0160587Y0137869D01*
X0160587Y0138771D02*
X0160587Y0136066D01*
X0163292Y0136066D01*
X0164194Y0136967D01*
X0163292Y0139673D02*
X0161488Y0139673D01*
X0160587Y0138771D01*
X0158756Y0139673D02*
X0158756Y0136066D01*
X0158756Y0137869D02*
X0156952Y0139673D01*
X0156051Y0139673D01*
X0154224Y0139673D02*
X0153323Y0139673D01*
X0153323Y0136066D01*
X0154224Y0136066D02*
X0152421Y0136066D01*
X0150599Y0136967D02*
X0150599Y0138771D01*
X0149698Y0139673D01*
X0147894Y0139673D01*
X0146992Y0138771D01*
X0146992Y0137869D01*
X0150599Y0137869D01*
X0150599Y0136967D02*
X0149698Y0136066D01*
X0147894Y0136066D01*
X0153323Y0141476D02*
X0153323Y0142378D01*
X0152412Y0143121D02*
X0150608Y0144924D01*
X0151510Y0144924D01*
X0151510Y0145826D01*
X0150608Y0145826D01*
X0150608Y0144924D01*
X0154243Y0145826D02*
X0155144Y0146727D01*
X0156948Y0146727D01*
X0157850Y0147629D01*
X0156948Y0148531D01*
X0154243Y0148531D01*
X0154243Y0145826D02*
X0155144Y0144924D01*
X0157850Y0144924D01*
X0159680Y0144924D02*
X0162386Y0144924D01*
X0163287Y0145826D01*
X0162386Y0146727D01*
X0159680Y0146727D01*
X0159680Y0147629D02*
X0159680Y0144924D01*
X0159680Y0147629D02*
X0160582Y0148531D01*
X0162386Y0148531D01*
X0166011Y0150334D02*
X0166011Y0144924D01*
X0166912Y0144924D02*
X0165109Y0144924D01*
X0166011Y0150334D02*
X0166912Y0150334D01*
X0169631Y0141476D02*
X0169631Y0136066D01*
X0156120Y0104976D02*
X0156120Y0104074D01*
X0083617Y0104074D02*
X0083617Y0104976D01*
X0255747Y0127207D02*
X0255747Y0129913D01*
X0256648Y0130814D01*
X0257550Y0129913D01*
X0257550Y0127207D01*
X0259353Y0127207D02*
X0259353Y0130814D01*
X0258452Y0130814D01*
X0257550Y0129913D01*
X0261184Y0129913D02*
X0262086Y0130814D01*
X0263889Y0130814D01*
X0264791Y0129913D01*
X0264791Y0128109D01*
X0263889Y0127207D01*
X0262086Y0127207D01*
X0261184Y0128109D01*
X0261184Y0129913D01*
X0266613Y0127207D02*
X0268416Y0127207D01*
X0267515Y0127207D02*
X0267515Y0132618D01*
X0268416Y0132618D01*
X0270247Y0129913D02*
X0271149Y0130814D01*
X0272952Y0130814D01*
X0273854Y0129913D01*
X0273854Y0128109D01*
X0272952Y0127207D01*
X0271149Y0127207D01*
X0270247Y0128109D01*
X0270247Y0129913D01*
X0275685Y0131716D02*
X0276587Y0132618D01*
X0278390Y0132618D01*
X0279292Y0131716D01*
X0279292Y0128109D01*
X0278390Y0127207D01*
X0276587Y0127207D01*
X0275685Y0128109D01*
X0286551Y0128109D02*
X0287453Y0128109D01*
X0287453Y0127207D01*
X0286551Y0127207D01*
X0286551Y0128109D01*
X0286551Y0127207D02*
X0288355Y0125404D01*
X0290185Y0128109D02*
X0290185Y0131716D01*
X0291087Y0132618D01*
X0293792Y0132618D01*
X0293792Y0127207D01*
X0291087Y0127207D01*
X0290185Y0128109D01*
X0296511Y0134262D02*
X0294708Y0136066D01*
X0295609Y0136066D01*
X0295609Y0136967D01*
X0294708Y0136967D01*
X0294708Y0136066D01*
X0298342Y0137869D02*
X0301949Y0137869D01*
X0301949Y0136967D02*
X0301949Y0138771D01*
X0301047Y0139673D01*
X0299244Y0139673D01*
X0298342Y0138771D01*
X0298342Y0137869D01*
X0299244Y0136066D02*
X0301047Y0136066D01*
X0301949Y0136967D01*
X0301949Y0144924D02*
X0301949Y0150334D01*
X0287448Y0141476D02*
X0287448Y0136066D01*
X0321896Y0138771D02*
X0323700Y0138771D01*
X0271057Y0188231D02*
X0269254Y0188231D01*
X0267432Y0189133D02*
X0266530Y0188231D01*
X0264727Y0188231D01*
X0263825Y0189133D01*
X0263825Y0190936D01*
X0264727Y0191838D01*
X0266530Y0191838D01*
X0267432Y0190936D01*
X0267432Y0189133D01*
X0261994Y0188231D02*
X0261994Y0191838D01*
X0259289Y0191838D01*
X0258388Y0190936D01*
X0258388Y0188231D01*
X0329191Y0238308D02*
X0329191Y0244213D01*
X0329935Y0265987D02*
X0329935Y0269594D01*
X0331739Y0271397D01*
X0333542Y0269594D01*
X0333542Y0265987D01*
X0333542Y0268692D02*
X0329935Y0268692D01*
X0328104Y0267790D02*
X0326301Y0269594D01*
X0325399Y0269594D01*
X0323573Y0269594D02*
X0321770Y0269594D01*
X0322671Y0270495D02*
X0322671Y0266889D01*
X0321770Y0265987D01*
X0328104Y0265987D02*
X0328104Y0269594D01*
X0328104Y0274845D02*
X0326301Y0274845D01*
X0327203Y0274845D02*
X0327203Y0278452D01*
X0328104Y0278452D01*
X0329935Y0278452D02*
X0330837Y0277550D01*
X0333542Y0277550D01*
X0333542Y0274845D02*
X0330837Y0274845D01*
X0329935Y0275747D01*
X0329935Y0276649D01*
X0330837Y0277550D01*
X0329935Y0278452D02*
X0329935Y0279354D01*
X0330837Y0280255D01*
X0333542Y0280255D01*
X0333542Y0274845D01*
X0327203Y0280255D02*
X0327203Y0281157D01*
X0324479Y0277550D02*
X0323578Y0278452D01*
X0321774Y0278452D01*
X0320873Y0277550D01*
X0320873Y0275747D01*
X0321774Y0274845D01*
X0323578Y0274845D01*
X0324479Y0275747D01*
X0324479Y0277550D01*
X0319042Y0274845D02*
X0316337Y0274845D01*
X0315435Y0275747D01*
X0315435Y0279354D01*
X0316337Y0280255D01*
X0319042Y0280255D01*
X0319042Y0274845D01*
X0314510Y0270495D02*
X0314510Y0269594D01*
X0313608Y0268692D01*
X0311805Y0268692D01*
X0310903Y0267790D01*
X0310903Y0266889D01*
X0311805Y0265987D01*
X0313608Y0265987D01*
X0314510Y0266889D01*
X0314510Y0270495D02*
X0313608Y0271397D01*
X0311805Y0271397D01*
X0310903Y0270495D01*
X0309072Y0268692D02*
X0309072Y0266889D01*
X0308171Y0265987D01*
X0305466Y0265987D01*
X0303635Y0265987D02*
X0301831Y0265987D01*
X0302733Y0265987D02*
X0302733Y0269594D01*
X0303635Y0269594D01*
X0305466Y0269594D02*
X0308171Y0269594D01*
X0309072Y0268692D01*
X0302733Y0271397D02*
X0302733Y0272299D01*
X0302728Y0274845D02*
X0300925Y0274845D01*
X0301827Y0274845D02*
X0301827Y0278452D01*
X0302728Y0278452D01*
X0304559Y0278452D02*
X0307264Y0278452D01*
X0308166Y0277550D01*
X0307264Y0276649D01*
X0305461Y0276649D01*
X0304559Y0275747D01*
X0305461Y0274845D01*
X0308166Y0274845D01*
X0309997Y0276649D02*
X0313604Y0276649D01*
X0313604Y0277550D02*
X0312702Y0278452D01*
X0310899Y0278452D01*
X0309997Y0277550D01*
X0309997Y0276649D01*
X0310899Y0274845D02*
X0312702Y0274845D01*
X0313604Y0275747D01*
X0313604Y0277550D01*
X0301827Y0280255D02*
X0301827Y0281157D01*
X0299103Y0277550D02*
X0298202Y0278452D01*
X0295497Y0278452D01*
X0295497Y0273944D01*
X0296398Y0273042D01*
X0297300Y0273042D01*
X0298202Y0274845D02*
X0295497Y0274845D01*
X0293666Y0274845D02*
X0293666Y0278452D01*
X0290961Y0278452D01*
X0290059Y0277550D01*
X0290059Y0274845D01*
X0291867Y0269594D02*
X0290965Y0268692D01*
X0290965Y0265987D01*
X0289134Y0266889D02*
X0288232Y0265987D01*
X0285527Y0265987D01*
X0283696Y0266889D02*
X0282795Y0265987D01*
X0280991Y0265987D01*
X0280090Y0267790D02*
X0283696Y0267790D01*
X0283696Y0266889D02*
X0283696Y0268692D01*
X0282795Y0269594D01*
X0280991Y0269594D01*
X0280090Y0268692D01*
X0280090Y0267790D01*
X0285527Y0269594D02*
X0288232Y0269594D01*
X0289134Y0268692D01*
X0289134Y0266889D01*
X0291867Y0269594D02*
X0294572Y0269594D01*
X0294572Y0265987D01*
X0296403Y0267790D02*
X0300010Y0267790D01*
X0300010Y0266889D02*
X0300010Y0268692D01*
X0299108Y0269594D01*
X0297305Y0269594D01*
X0296403Y0268692D01*
X0296403Y0267790D01*
X0297305Y0265987D02*
X0299108Y0265987D01*
X0300010Y0266889D01*
X0298202Y0274845D02*
X0299103Y0275747D01*
X0299103Y0277550D01*
X0282790Y0278452D02*
X0281888Y0278452D01*
X0281888Y0274845D01*
X0280987Y0274845D02*
X0282790Y0274845D01*
X0279165Y0274845D02*
X0276460Y0274845D01*
X0275558Y0275747D01*
X0276460Y0276649D01*
X0278263Y0276649D01*
X0279165Y0277550D01*
X0278263Y0278452D01*
X0275558Y0278452D01*
X0281888Y0280255D02*
X0281888Y0281157D01*
X0268290Y0275747D02*
X0267388Y0274845D01*
X0264683Y0274845D01*
X0264683Y0277550D01*
X0265585Y0278452D01*
X0267388Y0278452D01*
X0267388Y0276649D02*
X0264683Y0276649D01*
X0267388Y0276649D02*
X0268290Y0275747D01*
X0267383Y0271397D02*
X0267383Y0265987D01*
X0263777Y0265987D01*
X0261946Y0265987D02*
X0261946Y0271397D01*
X0259241Y0271397D01*
X0258339Y0270495D01*
X0258339Y0268692D01*
X0259241Y0267790D01*
X0261946Y0267790D01*
X0260142Y0267790D02*
X0258339Y0265987D01*
X0256508Y0264184D02*
X0254705Y0265987D01*
X0255606Y0265987D01*
X0255606Y0266889D01*
X0254705Y0266889D01*
X0254705Y0265987D01*
X0247445Y0265987D02*
X0243838Y0265987D01*
X0242007Y0265987D02*
X0242007Y0271397D01*
X0239302Y0271397D01*
X0238401Y0270495D01*
X0238401Y0268692D01*
X0239302Y0267790D01*
X0242007Y0267790D01*
X0245642Y0268692D02*
X0247445Y0268692D01*
X0247445Y0271397D02*
X0247445Y0265987D01*
X0247445Y0271397D02*
X0243838Y0271397D01*
X0244735Y0274845D02*
X0246539Y0274845D01*
X0245637Y0274845D02*
X0245637Y0280255D01*
X0246539Y0280255D01*
X0248370Y0277550D02*
X0249271Y0278452D01*
X0251075Y0278452D01*
X0251977Y0277550D01*
X0251977Y0275747D01*
X0251075Y0274845D01*
X0249271Y0274845D01*
X0248370Y0275747D01*
X0248370Y0277550D01*
X0253807Y0278452D02*
X0256513Y0278452D01*
X0257414Y0277550D01*
X0257414Y0275747D01*
X0256513Y0274845D01*
X0253807Y0274845D01*
X0242914Y0274845D02*
X0241110Y0274845D01*
X0242012Y0274845D02*
X0242012Y0280255D01*
X0242914Y0280255D01*
X0238387Y0278452D02*
X0236583Y0278452D01*
X0235682Y0277550D01*
X0235682Y0274845D01*
X0238387Y0274845D01*
X0239289Y0275747D01*
X0238387Y0276649D01*
X0235682Y0276649D01*
X0233851Y0278452D02*
X0231146Y0278452D01*
X0230244Y0277550D01*
X0230244Y0275747D01*
X0231146Y0274845D01*
X0233851Y0274845D01*
X0233851Y0280255D01*
X0228413Y0277550D02*
X0228413Y0275747D01*
X0227511Y0274845D01*
X0225708Y0274845D01*
X0224806Y0275747D01*
X0224806Y0277550D01*
X0225708Y0278452D01*
X0227511Y0278452D01*
X0228413Y0277550D01*
X0222975Y0276649D02*
X0221172Y0278452D01*
X0220270Y0278452D01*
X0222975Y0278452D02*
X0222975Y0274845D01*
X0218444Y0275747D02*
X0217542Y0276649D01*
X0214837Y0276649D01*
X0214837Y0277550D02*
X0214837Y0274845D01*
X0217542Y0274845D01*
X0218444Y0275747D01*
X0217542Y0278452D02*
X0215739Y0278452D01*
X0214837Y0277550D01*
X0213006Y0278452D02*
X0211203Y0278452D01*
X0212105Y0279354D02*
X0212105Y0275747D01*
X0211203Y0274845D01*
X0209381Y0274845D02*
X0207578Y0274845D01*
X0208479Y0274845D02*
X0208479Y0278452D01*
X0209381Y0278452D01*
X0208479Y0280255D02*
X0208479Y0281157D01*
X0205756Y0277550D02*
X0204854Y0278452D01*
X0203051Y0278452D01*
X0202149Y0277550D01*
X0202149Y0275747D01*
X0203051Y0274845D01*
X0204854Y0274845D01*
X0205756Y0275747D01*
X0205756Y0277550D01*
X0200318Y0278452D02*
X0200318Y0274845D01*
X0196712Y0274845D02*
X0196712Y0277550D01*
X0197613Y0278452D01*
X0200318Y0278452D01*
X0202149Y0271397D02*
X0202149Y0265987D01*
X0204854Y0265987D01*
X0205756Y0266889D01*
X0205756Y0268692D01*
X0204854Y0269594D01*
X0202149Y0269594D01*
X0207587Y0268692D02*
X0207587Y0265987D01*
X0207587Y0268692D02*
X0208489Y0269594D01*
X0211194Y0269594D01*
X0211194Y0265987D01*
X0213025Y0265987D02*
X0213025Y0268692D01*
X0213926Y0269594D01*
X0215730Y0269594D01*
X0215730Y0267790D02*
X0213025Y0267790D01*
X0213025Y0265987D02*
X0215730Y0265987D01*
X0216631Y0266889D01*
X0215730Y0267790D01*
X0223891Y0266889D02*
X0223891Y0265987D01*
X0224793Y0265987D01*
X0224793Y0266889D01*
X0223891Y0266889D01*
X0223891Y0265987D02*
X0225694Y0264184D01*
X0227525Y0265987D02*
X0231132Y0265987D01*
X0231132Y0271397D01*
X0232963Y0271397D02*
X0236570Y0271397D01*
X0236570Y0265987D01*
X0236570Y0268692D02*
X0234766Y0268692D01*
X0269214Y0267790D02*
X0269214Y0266889D01*
X0270116Y0265987D01*
X0272821Y0265987D01*
X0272821Y0271397D01*
X0270116Y0271397D01*
X0269214Y0270495D01*
X0269214Y0269594D01*
X0270116Y0268692D01*
X0272821Y0268692D01*
X0270116Y0268692D02*
X0269214Y0267790D01*
X0194881Y0265987D02*
X0191274Y0265987D01*
X0189443Y0265987D02*
X0187639Y0265987D01*
X0188541Y0265987D02*
X0188541Y0269594D01*
X0189443Y0269594D01*
X0188541Y0271397D02*
X0188541Y0272299D01*
X0189443Y0274845D02*
X0186738Y0274845D01*
X0185836Y0275747D01*
X0185836Y0277550D01*
X0186738Y0278452D01*
X0189443Y0278452D01*
X0189443Y0280255D02*
X0189443Y0274845D01*
X0184916Y0270495D02*
X0184014Y0271397D01*
X0184916Y0270495D02*
X0184916Y0265987D01*
X0185818Y0268692D02*
X0184014Y0268692D01*
X0182193Y0268692D02*
X0181291Y0269594D01*
X0179488Y0269594D01*
X0178586Y0268692D01*
X0178586Y0267790D01*
X0182193Y0267790D01*
X0182193Y0266889D02*
X0182193Y0268692D01*
X0182193Y0266889D02*
X0181291Y0265987D01*
X0179488Y0265987D01*
X0176755Y0265987D02*
X0174050Y0265987D01*
X0173148Y0266889D01*
X0173148Y0268692D01*
X0174050Y0269594D01*
X0176755Y0269594D01*
X0176755Y0264184D01*
X0171317Y0266889D02*
X0170415Y0265987D01*
X0167710Y0265987D01*
X0167710Y0268692D01*
X0168612Y0269594D01*
X0170415Y0269594D01*
X0170415Y0267790D02*
X0167710Y0267790D01*
X0165879Y0269594D02*
X0164076Y0269594D01*
X0164978Y0270495D02*
X0164978Y0266889D01*
X0164076Y0265987D01*
X0162254Y0266889D02*
X0161353Y0265987D01*
X0158648Y0265987D01*
X0156817Y0265987D02*
X0156817Y0271397D01*
X0155915Y0269594D02*
X0154112Y0269594D01*
X0153210Y0268692D01*
X0153210Y0265987D01*
X0156817Y0268692D02*
X0155915Y0269594D01*
X0158648Y0269594D02*
X0161353Y0269594D01*
X0162254Y0268692D01*
X0162254Y0266889D01*
X0161362Y0274845D02*
X0163165Y0274845D01*
X0164067Y0275747D01*
X0164067Y0277550D01*
X0163165Y0278452D01*
X0161362Y0278452D01*
X0160460Y0277550D01*
X0160460Y0276649D01*
X0164067Y0276649D01*
X0165898Y0276649D02*
X0169505Y0276649D01*
X0169505Y0277550D02*
X0168603Y0278452D01*
X0166800Y0278452D01*
X0165898Y0277550D01*
X0165898Y0276649D01*
X0166800Y0274845D02*
X0168603Y0274845D01*
X0169505Y0275747D01*
X0169505Y0277550D01*
X0171336Y0278452D02*
X0171336Y0275747D01*
X0172237Y0274845D01*
X0173139Y0275747D01*
X0174041Y0274845D01*
X0174942Y0275747D01*
X0174942Y0278452D01*
X0176764Y0278452D02*
X0178567Y0278452D01*
X0177666Y0279354D02*
X0177666Y0275747D01*
X0176764Y0274845D01*
X0180398Y0276649D02*
X0184005Y0276649D01*
X0184005Y0277550D02*
X0183103Y0278452D01*
X0181300Y0278452D01*
X0180398Y0277550D01*
X0180398Y0276649D01*
X0181300Y0274845D02*
X0183103Y0274845D01*
X0184005Y0275747D01*
X0184005Y0277550D01*
X0194881Y0271397D02*
X0194881Y0265987D01*
X0171317Y0266889D02*
X0170415Y0267790D01*
X0158629Y0274845D02*
X0158629Y0278452D01*
X0155924Y0278452D01*
X0155022Y0277550D01*
X0155022Y0274845D01*
D12*
X0034186Y0267706D02*
X0034188Y0267864D01*
X0034194Y0268022D01*
X0034204Y0268180D01*
X0034218Y0268338D01*
X0034236Y0268495D01*
X0034257Y0268652D01*
X0034283Y0268808D01*
X0034313Y0268964D01*
X0034346Y0269119D01*
X0034384Y0269272D01*
X0034425Y0269425D01*
X0034470Y0269577D01*
X0034519Y0269728D01*
X0034572Y0269877D01*
X0034628Y0270025D01*
X0034688Y0270171D01*
X0034752Y0270316D01*
X0034820Y0270459D01*
X0034891Y0270601D01*
X0034965Y0270741D01*
X0035043Y0270878D01*
X0035125Y0271014D01*
X0035209Y0271148D01*
X0035298Y0271279D01*
X0035389Y0271408D01*
X0035484Y0271535D01*
X0035581Y0271660D01*
X0035682Y0271782D01*
X0035786Y0271901D01*
X0035893Y0272018D01*
X0036003Y0272132D01*
X0036116Y0272243D01*
X0036231Y0272352D01*
X0036349Y0272457D01*
X0036470Y0272559D01*
X0036593Y0272659D01*
X0036719Y0272755D01*
X0036847Y0272848D01*
X0036977Y0272938D01*
X0037110Y0273024D01*
X0037245Y0273108D01*
X0037381Y0273187D01*
X0037520Y0273264D01*
X0037661Y0273336D01*
X0037803Y0273406D01*
X0037947Y0273471D01*
X0038093Y0273533D01*
X0038240Y0273591D01*
X0038389Y0273646D01*
X0038539Y0273697D01*
X0038690Y0273744D01*
X0038842Y0273787D01*
X0038995Y0273826D01*
X0039150Y0273862D01*
X0039305Y0273893D01*
X0039461Y0273921D01*
X0039617Y0273945D01*
X0039774Y0273965D01*
X0039932Y0273981D01*
X0040089Y0273993D01*
X0040248Y0274001D01*
X0040406Y0274005D01*
X0040564Y0274005D01*
X0040722Y0274001D01*
X0040881Y0273993D01*
X0041038Y0273981D01*
X0041196Y0273965D01*
X0041353Y0273945D01*
X0041509Y0273921D01*
X0041665Y0273893D01*
X0041820Y0273862D01*
X0041975Y0273826D01*
X0042128Y0273787D01*
X0042280Y0273744D01*
X0042431Y0273697D01*
X0042581Y0273646D01*
X0042730Y0273591D01*
X0042877Y0273533D01*
X0043023Y0273471D01*
X0043167Y0273406D01*
X0043309Y0273336D01*
X0043450Y0273264D01*
X0043589Y0273187D01*
X0043725Y0273108D01*
X0043860Y0273024D01*
X0043993Y0272938D01*
X0044123Y0272848D01*
X0044251Y0272755D01*
X0044377Y0272659D01*
X0044500Y0272559D01*
X0044621Y0272457D01*
X0044739Y0272352D01*
X0044854Y0272243D01*
X0044967Y0272132D01*
X0045077Y0272018D01*
X0045184Y0271901D01*
X0045288Y0271782D01*
X0045389Y0271660D01*
X0045486Y0271535D01*
X0045581Y0271408D01*
X0045672Y0271279D01*
X0045761Y0271148D01*
X0045845Y0271014D01*
X0045927Y0270878D01*
X0046005Y0270741D01*
X0046079Y0270601D01*
X0046150Y0270459D01*
X0046218Y0270316D01*
X0046282Y0270171D01*
X0046342Y0270025D01*
X0046398Y0269877D01*
X0046451Y0269728D01*
X0046500Y0269577D01*
X0046545Y0269425D01*
X0046586Y0269272D01*
X0046624Y0269119D01*
X0046657Y0268964D01*
X0046687Y0268808D01*
X0046713Y0268652D01*
X0046734Y0268495D01*
X0046752Y0268338D01*
X0046766Y0268180D01*
X0046776Y0268022D01*
X0046782Y0267864D01*
X0046784Y0267706D01*
X0046782Y0267548D01*
X0046776Y0267390D01*
X0046766Y0267232D01*
X0046752Y0267074D01*
X0046734Y0266917D01*
X0046713Y0266760D01*
X0046687Y0266604D01*
X0046657Y0266448D01*
X0046624Y0266293D01*
X0046586Y0266140D01*
X0046545Y0265987D01*
X0046500Y0265835D01*
X0046451Y0265684D01*
X0046398Y0265535D01*
X0046342Y0265387D01*
X0046282Y0265241D01*
X0046218Y0265096D01*
X0046150Y0264953D01*
X0046079Y0264811D01*
X0046005Y0264671D01*
X0045927Y0264534D01*
X0045845Y0264398D01*
X0045761Y0264264D01*
X0045672Y0264133D01*
X0045581Y0264004D01*
X0045486Y0263877D01*
X0045389Y0263752D01*
X0045288Y0263630D01*
X0045184Y0263511D01*
X0045077Y0263394D01*
X0044967Y0263280D01*
X0044854Y0263169D01*
X0044739Y0263060D01*
X0044621Y0262955D01*
X0044500Y0262853D01*
X0044377Y0262753D01*
X0044251Y0262657D01*
X0044123Y0262564D01*
X0043993Y0262474D01*
X0043860Y0262388D01*
X0043725Y0262304D01*
X0043589Y0262225D01*
X0043450Y0262148D01*
X0043309Y0262076D01*
X0043167Y0262006D01*
X0043023Y0261941D01*
X0042877Y0261879D01*
X0042730Y0261821D01*
X0042581Y0261766D01*
X0042431Y0261715D01*
X0042280Y0261668D01*
X0042128Y0261625D01*
X0041975Y0261586D01*
X0041820Y0261550D01*
X0041665Y0261519D01*
X0041509Y0261491D01*
X0041353Y0261467D01*
X0041196Y0261447D01*
X0041038Y0261431D01*
X0040881Y0261419D01*
X0040722Y0261411D01*
X0040564Y0261407D01*
X0040406Y0261407D01*
X0040248Y0261411D01*
X0040089Y0261419D01*
X0039932Y0261431D01*
X0039774Y0261447D01*
X0039617Y0261467D01*
X0039461Y0261491D01*
X0039305Y0261519D01*
X0039150Y0261550D01*
X0038995Y0261586D01*
X0038842Y0261625D01*
X0038690Y0261668D01*
X0038539Y0261715D01*
X0038389Y0261766D01*
X0038240Y0261821D01*
X0038093Y0261879D01*
X0037947Y0261941D01*
X0037803Y0262006D01*
X0037661Y0262076D01*
X0037520Y0262148D01*
X0037381Y0262225D01*
X0037245Y0262304D01*
X0037110Y0262388D01*
X0036977Y0262474D01*
X0036847Y0262564D01*
X0036719Y0262657D01*
X0036593Y0262753D01*
X0036470Y0262853D01*
X0036349Y0262955D01*
X0036231Y0263060D01*
X0036116Y0263169D01*
X0036003Y0263280D01*
X0035893Y0263394D01*
X0035786Y0263511D01*
X0035682Y0263630D01*
X0035581Y0263752D01*
X0035484Y0263877D01*
X0035389Y0264004D01*
X0035298Y0264133D01*
X0035209Y0264264D01*
X0035125Y0264398D01*
X0035043Y0264534D01*
X0034965Y0264671D01*
X0034891Y0264811D01*
X0034820Y0264953D01*
X0034752Y0265096D01*
X0034688Y0265241D01*
X0034628Y0265387D01*
X0034572Y0265535D01*
X0034519Y0265684D01*
X0034470Y0265835D01*
X0034425Y0265987D01*
X0034384Y0266140D01*
X0034346Y0266293D01*
X0034313Y0266448D01*
X0034283Y0266604D01*
X0034257Y0266760D01*
X0034236Y0266917D01*
X0034218Y0267074D01*
X0034204Y0267232D01*
X0034194Y0267390D01*
X0034188Y0267548D01*
X0034186Y0267706D01*
X0034186Y0031485D02*
X0034188Y0031643D01*
X0034194Y0031801D01*
X0034204Y0031959D01*
X0034218Y0032117D01*
X0034236Y0032274D01*
X0034257Y0032431D01*
X0034283Y0032587D01*
X0034313Y0032743D01*
X0034346Y0032898D01*
X0034384Y0033051D01*
X0034425Y0033204D01*
X0034470Y0033356D01*
X0034519Y0033507D01*
X0034572Y0033656D01*
X0034628Y0033804D01*
X0034688Y0033950D01*
X0034752Y0034095D01*
X0034820Y0034238D01*
X0034891Y0034380D01*
X0034965Y0034520D01*
X0035043Y0034657D01*
X0035125Y0034793D01*
X0035209Y0034927D01*
X0035298Y0035058D01*
X0035389Y0035187D01*
X0035484Y0035314D01*
X0035581Y0035439D01*
X0035682Y0035561D01*
X0035786Y0035680D01*
X0035893Y0035797D01*
X0036003Y0035911D01*
X0036116Y0036022D01*
X0036231Y0036131D01*
X0036349Y0036236D01*
X0036470Y0036338D01*
X0036593Y0036438D01*
X0036719Y0036534D01*
X0036847Y0036627D01*
X0036977Y0036717D01*
X0037110Y0036803D01*
X0037245Y0036887D01*
X0037381Y0036966D01*
X0037520Y0037043D01*
X0037661Y0037115D01*
X0037803Y0037185D01*
X0037947Y0037250D01*
X0038093Y0037312D01*
X0038240Y0037370D01*
X0038389Y0037425D01*
X0038539Y0037476D01*
X0038690Y0037523D01*
X0038842Y0037566D01*
X0038995Y0037605D01*
X0039150Y0037641D01*
X0039305Y0037672D01*
X0039461Y0037700D01*
X0039617Y0037724D01*
X0039774Y0037744D01*
X0039932Y0037760D01*
X0040089Y0037772D01*
X0040248Y0037780D01*
X0040406Y0037784D01*
X0040564Y0037784D01*
X0040722Y0037780D01*
X0040881Y0037772D01*
X0041038Y0037760D01*
X0041196Y0037744D01*
X0041353Y0037724D01*
X0041509Y0037700D01*
X0041665Y0037672D01*
X0041820Y0037641D01*
X0041975Y0037605D01*
X0042128Y0037566D01*
X0042280Y0037523D01*
X0042431Y0037476D01*
X0042581Y0037425D01*
X0042730Y0037370D01*
X0042877Y0037312D01*
X0043023Y0037250D01*
X0043167Y0037185D01*
X0043309Y0037115D01*
X0043450Y0037043D01*
X0043589Y0036966D01*
X0043725Y0036887D01*
X0043860Y0036803D01*
X0043993Y0036717D01*
X0044123Y0036627D01*
X0044251Y0036534D01*
X0044377Y0036438D01*
X0044500Y0036338D01*
X0044621Y0036236D01*
X0044739Y0036131D01*
X0044854Y0036022D01*
X0044967Y0035911D01*
X0045077Y0035797D01*
X0045184Y0035680D01*
X0045288Y0035561D01*
X0045389Y0035439D01*
X0045486Y0035314D01*
X0045581Y0035187D01*
X0045672Y0035058D01*
X0045761Y0034927D01*
X0045845Y0034793D01*
X0045927Y0034657D01*
X0046005Y0034520D01*
X0046079Y0034380D01*
X0046150Y0034238D01*
X0046218Y0034095D01*
X0046282Y0033950D01*
X0046342Y0033804D01*
X0046398Y0033656D01*
X0046451Y0033507D01*
X0046500Y0033356D01*
X0046545Y0033204D01*
X0046586Y0033051D01*
X0046624Y0032898D01*
X0046657Y0032743D01*
X0046687Y0032587D01*
X0046713Y0032431D01*
X0046734Y0032274D01*
X0046752Y0032117D01*
X0046766Y0031959D01*
X0046776Y0031801D01*
X0046782Y0031643D01*
X0046784Y0031485D01*
X0046782Y0031327D01*
X0046776Y0031169D01*
X0046766Y0031011D01*
X0046752Y0030853D01*
X0046734Y0030696D01*
X0046713Y0030539D01*
X0046687Y0030383D01*
X0046657Y0030227D01*
X0046624Y0030072D01*
X0046586Y0029919D01*
X0046545Y0029766D01*
X0046500Y0029614D01*
X0046451Y0029463D01*
X0046398Y0029314D01*
X0046342Y0029166D01*
X0046282Y0029020D01*
X0046218Y0028875D01*
X0046150Y0028732D01*
X0046079Y0028590D01*
X0046005Y0028450D01*
X0045927Y0028313D01*
X0045845Y0028177D01*
X0045761Y0028043D01*
X0045672Y0027912D01*
X0045581Y0027783D01*
X0045486Y0027656D01*
X0045389Y0027531D01*
X0045288Y0027409D01*
X0045184Y0027290D01*
X0045077Y0027173D01*
X0044967Y0027059D01*
X0044854Y0026948D01*
X0044739Y0026839D01*
X0044621Y0026734D01*
X0044500Y0026632D01*
X0044377Y0026532D01*
X0044251Y0026436D01*
X0044123Y0026343D01*
X0043993Y0026253D01*
X0043860Y0026167D01*
X0043725Y0026083D01*
X0043589Y0026004D01*
X0043450Y0025927D01*
X0043309Y0025855D01*
X0043167Y0025785D01*
X0043023Y0025720D01*
X0042877Y0025658D01*
X0042730Y0025600D01*
X0042581Y0025545D01*
X0042431Y0025494D01*
X0042280Y0025447D01*
X0042128Y0025404D01*
X0041975Y0025365D01*
X0041820Y0025329D01*
X0041665Y0025298D01*
X0041509Y0025270D01*
X0041353Y0025246D01*
X0041196Y0025226D01*
X0041038Y0025210D01*
X0040881Y0025198D01*
X0040722Y0025190D01*
X0040564Y0025186D01*
X0040406Y0025186D01*
X0040248Y0025190D01*
X0040089Y0025198D01*
X0039932Y0025210D01*
X0039774Y0025226D01*
X0039617Y0025246D01*
X0039461Y0025270D01*
X0039305Y0025298D01*
X0039150Y0025329D01*
X0038995Y0025365D01*
X0038842Y0025404D01*
X0038690Y0025447D01*
X0038539Y0025494D01*
X0038389Y0025545D01*
X0038240Y0025600D01*
X0038093Y0025658D01*
X0037947Y0025720D01*
X0037803Y0025785D01*
X0037661Y0025855D01*
X0037520Y0025927D01*
X0037381Y0026004D01*
X0037245Y0026083D01*
X0037110Y0026167D01*
X0036977Y0026253D01*
X0036847Y0026343D01*
X0036719Y0026436D01*
X0036593Y0026532D01*
X0036470Y0026632D01*
X0036349Y0026734D01*
X0036231Y0026839D01*
X0036116Y0026948D01*
X0036003Y0027059D01*
X0035893Y0027173D01*
X0035786Y0027290D01*
X0035682Y0027409D01*
X0035581Y0027531D01*
X0035484Y0027656D01*
X0035389Y0027783D01*
X0035298Y0027912D01*
X0035209Y0028043D01*
X0035125Y0028177D01*
X0035043Y0028313D01*
X0034965Y0028450D01*
X0034891Y0028590D01*
X0034820Y0028732D01*
X0034752Y0028875D01*
X0034688Y0029020D01*
X0034628Y0029166D01*
X0034572Y0029314D01*
X0034519Y0029463D01*
X0034470Y0029614D01*
X0034425Y0029766D01*
X0034384Y0029919D01*
X0034346Y0030072D01*
X0034313Y0030227D01*
X0034283Y0030383D01*
X0034257Y0030539D01*
X0034236Y0030696D01*
X0034218Y0030853D01*
X0034204Y0031011D01*
X0034194Y0031169D01*
X0034188Y0031327D01*
X0034186Y0031485D01*
X0349147Y0031485D02*
X0349149Y0031643D01*
X0349155Y0031801D01*
X0349165Y0031959D01*
X0349179Y0032117D01*
X0349197Y0032274D01*
X0349218Y0032431D01*
X0349244Y0032587D01*
X0349274Y0032743D01*
X0349307Y0032898D01*
X0349345Y0033051D01*
X0349386Y0033204D01*
X0349431Y0033356D01*
X0349480Y0033507D01*
X0349533Y0033656D01*
X0349589Y0033804D01*
X0349649Y0033950D01*
X0349713Y0034095D01*
X0349781Y0034238D01*
X0349852Y0034380D01*
X0349926Y0034520D01*
X0350004Y0034657D01*
X0350086Y0034793D01*
X0350170Y0034927D01*
X0350259Y0035058D01*
X0350350Y0035187D01*
X0350445Y0035314D01*
X0350542Y0035439D01*
X0350643Y0035561D01*
X0350747Y0035680D01*
X0350854Y0035797D01*
X0350964Y0035911D01*
X0351077Y0036022D01*
X0351192Y0036131D01*
X0351310Y0036236D01*
X0351431Y0036338D01*
X0351554Y0036438D01*
X0351680Y0036534D01*
X0351808Y0036627D01*
X0351938Y0036717D01*
X0352071Y0036803D01*
X0352206Y0036887D01*
X0352342Y0036966D01*
X0352481Y0037043D01*
X0352622Y0037115D01*
X0352764Y0037185D01*
X0352908Y0037250D01*
X0353054Y0037312D01*
X0353201Y0037370D01*
X0353350Y0037425D01*
X0353500Y0037476D01*
X0353651Y0037523D01*
X0353803Y0037566D01*
X0353956Y0037605D01*
X0354111Y0037641D01*
X0354266Y0037672D01*
X0354422Y0037700D01*
X0354578Y0037724D01*
X0354735Y0037744D01*
X0354893Y0037760D01*
X0355050Y0037772D01*
X0355209Y0037780D01*
X0355367Y0037784D01*
X0355525Y0037784D01*
X0355683Y0037780D01*
X0355842Y0037772D01*
X0355999Y0037760D01*
X0356157Y0037744D01*
X0356314Y0037724D01*
X0356470Y0037700D01*
X0356626Y0037672D01*
X0356781Y0037641D01*
X0356936Y0037605D01*
X0357089Y0037566D01*
X0357241Y0037523D01*
X0357392Y0037476D01*
X0357542Y0037425D01*
X0357691Y0037370D01*
X0357838Y0037312D01*
X0357984Y0037250D01*
X0358128Y0037185D01*
X0358270Y0037115D01*
X0358411Y0037043D01*
X0358550Y0036966D01*
X0358686Y0036887D01*
X0358821Y0036803D01*
X0358954Y0036717D01*
X0359084Y0036627D01*
X0359212Y0036534D01*
X0359338Y0036438D01*
X0359461Y0036338D01*
X0359582Y0036236D01*
X0359700Y0036131D01*
X0359815Y0036022D01*
X0359928Y0035911D01*
X0360038Y0035797D01*
X0360145Y0035680D01*
X0360249Y0035561D01*
X0360350Y0035439D01*
X0360447Y0035314D01*
X0360542Y0035187D01*
X0360633Y0035058D01*
X0360722Y0034927D01*
X0360806Y0034793D01*
X0360888Y0034657D01*
X0360966Y0034520D01*
X0361040Y0034380D01*
X0361111Y0034238D01*
X0361179Y0034095D01*
X0361243Y0033950D01*
X0361303Y0033804D01*
X0361359Y0033656D01*
X0361412Y0033507D01*
X0361461Y0033356D01*
X0361506Y0033204D01*
X0361547Y0033051D01*
X0361585Y0032898D01*
X0361618Y0032743D01*
X0361648Y0032587D01*
X0361674Y0032431D01*
X0361695Y0032274D01*
X0361713Y0032117D01*
X0361727Y0031959D01*
X0361737Y0031801D01*
X0361743Y0031643D01*
X0361745Y0031485D01*
X0361743Y0031327D01*
X0361737Y0031169D01*
X0361727Y0031011D01*
X0361713Y0030853D01*
X0361695Y0030696D01*
X0361674Y0030539D01*
X0361648Y0030383D01*
X0361618Y0030227D01*
X0361585Y0030072D01*
X0361547Y0029919D01*
X0361506Y0029766D01*
X0361461Y0029614D01*
X0361412Y0029463D01*
X0361359Y0029314D01*
X0361303Y0029166D01*
X0361243Y0029020D01*
X0361179Y0028875D01*
X0361111Y0028732D01*
X0361040Y0028590D01*
X0360966Y0028450D01*
X0360888Y0028313D01*
X0360806Y0028177D01*
X0360722Y0028043D01*
X0360633Y0027912D01*
X0360542Y0027783D01*
X0360447Y0027656D01*
X0360350Y0027531D01*
X0360249Y0027409D01*
X0360145Y0027290D01*
X0360038Y0027173D01*
X0359928Y0027059D01*
X0359815Y0026948D01*
X0359700Y0026839D01*
X0359582Y0026734D01*
X0359461Y0026632D01*
X0359338Y0026532D01*
X0359212Y0026436D01*
X0359084Y0026343D01*
X0358954Y0026253D01*
X0358821Y0026167D01*
X0358686Y0026083D01*
X0358550Y0026004D01*
X0358411Y0025927D01*
X0358270Y0025855D01*
X0358128Y0025785D01*
X0357984Y0025720D01*
X0357838Y0025658D01*
X0357691Y0025600D01*
X0357542Y0025545D01*
X0357392Y0025494D01*
X0357241Y0025447D01*
X0357089Y0025404D01*
X0356936Y0025365D01*
X0356781Y0025329D01*
X0356626Y0025298D01*
X0356470Y0025270D01*
X0356314Y0025246D01*
X0356157Y0025226D01*
X0355999Y0025210D01*
X0355842Y0025198D01*
X0355683Y0025190D01*
X0355525Y0025186D01*
X0355367Y0025186D01*
X0355209Y0025190D01*
X0355050Y0025198D01*
X0354893Y0025210D01*
X0354735Y0025226D01*
X0354578Y0025246D01*
X0354422Y0025270D01*
X0354266Y0025298D01*
X0354111Y0025329D01*
X0353956Y0025365D01*
X0353803Y0025404D01*
X0353651Y0025447D01*
X0353500Y0025494D01*
X0353350Y0025545D01*
X0353201Y0025600D01*
X0353054Y0025658D01*
X0352908Y0025720D01*
X0352764Y0025785D01*
X0352622Y0025855D01*
X0352481Y0025927D01*
X0352342Y0026004D01*
X0352206Y0026083D01*
X0352071Y0026167D01*
X0351938Y0026253D01*
X0351808Y0026343D01*
X0351680Y0026436D01*
X0351554Y0026532D01*
X0351431Y0026632D01*
X0351310Y0026734D01*
X0351192Y0026839D01*
X0351077Y0026948D01*
X0350964Y0027059D01*
X0350854Y0027173D01*
X0350747Y0027290D01*
X0350643Y0027409D01*
X0350542Y0027531D01*
X0350445Y0027656D01*
X0350350Y0027783D01*
X0350259Y0027912D01*
X0350170Y0028043D01*
X0350086Y0028177D01*
X0350004Y0028313D01*
X0349926Y0028450D01*
X0349852Y0028590D01*
X0349781Y0028732D01*
X0349713Y0028875D01*
X0349649Y0029020D01*
X0349589Y0029166D01*
X0349533Y0029314D01*
X0349480Y0029463D01*
X0349431Y0029614D01*
X0349386Y0029766D01*
X0349345Y0029919D01*
X0349307Y0030072D01*
X0349274Y0030227D01*
X0349244Y0030383D01*
X0349218Y0030539D01*
X0349197Y0030696D01*
X0349179Y0030853D01*
X0349165Y0031011D01*
X0349155Y0031169D01*
X0349149Y0031327D01*
X0349147Y0031485D01*
X0349147Y0267706D02*
X0349149Y0267864D01*
X0349155Y0268022D01*
X0349165Y0268180D01*
X0349179Y0268338D01*
X0349197Y0268495D01*
X0349218Y0268652D01*
X0349244Y0268808D01*
X0349274Y0268964D01*
X0349307Y0269119D01*
X0349345Y0269272D01*
X0349386Y0269425D01*
X0349431Y0269577D01*
X0349480Y0269728D01*
X0349533Y0269877D01*
X0349589Y0270025D01*
X0349649Y0270171D01*
X0349713Y0270316D01*
X0349781Y0270459D01*
X0349852Y0270601D01*
X0349926Y0270741D01*
X0350004Y0270878D01*
X0350086Y0271014D01*
X0350170Y0271148D01*
X0350259Y0271279D01*
X0350350Y0271408D01*
X0350445Y0271535D01*
X0350542Y0271660D01*
X0350643Y0271782D01*
X0350747Y0271901D01*
X0350854Y0272018D01*
X0350964Y0272132D01*
X0351077Y0272243D01*
X0351192Y0272352D01*
X0351310Y0272457D01*
X0351431Y0272559D01*
X0351554Y0272659D01*
X0351680Y0272755D01*
X0351808Y0272848D01*
X0351938Y0272938D01*
X0352071Y0273024D01*
X0352206Y0273108D01*
X0352342Y0273187D01*
X0352481Y0273264D01*
X0352622Y0273336D01*
X0352764Y0273406D01*
X0352908Y0273471D01*
X0353054Y0273533D01*
X0353201Y0273591D01*
X0353350Y0273646D01*
X0353500Y0273697D01*
X0353651Y0273744D01*
X0353803Y0273787D01*
X0353956Y0273826D01*
X0354111Y0273862D01*
X0354266Y0273893D01*
X0354422Y0273921D01*
X0354578Y0273945D01*
X0354735Y0273965D01*
X0354893Y0273981D01*
X0355050Y0273993D01*
X0355209Y0274001D01*
X0355367Y0274005D01*
X0355525Y0274005D01*
X0355683Y0274001D01*
X0355842Y0273993D01*
X0355999Y0273981D01*
X0356157Y0273965D01*
X0356314Y0273945D01*
X0356470Y0273921D01*
X0356626Y0273893D01*
X0356781Y0273862D01*
X0356936Y0273826D01*
X0357089Y0273787D01*
X0357241Y0273744D01*
X0357392Y0273697D01*
X0357542Y0273646D01*
X0357691Y0273591D01*
X0357838Y0273533D01*
X0357984Y0273471D01*
X0358128Y0273406D01*
X0358270Y0273336D01*
X0358411Y0273264D01*
X0358550Y0273187D01*
X0358686Y0273108D01*
X0358821Y0273024D01*
X0358954Y0272938D01*
X0359084Y0272848D01*
X0359212Y0272755D01*
X0359338Y0272659D01*
X0359461Y0272559D01*
X0359582Y0272457D01*
X0359700Y0272352D01*
X0359815Y0272243D01*
X0359928Y0272132D01*
X0360038Y0272018D01*
X0360145Y0271901D01*
X0360249Y0271782D01*
X0360350Y0271660D01*
X0360447Y0271535D01*
X0360542Y0271408D01*
X0360633Y0271279D01*
X0360722Y0271148D01*
X0360806Y0271014D01*
X0360888Y0270878D01*
X0360966Y0270741D01*
X0361040Y0270601D01*
X0361111Y0270459D01*
X0361179Y0270316D01*
X0361243Y0270171D01*
X0361303Y0270025D01*
X0361359Y0269877D01*
X0361412Y0269728D01*
X0361461Y0269577D01*
X0361506Y0269425D01*
X0361547Y0269272D01*
X0361585Y0269119D01*
X0361618Y0268964D01*
X0361648Y0268808D01*
X0361674Y0268652D01*
X0361695Y0268495D01*
X0361713Y0268338D01*
X0361727Y0268180D01*
X0361737Y0268022D01*
X0361743Y0267864D01*
X0361745Y0267706D01*
X0361743Y0267548D01*
X0361737Y0267390D01*
X0361727Y0267232D01*
X0361713Y0267074D01*
X0361695Y0266917D01*
X0361674Y0266760D01*
X0361648Y0266604D01*
X0361618Y0266448D01*
X0361585Y0266293D01*
X0361547Y0266140D01*
X0361506Y0265987D01*
X0361461Y0265835D01*
X0361412Y0265684D01*
X0361359Y0265535D01*
X0361303Y0265387D01*
X0361243Y0265241D01*
X0361179Y0265096D01*
X0361111Y0264953D01*
X0361040Y0264811D01*
X0360966Y0264671D01*
X0360888Y0264534D01*
X0360806Y0264398D01*
X0360722Y0264264D01*
X0360633Y0264133D01*
X0360542Y0264004D01*
X0360447Y0263877D01*
X0360350Y0263752D01*
X0360249Y0263630D01*
X0360145Y0263511D01*
X0360038Y0263394D01*
X0359928Y0263280D01*
X0359815Y0263169D01*
X0359700Y0263060D01*
X0359582Y0262955D01*
X0359461Y0262853D01*
X0359338Y0262753D01*
X0359212Y0262657D01*
X0359084Y0262564D01*
X0358954Y0262474D01*
X0358821Y0262388D01*
X0358686Y0262304D01*
X0358550Y0262225D01*
X0358411Y0262148D01*
X0358270Y0262076D01*
X0358128Y0262006D01*
X0357984Y0261941D01*
X0357838Y0261879D01*
X0357691Y0261821D01*
X0357542Y0261766D01*
X0357392Y0261715D01*
X0357241Y0261668D01*
X0357089Y0261625D01*
X0356936Y0261586D01*
X0356781Y0261550D01*
X0356626Y0261519D01*
X0356470Y0261491D01*
X0356314Y0261467D01*
X0356157Y0261447D01*
X0355999Y0261431D01*
X0355842Y0261419D01*
X0355683Y0261411D01*
X0355525Y0261407D01*
X0355367Y0261407D01*
X0355209Y0261411D01*
X0355050Y0261419D01*
X0354893Y0261431D01*
X0354735Y0261447D01*
X0354578Y0261467D01*
X0354422Y0261491D01*
X0354266Y0261519D01*
X0354111Y0261550D01*
X0353956Y0261586D01*
X0353803Y0261625D01*
X0353651Y0261668D01*
X0353500Y0261715D01*
X0353350Y0261766D01*
X0353201Y0261821D01*
X0353054Y0261879D01*
X0352908Y0261941D01*
X0352764Y0262006D01*
X0352622Y0262076D01*
X0352481Y0262148D01*
X0352342Y0262225D01*
X0352206Y0262304D01*
X0352071Y0262388D01*
X0351938Y0262474D01*
X0351808Y0262564D01*
X0351680Y0262657D01*
X0351554Y0262753D01*
X0351431Y0262853D01*
X0351310Y0262955D01*
X0351192Y0263060D01*
X0351077Y0263169D01*
X0350964Y0263280D01*
X0350854Y0263394D01*
X0350747Y0263511D01*
X0350643Y0263630D01*
X0350542Y0263752D01*
X0350445Y0263877D01*
X0350350Y0264004D01*
X0350259Y0264133D01*
X0350170Y0264264D01*
X0350086Y0264398D01*
X0350004Y0264534D01*
X0349926Y0264671D01*
X0349852Y0264811D01*
X0349781Y0264953D01*
X0349713Y0265096D01*
X0349649Y0265241D01*
X0349589Y0265387D01*
X0349533Y0265535D01*
X0349480Y0265684D01*
X0349431Y0265835D01*
X0349386Y0265987D01*
X0349345Y0266140D01*
X0349307Y0266293D01*
X0349274Y0266448D01*
X0349244Y0266604D01*
X0349218Y0266760D01*
X0349197Y0266917D01*
X0349179Y0267074D01*
X0349165Y0267232D01*
X0349155Y0267390D01*
X0349149Y0267548D01*
X0349147Y0267706D01*
D13*
X0357302Y0186419D02*
X0357302Y0181815D01*
X0358836Y0181815D02*
X0355767Y0181815D01*
X0358836Y0184884D02*
X0357302Y0186419D01*
X0360371Y0186419D02*
X0361906Y0186419D01*
X0361138Y0186419D02*
X0361138Y0182582D01*
X0361906Y0181815D01*
X0362673Y0181815D01*
X0363440Y0182582D01*
M02*
