G75*
%MOIN*%
%OFA0B0*%
%FSLAX25Y25*%
%IPPOS*%
%LPD*%
%AMOC8*
5,1,8,0,0,1.08239X$1,22.5*
%
%ADD10C,0.00394*%
%ADD11C,0.00000*%
%ADD12C,0.02953*%
%ADD13R,0.11811X0.05906*%
D10*
X0020800Y0011800D02*
X0020800Y0287391D01*
X0375131Y0287391D01*
X0375131Y0011800D01*
X0020800Y0011800D01*
D11*
X0034186Y0031485D02*
X0034188Y0031643D01*
X0034194Y0031801D01*
X0034204Y0031959D01*
X0034218Y0032117D01*
X0034236Y0032274D01*
X0034257Y0032431D01*
X0034283Y0032587D01*
X0034313Y0032743D01*
X0034346Y0032898D01*
X0034384Y0033051D01*
X0034425Y0033204D01*
X0034470Y0033356D01*
X0034519Y0033507D01*
X0034572Y0033656D01*
X0034628Y0033804D01*
X0034688Y0033950D01*
X0034752Y0034095D01*
X0034820Y0034238D01*
X0034891Y0034380D01*
X0034965Y0034520D01*
X0035043Y0034657D01*
X0035125Y0034793D01*
X0035209Y0034927D01*
X0035298Y0035058D01*
X0035389Y0035187D01*
X0035484Y0035314D01*
X0035581Y0035439D01*
X0035682Y0035561D01*
X0035786Y0035680D01*
X0035893Y0035797D01*
X0036003Y0035911D01*
X0036116Y0036022D01*
X0036231Y0036131D01*
X0036349Y0036236D01*
X0036470Y0036338D01*
X0036593Y0036438D01*
X0036719Y0036534D01*
X0036847Y0036627D01*
X0036977Y0036717D01*
X0037110Y0036803D01*
X0037245Y0036887D01*
X0037381Y0036966D01*
X0037520Y0037043D01*
X0037661Y0037115D01*
X0037803Y0037185D01*
X0037947Y0037250D01*
X0038093Y0037312D01*
X0038240Y0037370D01*
X0038389Y0037425D01*
X0038539Y0037476D01*
X0038690Y0037523D01*
X0038842Y0037566D01*
X0038995Y0037605D01*
X0039150Y0037641D01*
X0039305Y0037672D01*
X0039461Y0037700D01*
X0039617Y0037724D01*
X0039774Y0037744D01*
X0039932Y0037760D01*
X0040089Y0037772D01*
X0040248Y0037780D01*
X0040406Y0037784D01*
X0040564Y0037784D01*
X0040722Y0037780D01*
X0040881Y0037772D01*
X0041038Y0037760D01*
X0041196Y0037744D01*
X0041353Y0037724D01*
X0041509Y0037700D01*
X0041665Y0037672D01*
X0041820Y0037641D01*
X0041975Y0037605D01*
X0042128Y0037566D01*
X0042280Y0037523D01*
X0042431Y0037476D01*
X0042581Y0037425D01*
X0042730Y0037370D01*
X0042877Y0037312D01*
X0043023Y0037250D01*
X0043167Y0037185D01*
X0043309Y0037115D01*
X0043450Y0037043D01*
X0043589Y0036966D01*
X0043725Y0036887D01*
X0043860Y0036803D01*
X0043993Y0036717D01*
X0044123Y0036627D01*
X0044251Y0036534D01*
X0044377Y0036438D01*
X0044500Y0036338D01*
X0044621Y0036236D01*
X0044739Y0036131D01*
X0044854Y0036022D01*
X0044967Y0035911D01*
X0045077Y0035797D01*
X0045184Y0035680D01*
X0045288Y0035561D01*
X0045389Y0035439D01*
X0045486Y0035314D01*
X0045581Y0035187D01*
X0045672Y0035058D01*
X0045761Y0034927D01*
X0045845Y0034793D01*
X0045927Y0034657D01*
X0046005Y0034520D01*
X0046079Y0034380D01*
X0046150Y0034238D01*
X0046218Y0034095D01*
X0046282Y0033950D01*
X0046342Y0033804D01*
X0046398Y0033656D01*
X0046451Y0033507D01*
X0046500Y0033356D01*
X0046545Y0033204D01*
X0046586Y0033051D01*
X0046624Y0032898D01*
X0046657Y0032743D01*
X0046687Y0032587D01*
X0046713Y0032431D01*
X0046734Y0032274D01*
X0046752Y0032117D01*
X0046766Y0031959D01*
X0046776Y0031801D01*
X0046782Y0031643D01*
X0046784Y0031485D01*
X0046782Y0031327D01*
X0046776Y0031169D01*
X0046766Y0031011D01*
X0046752Y0030853D01*
X0046734Y0030696D01*
X0046713Y0030539D01*
X0046687Y0030383D01*
X0046657Y0030227D01*
X0046624Y0030072D01*
X0046586Y0029919D01*
X0046545Y0029766D01*
X0046500Y0029614D01*
X0046451Y0029463D01*
X0046398Y0029314D01*
X0046342Y0029166D01*
X0046282Y0029020D01*
X0046218Y0028875D01*
X0046150Y0028732D01*
X0046079Y0028590D01*
X0046005Y0028450D01*
X0045927Y0028313D01*
X0045845Y0028177D01*
X0045761Y0028043D01*
X0045672Y0027912D01*
X0045581Y0027783D01*
X0045486Y0027656D01*
X0045389Y0027531D01*
X0045288Y0027409D01*
X0045184Y0027290D01*
X0045077Y0027173D01*
X0044967Y0027059D01*
X0044854Y0026948D01*
X0044739Y0026839D01*
X0044621Y0026734D01*
X0044500Y0026632D01*
X0044377Y0026532D01*
X0044251Y0026436D01*
X0044123Y0026343D01*
X0043993Y0026253D01*
X0043860Y0026167D01*
X0043725Y0026083D01*
X0043589Y0026004D01*
X0043450Y0025927D01*
X0043309Y0025855D01*
X0043167Y0025785D01*
X0043023Y0025720D01*
X0042877Y0025658D01*
X0042730Y0025600D01*
X0042581Y0025545D01*
X0042431Y0025494D01*
X0042280Y0025447D01*
X0042128Y0025404D01*
X0041975Y0025365D01*
X0041820Y0025329D01*
X0041665Y0025298D01*
X0041509Y0025270D01*
X0041353Y0025246D01*
X0041196Y0025226D01*
X0041038Y0025210D01*
X0040881Y0025198D01*
X0040722Y0025190D01*
X0040564Y0025186D01*
X0040406Y0025186D01*
X0040248Y0025190D01*
X0040089Y0025198D01*
X0039932Y0025210D01*
X0039774Y0025226D01*
X0039617Y0025246D01*
X0039461Y0025270D01*
X0039305Y0025298D01*
X0039150Y0025329D01*
X0038995Y0025365D01*
X0038842Y0025404D01*
X0038690Y0025447D01*
X0038539Y0025494D01*
X0038389Y0025545D01*
X0038240Y0025600D01*
X0038093Y0025658D01*
X0037947Y0025720D01*
X0037803Y0025785D01*
X0037661Y0025855D01*
X0037520Y0025927D01*
X0037381Y0026004D01*
X0037245Y0026083D01*
X0037110Y0026167D01*
X0036977Y0026253D01*
X0036847Y0026343D01*
X0036719Y0026436D01*
X0036593Y0026532D01*
X0036470Y0026632D01*
X0036349Y0026734D01*
X0036231Y0026839D01*
X0036116Y0026948D01*
X0036003Y0027059D01*
X0035893Y0027173D01*
X0035786Y0027290D01*
X0035682Y0027409D01*
X0035581Y0027531D01*
X0035484Y0027656D01*
X0035389Y0027783D01*
X0035298Y0027912D01*
X0035209Y0028043D01*
X0035125Y0028177D01*
X0035043Y0028313D01*
X0034965Y0028450D01*
X0034891Y0028590D01*
X0034820Y0028732D01*
X0034752Y0028875D01*
X0034688Y0029020D01*
X0034628Y0029166D01*
X0034572Y0029314D01*
X0034519Y0029463D01*
X0034470Y0029614D01*
X0034425Y0029766D01*
X0034384Y0029919D01*
X0034346Y0030072D01*
X0034313Y0030227D01*
X0034283Y0030383D01*
X0034257Y0030539D01*
X0034236Y0030696D01*
X0034218Y0030853D01*
X0034204Y0031011D01*
X0034194Y0031169D01*
X0034188Y0031327D01*
X0034186Y0031485D01*
X0034186Y0267706D02*
X0034188Y0267864D01*
X0034194Y0268022D01*
X0034204Y0268180D01*
X0034218Y0268338D01*
X0034236Y0268495D01*
X0034257Y0268652D01*
X0034283Y0268808D01*
X0034313Y0268964D01*
X0034346Y0269119D01*
X0034384Y0269272D01*
X0034425Y0269425D01*
X0034470Y0269577D01*
X0034519Y0269728D01*
X0034572Y0269877D01*
X0034628Y0270025D01*
X0034688Y0270171D01*
X0034752Y0270316D01*
X0034820Y0270459D01*
X0034891Y0270601D01*
X0034965Y0270741D01*
X0035043Y0270878D01*
X0035125Y0271014D01*
X0035209Y0271148D01*
X0035298Y0271279D01*
X0035389Y0271408D01*
X0035484Y0271535D01*
X0035581Y0271660D01*
X0035682Y0271782D01*
X0035786Y0271901D01*
X0035893Y0272018D01*
X0036003Y0272132D01*
X0036116Y0272243D01*
X0036231Y0272352D01*
X0036349Y0272457D01*
X0036470Y0272559D01*
X0036593Y0272659D01*
X0036719Y0272755D01*
X0036847Y0272848D01*
X0036977Y0272938D01*
X0037110Y0273024D01*
X0037245Y0273108D01*
X0037381Y0273187D01*
X0037520Y0273264D01*
X0037661Y0273336D01*
X0037803Y0273406D01*
X0037947Y0273471D01*
X0038093Y0273533D01*
X0038240Y0273591D01*
X0038389Y0273646D01*
X0038539Y0273697D01*
X0038690Y0273744D01*
X0038842Y0273787D01*
X0038995Y0273826D01*
X0039150Y0273862D01*
X0039305Y0273893D01*
X0039461Y0273921D01*
X0039617Y0273945D01*
X0039774Y0273965D01*
X0039932Y0273981D01*
X0040089Y0273993D01*
X0040248Y0274001D01*
X0040406Y0274005D01*
X0040564Y0274005D01*
X0040722Y0274001D01*
X0040881Y0273993D01*
X0041038Y0273981D01*
X0041196Y0273965D01*
X0041353Y0273945D01*
X0041509Y0273921D01*
X0041665Y0273893D01*
X0041820Y0273862D01*
X0041975Y0273826D01*
X0042128Y0273787D01*
X0042280Y0273744D01*
X0042431Y0273697D01*
X0042581Y0273646D01*
X0042730Y0273591D01*
X0042877Y0273533D01*
X0043023Y0273471D01*
X0043167Y0273406D01*
X0043309Y0273336D01*
X0043450Y0273264D01*
X0043589Y0273187D01*
X0043725Y0273108D01*
X0043860Y0273024D01*
X0043993Y0272938D01*
X0044123Y0272848D01*
X0044251Y0272755D01*
X0044377Y0272659D01*
X0044500Y0272559D01*
X0044621Y0272457D01*
X0044739Y0272352D01*
X0044854Y0272243D01*
X0044967Y0272132D01*
X0045077Y0272018D01*
X0045184Y0271901D01*
X0045288Y0271782D01*
X0045389Y0271660D01*
X0045486Y0271535D01*
X0045581Y0271408D01*
X0045672Y0271279D01*
X0045761Y0271148D01*
X0045845Y0271014D01*
X0045927Y0270878D01*
X0046005Y0270741D01*
X0046079Y0270601D01*
X0046150Y0270459D01*
X0046218Y0270316D01*
X0046282Y0270171D01*
X0046342Y0270025D01*
X0046398Y0269877D01*
X0046451Y0269728D01*
X0046500Y0269577D01*
X0046545Y0269425D01*
X0046586Y0269272D01*
X0046624Y0269119D01*
X0046657Y0268964D01*
X0046687Y0268808D01*
X0046713Y0268652D01*
X0046734Y0268495D01*
X0046752Y0268338D01*
X0046766Y0268180D01*
X0046776Y0268022D01*
X0046782Y0267864D01*
X0046784Y0267706D01*
X0046782Y0267548D01*
X0046776Y0267390D01*
X0046766Y0267232D01*
X0046752Y0267074D01*
X0046734Y0266917D01*
X0046713Y0266760D01*
X0046687Y0266604D01*
X0046657Y0266448D01*
X0046624Y0266293D01*
X0046586Y0266140D01*
X0046545Y0265987D01*
X0046500Y0265835D01*
X0046451Y0265684D01*
X0046398Y0265535D01*
X0046342Y0265387D01*
X0046282Y0265241D01*
X0046218Y0265096D01*
X0046150Y0264953D01*
X0046079Y0264811D01*
X0046005Y0264671D01*
X0045927Y0264534D01*
X0045845Y0264398D01*
X0045761Y0264264D01*
X0045672Y0264133D01*
X0045581Y0264004D01*
X0045486Y0263877D01*
X0045389Y0263752D01*
X0045288Y0263630D01*
X0045184Y0263511D01*
X0045077Y0263394D01*
X0044967Y0263280D01*
X0044854Y0263169D01*
X0044739Y0263060D01*
X0044621Y0262955D01*
X0044500Y0262853D01*
X0044377Y0262753D01*
X0044251Y0262657D01*
X0044123Y0262564D01*
X0043993Y0262474D01*
X0043860Y0262388D01*
X0043725Y0262304D01*
X0043589Y0262225D01*
X0043450Y0262148D01*
X0043309Y0262076D01*
X0043167Y0262006D01*
X0043023Y0261941D01*
X0042877Y0261879D01*
X0042730Y0261821D01*
X0042581Y0261766D01*
X0042431Y0261715D01*
X0042280Y0261668D01*
X0042128Y0261625D01*
X0041975Y0261586D01*
X0041820Y0261550D01*
X0041665Y0261519D01*
X0041509Y0261491D01*
X0041353Y0261467D01*
X0041196Y0261447D01*
X0041038Y0261431D01*
X0040881Y0261419D01*
X0040722Y0261411D01*
X0040564Y0261407D01*
X0040406Y0261407D01*
X0040248Y0261411D01*
X0040089Y0261419D01*
X0039932Y0261431D01*
X0039774Y0261447D01*
X0039617Y0261467D01*
X0039461Y0261491D01*
X0039305Y0261519D01*
X0039150Y0261550D01*
X0038995Y0261586D01*
X0038842Y0261625D01*
X0038690Y0261668D01*
X0038539Y0261715D01*
X0038389Y0261766D01*
X0038240Y0261821D01*
X0038093Y0261879D01*
X0037947Y0261941D01*
X0037803Y0262006D01*
X0037661Y0262076D01*
X0037520Y0262148D01*
X0037381Y0262225D01*
X0037245Y0262304D01*
X0037110Y0262388D01*
X0036977Y0262474D01*
X0036847Y0262564D01*
X0036719Y0262657D01*
X0036593Y0262753D01*
X0036470Y0262853D01*
X0036349Y0262955D01*
X0036231Y0263060D01*
X0036116Y0263169D01*
X0036003Y0263280D01*
X0035893Y0263394D01*
X0035786Y0263511D01*
X0035682Y0263630D01*
X0035581Y0263752D01*
X0035484Y0263877D01*
X0035389Y0264004D01*
X0035298Y0264133D01*
X0035209Y0264264D01*
X0035125Y0264398D01*
X0035043Y0264534D01*
X0034965Y0264671D01*
X0034891Y0264811D01*
X0034820Y0264953D01*
X0034752Y0265096D01*
X0034688Y0265241D01*
X0034628Y0265387D01*
X0034572Y0265535D01*
X0034519Y0265684D01*
X0034470Y0265835D01*
X0034425Y0265987D01*
X0034384Y0266140D01*
X0034346Y0266293D01*
X0034313Y0266448D01*
X0034283Y0266604D01*
X0034257Y0266760D01*
X0034236Y0266917D01*
X0034218Y0267074D01*
X0034204Y0267232D01*
X0034194Y0267390D01*
X0034188Y0267548D01*
X0034186Y0267706D01*
X0349147Y0267706D02*
X0349149Y0267864D01*
X0349155Y0268022D01*
X0349165Y0268180D01*
X0349179Y0268338D01*
X0349197Y0268495D01*
X0349218Y0268652D01*
X0349244Y0268808D01*
X0349274Y0268964D01*
X0349307Y0269119D01*
X0349345Y0269272D01*
X0349386Y0269425D01*
X0349431Y0269577D01*
X0349480Y0269728D01*
X0349533Y0269877D01*
X0349589Y0270025D01*
X0349649Y0270171D01*
X0349713Y0270316D01*
X0349781Y0270459D01*
X0349852Y0270601D01*
X0349926Y0270741D01*
X0350004Y0270878D01*
X0350086Y0271014D01*
X0350170Y0271148D01*
X0350259Y0271279D01*
X0350350Y0271408D01*
X0350445Y0271535D01*
X0350542Y0271660D01*
X0350643Y0271782D01*
X0350747Y0271901D01*
X0350854Y0272018D01*
X0350964Y0272132D01*
X0351077Y0272243D01*
X0351192Y0272352D01*
X0351310Y0272457D01*
X0351431Y0272559D01*
X0351554Y0272659D01*
X0351680Y0272755D01*
X0351808Y0272848D01*
X0351938Y0272938D01*
X0352071Y0273024D01*
X0352206Y0273108D01*
X0352342Y0273187D01*
X0352481Y0273264D01*
X0352622Y0273336D01*
X0352764Y0273406D01*
X0352908Y0273471D01*
X0353054Y0273533D01*
X0353201Y0273591D01*
X0353350Y0273646D01*
X0353500Y0273697D01*
X0353651Y0273744D01*
X0353803Y0273787D01*
X0353956Y0273826D01*
X0354111Y0273862D01*
X0354266Y0273893D01*
X0354422Y0273921D01*
X0354578Y0273945D01*
X0354735Y0273965D01*
X0354893Y0273981D01*
X0355050Y0273993D01*
X0355209Y0274001D01*
X0355367Y0274005D01*
X0355525Y0274005D01*
X0355683Y0274001D01*
X0355842Y0273993D01*
X0355999Y0273981D01*
X0356157Y0273965D01*
X0356314Y0273945D01*
X0356470Y0273921D01*
X0356626Y0273893D01*
X0356781Y0273862D01*
X0356936Y0273826D01*
X0357089Y0273787D01*
X0357241Y0273744D01*
X0357392Y0273697D01*
X0357542Y0273646D01*
X0357691Y0273591D01*
X0357838Y0273533D01*
X0357984Y0273471D01*
X0358128Y0273406D01*
X0358270Y0273336D01*
X0358411Y0273264D01*
X0358550Y0273187D01*
X0358686Y0273108D01*
X0358821Y0273024D01*
X0358954Y0272938D01*
X0359084Y0272848D01*
X0359212Y0272755D01*
X0359338Y0272659D01*
X0359461Y0272559D01*
X0359582Y0272457D01*
X0359700Y0272352D01*
X0359815Y0272243D01*
X0359928Y0272132D01*
X0360038Y0272018D01*
X0360145Y0271901D01*
X0360249Y0271782D01*
X0360350Y0271660D01*
X0360447Y0271535D01*
X0360542Y0271408D01*
X0360633Y0271279D01*
X0360722Y0271148D01*
X0360806Y0271014D01*
X0360888Y0270878D01*
X0360966Y0270741D01*
X0361040Y0270601D01*
X0361111Y0270459D01*
X0361179Y0270316D01*
X0361243Y0270171D01*
X0361303Y0270025D01*
X0361359Y0269877D01*
X0361412Y0269728D01*
X0361461Y0269577D01*
X0361506Y0269425D01*
X0361547Y0269272D01*
X0361585Y0269119D01*
X0361618Y0268964D01*
X0361648Y0268808D01*
X0361674Y0268652D01*
X0361695Y0268495D01*
X0361713Y0268338D01*
X0361727Y0268180D01*
X0361737Y0268022D01*
X0361743Y0267864D01*
X0361745Y0267706D01*
X0361743Y0267548D01*
X0361737Y0267390D01*
X0361727Y0267232D01*
X0361713Y0267074D01*
X0361695Y0266917D01*
X0361674Y0266760D01*
X0361648Y0266604D01*
X0361618Y0266448D01*
X0361585Y0266293D01*
X0361547Y0266140D01*
X0361506Y0265987D01*
X0361461Y0265835D01*
X0361412Y0265684D01*
X0361359Y0265535D01*
X0361303Y0265387D01*
X0361243Y0265241D01*
X0361179Y0265096D01*
X0361111Y0264953D01*
X0361040Y0264811D01*
X0360966Y0264671D01*
X0360888Y0264534D01*
X0360806Y0264398D01*
X0360722Y0264264D01*
X0360633Y0264133D01*
X0360542Y0264004D01*
X0360447Y0263877D01*
X0360350Y0263752D01*
X0360249Y0263630D01*
X0360145Y0263511D01*
X0360038Y0263394D01*
X0359928Y0263280D01*
X0359815Y0263169D01*
X0359700Y0263060D01*
X0359582Y0262955D01*
X0359461Y0262853D01*
X0359338Y0262753D01*
X0359212Y0262657D01*
X0359084Y0262564D01*
X0358954Y0262474D01*
X0358821Y0262388D01*
X0358686Y0262304D01*
X0358550Y0262225D01*
X0358411Y0262148D01*
X0358270Y0262076D01*
X0358128Y0262006D01*
X0357984Y0261941D01*
X0357838Y0261879D01*
X0357691Y0261821D01*
X0357542Y0261766D01*
X0357392Y0261715D01*
X0357241Y0261668D01*
X0357089Y0261625D01*
X0356936Y0261586D01*
X0356781Y0261550D01*
X0356626Y0261519D01*
X0356470Y0261491D01*
X0356314Y0261467D01*
X0356157Y0261447D01*
X0355999Y0261431D01*
X0355842Y0261419D01*
X0355683Y0261411D01*
X0355525Y0261407D01*
X0355367Y0261407D01*
X0355209Y0261411D01*
X0355050Y0261419D01*
X0354893Y0261431D01*
X0354735Y0261447D01*
X0354578Y0261467D01*
X0354422Y0261491D01*
X0354266Y0261519D01*
X0354111Y0261550D01*
X0353956Y0261586D01*
X0353803Y0261625D01*
X0353651Y0261668D01*
X0353500Y0261715D01*
X0353350Y0261766D01*
X0353201Y0261821D01*
X0353054Y0261879D01*
X0352908Y0261941D01*
X0352764Y0262006D01*
X0352622Y0262076D01*
X0352481Y0262148D01*
X0352342Y0262225D01*
X0352206Y0262304D01*
X0352071Y0262388D01*
X0351938Y0262474D01*
X0351808Y0262564D01*
X0351680Y0262657D01*
X0351554Y0262753D01*
X0351431Y0262853D01*
X0351310Y0262955D01*
X0351192Y0263060D01*
X0351077Y0263169D01*
X0350964Y0263280D01*
X0350854Y0263394D01*
X0350747Y0263511D01*
X0350643Y0263630D01*
X0350542Y0263752D01*
X0350445Y0263877D01*
X0350350Y0264004D01*
X0350259Y0264133D01*
X0350170Y0264264D01*
X0350086Y0264398D01*
X0350004Y0264534D01*
X0349926Y0264671D01*
X0349852Y0264811D01*
X0349781Y0264953D01*
X0349713Y0265096D01*
X0349649Y0265241D01*
X0349589Y0265387D01*
X0349533Y0265535D01*
X0349480Y0265684D01*
X0349431Y0265835D01*
X0349386Y0265987D01*
X0349345Y0266140D01*
X0349307Y0266293D01*
X0349274Y0266448D01*
X0349244Y0266604D01*
X0349218Y0266760D01*
X0349197Y0266917D01*
X0349179Y0267074D01*
X0349165Y0267232D01*
X0349155Y0267390D01*
X0349149Y0267548D01*
X0349147Y0267706D01*
X0349147Y0031485D02*
X0349149Y0031643D01*
X0349155Y0031801D01*
X0349165Y0031959D01*
X0349179Y0032117D01*
X0349197Y0032274D01*
X0349218Y0032431D01*
X0349244Y0032587D01*
X0349274Y0032743D01*
X0349307Y0032898D01*
X0349345Y0033051D01*
X0349386Y0033204D01*
X0349431Y0033356D01*
X0349480Y0033507D01*
X0349533Y0033656D01*
X0349589Y0033804D01*
X0349649Y0033950D01*
X0349713Y0034095D01*
X0349781Y0034238D01*
X0349852Y0034380D01*
X0349926Y0034520D01*
X0350004Y0034657D01*
X0350086Y0034793D01*
X0350170Y0034927D01*
X0350259Y0035058D01*
X0350350Y0035187D01*
X0350445Y0035314D01*
X0350542Y0035439D01*
X0350643Y0035561D01*
X0350747Y0035680D01*
X0350854Y0035797D01*
X0350964Y0035911D01*
X0351077Y0036022D01*
X0351192Y0036131D01*
X0351310Y0036236D01*
X0351431Y0036338D01*
X0351554Y0036438D01*
X0351680Y0036534D01*
X0351808Y0036627D01*
X0351938Y0036717D01*
X0352071Y0036803D01*
X0352206Y0036887D01*
X0352342Y0036966D01*
X0352481Y0037043D01*
X0352622Y0037115D01*
X0352764Y0037185D01*
X0352908Y0037250D01*
X0353054Y0037312D01*
X0353201Y0037370D01*
X0353350Y0037425D01*
X0353500Y0037476D01*
X0353651Y0037523D01*
X0353803Y0037566D01*
X0353956Y0037605D01*
X0354111Y0037641D01*
X0354266Y0037672D01*
X0354422Y0037700D01*
X0354578Y0037724D01*
X0354735Y0037744D01*
X0354893Y0037760D01*
X0355050Y0037772D01*
X0355209Y0037780D01*
X0355367Y0037784D01*
X0355525Y0037784D01*
X0355683Y0037780D01*
X0355842Y0037772D01*
X0355999Y0037760D01*
X0356157Y0037744D01*
X0356314Y0037724D01*
X0356470Y0037700D01*
X0356626Y0037672D01*
X0356781Y0037641D01*
X0356936Y0037605D01*
X0357089Y0037566D01*
X0357241Y0037523D01*
X0357392Y0037476D01*
X0357542Y0037425D01*
X0357691Y0037370D01*
X0357838Y0037312D01*
X0357984Y0037250D01*
X0358128Y0037185D01*
X0358270Y0037115D01*
X0358411Y0037043D01*
X0358550Y0036966D01*
X0358686Y0036887D01*
X0358821Y0036803D01*
X0358954Y0036717D01*
X0359084Y0036627D01*
X0359212Y0036534D01*
X0359338Y0036438D01*
X0359461Y0036338D01*
X0359582Y0036236D01*
X0359700Y0036131D01*
X0359815Y0036022D01*
X0359928Y0035911D01*
X0360038Y0035797D01*
X0360145Y0035680D01*
X0360249Y0035561D01*
X0360350Y0035439D01*
X0360447Y0035314D01*
X0360542Y0035187D01*
X0360633Y0035058D01*
X0360722Y0034927D01*
X0360806Y0034793D01*
X0360888Y0034657D01*
X0360966Y0034520D01*
X0361040Y0034380D01*
X0361111Y0034238D01*
X0361179Y0034095D01*
X0361243Y0033950D01*
X0361303Y0033804D01*
X0361359Y0033656D01*
X0361412Y0033507D01*
X0361461Y0033356D01*
X0361506Y0033204D01*
X0361547Y0033051D01*
X0361585Y0032898D01*
X0361618Y0032743D01*
X0361648Y0032587D01*
X0361674Y0032431D01*
X0361695Y0032274D01*
X0361713Y0032117D01*
X0361727Y0031959D01*
X0361737Y0031801D01*
X0361743Y0031643D01*
X0361745Y0031485D01*
X0361743Y0031327D01*
X0361737Y0031169D01*
X0361727Y0031011D01*
X0361713Y0030853D01*
X0361695Y0030696D01*
X0361674Y0030539D01*
X0361648Y0030383D01*
X0361618Y0030227D01*
X0361585Y0030072D01*
X0361547Y0029919D01*
X0361506Y0029766D01*
X0361461Y0029614D01*
X0361412Y0029463D01*
X0361359Y0029314D01*
X0361303Y0029166D01*
X0361243Y0029020D01*
X0361179Y0028875D01*
X0361111Y0028732D01*
X0361040Y0028590D01*
X0360966Y0028450D01*
X0360888Y0028313D01*
X0360806Y0028177D01*
X0360722Y0028043D01*
X0360633Y0027912D01*
X0360542Y0027783D01*
X0360447Y0027656D01*
X0360350Y0027531D01*
X0360249Y0027409D01*
X0360145Y0027290D01*
X0360038Y0027173D01*
X0359928Y0027059D01*
X0359815Y0026948D01*
X0359700Y0026839D01*
X0359582Y0026734D01*
X0359461Y0026632D01*
X0359338Y0026532D01*
X0359212Y0026436D01*
X0359084Y0026343D01*
X0358954Y0026253D01*
X0358821Y0026167D01*
X0358686Y0026083D01*
X0358550Y0026004D01*
X0358411Y0025927D01*
X0358270Y0025855D01*
X0358128Y0025785D01*
X0357984Y0025720D01*
X0357838Y0025658D01*
X0357691Y0025600D01*
X0357542Y0025545D01*
X0357392Y0025494D01*
X0357241Y0025447D01*
X0357089Y0025404D01*
X0356936Y0025365D01*
X0356781Y0025329D01*
X0356626Y0025298D01*
X0356470Y0025270D01*
X0356314Y0025246D01*
X0356157Y0025226D01*
X0355999Y0025210D01*
X0355842Y0025198D01*
X0355683Y0025190D01*
X0355525Y0025186D01*
X0355367Y0025186D01*
X0355209Y0025190D01*
X0355050Y0025198D01*
X0354893Y0025210D01*
X0354735Y0025226D01*
X0354578Y0025246D01*
X0354422Y0025270D01*
X0354266Y0025298D01*
X0354111Y0025329D01*
X0353956Y0025365D01*
X0353803Y0025404D01*
X0353651Y0025447D01*
X0353500Y0025494D01*
X0353350Y0025545D01*
X0353201Y0025600D01*
X0353054Y0025658D01*
X0352908Y0025720D01*
X0352764Y0025785D01*
X0352622Y0025855D01*
X0352481Y0025927D01*
X0352342Y0026004D01*
X0352206Y0026083D01*
X0352071Y0026167D01*
X0351938Y0026253D01*
X0351808Y0026343D01*
X0351680Y0026436D01*
X0351554Y0026532D01*
X0351431Y0026632D01*
X0351310Y0026734D01*
X0351192Y0026839D01*
X0351077Y0026948D01*
X0350964Y0027059D01*
X0350854Y0027173D01*
X0350747Y0027290D01*
X0350643Y0027409D01*
X0350542Y0027531D01*
X0350445Y0027656D01*
X0350350Y0027783D01*
X0350259Y0027912D01*
X0350170Y0028043D01*
X0350086Y0028177D01*
X0350004Y0028313D01*
X0349926Y0028450D01*
X0349852Y0028590D01*
X0349781Y0028732D01*
X0349713Y0028875D01*
X0349649Y0029020D01*
X0349589Y0029166D01*
X0349533Y0029314D01*
X0349480Y0029463D01*
X0349431Y0029614D01*
X0349386Y0029766D01*
X0349345Y0029919D01*
X0349307Y0030072D01*
X0349274Y0030227D01*
X0349244Y0030383D01*
X0349218Y0030539D01*
X0349197Y0030696D01*
X0349179Y0030853D01*
X0349165Y0031011D01*
X0349155Y0031169D01*
X0349149Y0031327D01*
X0349147Y0031485D01*
D12*
X0343463Y0241753D02*
X0334605Y0241753D01*
X0343463Y0241753D02*
X0343463Y0238799D01*
X0334605Y0238799D01*
X0334605Y0241753D01*
X0334605Y0241751D02*
X0343463Y0241751D01*
D13*
X0356750Y0235276D03*
X0356750Y0225276D03*
X0356750Y0215276D03*
X0356750Y0205276D03*
X0356750Y0195276D03*
X0339034Y0200276D03*
X0339034Y0210276D03*
X0339034Y0220276D03*
X0339034Y0230276D03*
M02*
