G75*
%MOIN*%
%OFA0B0*%
%FSLAX25Y25*%
%IPPOS*%
%LPD*%
%AMOC8*
5,1,8,0,0,1.08239X$1,22.5*
%
%ADD10C,0.00000*%
%ADD11C,0.07400*%
%ADD12C,0.13800*%
%ADD13C,0.03353*%
%ADD14R,0.06706X0.12611*%
%ADD15OC8,0.07400*%
%ADD16OC8,0.06800*%
%ADD17C,0.06000*%
%ADD18C,0.06800*%
%ADD19R,0.16548X0.08674*%
%ADD20C,0.13398*%
%ADD21C,0.06706*%
D10*
X0007378Y0007378D02*
X0007378Y0164858D01*
X0204228Y0164858D01*
X0204228Y0007378D01*
X0007378Y0007378D01*
X0020764Y0027063D02*
X0020766Y0027221D01*
X0020772Y0027379D01*
X0020782Y0027537D01*
X0020796Y0027695D01*
X0020814Y0027852D01*
X0020835Y0028009D01*
X0020861Y0028165D01*
X0020891Y0028321D01*
X0020924Y0028476D01*
X0020962Y0028629D01*
X0021003Y0028782D01*
X0021048Y0028934D01*
X0021097Y0029085D01*
X0021150Y0029234D01*
X0021206Y0029382D01*
X0021266Y0029528D01*
X0021330Y0029673D01*
X0021398Y0029816D01*
X0021469Y0029958D01*
X0021543Y0030098D01*
X0021621Y0030235D01*
X0021703Y0030371D01*
X0021787Y0030505D01*
X0021876Y0030636D01*
X0021967Y0030765D01*
X0022062Y0030892D01*
X0022159Y0031017D01*
X0022260Y0031139D01*
X0022364Y0031258D01*
X0022471Y0031375D01*
X0022581Y0031489D01*
X0022694Y0031600D01*
X0022809Y0031709D01*
X0022927Y0031814D01*
X0023048Y0031916D01*
X0023171Y0032016D01*
X0023297Y0032112D01*
X0023425Y0032205D01*
X0023555Y0032295D01*
X0023688Y0032381D01*
X0023823Y0032465D01*
X0023959Y0032544D01*
X0024098Y0032621D01*
X0024239Y0032693D01*
X0024381Y0032763D01*
X0024525Y0032828D01*
X0024671Y0032890D01*
X0024818Y0032948D01*
X0024967Y0033003D01*
X0025117Y0033054D01*
X0025268Y0033101D01*
X0025420Y0033144D01*
X0025573Y0033183D01*
X0025728Y0033219D01*
X0025883Y0033250D01*
X0026039Y0033278D01*
X0026195Y0033302D01*
X0026352Y0033322D01*
X0026510Y0033338D01*
X0026667Y0033350D01*
X0026826Y0033358D01*
X0026984Y0033362D01*
X0027142Y0033362D01*
X0027300Y0033358D01*
X0027459Y0033350D01*
X0027616Y0033338D01*
X0027774Y0033322D01*
X0027931Y0033302D01*
X0028087Y0033278D01*
X0028243Y0033250D01*
X0028398Y0033219D01*
X0028553Y0033183D01*
X0028706Y0033144D01*
X0028858Y0033101D01*
X0029009Y0033054D01*
X0029159Y0033003D01*
X0029308Y0032948D01*
X0029455Y0032890D01*
X0029601Y0032828D01*
X0029745Y0032763D01*
X0029887Y0032693D01*
X0030028Y0032621D01*
X0030167Y0032544D01*
X0030303Y0032465D01*
X0030438Y0032381D01*
X0030571Y0032295D01*
X0030701Y0032205D01*
X0030829Y0032112D01*
X0030955Y0032016D01*
X0031078Y0031916D01*
X0031199Y0031814D01*
X0031317Y0031709D01*
X0031432Y0031600D01*
X0031545Y0031489D01*
X0031655Y0031375D01*
X0031762Y0031258D01*
X0031866Y0031139D01*
X0031967Y0031017D01*
X0032064Y0030892D01*
X0032159Y0030765D01*
X0032250Y0030636D01*
X0032339Y0030505D01*
X0032423Y0030371D01*
X0032505Y0030235D01*
X0032583Y0030098D01*
X0032657Y0029958D01*
X0032728Y0029816D01*
X0032796Y0029673D01*
X0032860Y0029528D01*
X0032920Y0029382D01*
X0032976Y0029234D01*
X0033029Y0029085D01*
X0033078Y0028934D01*
X0033123Y0028782D01*
X0033164Y0028629D01*
X0033202Y0028476D01*
X0033235Y0028321D01*
X0033265Y0028165D01*
X0033291Y0028009D01*
X0033312Y0027852D01*
X0033330Y0027695D01*
X0033344Y0027537D01*
X0033354Y0027379D01*
X0033360Y0027221D01*
X0033362Y0027063D01*
X0033360Y0026905D01*
X0033354Y0026747D01*
X0033344Y0026589D01*
X0033330Y0026431D01*
X0033312Y0026274D01*
X0033291Y0026117D01*
X0033265Y0025961D01*
X0033235Y0025805D01*
X0033202Y0025650D01*
X0033164Y0025497D01*
X0033123Y0025344D01*
X0033078Y0025192D01*
X0033029Y0025041D01*
X0032976Y0024892D01*
X0032920Y0024744D01*
X0032860Y0024598D01*
X0032796Y0024453D01*
X0032728Y0024310D01*
X0032657Y0024168D01*
X0032583Y0024028D01*
X0032505Y0023891D01*
X0032423Y0023755D01*
X0032339Y0023621D01*
X0032250Y0023490D01*
X0032159Y0023361D01*
X0032064Y0023234D01*
X0031967Y0023109D01*
X0031866Y0022987D01*
X0031762Y0022868D01*
X0031655Y0022751D01*
X0031545Y0022637D01*
X0031432Y0022526D01*
X0031317Y0022417D01*
X0031199Y0022312D01*
X0031078Y0022210D01*
X0030955Y0022110D01*
X0030829Y0022014D01*
X0030701Y0021921D01*
X0030571Y0021831D01*
X0030438Y0021745D01*
X0030303Y0021661D01*
X0030167Y0021582D01*
X0030028Y0021505D01*
X0029887Y0021433D01*
X0029745Y0021363D01*
X0029601Y0021298D01*
X0029455Y0021236D01*
X0029308Y0021178D01*
X0029159Y0021123D01*
X0029009Y0021072D01*
X0028858Y0021025D01*
X0028706Y0020982D01*
X0028553Y0020943D01*
X0028398Y0020907D01*
X0028243Y0020876D01*
X0028087Y0020848D01*
X0027931Y0020824D01*
X0027774Y0020804D01*
X0027616Y0020788D01*
X0027459Y0020776D01*
X0027300Y0020768D01*
X0027142Y0020764D01*
X0026984Y0020764D01*
X0026826Y0020768D01*
X0026667Y0020776D01*
X0026510Y0020788D01*
X0026352Y0020804D01*
X0026195Y0020824D01*
X0026039Y0020848D01*
X0025883Y0020876D01*
X0025728Y0020907D01*
X0025573Y0020943D01*
X0025420Y0020982D01*
X0025268Y0021025D01*
X0025117Y0021072D01*
X0024967Y0021123D01*
X0024818Y0021178D01*
X0024671Y0021236D01*
X0024525Y0021298D01*
X0024381Y0021363D01*
X0024239Y0021433D01*
X0024098Y0021505D01*
X0023959Y0021582D01*
X0023823Y0021661D01*
X0023688Y0021745D01*
X0023555Y0021831D01*
X0023425Y0021921D01*
X0023297Y0022014D01*
X0023171Y0022110D01*
X0023048Y0022210D01*
X0022927Y0022312D01*
X0022809Y0022417D01*
X0022694Y0022526D01*
X0022581Y0022637D01*
X0022471Y0022751D01*
X0022364Y0022868D01*
X0022260Y0022987D01*
X0022159Y0023109D01*
X0022062Y0023234D01*
X0021967Y0023361D01*
X0021876Y0023490D01*
X0021787Y0023621D01*
X0021703Y0023755D01*
X0021621Y0023891D01*
X0021543Y0024028D01*
X0021469Y0024168D01*
X0021398Y0024310D01*
X0021330Y0024453D01*
X0021266Y0024598D01*
X0021206Y0024744D01*
X0021150Y0024892D01*
X0021097Y0025041D01*
X0021048Y0025192D01*
X0021003Y0025344D01*
X0020962Y0025497D01*
X0020924Y0025650D01*
X0020891Y0025805D01*
X0020861Y0025961D01*
X0020835Y0026117D01*
X0020814Y0026274D01*
X0020796Y0026431D01*
X0020782Y0026589D01*
X0020772Y0026747D01*
X0020766Y0026905D01*
X0020764Y0027063D01*
X0120878Y0141378D02*
X0120880Y0141539D01*
X0120886Y0141699D01*
X0120896Y0141860D01*
X0120910Y0142020D01*
X0120928Y0142180D01*
X0120949Y0142339D01*
X0120975Y0142498D01*
X0121005Y0142656D01*
X0121038Y0142813D01*
X0121076Y0142970D01*
X0121117Y0143125D01*
X0121162Y0143279D01*
X0121211Y0143432D01*
X0121264Y0143584D01*
X0121320Y0143735D01*
X0121381Y0143884D01*
X0121444Y0144032D01*
X0121512Y0144178D01*
X0121583Y0144322D01*
X0121657Y0144464D01*
X0121735Y0144605D01*
X0121817Y0144743D01*
X0121902Y0144880D01*
X0121990Y0145014D01*
X0122082Y0145146D01*
X0122177Y0145276D01*
X0122275Y0145404D01*
X0122376Y0145529D01*
X0122480Y0145651D01*
X0122587Y0145771D01*
X0122697Y0145888D01*
X0122810Y0146003D01*
X0122926Y0146114D01*
X0123045Y0146223D01*
X0123166Y0146328D01*
X0123290Y0146431D01*
X0123416Y0146531D01*
X0123544Y0146627D01*
X0123675Y0146720D01*
X0123809Y0146810D01*
X0123944Y0146897D01*
X0124082Y0146980D01*
X0124221Y0147060D01*
X0124363Y0147136D01*
X0124506Y0147209D01*
X0124651Y0147278D01*
X0124798Y0147344D01*
X0124946Y0147406D01*
X0125096Y0147464D01*
X0125247Y0147519D01*
X0125400Y0147570D01*
X0125554Y0147617D01*
X0125709Y0147660D01*
X0125865Y0147699D01*
X0126021Y0147735D01*
X0126179Y0147766D01*
X0126337Y0147794D01*
X0126496Y0147818D01*
X0126656Y0147838D01*
X0126816Y0147854D01*
X0126976Y0147866D01*
X0127137Y0147874D01*
X0127298Y0147878D01*
X0127458Y0147878D01*
X0127619Y0147874D01*
X0127780Y0147866D01*
X0127940Y0147854D01*
X0128100Y0147838D01*
X0128260Y0147818D01*
X0128419Y0147794D01*
X0128577Y0147766D01*
X0128735Y0147735D01*
X0128891Y0147699D01*
X0129047Y0147660D01*
X0129202Y0147617D01*
X0129356Y0147570D01*
X0129509Y0147519D01*
X0129660Y0147464D01*
X0129810Y0147406D01*
X0129958Y0147344D01*
X0130105Y0147278D01*
X0130250Y0147209D01*
X0130393Y0147136D01*
X0130535Y0147060D01*
X0130674Y0146980D01*
X0130812Y0146897D01*
X0130947Y0146810D01*
X0131081Y0146720D01*
X0131212Y0146627D01*
X0131340Y0146531D01*
X0131466Y0146431D01*
X0131590Y0146328D01*
X0131711Y0146223D01*
X0131830Y0146114D01*
X0131946Y0146003D01*
X0132059Y0145888D01*
X0132169Y0145771D01*
X0132276Y0145651D01*
X0132380Y0145529D01*
X0132481Y0145404D01*
X0132579Y0145276D01*
X0132674Y0145146D01*
X0132766Y0145014D01*
X0132854Y0144880D01*
X0132939Y0144743D01*
X0133021Y0144605D01*
X0133099Y0144464D01*
X0133173Y0144322D01*
X0133244Y0144178D01*
X0133312Y0144032D01*
X0133375Y0143884D01*
X0133436Y0143735D01*
X0133492Y0143584D01*
X0133545Y0143432D01*
X0133594Y0143279D01*
X0133639Y0143125D01*
X0133680Y0142970D01*
X0133718Y0142813D01*
X0133751Y0142656D01*
X0133781Y0142498D01*
X0133807Y0142339D01*
X0133828Y0142180D01*
X0133846Y0142020D01*
X0133860Y0141860D01*
X0133870Y0141699D01*
X0133876Y0141539D01*
X0133878Y0141378D01*
X0133876Y0141217D01*
X0133870Y0141057D01*
X0133860Y0140896D01*
X0133846Y0140736D01*
X0133828Y0140576D01*
X0133807Y0140417D01*
X0133781Y0140258D01*
X0133751Y0140100D01*
X0133718Y0139943D01*
X0133680Y0139786D01*
X0133639Y0139631D01*
X0133594Y0139477D01*
X0133545Y0139324D01*
X0133492Y0139172D01*
X0133436Y0139021D01*
X0133375Y0138872D01*
X0133312Y0138724D01*
X0133244Y0138578D01*
X0133173Y0138434D01*
X0133099Y0138292D01*
X0133021Y0138151D01*
X0132939Y0138013D01*
X0132854Y0137876D01*
X0132766Y0137742D01*
X0132674Y0137610D01*
X0132579Y0137480D01*
X0132481Y0137352D01*
X0132380Y0137227D01*
X0132276Y0137105D01*
X0132169Y0136985D01*
X0132059Y0136868D01*
X0131946Y0136753D01*
X0131830Y0136642D01*
X0131711Y0136533D01*
X0131590Y0136428D01*
X0131466Y0136325D01*
X0131340Y0136225D01*
X0131212Y0136129D01*
X0131081Y0136036D01*
X0130947Y0135946D01*
X0130812Y0135859D01*
X0130674Y0135776D01*
X0130535Y0135696D01*
X0130393Y0135620D01*
X0130250Y0135547D01*
X0130105Y0135478D01*
X0129958Y0135412D01*
X0129810Y0135350D01*
X0129660Y0135292D01*
X0129509Y0135237D01*
X0129356Y0135186D01*
X0129202Y0135139D01*
X0129047Y0135096D01*
X0128891Y0135057D01*
X0128735Y0135021D01*
X0128577Y0134990D01*
X0128419Y0134962D01*
X0128260Y0134938D01*
X0128100Y0134918D01*
X0127940Y0134902D01*
X0127780Y0134890D01*
X0127619Y0134882D01*
X0127458Y0134878D01*
X0127298Y0134878D01*
X0127137Y0134882D01*
X0126976Y0134890D01*
X0126816Y0134902D01*
X0126656Y0134918D01*
X0126496Y0134938D01*
X0126337Y0134962D01*
X0126179Y0134990D01*
X0126021Y0135021D01*
X0125865Y0135057D01*
X0125709Y0135096D01*
X0125554Y0135139D01*
X0125400Y0135186D01*
X0125247Y0135237D01*
X0125096Y0135292D01*
X0124946Y0135350D01*
X0124798Y0135412D01*
X0124651Y0135478D01*
X0124506Y0135547D01*
X0124363Y0135620D01*
X0124221Y0135696D01*
X0124082Y0135776D01*
X0123944Y0135859D01*
X0123809Y0135946D01*
X0123675Y0136036D01*
X0123544Y0136129D01*
X0123416Y0136225D01*
X0123290Y0136325D01*
X0123166Y0136428D01*
X0123045Y0136533D01*
X0122926Y0136642D01*
X0122810Y0136753D01*
X0122697Y0136868D01*
X0122587Y0136985D01*
X0122480Y0137105D01*
X0122376Y0137227D01*
X0122275Y0137352D01*
X0122177Y0137480D01*
X0122082Y0137610D01*
X0121990Y0137742D01*
X0121902Y0137876D01*
X0121817Y0138013D01*
X0121735Y0138151D01*
X0121657Y0138292D01*
X0121583Y0138434D01*
X0121512Y0138578D01*
X0121444Y0138724D01*
X0121381Y0138872D01*
X0121320Y0139021D01*
X0121264Y0139172D01*
X0121211Y0139324D01*
X0121162Y0139477D01*
X0121117Y0139631D01*
X0121076Y0139786D01*
X0121038Y0139943D01*
X0121005Y0140100D01*
X0120975Y0140258D01*
X0120949Y0140417D01*
X0120928Y0140576D01*
X0120910Y0140736D01*
X0120896Y0140896D01*
X0120886Y0141057D01*
X0120880Y0141217D01*
X0120878Y0141378D01*
X0178244Y0145173D02*
X0178246Y0145331D01*
X0178252Y0145489D01*
X0178262Y0145647D01*
X0178276Y0145805D01*
X0178294Y0145962D01*
X0178315Y0146119D01*
X0178341Y0146275D01*
X0178371Y0146431D01*
X0178404Y0146586D01*
X0178442Y0146739D01*
X0178483Y0146892D01*
X0178528Y0147044D01*
X0178577Y0147195D01*
X0178630Y0147344D01*
X0178686Y0147492D01*
X0178746Y0147638D01*
X0178810Y0147783D01*
X0178878Y0147926D01*
X0178949Y0148068D01*
X0179023Y0148208D01*
X0179101Y0148345D01*
X0179183Y0148481D01*
X0179267Y0148615D01*
X0179356Y0148746D01*
X0179447Y0148875D01*
X0179542Y0149002D01*
X0179639Y0149127D01*
X0179740Y0149249D01*
X0179844Y0149368D01*
X0179951Y0149485D01*
X0180061Y0149599D01*
X0180174Y0149710D01*
X0180289Y0149819D01*
X0180407Y0149924D01*
X0180528Y0150026D01*
X0180651Y0150126D01*
X0180777Y0150222D01*
X0180905Y0150315D01*
X0181035Y0150405D01*
X0181168Y0150491D01*
X0181303Y0150575D01*
X0181439Y0150654D01*
X0181578Y0150731D01*
X0181719Y0150803D01*
X0181861Y0150873D01*
X0182005Y0150938D01*
X0182151Y0151000D01*
X0182298Y0151058D01*
X0182447Y0151113D01*
X0182597Y0151164D01*
X0182748Y0151211D01*
X0182900Y0151254D01*
X0183053Y0151293D01*
X0183208Y0151329D01*
X0183363Y0151360D01*
X0183519Y0151388D01*
X0183675Y0151412D01*
X0183832Y0151432D01*
X0183990Y0151448D01*
X0184147Y0151460D01*
X0184306Y0151468D01*
X0184464Y0151472D01*
X0184622Y0151472D01*
X0184780Y0151468D01*
X0184939Y0151460D01*
X0185096Y0151448D01*
X0185254Y0151432D01*
X0185411Y0151412D01*
X0185567Y0151388D01*
X0185723Y0151360D01*
X0185878Y0151329D01*
X0186033Y0151293D01*
X0186186Y0151254D01*
X0186338Y0151211D01*
X0186489Y0151164D01*
X0186639Y0151113D01*
X0186788Y0151058D01*
X0186935Y0151000D01*
X0187081Y0150938D01*
X0187225Y0150873D01*
X0187367Y0150803D01*
X0187508Y0150731D01*
X0187647Y0150654D01*
X0187783Y0150575D01*
X0187918Y0150491D01*
X0188051Y0150405D01*
X0188181Y0150315D01*
X0188309Y0150222D01*
X0188435Y0150126D01*
X0188558Y0150026D01*
X0188679Y0149924D01*
X0188797Y0149819D01*
X0188912Y0149710D01*
X0189025Y0149599D01*
X0189135Y0149485D01*
X0189242Y0149368D01*
X0189346Y0149249D01*
X0189447Y0149127D01*
X0189544Y0149002D01*
X0189639Y0148875D01*
X0189730Y0148746D01*
X0189819Y0148615D01*
X0189903Y0148481D01*
X0189985Y0148345D01*
X0190063Y0148208D01*
X0190137Y0148068D01*
X0190208Y0147926D01*
X0190276Y0147783D01*
X0190340Y0147638D01*
X0190400Y0147492D01*
X0190456Y0147344D01*
X0190509Y0147195D01*
X0190558Y0147044D01*
X0190603Y0146892D01*
X0190644Y0146739D01*
X0190682Y0146586D01*
X0190715Y0146431D01*
X0190745Y0146275D01*
X0190771Y0146119D01*
X0190792Y0145962D01*
X0190810Y0145805D01*
X0190824Y0145647D01*
X0190834Y0145489D01*
X0190840Y0145331D01*
X0190842Y0145173D01*
X0190840Y0145015D01*
X0190834Y0144857D01*
X0190824Y0144699D01*
X0190810Y0144541D01*
X0190792Y0144384D01*
X0190771Y0144227D01*
X0190745Y0144071D01*
X0190715Y0143915D01*
X0190682Y0143760D01*
X0190644Y0143607D01*
X0190603Y0143454D01*
X0190558Y0143302D01*
X0190509Y0143151D01*
X0190456Y0143002D01*
X0190400Y0142854D01*
X0190340Y0142708D01*
X0190276Y0142563D01*
X0190208Y0142420D01*
X0190137Y0142278D01*
X0190063Y0142138D01*
X0189985Y0142001D01*
X0189903Y0141865D01*
X0189819Y0141731D01*
X0189730Y0141600D01*
X0189639Y0141471D01*
X0189544Y0141344D01*
X0189447Y0141219D01*
X0189346Y0141097D01*
X0189242Y0140978D01*
X0189135Y0140861D01*
X0189025Y0140747D01*
X0188912Y0140636D01*
X0188797Y0140527D01*
X0188679Y0140422D01*
X0188558Y0140320D01*
X0188435Y0140220D01*
X0188309Y0140124D01*
X0188181Y0140031D01*
X0188051Y0139941D01*
X0187918Y0139855D01*
X0187783Y0139771D01*
X0187647Y0139692D01*
X0187508Y0139615D01*
X0187367Y0139543D01*
X0187225Y0139473D01*
X0187081Y0139408D01*
X0186935Y0139346D01*
X0186788Y0139288D01*
X0186639Y0139233D01*
X0186489Y0139182D01*
X0186338Y0139135D01*
X0186186Y0139092D01*
X0186033Y0139053D01*
X0185878Y0139017D01*
X0185723Y0138986D01*
X0185567Y0138958D01*
X0185411Y0138934D01*
X0185254Y0138914D01*
X0185096Y0138898D01*
X0184939Y0138886D01*
X0184780Y0138878D01*
X0184622Y0138874D01*
X0184464Y0138874D01*
X0184306Y0138878D01*
X0184147Y0138886D01*
X0183990Y0138898D01*
X0183832Y0138914D01*
X0183675Y0138934D01*
X0183519Y0138958D01*
X0183363Y0138986D01*
X0183208Y0139017D01*
X0183053Y0139053D01*
X0182900Y0139092D01*
X0182748Y0139135D01*
X0182597Y0139182D01*
X0182447Y0139233D01*
X0182298Y0139288D01*
X0182151Y0139346D01*
X0182005Y0139408D01*
X0181861Y0139473D01*
X0181719Y0139543D01*
X0181578Y0139615D01*
X0181439Y0139692D01*
X0181303Y0139771D01*
X0181168Y0139855D01*
X0181035Y0139941D01*
X0180905Y0140031D01*
X0180777Y0140124D01*
X0180651Y0140220D01*
X0180528Y0140320D01*
X0180407Y0140422D01*
X0180289Y0140527D01*
X0180174Y0140636D01*
X0180061Y0140747D01*
X0179951Y0140861D01*
X0179844Y0140978D01*
X0179740Y0141097D01*
X0179639Y0141219D01*
X0179542Y0141344D01*
X0179447Y0141471D01*
X0179356Y0141600D01*
X0179267Y0141731D01*
X0179183Y0141865D01*
X0179101Y0142001D01*
X0179023Y0142138D01*
X0178949Y0142278D01*
X0178878Y0142420D01*
X0178810Y0142563D01*
X0178746Y0142708D01*
X0178686Y0142854D01*
X0178630Y0143002D01*
X0178577Y0143151D01*
X0178528Y0143302D01*
X0178483Y0143454D01*
X0178442Y0143607D01*
X0178404Y0143760D01*
X0178371Y0143915D01*
X0178341Y0144071D01*
X0178315Y0144227D01*
X0178294Y0144384D01*
X0178276Y0144541D01*
X0178262Y0144699D01*
X0178252Y0144857D01*
X0178246Y0145015D01*
X0178244Y0145173D01*
X0178244Y0027063D02*
X0178246Y0027221D01*
X0178252Y0027379D01*
X0178262Y0027537D01*
X0178276Y0027695D01*
X0178294Y0027852D01*
X0178315Y0028009D01*
X0178341Y0028165D01*
X0178371Y0028321D01*
X0178404Y0028476D01*
X0178442Y0028629D01*
X0178483Y0028782D01*
X0178528Y0028934D01*
X0178577Y0029085D01*
X0178630Y0029234D01*
X0178686Y0029382D01*
X0178746Y0029528D01*
X0178810Y0029673D01*
X0178878Y0029816D01*
X0178949Y0029958D01*
X0179023Y0030098D01*
X0179101Y0030235D01*
X0179183Y0030371D01*
X0179267Y0030505D01*
X0179356Y0030636D01*
X0179447Y0030765D01*
X0179542Y0030892D01*
X0179639Y0031017D01*
X0179740Y0031139D01*
X0179844Y0031258D01*
X0179951Y0031375D01*
X0180061Y0031489D01*
X0180174Y0031600D01*
X0180289Y0031709D01*
X0180407Y0031814D01*
X0180528Y0031916D01*
X0180651Y0032016D01*
X0180777Y0032112D01*
X0180905Y0032205D01*
X0181035Y0032295D01*
X0181168Y0032381D01*
X0181303Y0032465D01*
X0181439Y0032544D01*
X0181578Y0032621D01*
X0181719Y0032693D01*
X0181861Y0032763D01*
X0182005Y0032828D01*
X0182151Y0032890D01*
X0182298Y0032948D01*
X0182447Y0033003D01*
X0182597Y0033054D01*
X0182748Y0033101D01*
X0182900Y0033144D01*
X0183053Y0033183D01*
X0183208Y0033219D01*
X0183363Y0033250D01*
X0183519Y0033278D01*
X0183675Y0033302D01*
X0183832Y0033322D01*
X0183990Y0033338D01*
X0184147Y0033350D01*
X0184306Y0033358D01*
X0184464Y0033362D01*
X0184622Y0033362D01*
X0184780Y0033358D01*
X0184939Y0033350D01*
X0185096Y0033338D01*
X0185254Y0033322D01*
X0185411Y0033302D01*
X0185567Y0033278D01*
X0185723Y0033250D01*
X0185878Y0033219D01*
X0186033Y0033183D01*
X0186186Y0033144D01*
X0186338Y0033101D01*
X0186489Y0033054D01*
X0186639Y0033003D01*
X0186788Y0032948D01*
X0186935Y0032890D01*
X0187081Y0032828D01*
X0187225Y0032763D01*
X0187367Y0032693D01*
X0187508Y0032621D01*
X0187647Y0032544D01*
X0187783Y0032465D01*
X0187918Y0032381D01*
X0188051Y0032295D01*
X0188181Y0032205D01*
X0188309Y0032112D01*
X0188435Y0032016D01*
X0188558Y0031916D01*
X0188679Y0031814D01*
X0188797Y0031709D01*
X0188912Y0031600D01*
X0189025Y0031489D01*
X0189135Y0031375D01*
X0189242Y0031258D01*
X0189346Y0031139D01*
X0189447Y0031017D01*
X0189544Y0030892D01*
X0189639Y0030765D01*
X0189730Y0030636D01*
X0189819Y0030505D01*
X0189903Y0030371D01*
X0189985Y0030235D01*
X0190063Y0030098D01*
X0190137Y0029958D01*
X0190208Y0029816D01*
X0190276Y0029673D01*
X0190340Y0029528D01*
X0190400Y0029382D01*
X0190456Y0029234D01*
X0190509Y0029085D01*
X0190558Y0028934D01*
X0190603Y0028782D01*
X0190644Y0028629D01*
X0190682Y0028476D01*
X0190715Y0028321D01*
X0190745Y0028165D01*
X0190771Y0028009D01*
X0190792Y0027852D01*
X0190810Y0027695D01*
X0190824Y0027537D01*
X0190834Y0027379D01*
X0190840Y0027221D01*
X0190842Y0027063D01*
X0190840Y0026905D01*
X0190834Y0026747D01*
X0190824Y0026589D01*
X0190810Y0026431D01*
X0190792Y0026274D01*
X0190771Y0026117D01*
X0190745Y0025961D01*
X0190715Y0025805D01*
X0190682Y0025650D01*
X0190644Y0025497D01*
X0190603Y0025344D01*
X0190558Y0025192D01*
X0190509Y0025041D01*
X0190456Y0024892D01*
X0190400Y0024744D01*
X0190340Y0024598D01*
X0190276Y0024453D01*
X0190208Y0024310D01*
X0190137Y0024168D01*
X0190063Y0024028D01*
X0189985Y0023891D01*
X0189903Y0023755D01*
X0189819Y0023621D01*
X0189730Y0023490D01*
X0189639Y0023361D01*
X0189544Y0023234D01*
X0189447Y0023109D01*
X0189346Y0022987D01*
X0189242Y0022868D01*
X0189135Y0022751D01*
X0189025Y0022637D01*
X0188912Y0022526D01*
X0188797Y0022417D01*
X0188679Y0022312D01*
X0188558Y0022210D01*
X0188435Y0022110D01*
X0188309Y0022014D01*
X0188181Y0021921D01*
X0188051Y0021831D01*
X0187918Y0021745D01*
X0187783Y0021661D01*
X0187647Y0021582D01*
X0187508Y0021505D01*
X0187367Y0021433D01*
X0187225Y0021363D01*
X0187081Y0021298D01*
X0186935Y0021236D01*
X0186788Y0021178D01*
X0186639Y0021123D01*
X0186489Y0021072D01*
X0186338Y0021025D01*
X0186186Y0020982D01*
X0186033Y0020943D01*
X0185878Y0020907D01*
X0185723Y0020876D01*
X0185567Y0020848D01*
X0185411Y0020824D01*
X0185254Y0020804D01*
X0185096Y0020788D01*
X0184939Y0020776D01*
X0184780Y0020768D01*
X0184622Y0020764D01*
X0184464Y0020764D01*
X0184306Y0020768D01*
X0184147Y0020776D01*
X0183990Y0020788D01*
X0183832Y0020804D01*
X0183675Y0020824D01*
X0183519Y0020848D01*
X0183363Y0020876D01*
X0183208Y0020907D01*
X0183053Y0020943D01*
X0182900Y0020982D01*
X0182748Y0021025D01*
X0182597Y0021072D01*
X0182447Y0021123D01*
X0182298Y0021178D01*
X0182151Y0021236D01*
X0182005Y0021298D01*
X0181861Y0021363D01*
X0181719Y0021433D01*
X0181578Y0021505D01*
X0181439Y0021582D01*
X0181303Y0021661D01*
X0181168Y0021745D01*
X0181035Y0021831D01*
X0180905Y0021921D01*
X0180777Y0022014D01*
X0180651Y0022110D01*
X0180528Y0022210D01*
X0180407Y0022312D01*
X0180289Y0022417D01*
X0180174Y0022526D01*
X0180061Y0022637D01*
X0179951Y0022751D01*
X0179844Y0022868D01*
X0179740Y0022987D01*
X0179639Y0023109D01*
X0179542Y0023234D01*
X0179447Y0023361D01*
X0179356Y0023490D01*
X0179267Y0023621D01*
X0179183Y0023755D01*
X0179101Y0023891D01*
X0179023Y0024028D01*
X0178949Y0024168D01*
X0178878Y0024310D01*
X0178810Y0024453D01*
X0178746Y0024598D01*
X0178686Y0024744D01*
X0178630Y0024892D01*
X0178577Y0025041D01*
X0178528Y0025192D01*
X0178483Y0025344D01*
X0178442Y0025497D01*
X0178404Y0025650D01*
X0178371Y0025805D01*
X0178341Y0025961D01*
X0178315Y0026117D01*
X0178294Y0026274D01*
X0178276Y0026431D01*
X0178262Y0026589D01*
X0178252Y0026747D01*
X0178246Y0026905D01*
X0178244Y0027063D01*
X0020764Y0145173D02*
X0020766Y0145331D01*
X0020772Y0145489D01*
X0020782Y0145647D01*
X0020796Y0145805D01*
X0020814Y0145962D01*
X0020835Y0146119D01*
X0020861Y0146275D01*
X0020891Y0146431D01*
X0020924Y0146586D01*
X0020962Y0146739D01*
X0021003Y0146892D01*
X0021048Y0147044D01*
X0021097Y0147195D01*
X0021150Y0147344D01*
X0021206Y0147492D01*
X0021266Y0147638D01*
X0021330Y0147783D01*
X0021398Y0147926D01*
X0021469Y0148068D01*
X0021543Y0148208D01*
X0021621Y0148345D01*
X0021703Y0148481D01*
X0021787Y0148615D01*
X0021876Y0148746D01*
X0021967Y0148875D01*
X0022062Y0149002D01*
X0022159Y0149127D01*
X0022260Y0149249D01*
X0022364Y0149368D01*
X0022471Y0149485D01*
X0022581Y0149599D01*
X0022694Y0149710D01*
X0022809Y0149819D01*
X0022927Y0149924D01*
X0023048Y0150026D01*
X0023171Y0150126D01*
X0023297Y0150222D01*
X0023425Y0150315D01*
X0023555Y0150405D01*
X0023688Y0150491D01*
X0023823Y0150575D01*
X0023959Y0150654D01*
X0024098Y0150731D01*
X0024239Y0150803D01*
X0024381Y0150873D01*
X0024525Y0150938D01*
X0024671Y0151000D01*
X0024818Y0151058D01*
X0024967Y0151113D01*
X0025117Y0151164D01*
X0025268Y0151211D01*
X0025420Y0151254D01*
X0025573Y0151293D01*
X0025728Y0151329D01*
X0025883Y0151360D01*
X0026039Y0151388D01*
X0026195Y0151412D01*
X0026352Y0151432D01*
X0026510Y0151448D01*
X0026667Y0151460D01*
X0026826Y0151468D01*
X0026984Y0151472D01*
X0027142Y0151472D01*
X0027300Y0151468D01*
X0027459Y0151460D01*
X0027616Y0151448D01*
X0027774Y0151432D01*
X0027931Y0151412D01*
X0028087Y0151388D01*
X0028243Y0151360D01*
X0028398Y0151329D01*
X0028553Y0151293D01*
X0028706Y0151254D01*
X0028858Y0151211D01*
X0029009Y0151164D01*
X0029159Y0151113D01*
X0029308Y0151058D01*
X0029455Y0151000D01*
X0029601Y0150938D01*
X0029745Y0150873D01*
X0029887Y0150803D01*
X0030028Y0150731D01*
X0030167Y0150654D01*
X0030303Y0150575D01*
X0030438Y0150491D01*
X0030571Y0150405D01*
X0030701Y0150315D01*
X0030829Y0150222D01*
X0030955Y0150126D01*
X0031078Y0150026D01*
X0031199Y0149924D01*
X0031317Y0149819D01*
X0031432Y0149710D01*
X0031545Y0149599D01*
X0031655Y0149485D01*
X0031762Y0149368D01*
X0031866Y0149249D01*
X0031967Y0149127D01*
X0032064Y0149002D01*
X0032159Y0148875D01*
X0032250Y0148746D01*
X0032339Y0148615D01*
X0032423Y0148481D01*
X0032505Y0148345D01*
X0032583Y0148208D01*
X0032657Y0148068D01*
X0032728Y0147926D01*
X0032796Y0147783D01*
X0032860Y0147638D01*
X0032920Y0147492D01*
X0032976Y0147344D01*
X0033029Y0147195D01*
X0033078Y0147044D01*
X0033123Y0146892D01*
X0033164Y0146739D01*
X0033202Y0146586D01*
X0033235Y0146431D01*
X0033265Y0146275D01*
X0033291Y0146119D01*
X0033312Y0145962D01*
X0033330Y0145805D01*
X0033344Y0145647D01*
X0033354Y0145489D01*
X0033360Y0145331D01*
X0033362Y0145173D01*
X0033360Y0145015D01*
X0033354Y0144857D01*
X0033344Y0144699D01*
X0033330Y0144541D01*
X0033312Y0144384D01*
X0033291Y0144227D01*
X0033265Y0144071D01*
X0033235Y0143915D01*
X0033202Y0143760D01*
X0033164Y0143607D01*
X0033123Y0143454D01*
X0033078Y0143302D01*
X0033029Y0143151D01*
X0032976Y0143002D01*
X0032920Y0142854D01*
X0032860Y0142708D01*
X0032796Y0142563D01*
X0032728Y0142420D01*
X0032657Y0142278D01*
X0032583Y0142138D01*
X0032505Y0142001D01*
X0032423Y0141865D01*
X0032339Y0141731D01*
X0032250Y0141600D01*
X0032159Y0141471D01*
X0032064Y0141344D01*
X0031967Y0141219D01*
X0031866Y0141097D01*
X0031762Y0140978D01*
X0031655Y0140861D01*
X0031545Y0140747D01*
X0031432Y0140636D01*
X0031317Y0140527D01*
X0031199Y0140422D01*
X0031078Y0140320D01*
X0030955Y0140220D01*
X0030829Y0140124D01*
X0030701Y0140031D01*
X0030571Y0139941D01*
X0030438Y0139855D01*
X0030303Y0139771D01*
X0030167Y0139692D01*
X0030028Y0139615D01*
X0029887Y0139543D01*
X0029745Y0139473D01*
X0029601Y0139408D01*
X0029455Y0139346D01*
X0029308Y0139288D01*
X0029159Y0139233D01*
X0029009Y0139182D01*
X0028858Y0139135D01*
X0028706Y0139092D01*
X0028553Y0139053D01*
X0028398Y0139017D01*
X0028243Y0138986D01*
X0028087Y0138958D01*
X0027931Y0138934D01*
X0027774Y0138914D01*
X0027616Y0138898D01*
X0027459Y0138886D01*
X0027300Y0138878D01*
X0027142Y0138874D01*
X0026984Y0138874D01*
X0026826Y0138878D01*
X0026667Y0138886D01*
X0026510Y0138898D01*
X0026352Y0138914D01*
X0026195Y0138934D01*
X0026039Y0138958D01*
X0025883Y0138986D01*
X0025728Y0139017D01*
X0025573Y0139053D01*
X0025420Y0139092D01*
X0025268Y0139135D01*
X0025117Y0139182D01*
X0024967Y0139233D01*
X0024818Y0139288D01*
X0024671Y0139346D01*
X0024525Y0139408D01*
X0024381Y0139473D01*
X0024239Y0139543D01*
X0024098Y0139615D01*
X0023959Y0139692D01*
X0023823Y0139771D01*
X0023688Y0139855D01*
X0023555Y0139941D01*
X0023425Y0140031D01*
X0023297Y0140124D01*
X0023171Y0140220D01*
X0023048Y0140320D01*
X0022927Y0140422D01*
X0022809Y0140527D01*
X0022694Y0140636D01*
X0022581Y0140747D01*
X0022471Y0140861D01*
X0022364Y0140978D01*
X0022260Y0141097D01*
X0022159Y0141219D01*
X0022062Y0141344D01*
X0021967Y0141471D01*
X0021876Y0141600D01*
X0021787Y0141731D01*
X0021703Y0141865D01*
X0021621Y0142001D01*
X0021543Y0142138D01*
X0021469Y0142278D01*
X0021398Y0142420D01*
X0021330Y0142563D01*
X0021266Y0142708D01*
X0021206Y0142854D01*
X0021150Y0143002D01*
X0021097Y0143151D01*
X0021048Y0143302D01*
X0021003Y0143454D01*
X0020962Y0143607D01*
X0020924Y0143760D01*
X0020891Y0143915D01*
X0020861Y0144071D01*
X0020835Y0144227D01*
X0020814Y0144384D01*
X0020796Y0144541D01*
X0020782Y0144699D01*
X0020772Y0144857D01*
X0020766Y0145015D01*
X0020764Y0145173D01*
D11*
X0117378Y0075678D02*
X0117378Y0069078D01*
X0127378Y0069078D02*
X0127378Y0075678D01*
X0137378Y0075678D02*
X0137378Y0069078D01*
D12*
X0127378Y0141378D03*
D13*
X0135701Y0027007D02*
X0135701Y0017749D01*
X0135701Y0027007D02*
X0139055Y0027007D01*
X0139055Y0017749D01*
X0135701Y0017749D01*
X0135701Y0021101D02*
X0139055Y0021101D01*
X0139055Y0024453D02*
X0135701Y0024453D01*
D14*
X0127378Y0022378D03*
X0117378Y0022378D03*
X0107378Y0022378D03*
X0097378Y0022378D03*
X0102378Y0040094D03*
X0092378Y0040094D03*
X0112378Y0040094D03*
X0122378Y0040094D03*
X0132378Y0040094D03*
D15*
X0097378Y0142378D03*
X0047378Y0142378D03*
D16*
X0067378Y0082378D03*
X0067378Y0022378D03*
D17*
X0077378Y0114778D02*
X0077378Y0119978D01*
X0087378Y0119978D02*
X0087378Y0114778D01*
X0097378Y0114778D02*
X0097378Y0119978D01*
D18*
X0060378Y0117378D02*
X0054378Y0117378D01*
X0054378Y0107378D02*
X0060378Y0107378D01*
X0154378Y0112378D02*
X0160378Y0112378D01*
X0160378Y0122378D02*
X0154378Y0122378D01*
X0154378Y0102378D02*
X0160378Y0102378D01*
D19*
X0022378Y0067378D03*
X0022378Y0052378D03*
D20*
X0027063Y0027063D03*
X0027063Y0145173D03*
X0184543Y0145173D03*
X0184543Y0027063D03*
D21*
X0042378Y0082378D03*
M02*
