G75*
%MOIN*%
%OFA0B0*%
%FSLAX25Y25*%
%IPPOS*%
%LPD*%
%AMOC8*
5,1,8,0,0,1.08239X$1,22.5*
%
%ADD10C,0.00000*%
%ADD11C,0.00300*%
%ADD12C,0.00600*%
%ADD13C,0.00200*%
%ADD14C,0.00700*%
%ADD15C,0.00400*%
%ADD16R,0.03000X0.02500*%
%ADD17R,0.05000X0.11000*%
%ADD18C,0.00500*%
%ADD19R,0.03400X0.02400*%
%ADD20R,0.03200X0.01600*%
%ADD21C,0.00050*%
%ADD22C,0.03000*%
%ADD23R,0.02000X0.03000*%
%ADD24R,0.04000X0.03000*%
%ADD25C,0.00800*%
%ADD26C,0.00001*%
%ADD27R,0.00789X0.00066*%
%ADD28R,0.00263X0.00066*%
%ADD29R,0.00394X0.00066*%
%ADD30R,0.00263X0.00066*%
%ADD31R,0.00328X0.00066*%
%ADD32R,0.00329X0.00066*%
%ADD33R,0.00460X0.00066*%
%ADD34R,0.00460X0.00066*%
%ADD35R,0.00329X0.00066*%
%ADD36R,0.00263X0.00066*%
%ADD37R,0.00197X0.00066*%
%ADD38R,0.00198X0.00066*%
%ADD39R,0.01644X0.00066*%
%ADD40R,0.00658X0.00066*%
%ADD41R,0.00657X0.00066*%
%ADD42R,0.00723X0.00066*%
%ADD43R,0.00854X0.00066*%
%ADD44R,0.00855X0.00066*%
%ADD45R,0.02104X0.00066*%
%ADD46R,0.00855X0.00066*%
%ADD47R,0.00920X0.00066*%
%ADD48R,0.00921X0.00066*%
%ADD49R,0.02433X0.00066*%
%ADD50R,0.00986X0.00066*%
%ADD51R,0.00395X0.00066*%
%ADD52R,0.00987X0.00066*%
%ADD53R,0.02695X0.00066*%
%ADD54R,0.00986X0.00066*%
%ADD55R,0.00526X0.00066*%
%ADD56R,0.02959X0.00066*%
%ADD57R,0.00132X0.00066*%
%ADD58R,0.00394X0.00066*%
%ADD59R,0.00131X0.00066*%
%ADD60R,0.00461X0.00066*%
%ADD61R,0.03091X0.00066*%
%ADD62R,0.03287X0.00066*%
%ADD63R,0.01052X0.00066*%
%ADD64R,0.01052X0.00066*%
%ADD65R,0.01118X0.00066*%
%ADD66R,0.03484X0.00066*%
%ADD67R,0.03616X0.00066*%
%ADD68R,0.03748X0.00066*%
%ADD69R,0.03814X0.00066*%
%ADD70R,0.03880X0.00066*%
%ADD71R,0.00526X0.00066*%
%ADD72R,0.00526X0.00066*%
%ADD73R,0.04011X0.00066*%
%ADD74R,0.04142X0.00066*%
%ADD75R,0.00592X0.00066*%
%ADD76R,0.00789X0.00066*%
%ADD77R,0.04273X0.00066*%
%ADD78R,0.01709X0.00066*%
%ADD79R,0.01709X0.00066*%
%ADD80R,0.00066X0.00066*%
%ADD81R,0.01578X0.00066*%
%ADD82R,0.01512X0.00066*%
%ADD83R,0.01446X0.00066*%
%ADD84R,0.01381X0.00066*%
%ADD85R,0.01315X0.00066*%
%ADD86R,0.01249X0.00066*%
%ADD87R,0.01250X0.00066*%
%ADD88R,0.01184X0.00066*%
%ADD89R,0.01052X0.00066*%
%ADD90R,0.01183X0.00066*%
%ADD91R,0.00591X0.00066*%
%ADD92R,0.01315X0.00066*%
%ADD93R,0.01118X0.00066*%
%ADD94R,0.01643X0.00066*%
%ADD95R,0.01775X0.00066*%
%ADD96R,0.01512X0.00066*%
%ADD97R,0.01841X0.00066*%
%ADD98R,0.01841X0.00066*%
%ADD99R,0.01973X0.00066*%
%ADD100R,0.01776X0.00066*%
%ADD101R,0.02170X0.00066*%
%ADD102R,0.02235X0.00066*%
%ADD103R,0.02235X0.00066*%
%ADD104R,0.02038X0.00066*%
%ADD105R,0.02433X0.00066*%
%ADD106R,0.02039X0.00066*%
%ADD107R,0.02498X0.00066*%
%ADD108R,0.02499X0.00066*%
%ADD109R,0.02170X0.00066*%
%ADD110R,0.02630X0.00066*%
%ADD111R,0.01907X0.00066*%
%ADD112R,0.02761X0.00066*%
%ADD113R,0.02367X0.00066*%
%ADD114R,0.02630X0.00066*%
%ADD115R,0.02827X0.00066*%
%ADD116R,0.02432X0.00066*%
%ADD117R,0.02498X0.00066*%
%ADD118R,0.02893X0.00066*%
%ADD119R,0.02564X0.00066*%
%ADD120R,0.02301X0.00066*%
%ADD121R,0.03156X0.00066*%
%ADD122R,0.03090X0.00066*%
%ADD123R,0.03879X0.00066*%
%ADD124R,0.03024X0.00066*%
%ADD125R,0.03813X0.00066*%
%ADD126R,0.03222X0.00066*%
%ADD127R,0.02696X0.00066*%
%ADD128R,0.03353X0.00066*%
%ADD129R,0.03944X0.00066*%
%ADD130R,0.03879X0.00066*%
%ADD131R,0.03353X0.00066*%
%ADD132R,0.03419X0.00066*%
%ADD133R,0.04076X0.00066*%
%ADD134R,0.03419X0.00066*%
%ADD135R,0.03024X0.00066*%
%ADD136R,0.03945X0.00066*%
%ADD137R,0.03550X0.00066*%
%ADD138R,0.03682X0.00066*%
%ADD139R,0.03682X0.00066*%
%ADD140R,0.03748X0.00066*%
%ADD141R,0.03090X0.00066*%
%ADD142R,0.03945X0.00066*%
%ADD143R,0.04011X0.00066*%
%ADD144R,0.04207X0.00066*%
%ADD145R,0.04143X0.00066*%
%ADD146R,0.04274X0.00066*%
%ADD147R,0.04208X0.00066*%
%ADD148R,0.04208X0.00066*%
%ADD149R,0.04077X0.00066*%
%ADD150R,0.04010X0.00066*%
%ADD151R,0.01972X0.00066*%
%ADD152R,0.01775X0.00066*%
%ADD153R,0.01972X0.00066*%
%ADD154R,0.01578X0.00066*%
%ADD155R,0.01249X0.00066*%
%ADD156R,0.04274X0.00066*%
%ADD157R,0.01578X0.00066*%
%ADD158R,0.01907X0.00066*%
%ADD159R,0.02104X0.00066*%
%ADD160R,0.01644X0.00066*%
%ADD161R,0.01513X0.00066*%
%ADD162R,0.00789X0.00066*%
%ADD163R,0.00657X0.00066*%
%ADD164R,0.00920X0.00066*%
%ADD165R,0.01447X0.00066*%
%ADD166R,0.01380X0.00066*%
%ADD167R,0.01710X0.00066*%
%ADD168R,0.01446X0.00066*%
%ADD169R,0.01381X0.00066*%
%ADD170R,0.01315X0.00066*%
%ADD171R,0.00197X0.00066*%
%ADD172R,0.01183X0.00066*%
%ADD173R,0.04603X0.00066*%
%ADD174R,0.04668X0.00066*%
%ADD175R,0.01117X0.00066*%
%ADD176R,0.02104X0.00066*%
%ADD177R,0.02038X0.00066*%
%ADD178R,0.04537X0.00066*%
%ADD179R,0.00131X0.00066*%
%ADD180R,0.00592X0.00066*%
%ADD181R,0.01906X0.00066*%
%ADD182R,0.04142X0.00066*%
%ADD183R,0.02762X0.00066*%
%ADD184R,0.02827X0.00066*%
%ADD185R,0.03419X0.00066*%
%ADD186R,0.03550X0.00066*%
%ADD187R,0.03156X0.00066*%
%ADD188R,0.02630X0.00066*%
%ADD189R,0.03025X0.00066*%
%ADD190R,0.02564X0.00066*%
%ADD191R,0.02893X0.00066*%
%ADD192R,0.02169X0.00066*%
%ADD193R,0.02367X0.00066*%
%ADD194R,0.02236X0.00066*%
%ADD195R,0.02302X0.00066*%
%ADD196R,0.01841X0.00066*%
D10*
X0007378Y0007378D02*
X0007378Y0164858D01*
X0204228Y0164858D01*
X0204228Y0007378D01*
X0007378Y0007378D01*
X0020764Y0027063D02*
X0020766Y0027221D01*
X0020772Y0027379D01*
X0020782Y0027537D01*
X0020796Y0027695D01*
X0020814Y0027852D01*
X0020835Y0028009D01*
X0020861Y0028165D01*
X0020891Y0028321D01*
X0020924Y0028476D01*
X0020962Y0028629D01*
X0021003Y0028782D01*
X0021048Y0028934D01*
X0021097Y0029085D01*
X0021150Y0029234D01*
X0021206Y0029382D01*
X0021266Y0029528D01*
X0021330Y0029673D01*
X0021398Y0029816D01*
X0021469Y0029958D01*
X0021543Y0030098D01*
X0021621Y0030235D01*
X0021703Y0030371D01*
X0021787Y0030505D01*
X0021876Y0030636D01*
X0021967Y0030765D01*
X0022062Y0030892D01*
X0022159Y0031017D01*
X0022260Y0031139D01*
X0022364Y0031258D01*
X0022471Y0031375D01*
X0022581Y0031489D01*
X0022694Y0031600D01*
X0022809Y0031709D01*
X0022927Y0031814D01*
X0023048Y0031916D01*
X0023171Y0032016D01*
X0023297Y0032112D01*
X0023425Y0032205D01*
X0023555Y0032295D01*
X0023688Y0032381D01*
X0023823Y0032465D01*
X0023959Y0032544D01*
X0024098Y0032621D01*
X0024239Y0032693D01*
X0024381Y0032763D01*
X0024525Y0032828D01*
X0024671Y0032890D01*
X0024818Y0032948D01*
X0024967Y0033003D01*
X0025117Y0033054D01*
X0025268Y0033101D01*
X0025420Y0033144D01*
X0025573Y0033183D01*
X0025728Y0033219D01*
X0025883Y0033250D01*
X0026039Y0033278D01*
X0026195Y0033302D01*
X0026352Y0033322D01*
X0026510Y0033338D01*
X0026667Y0033350D01*
X0026826Y0033358D01*
X0026984Y0033362D01*
X0027142Y0033362D01*
X0027300Y0033358D01*
X0027459Y0033350D01*
X0027616Y0033338D01*
X0027774Y0033322D01*
X0027931Y0033302D01*
X0028087Y0033278D01*
X0028243Y0033250D01*
X0028398Y0033219D01*
X0028553Y0033183D01*
X0028706Y0033144D01*
X0028858Y0033101D01*
X0029009Y0033054D01*
X0029159Y0033003D01*
X0029308Y0032948D01*
X0029455Y0032890D01*
X0029601Y0032828D01*
X0029745Y0032763D01*
X0029887Y0032693D01*
X0030028Y0032621D01*
X0030167Y0032544D01*
X0030303Y0032465D01*
X0030438Y0032381D01*
X0030571Y0032295D01*
X0030701Y0032205D01*
X0030829Y0032112D01*
X0030955Y0032016D01*
X0031078Y0031916D01*
X0031199Y0031814D01*
X0031317Y0031709D01*
X0031432Y0031600D01*
X0031545Y0031489D01*
X0031655Y0031375D01*
X0031762Y0031258D01*
X0031866Y0031139D01*
X0031967Y0031017D01*
X0032064Y0030892D01*
X0032159Y0030765D01*
X0032250Y0030636D01*
X0032339Y0030505D01*
X0032423Y0030371D01*
X0032505Y0030235D01*
X0032583Y0030098D01*
X0032657Y0029958D01*
X0032728Y0029816D01*
X0032796Y0029673D01*
X0032860Y0029528D01*
X0032920Y0029382D01*
X0032976Y0029234D01*
X0033029Y0029085D01*
X0033078Y0028934D01*
X0033123Y0028782D01*
X0033164Y0028629D01*
X0033202Y0028476D01*
X0033235Y0028321D01*
X0033265Y0028165D01*
X0033291Y0028009D01*
X0033312Y0027852D01*
X0033330Y0027695D01*
X0033344Y0027537D01*
X0033354Y0027379D01*
X0033360Y0027221D01*
X0033362Y0027063D01*
X0033360Y0026905D01*
X0033354Y0026747D01*
X0033344Y0026589D01*
X0033330Y0026431D01*
X0033312Y0026274D01*
X0033291Y0026117D01*
X0033265Y0025961D01*
X0033235Y0025805D01*
X0033202Y0025650D01*
X0033164Y0025497D01*
X0033123Y0025344D01*
X0033078Y0025192D01*
X0033029Y0025041D01*
X0032976Y0024892D01*
X0032920Y0024744D01*
X0032860Y0024598D01*
X0032796Y0024453D01*
X0032728Y0024310D01*
X0032657Y0024168D01*
X0032583Y0024028D01*
X0032505Y0023891D01*
X0032423Y0023755D01*
X0032339Y0023621D01*
X0032250Y0023490D01*
X0032159Y0023361D01*
X0032064Y0023234D01*
X0031967Y0023109D01*
X0031866Y0022987D01*
X0031762Y0022868D01*
X0031655Y0022751D01*
X0031545Y0022637D01*
X0031432Y0022526D01*
X0031317Y0022417D01*
X0031199Y0022312D01*
X0031078Y0022210D01*
X0030955Y0022110D01*
X0030829Y0022014D01*
X0030701Y0021921D01*
X0030571Y0021831D01*
X0030438Y0021745D01*
X0030303Y0021661D01*
X0030167Y0021582D01*
X0030028Y0021505D01*
X0029887Y0021433D01*
X0029745Y0021363D01*
X0029601Y0021298D01*
X0029455Y0021236D01*
X0029308Y0021178D01*
X0029159Y0021123D01*
X0029009Y0021072D01*
X0028858Y0021025D01*
X0028706Y0020982D01*
X0028553Y0020943D01*
X0028398Y0020907D01*
X0028243Y0020876D01*
X0028087Y0020848D01*
X0027931Y0020824D01*
X0027774Y0020804D01*
X0027616Y0020788D01*
X0027459Y0020776D01*
X0027300Y0020768D01*
X0027142Y0020764D01*
X0026984Y0020764D01*
X0026826Y0020768D01*
X0026667Y0020776D01*
X0026510Y0020788D01*
X0026352Y0020804D01*
X0026195Y0020824D01*
X0026039Y0020848D01*
X0025883Y0020876D01*
X0025728Y0020907D01*
X0025573Y0020943D01*
X0025420Y0020982D01*
X0025268Y0021025D01*
X0025117Y0021072D01*
X0024967Y0021123D01*
X0024818Y0021178D01*
X0024671Y0021236D01*
X0024525Y0021298D01*
X0024381Y0021363D01*
X0024239Y0021433D01*
X0024098Y0021505D01*
X0023959Y0021582D01*
X0023823Y0021661D01*
X0023688Y0021745D01*
X0023555Y0021831D01*
X0023425Y0021921D01*
X0023297Y0022014D01*
X0023171Y0022110D01*
X0023048Y0022210D01*
X0022927Y0022312D01*
X0022809Y0022417D01*
X0022694Y0022526D01*
X0022581Y0022637D01*
X0022471Y0022751D01*
X0022364Y0022868D01*
X0022260Y0022987D01*
X0022159Y0023109D01*
X0022062Y0023234D01*
X0021967Y0023361D01*
X0021876Y0023490D01*
X0021787Y0023621D01*
X0021703Y0023755D01*
X0021621Y0023891D01*
X0021543Y0024028D01*
X0021469Y0024168D01*
X0021398Y0024310D01*
X0021330Y0024453D01*
X0021266Y0024598D01*
X0021206Y0024744D01*
X0021150Y0024892D01*
X0021097Y0025041D01*
X0021048Y0025192D01*
X0021003Y0025344D01*
X0020962Y0025497D01*
X0020924Y0025650D01*
X0020891Y0025805D01*
X0020861Y0025961D01*
X0020835Y0026117D01*
X0020814Y0026274D01*
X0020796Y0026431D01*
X0020782Y0026589D01*
X0020772Y0026747D01*
X0020766Y0026905D01*
X0020764Y0027063D01*
X0150600Y0061299D02*
X0150939Y0060038D01*
X0151278Y0058778D01*
X0151767Y0057446D01*
X0152367Y0056059D01*
X0152966Y0054672D01*
X0153677Y0053230D01*
X0154459Y0051750D01*
X0155241Y0050269D01*
X0156095Y0048750D01*
X0157868Y0045666D01*
X0158788Y0044102D01*
X0159701Y0042531D01*
X0160614Y0040961D01*
X0161520Y0039384D01*
X0162381Y0037817D01*
X0163243Y0036250D01*
X0164058Y0034693D01*
X0164790Y0033162D01*
X0165521Y0031632D01*
X0166167Y0030127D01*
X0166690Y0028665D01*
X0166762Y0029006D01*
X0166840Y0029347D01*
X0166924Y0029689D01*
X0167009Y0030032D01*
X0167100Y0030375D01*
X0167197Y0030718D01*
X0167294Y0031062D01*
X0167397Y0031406D01*
X0167505Y0031750D01*
X0167614Y0032095D01*
X0167728Y0032440D01*
X0167967Y0033131D01*
X0168092Y0033476D01*
X0168221Y0033822D01*
X0168350Y0034168D01*
X0168485Y0034514D01*
X0168623Y0034860D01*
X0168762Y0035206D01*
X0168904Y0035552D01*
X0169051Y0035898D01*
X0169198Y0036244D01*
X0169348Y0036590D01*
X0169503Y0036936D01*
X0169495Y0036936D01*
X0169493Y0036936D01*
X0169490Y0036935D01*
X0169483Y0036935D01*
X0169415Y0036935D01*
X0169349Y0036942D01*
X0169284Y0036955D01*
X0169220Y0036968D01*
X0169158Y0036987D01*
X0169099Y0037012D01*
X0169040Y0037036D01*
X0168984Y0037067D01*
X0168932Y0037102D01*
X0168879Y0037137D01*
X0168830Y0037177D01*
X0168786Y0037222D01*
X0168741Y0037266D01*
X0168700Y0037315D01*
X0168665Y0037367D01*
X0168629Y0037419D01*
X0168599Y0037475D01*
X0168573Y0037534D01*
X0168548Y0037593D01*
X0168529Y0037655D01*
X0168516Y0037719D01*
X0168502Y0037783D01*
X0168495Y0037849D01*
X0168495Y0037917D01*
X0168495Y0037968D01*
X0168498Y0038018D01*
X0168506Y0038067D01*
X0168513Y0038116D01*
X0168524Y0038163D01*
X0168552Y0038256D01*
X0168570Y0038300D01*
X0168590Y0038343D01*
X0168611Y0038386D01*
X0168634Y0038428D01*
X0168687Y0038506D01*
X0168716Y0038544D01*
X0168747Y0038579D01*
X0168779Y0038614D01*
X0168813Y0038647D01*
X0168849Y0038677D01*
X0168885Y0038707D01*
X0168924Y0038735D01*
X0168964Y0038760D01*
X0169004Y0038785D01*
X0169047Y0038807D01*
X0169091Y0038826D01*
X0169089Y0039233D01*
X0169087Y0040048D01*
X0169086Y0040455D01*
X0169084Y0040863D01*
X0169082Y0041677D01*
X0169080Y0042085D01*
X0169055Y0042096D01*
X0169030Y0042109D01*
X0169005Y0042122D01*
X0168981Y0042135D01*
X0168957Y0042150D01*
X0168934Y0042165D01*
X0168911Y0042180D01*
X0168888Y0042197D01*
X0168866Y0042214D01*
X0168845Y0042231D01*
X0168824Y0042249D01*
X0168804Y0042268D01*
X0168783Y0042287D01*
X0168764Y0042307D01*
X0168746Y0042327D01*
X0168727Y0042348D01*
X0168709Y0042369D01*
X0168693Y0042391D01*
X0168676Y0042414D01*
X0168660Y0042436D01*
X0168645Y0042460D01*
X0168630Y0042483D01*
X0168616Y0042507D01*
X0168603Y0042532D01*
X0168565Y0042054D01*
X0168522Y0041573D01*
X0168474Y0041089D01*
X0168426Y0040604D01*
X0168372Y0040117D01*
X0168313Y0039626D01*
X0168255Y0039135D01*
X0168190Y0038641D01*
X0168120Y0038143D01*
X0168050Y0037645D01*
X0167975Y0037144D01*
X0167894Y0036638D01*
X0167812Y0036133D01*
X0167725Y0035624D01*
X0167632Y0035111D01*
X0167538Y0034599D01*
X0167439Y0034082D01*
X0167333Y0033561D01*
X0167228Y0033040D01*
X0167116Y0032515D01*
X0166997Y0031986D01*
X0166879Y0031456D01*
X0166754Y0030923D01*
X0166622Y0030385D01*
X0166684Y0030854D01*
X0166746Y0031342D01*
X0166808Y0031845D01*
X0166870Y0032349D01*
X0166931Y0032868D01*
X0166991Y0033399D01*
X0167052Y0033930D01*
X0167111Y0034474D01*
X0167169Y0035028D01*
X0167226Y0035581D01*
X0167282Y0036144D01*
X0167336Y0036713D01*
X0167390Y0037282D01*
X0167442Y0037857D01*
X0167491Y0038435D01*
X0167540Y0039014D01*
X0167586Y0039595D01*
X0167629Y0040177D01*
X0167672Y0040758D01*
X0167711Y0041340D01*
X0167783Y0042497D01*
X0167815Y0043072D01*
X0167842Y0043641D01*
X0167681Y0043291D01*
X0167517Y0042949D01*
X0167350Y0042614D01*
X0167184Y0042279D01*
X0167015Y0041951D01*
X0166846Y0041627D01*
X0166677Y0041303D01*
X0166508Y0040983D01*
X0166171Y0040348D01*
X0166004Y0040032D01*
X0165839Y0039716D01*
X0165675Y0039401D01*
X0165513Y0039085D01*
X0165355Y0038767D01*
X0165198Y0038449D01*
X0165044Y0038128D01*
X0164897Y0037803D01*
X0164750Y0037478D01*
X0164608Y0037148D01*
X0164474Y0036812D01*
X0164341Y0036476D01*
X0164214Y0036132D01*
X0164097Y0035780D01*
X0164196Y0036178D01*
X0164301Y0036579D01*
X0164412Y0036983D01*
X0164523Y0037386D01*
X0164640Y0037791D01*
X0164764Y0038196D01*
X0164888Y0038601D01*
X0165018Y0039008D01*
X0165157Y0039413D01*
X0165295Y0039819D01*
X0165441Y0040224D01*
X0165595Y0040627D01*
X0165749Y0041030D01*
X0165912Y0041431D01*
X0166085Y0041829D01*
X0166257Y0042227D01*
X0166438Y0042621D01*
X0166822Y0043402D01*
X0167024Y0043788D01*
X0167237Y0044168D01*
X0167449Y0044549D01*
X0167673Y0044924D01*
X0167909Y0045291D01*
X0167925Y0045749D01*
X0167938Y0046197D01*
X0167947Y0046634D01*
X0167956Y0047071D01*
X0167962Y0047497D01*
X0167964Y0048327D01*
X0167961Y0048730D01*
X0167954Y0049121D01*
X0167947Y0049512D01*
X0167936Y0049891D01*
X0167920Y0050257D01*
X0167904Y0050623D01*
X0167884Y0050977D01*
X0167858Y0051317D01*
X0167833Y0051657D01*
X0167803Y0051983D01*
X0167767Y0052295D01*
X0167732Y0052608D01*
X0167692Y0052906D01*
X0167646Y0053189D01*
X0167600Y0053472D01*
X0167548Y0053741D01*
X0167491Y0053994D01*
X0167187Y0053666D01*
X0166873Y0053280D01*
X0166552Y0052849D01*
X0166231Y0052419D01*
X0165904Y0051945D01*
X0165575Y0051439D01*
X0165246Y0050934D01*
X0164915Y0050398D01*
X0164587Y0049845D01*
X0164259Y0049292D01*
X0163933Y0048721D01*
X0163614Y0048147D01*
X0163295Y0047573D01*
X0162983Y0046995D01*
X0162682Y0046426D01*
X0162381Y0045858D01*
X0162092Y0045299D01*
X0161818Y0044763D01*
X0161545Y0044228D01*
X0161287Y0043715D01*
X0161049Y0043240D01*
X0160811Y0042764D01*
X0160593Y0042325D01*
X0160400Y0041936D01*
X0160464Y0042431D01*
X0160579Y0042958D01*
X0160734Y0043509D01*
X0160890Y0044060D01*
X0161086Y0044634D01*
X0161316Y0045222D01*
X0161545Y0045810D01*
X0161807Y0046413D01*
X0162093Y0047022D01*
X0162379Y0047630D01*
X0162690Y0048244D01*
X0163016Y0048856D01*
X0163342Y0049467D01*
X0163683Y0050075D01*
X0164032Y0050671D01*
X0164381Y0051267D01*
X0164736Y0051851D01*
X0165091Y0052414D01*
X0165446Y0052977D01*
X0165799Y0053520D01*
X0166142Y0054033D01*
X0166485Y0054546D01*
X0166818Y0055030D01*
X0167133Y0055475D01*
X0167064Y0056433D01*
X0166949Y0057399D01*
X0166799Y0058372D01*
X0166649Y0059344D01*
X0166464Y0060322D01*
X0166256Y0061304D01*
X0166047Y0062285D01*
X0165814Y0063269D01*
X0165567Y0064252D01*
X0165321Y0065236D01*
X0165061Y0066220D01*
X0164798Y0067200D01*
X0164535Y0068180D01*
X0164269Y0069157D01*
X0164011Y0070127D01*
X0163753Y0071098D01*
X0163503Y0072062D01*
X0163038Y0073972D01*
X0162825Y0074918D01*
X0162639Y0075851D01*
X0162455Y0076784D01*
X0162299Y0077705D01*
X0162182Y0078610D01*
X0161385Y0078371D01*
X0160603Y0078095D01*
X0159845Y0077778D01*
X0159087Y0077461D01*
X0158354Y0077102D01*
X0156951Y0076293D01*
X0156282Y0075843D01*
X0155655Y0075344D01*
X0155028Y0074844D01*
X0154441Y0074294D01*
X0153905Y0073691D01*
X0153369Y0073087D01*
X0152882Y0072430D01*
X0152454Y0071714D01*
X0152026Y0070998D01*
X0151656Y0070225D01*
X0151354Y0069389D01*
X0151051Y0068552D01*
X0150816Y0067654D01*
X0150656Y0066689D01*
X0150496Y0065724D01*
X0150412Y0064693D01*
X0150412Y0062489D01*
X0150600Y0061299D01*
X0166630Y0068912D02*
X0166598Y0069095D01*
X0166549Y0069369D01*
X0166533Y0069461D01*
X0166517Y0069552D01*
X0166500Y0069644D01*
X0166484Y0069735D01*
X0166468Y0069827D01*
X0166452Y0069919D01*
X0166435Y0070010D01*
X0166419Y0070102D01*
X0166402Y0070193D01*
X0166386Y0070285D01*
X0166370Y0070377D01*
X0166833Y0070375D01*
X0167297Y0070373D01*
X0167760Y0070370D01*
X0168223Y0070368D01*
X0168687Y0070366D01*
X0169150Y0070364D01*
X0170077Y0070360D01*
X0170232Y0070524D01*
X0170386Y0070688D01*
X0170541Y0070851D01*
X0170850Y0071179D01*
X0171005Y0071342D01*
X0171160Y0071506D01*
X0171315Y0071670D01*
X0171313Y0072150D01*
X0171312Y0072630D01*
X0171310Y0073110D01*
X0171309Y0073590D01*
X0171307Y0074070D01*
X0171306Y0074550D01*
X0171305Y0075030D01*
X0171303Y0075510D01*
X0171344Y0075530D01*
X0171382Y0075553D01*
X0171419Y0075579D01*
X0171456Y0075604D01*
X0171491Y0075632D01*
X0171524Y0075662D01*
X0171557Y0075692D01*
X0171588Y0075725D01*
X0171617Y0075759D01*
X0171646Y0075793D01*
X0171672Y0075830D01*
X0171696Y0075868D01*
X0171720Y0075906D01*
X0171741Y0075946D01*
X0171760Y0075987D01*
X0171778Y0076028D01*
X0171794Y0076071D01*
X0171807Y0076115D01*
X0171820Y0076159D01*
X0171830Y0076205D01*
X0171836Y0076251D01*
X0171843Y0076298D01*
X0171846Y0076345D01*
X0171846Y0076393D01*
X0171846Y0076461D01*
X0171839Y0076528D01*
X0171825Y0076592D01*
X0171812Y0076656D01*
X0171793Y0076718D01*
X0171767Y0076777D01*
X0171742Y0076835D01*
X0171712Y0076891D01*
X0171641Y0076996D01*
X0171600Y0077045D01*
X0171555Y0077089D01*
X0171511Y0077134D01*
X0171462Y0077174D01*
X0171409Y0077209D01*
X0171357Y0077244D01*
X0171301Y0077275D01*
X0171242Y0077299D01*
X0171183Y0077324D01*
X0171121Y0077343D01*
X0171057Y0077356D01*
X0170992Y0077369D01*
X0170926Y0077376D01*
X0170858Y0077376D01*
X0170790Y0077375D01*
X0170724Y0077368D01*
X0170660Y0077355D01*
X0170596Y0077342D01*
X0170534Y0077322D01*
X0170475Y0077297D01*
X0170416Y0077272D01*
X0170360Y0077241D01*
X0170308Y0077206D01*
X0170256Y0077170D01*
X0170207Y0077130D01*
X0170162Y0077085D01*
X0170118Y0077040D01*
X0170078Y0076991D01*
X0170043Y0076939D01*
X0170007Y0076886D01*
X0169977Y0076830D01*
X0169952Y0076771D01*
X0169928Y0076712D01*
X0169908Y0076650D01*
X0169895Y0076586D01*
X0169883Y0076522D01*
X0169876Y0076455D01*
X0169876Y0076387D01*
X0169876Y0076345D01*
X0169879Y0076302D01*
X0169885Y0076261D01*
X0169890Y0076219D01*
X0169898Y0076179D01*
X0169908Y0076139D01*
X0169919Y0076100D01*
X0169932Y0076061D01*
X0169947Y0076023D01*
X0169962Y0075986D01*
X0169979Y0075950D01*
X0169999Y0075914D01*
X0170018Y0075879D01*
X0170039Y0075846D01*
X0170063Y0075813D01*
X0170086Y0075781D01*
X0170111Y0075750D01*
X0170138Y0075721D01*
X0170165Y0075692D01*
X0170194Y0075664D01*
X0170224Y0075639D01*
X0170255Y0075613D01*
X0170287Y0075589D01*
X0170320Y0075567D01*
X0170324Y0075560D01*
X0170328Y0075553D01*
X0170332Y0075545D01*
X0170335Y0075538D01*
X0170339Y0075530D01*
X0170343Y0075522D01*
X0170346Y0075514D01*
X0170350Y0075506D01*
X0170353Y0075498D01*
X0170356Y0075490D01*
X0170360Y0075482D01*
X0170363Y0075473D01*
X0170366Y0075465D01*
X0170369Y0075456D01*
X0170372Y0075447D01*
X0170375Y0075439D01*
X0170377Y0075430D01*
X0170380Y0075420D01*
X0170382Y0075411D01*
X0170385Y0075402D01*
X0170389Y0075383D01*
X0170392Y0075373D01*
X0170394Y0075363D01*
X0170394Y0075273D01*
X0170394Y0075183D01*
X0170394Y0075093D01*
X0170395Y0075004D01*
X0170395Y0074914D01*
X0170395Y0074824D01*
X0170395Y0074734D01*
X0170396Y0074644D01*
X0170396Y0074554D01*
X0170396Y0074465D01*
X0170397Y0074285D01*
X0170397Y0074195D01*
X0170397Y0074105D01*
X0170398Y0074016D01*
X0170398Y0073926D01*
X0170398Y0073836D01*
X0170399Y0073656D01*
X0170399Y0073566D01*
X0170400Y0073477D01*
X0170400Y0073387D01*
X0170401Y0073207D01*
X0170402Y0073074D01*
X0170403Y0072941D01*
X0170404Y0072807D01*
X0170405Y0072674D01*
X0170406Y0072541D01*
X0170407Y0072407D01*
X0170408Y0072274D01*
X0170409Y0072141D01*
X0170305Y0072037D01*
X0170201Y0071934D01*
X0170097Y0071830D01*
X0169890Y0071622D01*
X0169682Y0071415D01*
X0169578Y0071311D01*
X0169161Y0071309D01*
X0168745Y0071306D01*
X0168328Y0071303D01*
X0167912Y0071301D01*
X0167495Y0071298D01*
X0167078Y0071295D01*
X0166662Y0071292D01*
X0166245Y0071290D01*
X0166245Y0071174D01*
X0166237Y0071133D01*
X0166221Y0071151D01*
X0166206Y0071170D01*
X0166183Y0071246D01*
X0166156Y0071365D01*
X0166129Y0071483D01*
X0166098Y0071643D01*
X0166064Y0071828D01*
X0166030Y0072013D01*
X0165993Y0072223D01*
X0165957Y0072440D01*
X0165921Y0072658D01*
X0165884Y0072883D01*
X0165849Y0073100D01*
X0165815Y0073316D01*
X0165782Y0073523D01*
X0165754Y0073704D01*
X0165726Y0073886D01*
X0165703Y0074041D01*
X0165686Y0074153D01*
X0165668Y0074266D01*
X0165658Y0074335D01*
X0165656Y0074345D01*
X0165676Y0074345D01*
X0165682Y0074345D01*
X0165689Y0074345D01*
X0165709Y0074345D01*
X0165709Y0074349D01*
X0165872Y0074352D01*
X0166035Y0074355D01*
X0166198Y0074358D01*
X0166361Y0074360D01*
X0166524Y0074363D01*
X0166687Y0074366D01*
X0166850Y0074369D01*
X0167013Y0074371D01*
X0167039Y0074401D01*
X0167068Y0074433D01*
X0167099Y0074466D01*
X0167131Y0074499D01*
X0167165Y0074534D01*
X0167201Y0074571D01*
X0167237Y0074607D01*
X0167275Y0074644D01*
X0167314Y0074682D01*
X0167353Y0074720D01*
X0167393Y0074759D01*
X0167433Y0074798D01*
X0167474Y0074836D01*
X0167515Y0074875D01*
X0167555Y0074914D01*
X0167596Y0074952D01*
X0167636Y0074990D01*
X0167715Y0075064D01*
X0167753Y0075101D01*
X0167789Y0075136D01*
X0167826Y0075170D01*
X0167861Y0075204D01*
X0167893Y0075236D01*
X0167901Y0075234D01*
X0167909Y0075233D01*
X0167924Y0075230D01*
X0167932Y0075229D01*
X0167940Y0075228D01*
X0167948Y0075226D01*
X0167956Y0075225D01*
X0167964Y0075224D01*
X0167972Y0075223D01*
X0167980Y0075222D01*
X0167988Y0075222D01*
X0167996Y0075221D01*
X0168004Y0075220D01*
X0168013Y0075220D01*
X0168021Y0075219D01*
X0168029Y0075219D01*
X0168037Y0075218D01*
X0168045Y0075218D01*
X0168053Y0075218D01*
X0168061Y0075217D01*
X0168070Y0075217D01*
X0168078Y0075217D01*
X0168086Y0075217D01*
X0168154Y0075217D01*
X0168221Y0075225D01*
X0168285Y0075238D01*
X0168349Y0075251D01*
X0168410Y0075271D01*
X0168469Y0075296D01*
X0168528Y0075321D01*
X0168584Y0075352D01*
X0168689Y0075423D01*
X0168737Y0075463D01*
X0168782Y0075508D01*
X0168826Y0075553D01*
X0168866Y0075602D01*
X0168902Y0075654D01*
X0168937Y0075707D01*
X0168967Y0075763D01*
X0168992Y0075822D01*
X0169017Y0075881D01*
X0169036Y0075943D01*
X0169049Y0076007D01*
X0169062Y0076071D01*
X0169068Y0076138D01*
X0169068Y0076206D01*
X0169068Y0076274D01*
X0169061Y0076340D01*
X0169048Y0076404D01*
X0169034Y0076468D01*
X0169015Y0076530D01*
X0168989Y0076589D01*
X0168964Y0076647D01*
X0168934Y0076703D01*
X0168898Y0076756D01*
X0168862Y0076808D01*
X0168822Y0076857D01*
X0168777Y0076901D01*
X0168733Y0076946D01*
X0168684Y0076986D01*
X0168631Y0077021D01*
X0168579Y0077056D01*
X0168523Y0077087D01*
X0168464Y0077111D01*
X0168405Y0077136D01*
X0168343Y0077155D01*
X0168278Y0077168D01*
X0168214Y0077181D01*
X0168148Y0077188D01*
X0168080Y0077187D01*
X0168012Y0077187D01*
X0167946Y0077180D01*
X0167882Y0077167D01*
X0167817Y0077153D01*
X0167756Y0077134D01*
X0167697Y0077109D01*
X0167638Y0077084D01*
X0167582Y0077053D01*
X0167530Y0077017D01*
X0167478Y0076982D01*
X0167429Y0076942D01*
X0167340Y0076852D01*
X0167300Y0076803D01*
X0167265Y0076751D01*
X0167229Y0076698D01*
X0167199Y0076642D01*
X0167174Y0076583D01*
X0167150Y0076524D01*
X0167130Y0076462D01*
X0167118Y0076398D01*
X0167105Y0076334D01*
X0167098Y0076267D01*
X0167098Y0076199D01*
X0167098Y0076186D01*
X0167098Y0076173D01*
X0167099Y0076160D01*
X0167099Y0076147D01*
X0167100Y0076134D01*
X0167101Y0076121D01*
X0167102Y0076109D01*
X0167104Y0076096D01*
X0167105Y0076083D01*
X0167107Y0076070D01*
X0167109Y0076058D01*
X0167111Y0076045D01*
X0167113Y0076033D01*
X0167115Y0076020D01*
X0167117Y0076008D01*
X0167120Y0075995D01*
X0167123Y0075983D01*
X0167126Y0075971D01*
X0167128Y0075958D01*
X0167132Y0075946D01*
X0167135Y0075934D01*
X0167138Y0075922D01*
X0167142Y0075910D01*
X0167146Y0075898D01*
X0167061Y0075819D01*
X0166977Y0075739D01*
X0166892Y0075659D01*
X0166722Y0075499D01*
X0166638Y0075419D01*
X0166553Y0075339D01*
X0166468Y0075259D01*
X0166347Y0075258D01*
X0166225Y0075257D01*
X0166103Y0075256D01*
X0165982Y0075254D01*
X0165860Y0075253D01*
X0165617Y0075251D01*
X0165495Y0075249D01*
X0165468Y0075403D01*
X0165441Y0075556D01*
X0165414Y0075710D01*
X0165387Y0075864D01*
X0165360Y0076018D01*
X0165333Y0076172D01*
X0165306Y0076326D01*
X0165279Y0076481D01*
X0165252Y0076635D01*
X0165225Y0076790D01*
X0165198Y0076945D01*
X0165172Y0077100D01*
X0165145Y0077255D01*
X0165118Y0077410D01*
X0165092Y0077566D01*
X0165065Y0077721D01*
X0165039Y0077877D01*
X0165012Y0078032D01*
X0164986Y0078188D01*
X0164960Y0078345D01*
X0164934Y0078501D01*
X0164907Y0078657D01*
X0164881Y0078814D01*
X0164855Y0078971D01*
X0165470Y0079056D01*
X0166075Y0079100D01*
X0167262Y0079115D01*
X0167844Y0079084D01*
X0168414Y0079019D01*
X0168984Y0078953D01*
X0169541Y0078852D01*
X0170084Y0078719D01*
X0170627Y0078585D01*
X0171156Y0078419D01*
X0171671Y0078222D01*
X0172184Y0078026D01*
X0172683Y0077799D01*
X0173165Y0077544D01*
X0173648Y0077290D01*
X0174113Y0077007D01*
X0175009Y0076392D01*
X0175439Y0076059D01*
X0175849Y0075703D01*
X0176260Y0075347D01*
X0176651Y0074969D01*
X0177022Y0074570D01*
X0177024Y0073674D01*
X0177026Y0071881D01*
X0177028Y0070985D01*
X0177029Y0070089D01*
X0177032Y0068297D01*
X0177033Y0067401D01*
X0176846Y0067215D01*
X0176658Y0067030D01*
X0176470Y0066844D01*
X0176282Y0066659D01*
X0176095Y0066473D01*
X0175907Y0066288D01*
X0175719Y0066102D01*
X0175532Y0065917D01*
X0175241Y0065914D01*
X0174950Y0065911D01*
X0174659Y0065908D01*
X0174369Y0065904D01*
X0174078Y0065901D01*
X0173787Y0065898D01*
X0173497Y0065895D01*
X0173206Y0065892D01*
X0172913Y0065604D01*
X0172326Y0065028D01*
X0172033Y0064740D01*
X0171740Y0064452D01*
X0171153Y0063877D01*
X0170860Y0063589D01*
X0170443Y0063587D01*
X0169609Y0063582D01*
X0168775Y0063577D01*
X0168358Y0063574D01*
X0167941Y0063572D01*
X0167524Y0063569D01*
X0167512Y0063647D01*
X0167500Y0063725D01*
X0167487Y0063803D01*
X0167475Y0063881D01*
X0167463Y0063959D01*
X0167451Y0064036D01*
X0167438Y0064114D01*
X0167426Y0064192D01*
X0167414Y0064270D01*
X0167402Y0064348D01*
X0167389Y0064426D01*
X0167377Y0064504D01*
X0167364Y0064582D01*
X0167339Y0064737D01*
X0167327Y0064815D01*
X0167314Y0064893D01*
X0167302Y0064971D01*
X0167289Y0065049D01*
X0167276Y0065126D01*
X0167264Y0065204D01*
X0167251Y0065282D01*
X0167238Y0065360D01*
X0167225Y0065438D01*
X0167729Y0065443D01*
X0168233Y0065448D01*
X0168737Y0065452D01*
X0169744Y0065462D01*
X0170248Y0065467D01*
X0170752Y0065472D01*
X0171255Y0065477D01*
X0171420Y0065645D01*
X0171584Y0065813D01*
X0171748Y0065982D01*
X0171912Y0066150D01*
X0172077Y0066318D01*
X0172241Y0066486D01*
X0172405Y0066655D01*
X0172569Y0066823D01*
X0172869Y0066825D01*
X0173169Y0066827D01*
X0173469Y0066830D01*
X0174069Y0066834D01*
X0174369Y0066836D01*
X0174969Y0066841D01*
X0175111Y0067000D01*
X0175206Y0067107D01*
X0175348Y0067266D01*
X0175359Y0067263D01*
X0175370Y0067260D01*
X0175382Y0067257D01*
X0175393Y0067254D01*
X0175404Y0067252D01*
X0175416Y0067249D01*
X0175427Y0067247D01*
X0175438Y0067244D01*
X0175461Y0067240D01*
X0175473Y0067238D01*
X0175485Y0067237D01*
X0175496Y0067235D01*
X0175508Y0067233D01*
X0175532Y0067231D01*
X0175544Y0067230D01*
X0175568Y0067228D01*
X0175580Y0067228D01*
X0175592Y0067227D01*
X0175604Y0067227D01*
X0175616Y0067227D01*
X0175628Y0067227D01*
X0175696Y0067227D01*
X0175762Y0067234D01*
X0175827Y0067247D01*
X0175891Y0067261D01*
X0175952Y0067280D01*
X0176011Y0067305D01*
X0176070Y0067330D01*
X0176126Y0067361D01*
X0176178Y0067397D01*
X0176231Y0067432D01*
X0176279Y0067473D01*
X0176324Y0067517D01*
X0176368Y0067562D01*
X0176408Y0067611D01*
X0176444Y0067663D01*
X0176479Y0067716D01*
X0176509Y0067772D01*
X0176534Y0067831D01*
X0176559Y0067890D01*
X0176578Y0067952D01*
X0176591Y0068016D01*
X0176604Y0068080D01*
X0176610Y0068147D01*
X0176610Y0068283D01*
X0176603Y0068349D01*
X0176590Y0068413D01*
X0176576Y0068477D01*
X0176557Y0068539D01*
X0176531Y0068598D01*
X0176506Y0068657D01*
X0176476Y0068713D01*
X0176440Y0068765D01*
X0176404Y0068817D01*
X0176364Y0068866D01*
X0176319Y0068910D01*
X0176275Y0068955D01*
X0176226Y0068995D01*
X0176173Y0069030D01*
X0176121Y0069065D01*
X0176065Y0069096D01*
X0176006Y0069120D01*
X0175946Y0069145D01*
X0175885Y0069164D01*
X0175820Y0069177D01*
X0175756Y0069190D01*
X0175690Y0069197D01*
X0175622Y0069197D01*
X0175554Y0069196D01*
X0175487Y0069189D01*
X0175423Y0069176D01*
X0175359Y0069163D01*
X0175298Y0069143D01*
X0175239Y0069118D01*
X0175180Y0069093D01*
X0175124Y0069062D01*
X0175072Y0069027D01*
X0175019Y0068991D01*
X0174971Y0068951D01*
X0174926Y0068906D01*
X0174882Y0068862D01*
X0174842Y0068813D01*
X0174806Y0068760D01*
X0174771Y0068708D01*
X0174741Y0068651D01*
X0174716Y0068592D01*
X0174691Y0068533D01*
X0174672Y0068472D01*
X0174659Y0068407D01*
X0174646Y0068343D01*
X0174640Y0068277D01*
X0174640Y0068209D01*
X0174640Y0068198D01*
X0174640Y0068186D01*
X0174640Y0068175D01*
X0174641Y0068164D01*
X0174641Y0068153D01*
X0174642Y0068142D01*
X0174643Y0068131D01*
X0174644Y0068120D01*
X0174645Y0068109D01*
X0174646Y0068098D01*
X0174648Y0068087D01*
X0174649Y0068076D01*
X0174651Y0068066D01*
X0174652Y0068055D01*
X0174654Y0068044D01*
X0174656Y0068033D01*
X0174658Y0068023D01*
X0174662Y0068002D01*
X0174665Y0067991D01*
X0174667Y0067981D01*
X0174670Y0067970D01*
X0174672Y0067960D01*
X0174675Y0067949D01*
X0174644Y0067926D01*
X0174614Y0067902D01*
X0174583Y0067879D01*
X0174552Y0067855D01*
X0174521Y0067831D01*
X0174490Y0067808D01*
X0174459Y0067784D01*
X0174428Y0067761D01*
X0174172Y0067759D01*
X0173916Y0067758D01*
X0173660Y0067756D01*
X0173404Y0067755D01*
X0173148Y0067753D01*
X0172891Y0067752D01*
X0172635Y0067750D01*
X0172379Y0067749D01*
X0172194Y0067574D01*
X0172010Y0067400D01*
X0171825Y0067225D01*
X0171456Y0066876D01*
X0171271Y0066702D01*
X0171087Y0066527D01*
X0170902Y0066353D01*
X0170743Y0066352D01*
X0170583Y0066351D01*
X0170424Y0066350D01*
X0170265Y0066350D01*
X0170105Y0066350D01*
X0169946Y0066349D01*
X0169786Y0066349D01*
X0169148Y0066349D01*
X0168988Y0066349D01*
X0168829Y0066349D01*
X0168191Y0066349D01*
X0168031Y0066349D01*
X0167872Y0066349D01*
X0167712Y0066349D01*
X0167553Y0066348D01*
X0167393Y0066348D01*
X0167233Y0066347D01*
X0167074Y0066346D01*
X0167067Y0066385D01*
X0167061Y0066424D01*
X0167054Y0066463D01*
X0167048Y0066502D01*
X0167041Y0066541D01*
X0167028Y0066619D01*
X0167021Y0066657D01*
X0167015Y0066696D01*
X0167008Y0066735D01*
X0167002Y0066774D01*
X0166988Y0066852D01*
X0166982Y0066891D01*
X0166975Y0066929D01*
X0166968Y0066968D01*
X0166962Y0067007D01*
X0166955Y0067046D01*
X0166949Y0067085D01*
X0166942Y0067124D01*
X0166935Y0067163D01*
X0166929Y0067202D01*
X0166922Y0067241D01*
X0166915Y0067280D01*
X0167410Y0067283D01*
X0168398Y0067291D01*
X0168892Y0067294D01*
X0169387Y0067298D01*
X0170375Y0067306D01*
X0170870Y0067309D01*
X0171195Y0067638D01*
X0171358Y0067802D01*
X0171521Y0067966D01*
X0171683Y0068130D01*
X0171846Y0068295D01*
X0172172Y0068623D01*
X0172339Y0068630D01*
X0172507Y0068637D01*
X0172675Y0068645D01*
X0173010Y0068659D01*
X0173178Y0068666D01*
X0173346Y0068673D01*
X0173513Y0068680D01*
X0173967Y0069142D01*
X0174119Y0069296D01*
X0174270Y0069450D01*
X0174724Y0069911D01*
X0174721Y0069994D01*
X0174718Y0070077D01*
X0174715Y0070159D01*
X0174712Y0070242D01*
X0174709Y0070324D01*
X0174706Y0070407D01*
X0174704Y0070490D01*
X0174701Y0070572D01*
X0174741Y0070592D01*
X0174781Y0070615D01*
X0174818Y0070641D01*
X0174855Y0070666D01*
X0174891Y0070694D01*
X0174924Y0070724D01*
X0174958Y0070754D01*
X0174989Y0070787D01*
X0175018Y0070821D01*
X0175047Y0070856D01*
X0175074Y0070892D01*
X0175122Y0070968D01*
X0175144Y0071008D01*
X0175162Y0071050D01*
X0175181Y0071091D01*
X0175197Y0071134D01*
X0175210Y0071179D01*
X0175223Y0071223D01*
X0175233Y0071269D01*
X0175240Y0071316D01*
X0175246Y0071362D01*
X0175250Y0071410D01*
X0175250Y0071459D01*
X0175249Y0071527D01*
X0175242Y0071593D01*
X0175229Y0071657D01*
X0175216Y0071721D01*
X0175196Y0071783D01*
X0175171Y0071842D01*
X0175146Y0071901D01*
X0175115Y0071957D01*
X0175080Y0072009D01*
X0175044Y0072061D01*
X0175003Y0072110D01*
X0174959Y0072154D01*
X0174914Y0072199D01*
X0174865Y0072239D01*
X0174813Y0072274D01*
X0174760Y0072309D01*
X0174704Y0072340D01*
X0174645Y0072365D01*
X0174586Y0072389D01*
X0174524Y0072408D01*
X0174460Y0072421D01*
X0174396Y0072434D01*
X0174330Y0072441D01*
X0174262Y0072441D01*
X0174194Y0072440D01*
X0174127Y0072433D01*
X0174063Y0072420D01*
X0173999Y0072407D01*
X0173937Y0072387D01*
X0173878Y0072362D01*
X0173819Y0072337D01*
X0173764Y0072306D01*
X0173711Y0072271D01*
X0173659Y0072235D01*
X0173610Y0072195D01*
X0173566Y0072150D01*
X0173521Y0072105D01*
X0173481Y0072056D01*
X0173446Y0072004D01*
X0173411Y0071951D01*
X0173381Y0071895D01*
X0173356Y0071836D01*
X0173331Y0071777D01*
X0173312Y0071715D01*
X0173299Y0071651D01*
X0173286Y0071587D01*
X0173279Y0071521D01*
X0173280Y0071453D01*
X0173280Y0071406D01*
X0173283Y0071359D01*
X0173290Y0071314D01*
X0173296Y0071269D01*
X0173306Y0071225D01*
X0173318Y0071182D01*
X0173330Y0071139D01*
X0173346Y0071097D01*
X0173364Y0071057D01*
X0173382Y0071017D01*
X0173402Y0070978D01*
X0173425Y0070940D01*
X0173448Y0070903D01*
X0173473Y0070867D01*
X0173501Y0070834D01*
X0173528Y0070800D01*
X0173558Y0070768D01*
X0173590Y0070738D01*
X0173621Y0070709D01*
X0173655Y0070681D01*
X0173690Y0070655D01*
X0173726Y0070630D01*
X0173763Y0070607D01*
X0173802Y0070586D01*
X0173803Y0070535D01*
X0173804Y0070484D01*
X0173805Y0070433D01*
X0173806Y0070382D01*
X0173808Y0070331D01*
X0173809Y0070280D01*
X0173810Y0070229D01*
X0173811Y0070178D01*
X0173737Y0070106D01*
X0173662Y0070034D01*
X0173587Y0069962D01*
X0173513Y0069890D01*
X0173438Y0069817D01*
X0173363Y0069745D01*
X0173289Y0069673D01*
X0173214Y0069601D01*
X0172844Y0069597D01*
X0172659Y0069595D01*
X0172289Y0069590D01*
X0172104Y0069588D01*
X0171919Y0069586D01*
X0171735Y0069584D01*
X0171558Y0069410D01*
X0171382Y0069236D01*
X0171206Y0069063D01*
X0170853Y0068716D01*
X0170677Y0068542D01*
X0170500Y0068369D01*
X0170324Y0068195D01*
X0169879Y0068194D01*
X0169433Y0068192D01*
X0168987Y0068190D01*
X0168096Y0068187D01*
X0167650Y0068185D01*
X0167204Y0068184D01*
X0166759Y0068182D01*
X0166743Y0068273D01*
X0166727Y0068364D01*
X0166711Y0068456D01*
X0166694Y0068547D01*
X0166678Y0068638D01*
X0166662Y0068730D01*
X0166646Y0068821D01*
X0166630Y0068912D01*
X0173896Y0071332D02*
X0173889Y0071355D01*
X0173884Y0071378D01*
X0173879Y0071402D01*
X0173876Y0071426D01*
X0173876Y0071451D01*
X0173876Y0071476D01*
X0173879Y0071500D01*
X0173883Y0071524D01*
X0173888Y0071547D01*
X0173895Y0071570D01*
X0173904Y0071592D01*
X0173913Y0071613D01*
X0173924Y0071634D01*
X0173937Y0071653D01*
X0173950Y0071672D01*
X0173965Y0071690D01*
X0173998Y0071723D01*
X0174015Y0071738D01*
X0174034Y0071751D01*
X0174054Y0071764D01*
X0174074Y0071775D01*
X0174096Y0071784D01*
X0174117Y0071793D01*
X0174140Y0071801D01*
X0174163Y0071805D01*
X0174187Y0071810D01*
X0174211Y0071813D01*
X0174236Y0071813D01*
X0174261Y0071813D01*
X0174285Y0071811D01*
X0174309Y0071806D01*
X0174332Y0071801D01*
X0174355Y0071794D01*
X0174377Y0071785D01*
X0174398Y0071776D01*
X0174419Y0071765D01*
X0174438Y0071752D01*
X0174457Y0071739D01*
X0174475Y0071724D01*
X0174492Y0071708D01*
X0174508Y0071692D01*
X0174523Y0071674D01*
X0174536Y0071655D01*
X0174549Y0071636D01*
X0174560Y0071615D01*
X0174578Y0071572D01*
X0174586Y0071549D01*
X0174591Y0071526D01*
X0174595Y0071502D01*
X0174598Y0071478D01*
X0174598Y0071428D01*
X0174596Y0071404D01*
X0174591Y0071380D01*
X0174586Y0071357D01*
X0174579Y0071334D01*
X0174570Y0071313D01*
X0174561Y0071291D01*
X0174550Y0071271D01*
X0174524Y0071232D01*
X0174509Y0071214D01*
X0174477Y0071181D01*
X0174459Y0071166D01*
X0174440Y0071153D01*
X0174421Y0071140D01*
X0174400Y0071129D01*
X0174379Y0071120D01*
X0174357Y0071111D01*
X0174334Y0071104D01*
X0174311Y0071099D01*
X0174287Y0071094D01*
X0174263Y0071091D01*
X0174238Y0071091D01*
X0174213Y0071091D01*
X0174189Y0071094D01*
X0174165Y0071098D01*
X0174142Y0071103D01*
X0174119Y0071110D01*
X0174098Y0071119D01*
X0174076Y0071128D01*
X0174055Y0071139D01*
X0174036Y0071152D01*
X0174017Y0071165D01*
X0173999Y0071180D01*
X0173966Y0071212D01*
X0173952Y0071230D01*
X0173938Y0071250D01*
X0173925Y0071269D01*
X0173914Y0071289D01*
X0173905Y0071311D01*
X0173896Y0071332D01*
X0174099Y0073710D02*
X0173973Y0073738D01*
X0173848Y0073766D01*
X0173740Y0073819D01*
X0173649Y0073889D01*
X0173558Y0073960D01*
X0173484Y0074048D01*
X0173428Y0074146D01*
X0173372Y0074245D01*
X0173335Y0074354D01*
X0173316Y0074467D01*
X0173296Y0074580D01*
X0173296Y0074696D01*
X0173314Y0074808D01*
X0173332Y0074921D01*
X0173369Y0075029D01*
X0173426Y0075127D01*
X0173483Y0075226D01*
X0173560Y0075313D01*
X0173656Y0075382D01*
X0173753Y0075452D01*
X0173870Y0075504D01*
X0174007Y0075530D01*
X0174163Y0075561D01*
X0174304Y0075559D01*
X0174430Y0075532D01*
X0174555Y0075505D01*
X0174665Y0075452D01*
X0174758Y0075382D01*
X0174850Y0075312D01*
X0174926Y0075223D01*
X0174984Y0075124D01*
X0175043Y0075025D01*
X0175083Y0074915D01*
X0175104Y0074802D01*
X0175126Y0074689D01*
X0175129Y0074572D01*
X0175112Y0074458D01*
X0175095Y0074345D01*
X0175058Y0074236D01*
X0175000Y0074137D01*
X0174943Y0074039D01*
X0174865Y0073951D01*
X0174765Y0073882D01*
X0174665Y0073812D01*
X0174543Y0073761D01*
X0174399Y0073735D01*
X0174241Y0073707D01*
X0174099Y0073710D01*
X0174199Y0074264D02*
X0174175Y0074269D01*
X0174152Y0074276D01*
X0174131Y0074285D01*
X0174109Y0074294D01*
X0174089Y0074305D01*
X0174069Y0074318D01*
X0174050Y0074331D01*
X0174032Y0074346D01*
X0174016Y0074362D01*
X0173999Y0074378D01*
X0173984Y0074396D01*
X0173971Y0074415D01*
X0173958Y0074435D01*
X0173947Y0074455D01*
X0173938Y0074477D01*
X0173929Y0074498D01*
X0173922Y0074521D01*
X0173917Y0074544D01*
X0173912Y0074568D01*
X0173909Y0074592D01*
X0173909Y0074642D01*
X0173912Y0074666D01*
X0173916Y0074690D01*
X0173921Y0074713D01*
X0173928Y0074736D01*
X0173937Y0074757D01*
X0173946Y0074779D01*
X0173957Y0074800D01*
X0173970Y0074819D01*
X0173983Y0074838D01*
X0173998Y0074856D01*
X0174031Y0074889D01*
X0174048Y0074903D01*
X0174068Y0074917D01*
X0174087Y0074930D01*
X0174107Y0074941D01*
X0174129Y0074950D01*
X0174150Y0074959D01*
X0174173Y0074966D01*
X0174220Y0074976D01*
X0174244Y0074979D01*
X0174269Y0074979D01*
X0174294Y0074979D01*
X0174318Y0074977D01*
X0174342Y0074972D01*
X0174365Y0074967D01*
X0174388Y0074960D01*
X0174410Y0074951D01*
X0174431Y0074942D01*
X0174452Y0074931D01*
X0174471Y0074918D01*
X0174490Y0074905D01*
X0174508Y0074890D01*
X0174525Y0074874D01*
X0174541Y0074858D01*
X0174556Y0074840D01*
X0174569Y0074821D01*
X0174582Y0074802D01*
X0174593Y0074781D01*
X0174602Y0074760D01*
X0174612Y0074738D01*
X0174619Y0074715D01*
X0174629Y0074669D01*
X0174631Y0074644D01*
X0174631Y0074619D01*
X0174631Y0074594D01*
X0174629Y0074570D01*
X0174624Y0074546D01*
X0174619Y0074523D01*
X0174612Y0074500D01*
X0174603Y0074479D01*
X0174594Y0074457D01*
X0174583Y0074436D01*
X0174570Y0074417D01*
X0174557Y0074398D01*
X0174543Y0074380D01*
X0174526Y0074364D01*
X0174510Y0074347D01*
X0174492Y0074332D01*
X0174473Y0074319D01*
X0174454Y0074306D01*
X0174433Y0074295D01*
X0174412Y0074286D01*
X0174390Y0074277D01*
X0174367Y0074270D01*
X0174344Y0074265D01*
X0174321Y0074260D01*
X0174296Y0074257D01*
X0174246Y0074257D01*
X0174222Y0074260D01*
X0174199Y0074264D01*
X0171200Y0076232D02*
X0171187Y0076213D01*
X0171174Y0076193D01*
X0171159Y0076175D01*
X0171127Y0076143D01*
X0171109Y0076128D01*
X0171090Y0076115D01*
X0171071Y0076102D01*
X0171050Y0076091D01*
X0171029Y0076081D01*
X0171007Y0076072D01*
X0170984Y0076065D01*
X0170961Y0076060D01*
X0170938Y0076055D01*
X0170913Y0076053D01*
X0170863Y0076053D01*
X0170839Y0076055D01*
X0170815Y0076060D01*
X0170792Y0076065D01*
X0170769Y0076072D01*
X0170748Y0076081D01*
X0170726Y0076090D01*
X0170705Y0076101D01*
X0170686Y0076114D01*
X0170667Y0076127D01*
X0170649Y0076141D01*
X0170616Y0076174D01*
X0170602Y0076192D01*
X0170589Y0076211D01*
X0170576Y0076230D01*
X0170564Y0076250D01*
X0170555Y0076272D01*
X0170546Y0076293D01*
X0170539Y0076316D01*
X0170529Y0076363D01*
X0170526Y0076387D01*
X0170526Y0076412D01*
X0170526Y0076437D01*
X0170529Y0076461D01*
X0170533Y0076485D01*
X0170538Y0076508D01*
X0170545Y0076531D01*
X0170563Y0076574D01*
X0170574Y0076595D01*
X0170587Y0076614D01*
X0170600Y0076634D01*
X0170615Y0076652D01*
X0170631Y0076668D01*
X0170647Y0076684D01*
X0170665Y0076699D01*
X0170684Y0076712D01*
X0170704Y0076725D01*
X0170724Y0076736D01*
X0170746Y0076745D01*
X0170767Y0076755D01*
X0170790Y0076762D01*
X0170813Y0076767D01*
X0170837Y0076772D01*
X0170861Y0076774D01*
X0170886Y0076774D01*
X0170911Y0076774D01*
X0170935Y0076772D01*
X0170959Y0076767D01*
X0170982Y0076763D01*
X0171005Y0076755D01*
X0171027Y0076746D01*
X0171048Y0076737D01*
X0171069Y0076726D01*
X0171088Y0076713D01*
X0171107Y0076701D01*
X0171125Y0076686D01*
X0171158Y0076653D01*
X0171173Y0076635D01*
X0171186Y0076616D01*
X0171199Y0076597D01*
X0171210Y0076577D01*
X0171219Y0076555D01*
X0171228Y0076533D01*
X0171235Y0076511D01*
X0171240Y0076487D01*
X0171245Y0076464D01*
X0171248Y0076439D01*
X0171248Y0076414D01*
X0171248Y0076390D01*
X0171245Y0076365D01*
X0171241Y0076342D01*
X0171236Y0076318D01*
X0171229Y0076296D01*
X0171220Y0076274D01*
X0171211Y0076252D01*
X0171200Y0076232D01*
X0168484Y0076188D02*
X0168484Y0076213D01*
X0168483Y0076238D01*
X0168481Y0076263D01*
X0168471Y0076309D01*
X0168464Y0076332D01*
X0168455Y0076354D01*
X0168445Y0076375D01*
X0168434Y0076396D01*
X0168421Y0076415D01*
X0168408Y0076434D01*
X0168393Y0076452D01*
X0168377Y0076468D01*
X0168361Y0076484D01*
X0168343Y0076499D01*
X0168323Y0076512D01*
X0168304Y0076525D01*
X0168283Y0076536D01*
X0168240Y0076554D01*
X0168218Y0076561D01*
X0168194Y0076566D01*
X0168171Y0076571D01*
X0168146Y0076573D01*
X0168121Y0076573D01*
X0168097Y0076573D01*
X0168072Y0076570D01*
X0168049Y0076565D01*
X0168025Y0076561D01*
X0168003Y0076553D01*
X0167981Y0076544D01*
X0167959Y0076535D01*
X0167939Y0076524D01*
X0167920Y0076511D01*
X0167901Y0076498D01*
X0167883Y0076483D01*
X0167850Y0076450D01*
X0167835Y0076432D01*
X0167823Y0076413D01*
X0167810Y0076394D01*
X0167798Y0076373D01*
X0167789Y0076352D01*
X0167780Y0076330D01*
X0167773Y0076307D01*
X0167769Y0076284D01*
X0167764Y0076260D01*
X0167761Y0076236D01*
X0167761Y0076211D01*
X0167762Y0076186D01*
X0167764Y0076162D01*
X0167774Y0076115D01*
X0167781Y0076092D01*
X0167790Y0076071D01*
X0167800Y0076049D01*
X0167811Y0076029D01*
X0167824Y0076010D01*
X0167837Y0075990D01*
X0167852Y0075973D01*
X0167884Y0075940D01*
X0167902Y0075925D01*
X0167922Y0075912D01*
X0167941Y0075899D01*
X0167962Y0075888D01*
X0167983Y0075879D01*
X0168005Y0075870D01*
X0168027Y0075863D01*
X0168051Y0075858D01*
X0168074Y0075854D01*
X0168099Y0075851D01*
X0168124Y0075851D01*
X0168148Y0075851D01*
X0168173Y0075854D01*
X0168196Y0075859D01*
X0168220Y0075864D01*
X0168242Y0075871D01*
X0168264Y0075880D01*
X0168286Y0075889D01*
X0168306Y0075901D01*
X0168325Y0075914D01*
X0168344Y0075927D01*
X0168362Y0075942D01*
X0168395Y0075974D01*
X0168410Y0075992D01*
X0168422Y0076011D01*
X0168435Y0076031D01*
X0168447Y0076051D01*
X0168456Y0076073D01*
X0168464Y0076094D01*
X0168472Y0076117D01*
X0168476Y0076141D01*
X0168481Y0076164D01*
X0168484Y0076188D01*
X0177943Y0073485D02*
X0177945Y0072677D01*
X0177948Y0071869D01*
X0177950Y0071061D01*
X0177952Y0070253D01*
X0177955Y0069445D01*
X0177957Y0068637D01*
X0177959Y0067829D01*
X0177962Y0067021D01*
X0177704Y0066768D01*
X0177446Y0066515D01*
X0177188Y0066263D01*
X0176930Y0066010D01*
X0176672Y0065757D01*
X0176414Y0065504D01*
X0176156Y0065251D01*
X0175897Y0064999D01*
X0175597Y0064996D01*
X0175297Y0064993D01*
X0174997Y0064990D01*
X0174697Y0064987D01*
X0174397Y0064985D01*
X0174097Y0064982D01*
X0173497Y0064976D01*
X0173218Y0064692D01*
X0172938Y0064409D01*
X0172659Y0064125D01*
X0172380Y0063841D01*
X0172101Y0063557D01*
X0171822Y0063273D01*
X0171543Y0062990D01*
X0171263Y0062706D01*
X0170813Y0062701D01*
X0170363Y0062696D01*
X0169912Y0062691D01*
X0169012Y0062680D01*
X0168561Y0062675D01*
X0168111Y0062670D01*
X0167661Y0062665D01*
X0167669Y0062607D01*
X0167678Y0062548D01*
X0167687Y0062490D01*
X0167695Y0062431D01*
X0167704Y0062373D01*
X0167712Y0062314D01*
X0167721Y0062256D01*
X0167729Y0062197D01*
X0167738Y0062139D01*
X0167746Y0062080D01*
X0167755Y0062022D01*
X0167772Y0061905D01*
X0167780Y0061847D01*
X0167797Y0061730D01*
X0167805Y0061671D01*
X0167813Y0061613D01*
X0167822Y0061554D01*
X0167830Y0061495D01*
X0167846Y0061378D01*
X0167855Y0061320D01*
X0167863Y0061261D01*
X0168419Y0061264D01*
X0168975Y0061266D01*
X0169532Y0061269D01*
X0170088Y0061271D01*
X0170644Y0061273D01*
X0171201Y0061276D01*
X0171757Y0061278D01*
X0172313Y0061281D01*
X0172425Y0061397D01*
X0172536Y0061513D01*
X0172647Y0061629D01*
X0172759Y0061745D01*
X0172870Y0061861D01*
X0172981Y0061977D01*
X0173093Y0062093D01*
X0173204Y0062209D01*
X0175224Y0062217D01*
X0176233Y0062220D01*
X0177243Y0062224D01*
X0178253Y0062227D01*
X0179263Y0062231D01*
X0180273Y0062235D01*
X0181282Y0062238D01*
X0181286Y0062276D01*
X0181289Y0062315D01*
X0181292Y0062353D01*
X0181295Y0062391D01*
X0181298Y0062430D01*
X0181300Y0062468D01*
X0181303Y0062506D01*
X0181306Y0062545D01*
X0181308Y0062583D01*
X0181311Y0062621D01*
X0181313Y0062659D01*
X0181318Y0062736D01*
X0181320Y0062774D01*
X0181321Y0062812D01*
X0181323Y0062851D01*
X0181325Y0062889D01*
X0181327Y0062927D01*
X0181328Y0062965D01*
X0181330Y0063004D01*
X0181331Y0063042D01*
X0181332Y0063080D01*
X0181333Y0063118D01*
X0181334Y0063156D01*
X0180624Y0063154D01*
X0179913Y0063152D01*
X0179202Y0063149D01*
X0178491Y0063147D01*
X0177780Y0063144D01*
X0177069Y0063142D01*
X0176358Y0063139D01*
X0175648Y0063137D01*
X0175627Y0063099D01*
X0175603Y0063062D01*
X0175578Y0063028D01*
X0175552Y0062993D01*
X0175524Y0062960D01*
X0175495Y0062929D01*
X0175465Y0062898D01*
X0175433Y0062869D01*
X0175399Y0062842D01*
X0175366Y0062815D01*
X0175330Y0062790D01*
X0175294Y0062768D01*
X0175257Y0062746D01*
X0175218Y0062726D01*
X0175178Y0062708D01*
X0175138Y0062691D01*
X0175097Y0062676D01*
X0175054Y0062664D01*
X0175012Y0062651D01*
X0174968Y0062642D01*
X0174923Y0062636D01*
X0174879Y0062629D01*
X0174833Y0062626D01*
X0174787Y0062626D01*
X0174719Y0062626D01*
X0174652Y0062632D01*
X0174588Y0062645D01*
X0174524Y0062658D01*
X0174462Y0062677D01*
X0174403Y0062702D01*
X0174344Y0062727D01*
X0174288Y0062757D01*
X0174236Y0062792D01*
X0174183Y0062828D01*
X0174134Y0062868D01*
X0174089Y0062912D01*
X0174045Y0062957D01*
X0174004Y0063005D01*
X0173969Y0063058D01*
X0173933Y0063110D01*
X0173903Y0063166D01*
X0173877Y0063225D01*
X0173852Y0063283D01*
X0173833Y0063345D01*
X0173819Y0063409D01*
X0173806Y0063473D01*
X0173799Y0063540D01*
X0173799Y0063676D01*
X0173805Y0063742D01*
X0173818Y0063806D01*
X0173831Y0063870D01*
X0173850Y0063932D01*
X0173875Y0063992D01*
X0173900Y0064051D01*
X0173930Y0064107D01*
X0173965Y0064159D01*
X0174001Y0064212D01*
X0174041Y0064261D01*
X0174085Y0064305D01*
X0174129Y0064350D01*
X0174178Y0064391D01*
X0174230Y0064426D01*
X0174283Y0064462D01*
X0174339Y0064492D01*
X0174456Y0064542D01*
X0174518Y0064562D01*
X0174582Y0064575D01*
X0174646Y0064589D01*
X0174713Y0064596D01*
X0174781Y0064596D01*
X0174828Y0064596D01*
X0174874Y0064593D01*
X0174919Y0064587D01*
X0174965Y0064580D01*
X0175009Y0064571D01*
X0175052Y0064559D01*
X0175095Y0064547D01*
X0175137Y0064532D01*
X0175178Y0064514D01*
X0175218Y0064496D01*
X0175257Y0064476D01*
X0175295Y0064453D01*
X0175332Y0064430D01*
X0175368Y0064405D01*
X0175402Y0064377D01*
X0175436Y0064350D01*
X0175468Y0064320D01*
X0175498Y0064289D01*
X0175528Y0064257D01*
X0175556Y0064223D01*
X0175582Y0064188D01*
X0175608Y0064153D01*
X0175631Y0064115D01*
X0175652Y0064076D01*
X0175655Y0064075D01*
X0175658Y0064073D01*
X0175661Y0064071D01*
X0175664Y0064070D01*
X0175666Y0064068D01*
X0175669Y0064066D01*
X0175672Y0064065D01*
X0175675Y0064063D01*
X0176351Y0064065D01*
X0177026Y0064068D01*
X0177702Y0064070D01*
X0179053Y0064075D01*
X0179728Y0064077D01*
X0180404Y0064079D01*
X0181079Y0064082D01*
X0181109Y0064111D01*
X0181139Y0064141D01*
X0181169Y0064171D01*
X0181199Y0064200D01*
X0181229Y0064230D01*
X0181290Y0064289D01*
X0181320Y0064319D01*
X0181299Y0064738D01*
X0181263Y0065155D01*
X0181210Y0065570D01*
X0181157Y0065984D01*
X0181089Y0066395D01*
X0180920Y0067210D01*
X0180821Y0067613D01*
X0180706Y0068012D01*
X0180592Y0068410D01*
X0180463Y0068804D01*
X0180319Y0069191D01*
X0180175Y0069578D01*
X0180017Y0069960D01*
X0179846Y0070334D01*
X0179674Y0070709D01*
X0179488Y0071076D01*
X0179091Y0071794D01*
X0178879Y0072145D01*
X0178654Y0072487D01*
X0178430Y0072829D01*
X0178192Y0073163D01*
X0177943Y0073485D01*
X0175825Y0068546D02*
X0175846Y0068535D01*
X0175865Y0068522D01*
X0175884Y0068509D01*
X0175902Y0068494D01*
X0175918Y0068478D01*
X0175935Y0068462D01*
X0175949Y0068444D01*
X0175963Y0068425D01*
X0175976Y0068405D01*
X0175987Y0068385D01*
X0175996Y0068363D01*
X0176005Y0068342D01*
X0176012Y0068319D01*
X0176017Y0068295D01*
X0176022Y0068272D01*
X0176025Y0068248D01*
X0176025Y0068223D01*
X0176025Y0068198D01*
X0176022Y0068173D01*
X0176018Y0068150D01*
X0176013Y0068127D01*
X0176006Y0068104D01*
X0175997Y0068082D01*
X0175988Y0068061D01*
X0175977Y0068040D01*
X0175964Y0068021D01*
X0175951Y0068002D01*
X0175936Y0067984D01*
X0175920Y0067968D01*
X0175904Y0067951D01*
X0175886Y0067936D01*
X0175867Y0067923D01*
X0175848Y0067910D01*
X0175827Y0067899D01*
X0175806Y0067890D01*
X0175784Y0067881D01*
X0175762Y0067874D01*
X0175738Y0067869D01*
X0175715Y0067864D01*
X0175690Y0067861D01*
X0175665Y0067861D01*
X0175640Y0067861D01*
X0175616Y0067863D01*
X0175592Y0067868D01*
X0175569Y0067873D01*
X0175546Y0067880D01*
X0175525Y0067889D01*
X0175503Y0067898D01*
X0175482Y0067909D01*
X0175463Y0067922D01*
X0175444Y0067935D01*
X0175426Y0067950D01*
X0175410Y0067966D01*
X0175393Y0067982D01*
X0175379Y0068000D01*
X0175365Y0068019D01*
X0175352Y0068038D01*
X0175341Y0068059D01*
X0175332Y0068080D01*
X0175323Y0068102D01*
X0175316Y0068124D01*
X0175311Y0068148D01*
X0175306Y0068171D01*
X0175303Y0068196D01*
X0175303Y0068221D01*
X0175303Y0068246D01*
X0175306Y0068270D01*
X0175310Y0068293D01*
X0175315Y0068317D01*
X0175322Y0068340D01*
X0175331Y0068361D01*
X0175340Y0068383D01*
X0175351Y0068403D01*
X0175364Y0068423D01*
X0175377Y0068442D01*
X0175392Y0068460D01*
X0175425Y0068492D01*
X0175442Y0068507D01*
X0175461Y0068520D01*
X0175480Y0068533D01*
X0175501Y0068545D01*
X0175523Y0068554D01*
X0175544Y0068563D01*
X0175567Y0068570D01*
X0175590Y0068575D01*
X0175614Y0068580D01*
X0175638Y0068583D01*
X0175663Y0068583D01*
X0175688Y0068583D01*
X0175712Y0068580D01*
X0175736Y0068576D01*
X0175759Y0068571D01*
X0175782Y0068564D01*
X0175803Y0068555D01*
X0175825Y0068546D01*
X0174891Y0063970D02*
X0174914Y0063963D01*
X0174936Y0063954D01*
X0174957Y0063945D01*
X0174978Y0063933D01*
X0174997Y0063921D01*
X0175016Y0063908D01*
X0175034Y0063893D01*
X0175051Y0063877D01*
X0175067Y0063860D01*
X0175082Y0063843D01*
X0175095Y0063823D01*
X0175108Y0063804D01*
X0175119Y0063784D01*
X0175128Y0063762D01*
X0175137Y0063741D01*
X0175145Y0063718D01*
X0175149Y0063695D01*
X0175154Y0063671D01*
X0175157Y0063647D01*
X0175157Y0063622D01*
X0175157Y0063597D01*
X0175155Y0063573D01*
X0175150Y0063549D01*
X0175145Y0063526D01*
X0175138Y0063503D01*
X0175129Y0063481D01*
X0175120Y0063460D01*
X0175109Y0063439D01*
X0175096Y0063420D01*
X0175083Y0063401D01*
X0175068Y0063383D01*
X0175036Y0063350D01*
X0175018Y0063335D01*
X0174999Y0063322D01*
X0174980Y0063309D01*
X0174959Y0063298D01*
X0174938Y0063289D01*
X0174916Y0063280D01*
X0174893Y0063272D01*
X0174870Y0063268D01*
X0174847Y0063263D01*
X0174822Y0063260D01*
X0174772Y0063260D01*
X0174748Y0063263D01*
X0174724Y0063267D01*
X0174701Y0063272D01*
X0174678Y0063279D01*
X0174657Y0063288D01*
X0174635Y0063297D01*
X0174614Y0063308D01*
X0174595Y0063321D01*
X0174576Y0063334D01*
X0174558Y0063349D01*
X0174542Y0063365D01*
X0174525Y0063381D01*
X0174510Y0063399D01*
X0174497Y0063418D01*
X0174484Y0063437D01*
X0174473Y0063458D01*
X0174464Y0063479D01*
X0174455Y0063501D01*
X0174448Y0063523D01*
X0174443Y0063547D01*
X0174438Y0063570D01*
X0174435Y0063595D01*
X0174435Y0063644D01*
X0174438Y0063669D01*
X0174442Y0063692D01*
X0174447Y0063716D01*
X0174454Y0063738D01*
X0174463Y0063760D01*
X0174472Y0063782D01*
X0174483Y0063802D01*
X0174496Y0063821D01*
X0174509Y0063841D01*
X0174524Y0063859D01*
X0174557Y0063891D01*
X0174574Y0063906D01*
X0174593Y0063919D01*
X0174613Y0063932D01*
X0174633Y0063944D01*
X0174655Y0063953D01*
X0174676Y0063962D01*
X0174699Y0063969D01*
X0174722Y0063974D01*
X0174746Y0063979D01*
X0174770Y0063982D01*
X0174820Y0063982D01*
X0174844Y0063979D01*
X0174868Y0063974D01*
X0174891Y0063970D01*
X0173512Y0061283D02*
X0173400Y0061167D01*
X0173288Y0061052D01*
X0173176Y0060936D01*
X0173064Y0060821D01*
X0172952Y0060705D01*
X0172840Y0060590D01*
X0172728Y0060475D01*
X0172616Y0060359D01*
X0172037Y0060356D01*
X0170880Y0060351D01*
X0170302Y0060348D01*
X0169723Y0060345D01*
X0169145Y0060342D01*
X0168567Y0060339D01*
X0167988Y0060337D01*
X0168031Y0060014D01*
X0168072Y0059691D01*
X0168112Y0059367D01*
X0168152Y0059044D01*
X0168191Y0058720D01*
X0168228Y0058395D01*
X0168265Y0058071D01*
X0168301Y0057746D01*
X0168335Y0057420D01*
X0168370Y0057094D01*
X0168403Y0056768D01*
X0168465Y0056114D01*
X0168495Y0055787D01*
X0168523Y0055459D01*
X0168551Y0055130D01*
X0168577Y0054801D01*
X0168602Y0054471D01*
X0168627Y0054141D01*
X0168649Y0053811D01*
X0168670Y0053479D01*
X0168691Y0053148D01*
X0168710Y0052815D01*
X0168727Y0052482D01*
X0168737Y0052516D01*
X0168742Y0052534D01*
X0168747Y0052551D01*
X0168752Y0052568D01*
X0168756Y0052586D01*
X0168766Y0052620D01*
X0168767Y0052534D01*
X0168769Y0052361D01*
X0168770Y0052274D01*
X0168770Y0052187D01*
X0168772Y0052014D01*
X0168773Y0051928D01*
X0168786Y0051882D01*
X0168809Y0051833D01*
X0168868Y0051731D01*
X0168905Y0051678D01*
X0168947Y0051623D01*
X0168990Y0051568D01*
X0169037Y0051511D01*
X0169139Y0051398D01*
X0169194Y0051340D01*
X0169250Y0051284D01*
X0169306Y0051227D01*
X0169363Y0051171D01*
X0169420Y0051117D01*
X0169477Y0051063D01*
X0169533Y0051010D01*
X0169641Y0050910D01*
X0169692Y0050863D01*
X0169740Y0050819D01*
X0169787Y0050775D01*
X0169830Y0050735D01*
X0169866Y0050699D01*
X0169918Y0050649D01*
X0169969Y0050598D01*
X0170021Y0050546D01*
X0170072Y0050494D01*
X0170123Y0050442D01*
X0170174Y0050389D01*
X0170226Y0050337D01*
X0170277Y0050284D01*
X0170328Y0050231D01*
X0170379Y0050178D01*
X0170430Y0050126D01*
X0170481Y0050074D01*
X0170533Y0050021D01*
X0170584Y0049970D01*
X0170635Y0049919D01*
X0170686Y0049869D01*
X0170738Y0049819D01*
X0170789Y0049770D01*
X0170841Y0049721D01*
X0170893Y0049674D01*
X0170944Y0049629D01*
X0170996Y0049583D01*
X0171049Y0049539D01*
X0171101Y0049497D01*
X0171102Y0049148D01*
X0171103Y0048798D01*
X0171109Y0047049D01*
X0171111Y0046699D01*
X0171138Y0046669D01*
X0171171Y0046635D01*
X0171207Y0046597D01*
X0171242Y0046558D01*
X0171282Y0046517D01*
X0171323Y0046473D01*
X0171365Y0046429D01*
X0171409Y0046383D01*
X0171454Y0046335D01*
X0171499Y0046288D01*
X0171545Y0046240D01*
X0171592Y0046193D01*
X0171638Y0046145D01*
X0171685Y0046098D01*
X0171731Y0046052D01*
X0171776Y0046006D01*
X0171820Y0045962D01*
X0171863Y0045921D01*
X0171905Y0045880D01*
X0171945Y0045842D01*
X0172019Y0045774D01*
X0172052Y0045745D01*
X0172082Y0045721D01*
X0172092Y0045712D01*
X0172102Y0045704D01*
X0172112Y0045696D01*
X0172122Y0045689D01*
X0172132Y0045681D01*
X0172142Y0045675D01*
X0172152Y0045668D01*
X0172162Y0045661D01*
X0172171Y0045655D01*
X0172181Y0045649D01*
X0172190Y0045643D01*
X0172200Y0045638D01*
X0172209Y0045632D01*
X0172218Y0045627D01*
X0172228Y0045622D01*
X0172237Y0045617D01*
X0172246Y0045613D01*
X0172264Y0045604D01*
X0172273Y0045600D01*
X0172282Y0045596D01*
X0172291Y0045593D01*
X0172300Y0045589D01*
X0172308Y0045586D01*
X0172317Y0045588D01*
X0172325Y0045589D01*
X0172334Y0045591D01*
X0172342Y0045593D01*
X0172350Y0045594D01*
X0172359Y0045596D01*
X0172367Y0045597D01*
X0172376Y0045598D01*
X0172384Y0045600D01*
X0172393Y0045601D01*
X0172401Y0045602D01*
X0172410Y0045603D01*
X0172419Y0045604D01*
X0172427Y0045604D01*
X0172436Y0045605D01*
X0172444Y0045606D01*
X0172453Y0045606D01*
X0172462Y0045607D01*
X0172470Y0045607D01*
X0172479Y0045608D01*
X0172488Y0045608D01*
X0172497Y0045608D01*
X0172506Y0045608D01*
X0172514Y0045608D01*
X0172561Y0045609D01*
X0172606Y0045605D01*
X0172651Y0045599D01*
X0172695Y0045593D01*
X0172739Y0045584D01*
X0172781Y0045573D01*
X0172824Y0045561D01*
X0172865Y0045546D01*
X0172905Y0045529D01*
X0172945Y0045512D01*
X0172984Y0045492D01*
X0173058Y0045448D01*
X0173093Y0045424D01*
X0173127Y0045397D01*
X0173161Y0045371D01*
X0173193Y0045342D01*
X0173223Y0045311D01*
X0173252Y0045281D01*
X0173280Y0045248D01*
X0173306Y0045214D01*
X0173332Y0045179D01*
X0173355Y0045143D01*
X0173377Y0045106D01*
X0173410Y0045105D01*
X0173444Y0045105D01*
X0173478Y0045105D01*
X0173512Y0045105D01*
X0173546Y0045105D01*
X0173580Y0045105D01*
X0173614Y0045105D01*
X0173648Y0045105D01*
X0173701Y0045203D01*
X0173755Y0045300D01*
X0173809Y0045398D01*
X0173862Y0045495D01*
X0173916Y0045593D01*
X0173969Y0045690D01*
X0174023Y0045787D01*
X0174077Y0045884D01*
X0174130Y0045981D01*
X0174184Y0046078D01*
X0174237Y0046175D01*
X0174291Y0046272D01*
X0174344Y0046369D01*
X0174398Y0046466D01*
X0174451Y0046562D01*
X0174505Y0046659D01*
X0174558Y0046755D01*
X0174612Y0046851D01*
X0174665Y0046948D01*
X0174718Y0047044D01*
X0174825Y0047236D01*
X0174878Y0047331D01*
X0174931Y0047427D01*
X0174905Y0047427D01*
X0174854Y0047427D01*
X0174803Y0047427D01*
X0174752Y0047427D01*
X0174726Y0047427D01*
X0174705Y0047390D01*
X0174681Y0047354D01*
X0174630Y0047287D01*
X0174602Y0047255D01*
X0174573Y0047225D01*
X0174543Y0047195D01*
X0174512Y0047167D01*
X0174478Y0047140D01*
X0174445Y0047114D01*
X0174410Y0047090D01*
X0174373Y0047069D01*
X0174337Y0047047D01*
X0174298Y0047027D01*
X0174259Y0047010D01*
X0174220Y0046993D01*
X0174179Y0046979D01*
X0174137Y0046967D01*
X0174095Y0046955D01*
X0174052Y0046946D01*
X0174008Y0046940D01*
X0173964Y0046934D01*
X0173919Y0046931D01*
X0173874Y0046931D01*
X0173806Y0046931D01*
X0173739Y0046937D01*
X0173675Y0046950D01*
X0173611Y0046963D01*
X0173549Y0046982D01*
X0173490Y0047007D01*
X0173431Y0047032D01*
X0173375Y0047062D01*
X0173322Y0047097D01*
X0173270Y0047133D01*
X0173221Y0047173D01*
X0173176Y0047217D01*
X0173132Y0047262D01*
X0173091Y0047310D01*
X0173056Y0047363D01*
X0173020Y0047415D01*
X0172989Y0047471D01*
X0172964Y0047530D01*
X0172939Y0047588D01*
X0172920Y0047650D01*
X0172906Y0047714D01*
X0172893Y0047778D01*
X0172886Y0047845D01*
X0172885Y0047981D01*
X0172892Y0048047D01*
X0172905Y0048111D01*
X0172918Y0048175D01*
X0172937Y0048237D01*
X0172962Y0048296D01*
X0172987Y0048355D01*
X0173017Y0048412D01*
X0173052Y0048464D01*
X0173088Y0048517D01*
X0173128Y0048566D01*
X0173172Y0048610D01*
X0173216Y0048655D01*
X0173265Y0048695D01*
X0173317Y0048731D01*
X0173370Y0048766D01*
X0173426Y0048797D01*
X0173484Y0048822D01*
X0173543Y0048847D01*
X0173605Y0048867D01*
X0173669Y0048880D01*
X0173733Y0048893D01*
X0173800Y0048901D01*
X0173868Y0048901D01*
X0173914Y0048901D01*
X0173960Y0048898D01*
X0174005Y0048892D01*
X0174049Y0048886D01*
X0174093Y0048877D01*
X0174136Y0048865D01*
X0174178Y0048853D01*
X0174220Y0048838D01*
X0174260Y0048821D01*
X0174300Y0048803D01*
X0174339Y0048784D01*
X0174376Y0048761D01*
X0174413Y0048739D01*
X0174449Y0048715D01*
X0174483Y0048688D01*
X0174516Y0048661D01*
X0174548Y0048632D01*
X0174578Y0048601D01*
X0174608Y0048570D01*
X0174636Y0048537D01*
X0174662Y0048503D01*
X0174688Y0048468D01*
X0174711Y0048432D01*
X0174732Y0048394D01*
X0174735Y0048392D01*
X0174738Y0048390D01*
X0174740Y0048389D01*
X0174743Y0048387D01*
X0174746Y0048385D01*
X0174749Y0048383D01*
X0174751Y0048382D01*
X0174754Y0048380D01*
X0174757Y0048378D01*
X0174763Y0048375D01*
X0174765Y0048373D01*
X0174768Y0048371D01*
X0174771Y0048370D01*
X0174774Y0048368D01*
X0174777Y0048366D01*
X0174780Y0048364D01*
X0174783Y0048363D01*
X0174785Y0048361D01*
X0174788Y0048359D01*
X0174791Y0048358D01*
X0174794Y0048356D01*
X0174797Y0048354D01*
X0174800Y0048353D01*
X0174881Y0048353D01*
X0174961Y0048353D01*
X0175123Y0048354D01*
X0175203Y0048354D01*
X0175284Y0048354D01*
X0175365Y0048355D01*
X0175445Y0048355D01*
X0175554Y0048551D01*
X0175608Y0048648D01*
X0175662Y0048746D01*
X0175715Y0048844D01*
X0175769Y0048941D01*
X0175823Y0049038D01*
X0175877Y0049136D01*
X0175983Y0049329D01*
X0176037Y0049426D01*
X0176090Y0049523D01*
X0176143Y0049619D01*
X0176196Y0049716D01*
X0176249Y0049812D01*
X0176301Y0049909D01*
X0176354Y0050005D01*
X0176406Y0050101D01*
X0176459Y0050197D01*
X0176511Y0050292D01*
X0176563Y0050388D01*
X0176615Y0050483D01*
X0176667Y0050579D01*
X0176719Y0050674D01*
X0176705Y0050674D01*
X0176692Y0050674D01*
X0176678Y0050673D01*
X0176665Y0050673D01*
X0176651Y0050673D01*
X0176624Y0050672D01*
X0176611Y0050672D01*
X0176590Y0050634D01*
X0176567Y0050597D01*
X0176541Y0050562D01*
X0176516Y0050528D01*
X0176488Y0050494D01*
X0176428Y0050432D01*
X0176397Y0050403D01*
X0176363Y0050376D01*
X0176329Y0050349D01*
X0176294Y0050324D01*
X0176257Y0050301D01*
X0176220Y0050279D01*
X0176181Y0050258D01*
X0176141Y0050241D01*
X0176101Y0050223D01*
X0176060Y0050208D01*
X0176017Y0050196D01*
X0175974Y0050184D01*
X0175931Y0050174D01*
X0175886Y0050168D01*
X0175841Y0050162D01*
X0175795Y0050158D01*
X0175749Y0050158D01*
X0175711Y0050158D01*
X0175675Y0050160D01*
X0175639Y0050164D01*
X0175603Y0050168D01*
X0175568Y0050174D01*
X0175533Y0050181D01*
X0175498Y0050189D01*
X0175464Y0050198D01*
X0175431Y0050210D01*
X0175397Y0050221D01*
X0175365Y0050234D01*
X0175333Y0050248D01*
X0175302Y0050263D01*
X0175271Y0050279D01*
X0175241Y0050297D01*
X0175212Y0050315D01*
X0175183Y0050334D01*
X0175155Y0050355D01*
X0175128Y0050375D01*
X0175101Y0050397D01*
X0175076Y0050421D01*
X0175051Y0050444D01*
X0175027Y0050469D01*
X0175004Y0050495D01*
X0175002Y0050497D01*
X0175001Y0050499D01*
X0174999Y0050501D01*
X0174997Y0050503D01*
X0174995Y0050505D01*
X0174993Y0050507D01*
X0174992Y0050509D01*
X0174990Y0050511D01*
X0174989Y0050512D01*
X0174988Y0050513D01*
X0174988Y0050514D01*
X0174987Y0050515D01*
X0174986Y0050516D01*
X0174985Y0050517D01*
X0174984Y0050518D01*
X0174981Y0050522D01*
X0174978Y0050526D01*
X0174975Y0050529D01*
X0174972Y0050533D01*
X0174969Y0050537D01*
X0174967Y0050541D01*
X0174964Y0050544D01*
X0174961Y0050548D01*
X0174945Y0050569D01*
X0174930Y0050590D01*
X0174916Y0050612D01*
X0174902Y0050633D01*
X0174889Y0050656D01*
X0174877Y0050679D01*
X0174865Y0050702D01*
X0174853Y0050725D01*
X0174843Y0050749D01*
X0174832Y0050773D01*
X0174823Y0050797D01*
X0174814Y0050822D01*
X0174805Y0050847D01*
X0174798Y0050873D01*
X0174791Y0050899D01*
X0174785Y0050924D01*
X0174779Y0050950D01*
X0174775Y0050977D01*
X0174770Y0051004D01*
X0174766Y0051030D01*
X0174764Y0051058D01*
X0174762Y0051085D01*
X0174761Y0051113D01*
X0174761Y0051140D01*
X0174760Y0051208D01*
X0174767Y0051275D01*
X0174780Y0051339D01*
X0174793Y0051403D01*
X0174812Y0051465D01*
X0174837Y0051524D01*
X0174861Y0051583D01*
X0174892Y0051639D01*
X0174927Y0051691D01*
X0174962Y0051744D01*
X0175002Y0051793D01*
X0175047Y0051837D01*
X0175091Y0051882D01*
X0175140Y0051923D01*
X0175192Y0051958D01*
X0175245Y0051994D01*
X0175301Y0052024D01*
X0175418Y0052075D01*
X0175480Y0052094D01*
X0175544Y0052107D01*
X0175608Y0052121D01*
X0175675Y0052128D01*
X0175743Y0052128D01*
X0175791Y0052128D01*
X0175838Y0052125D01*
X0175930Y0052112D01*
X0175975Y0052102D01*
X0176063Y0052077D01*
X0176106Y0052062D01*
X0176147Y0052043D01*
X0176188Y0052025D01*
X0176228Y0052004D01*
X0176265Y0051980D01*
X0176303Y0051956D01*
X0176340Y0051930D01*
X0176374Y0051902D01*
X0176408Y0051874D01*
X0176440Y0051843D01*
X0176501Y0051778D01*
X0176529Y0051743D01*
X0176554Y0051706D01*
X0176580Y0051670D01*
X0176603Y0051631D01*
X0176623Y0051591D01*
X0176650Y0051583D01*
X0176677Y0051574D01*
X0176704Y0051566D01*
X0176730Y0051557D01*
X0176757Y0051548D01*
X0176810Y0051531D01*
X0176837Y0051523D01*
X0176844Y0051522D01*
X0176853Y0051521D01*
X0176863Y0051521D01*
X0176874Y0051521D01*
X0176885Y0051521D01*
X0176898Y0051521D01*
X0176911Y0051520D01*
X0176925Y0051521D01*
X0176940Y0051521D01*
X0176955Y0051521D01*
X0176970Y0051521D01*
X0176986Y0051521D01*
X0177002Y0051522D01*
X0177019Y0051522D01*
X0177035Y0051523D01*
X0177052Y0051523D01*
X0177068Y0051524D01*
X0177085Y0051524D01*
X0177101Y0051525D01*
X0177117Y0051525D01*
X0177133Y0051526D01*
X0177149Y0051526D01*
X0177164Y0051527D01*
X0177178Y0051527D01*
X0177253Y0051667D01*
X0177328Y0051808D01*
X0177402Y0051947D01*
X0177475Y0052087D01*
X0177549Y0052226D01*
X0177694Y0052503D01*
X0177766Y0052641D01*
X0177838Y0052779D01*
X0177909Y0052917D01*
X0177980Y0053054D01*
X0178050Y0053191D01*
X0178120Y0053327D01*
X0178189Y0053463D01*
X0178258Y0053599D01*
X0178326Y0053735D01*
X0178394Y0053870D01*
X0178461Y0054005D01*
X0178528Y0054139D01*
X0178595Y0054273D01*
X0178660Y0054407D01*
X0178726Y0054541D01*
X0178790Y0054674D01*
X0178854Y0054806D01*
X0178709Y0054802D01*
X0178584Y0054799D01*
X0178474Y0054800D01*
X0178364Y0054800D01*
X0178270Y0054804D01*
X0178187Y0054812D01*
X0178104Y0054820D01*
X0178032Y0054833D01*
X0177903Y0054869D01*
X0177844Y0054893D01*
X0177789Y0054923D01*
X0177734Y0054954D01*
X0177681Y0054991D01*
X0177626Y0055036D01*
X0177572Y0055081D01*
X0177515Y0055134D01*
X0177453Y0055196D01*
X0177390Y0055258D01*
X0177322Y0055329D01*
X0177243Y0055411D01*
X0177164Y0055493D01*
X0177075Y0055584D01*
X0176971Y0055688D01*
X0176620Y0056040D01*
X0176270Y0056392D01*
X0175919Y0056744D01*
X0175569Y0057096D01*
X0175219Y0057448D01*
X0174868Y0057800D01*
X0174518Y0058152D01*
X0174167Y0058504D01*
X0173934Y0058504D01*
X0173702Y0058505D01*
X0173469Y0058505D01*
X0173236Y0058505D01*
X0173003Y0058506D01*
X0172770Y0058506D01*
X0172537Y0058507D01*
X0172305Y0058507D01*
X0172263Y0058488D01*
X0172206Y0058451D01*
X0172139Y0058401D01*
X0172072Y0058351D01*
X0171994Y0058288D01*
X0171911Y0058215D01*
X0171827Y0058142D01*
X0171737Y0058060D01*
X0171645Y0057973D01*
X0171552Y0057885D01*
X0171458Y0057792D01*
X0171365Y0057698D01*
X0171273Y0057604D01*
X0171182Y0057508D01*
X0171013Y0057322D01*
X0170934Y0057232D01*
X0170865Y0057148D01*
X0170797Y0057065D01*
X0170738Y0056988D01*
X0170693Y0056921D01*
X0170649Y0056855D01*
X0170618Y0056799D01*
X0170606Y0056758D01*
X0170607Y0056388D01*
X0170608Y0056018D01*
X0170609Y0055648D01*
X0170610Y0055278D01*
X0170611Y0054908D01*
X0170612Y0054538D01*
X0170613Y0054168D01*
X0170614Y0053798D01*
X0170651Y0053777D01*
X0170686Y0053753D01*
X0170720Y0053728D01*
X0170754Y0053702D01*
X0170786Y0053674D01*
X0170816Y0053645D01*
X0170846Y0053615D01*
X0170874Y0053584D01*
X0170901Y0053550D01*
X0170927Y0053517D01*
X0170951Y0053482D01*
X0170972Y0053445D01*
X0170994Y0053409D01*
X0171014Y0053371D01*
X0171031Y0053331D01*
X0171048Y0053292D01*
X0171062Y0053251D01*
X0171074Y0053209D01*
X0171085Y0053167D01*
X0171094Y0053124D01*
X0171101Y0053080D01*
X0171107Y0053036D01*
X0171110Y0052992D01*
X0171110Y0052946D01*
X0171111Y0052878D01*
X0171104Y0052812D01*
X0171091Y0052747D01*
X0171078Y0052683D01*
X0171059Y0052621D01*
X0171034Y0052562D01*
X0171009Y0052503D01*
X0170979Y0052447D01*
X0170944Y0052395D01*
X0170908Y0052342D01*
X0170868Y0052293D01*
X0170824Y0052248D01*
X0170779Y0052204D01*
X0170731Y0052163D01*
X0170679Y0052128D01*
X0170626Y0052092D01*
X0170570Y0052062D01*
X0170511Y0052036D01*
X0170452Y0052011D01*
X0170391Y0051992D01*
X0170327Y0051978D01*
X0170263Y0051965D01*
X0170196Y0051958D01*
X0170128Y0051958D01*
X0170060Y0051957D01*
X0169994Y0051964D01*
X0169930Y0051977D01*
X0169865Y0051990D01*
X0169804Y0052009D01*
X0169745Y0052034D01*
X0169685Y0052059D01*
X0169629Y0052089D01*
X0169577Y0052124D01*
X0169525Y0052160D01*
X0169475Y0052200D01*
X0169431Y0052244D01*
X0169386Y0052289D01*
X0169346Y0052337D01*
X0169310Y0052389D01*
X0169274Y0052442D01*
X0169244Y0052498D01*
X0169219Y0052557D01*
X0169194Y0052616D01*
X0169174Y0052677D01*
X0169161Y0052741D01*
X0169147Y0052805D01*
X0169140Y0052872D01*
X0169140Y0052940D01*
X0169140Y0052989D01*
X0169144Y0053038D01*
X0169150Y0053085D01*
X0169157Y0053132D01*
X0169168Y0053178D01*
X0169181Y0053223D01*
X0169194Y0053268D01*
X0169210Y0053312D01*
X0169230Y0053354D01*
X0169249Y0053396D01*
X0169271Y0053436D01*
X0169296Y0053475D01*
X0169321Y0053513D01*
X0169348Y0053550D01*
X0169378Y0053585D01*
X0169408Y0053619D01*
X0169440Y0053652D01*
X0169474Y0053682D01*
X0169508Y0053712D01*
X0169545Y0053740D01*
X0169583Y0053765D01*
X0169621Y0053791D01*
X0169661Y0053813D01*
X0169703Y0053833D01*
X0169702Y0054279D01*
X0169702Y0054726D01*
X0169701Y0055172D01*
X0169700Y0055619D01*
X0169699Y0056066D01*
X0169699Y0056512D01*
X0169698Y0056958D01*
X0169697Y0057405D01*
X0169956Y0057657D01*
X0170214Y0057909D01*
X0170472Y0058161D01*
X0170989Y0058664D01*
X0171247Y0058916D01*
X0171505Y0059168D01*
X0171763Y0059420D01*
X0172100Y0059422D01*
X0172437Y0059424D01*
X0172774Y0059426D01*
X0173111Y0059428D01*
X0173447Y0059430D01*
X0173784Y0059432D01*
X0174121Y0059434D01*
X0174458Y0059436D01*
X0174919Y0058977D01*
X0175843Y0058060D01*
X0176304Y0057601D01*
X0176766Y0057142D01*
X0177689Y0056225D01*
X0178151Y0055766D01*
X0178295Y0055766D01*
X0179305Y0055766D01*
X0179320Y0055798D01*
X0179334Y0055831D01*
X0179349Y0055863D01*
X0179364Y0055895D01*
X0179378Y0055927D01*
X0179407Y0055991D01*
X0179421Y0056023D01*
X0179436Y0056055D01*
X0179450Y0056087D01*
X0179465Y0056119D01*
X0179479Y0056151D01*
X0179493Y0056183D01*
X0179507Y0056215D01*
X0179521Y0056247D01*
X0179535Y0056279D01*
X0179549Y0056310D01*
X0179563Y0056342D01*
X0179578Y0056374D01*
X0179591Y0056406D01*
X0179605Y0056438D01*
X0179619Y0056469D01*
X0179633Y0056501D01*
X0179647Y0056533D01*
X0179692Y0056621D01*
X0179737Y0056710D01*
X0179780Y0056799D01*
X0179824Y0056888D01*
X0179866Y0056978D01*
X0179908Y0057067D01*
X0179950Y0057157D01*
X0179991Y0057247D01*
X0180030Y0057336D01*
X0180070Y0057426D01*
X0180109Y0057517D01*
X0180184Y0057697D01*
X0180221Y0057788D01*
X0180257Y0057878D01*
X0180293Y0057969D01*
X0180328Y0058060D01*
X0180362Y0058150D01*
X0180396Y0058241D01*
X0180429Y0058332D01*
X0180461Y0058424D01*
X0180493Y0058515D01*
X0180525Y0058606D01*
X0180555Y0058698D01*
X0180326Y0058697D01*
X0180096Y0058697D01*
X0179866Y0058696D01*
X0179637Y0058695D01*
X0179407Y0058695D01*
X0179178Y0058694D01*
X0178948Y0058693D01*
X0178718Y0058693D01*
X0178717Y0058692D01*
X0178714Y0058689D01*
X0178712Y0058688D01*
X0178711Y0058687D01*
X0178710Y0058686D01*
X0178708Y0058685D01*
X0178707Y0058684D01*
X0178686Y0058645D01*
X0178663Y0058608D01*
X0178637Y0058573D01*
X0178612Y0058538D01*
X0178584Y0058505D01*
X0178524Y0058442D01*
X0178492Y0058413D01*
X0178459Y0058385D01*
X0178425Y0058358D01*
X0178389Y0058333D01*
X0178352Y0058310D01*
X0178315Y0058288D01*
X0178276Y0058267D01*
X0178236Y0058250D01*
X0178196Y0058232D01*
X0178154Y0058217D01*
X0178112Y0058205D01*
X0178069Y0058192D01*
X0178025Y0058183D01*
X0177980Y0058176D01*
X0177935Y0058170D01*
X0177889Y0058167D01*
X0177843Y0058167D01*
X0177775Y0058166D01*
X0177708Y0058173D01*
X0177644Y0058186D01*
X0177580Y0058199D01*
X0177518Y0058218D01*
X0177459Y0058243D01*
X0177400Y0058268D01*
X0177344Y0058298D01*
X0177291Y0058333D01*
X0177239Y0058368D01*
X0177190Y0058408D01*
X0177145Y0058453D01*
X0177100Y0058497D01*
X0177060Y0058546D01*
X0177024Y0058598D01*
X0176989Y0058650D01*
X0176958Y0058706D01*
X0176933Y0058765D01*
X0176908Y0058824D01*
X0176889Y0058886D01*
X0176875Y0058950D01*
X0176862Y0059014D01*
X0176855Y0059081D01*
X0176855Y0059149D01*
X0176854Y0059217D01*
X0176861Y0059283D01*
X0176874Y0059347D01*
X0176887Y0059411D01*
X0176906Y0059473D01*
X0176931Y0059532D01*
X0176955Y0059591D01*
X0176986Y0059647D01*
X0177021Y0059700D01*
X0177056Y0059752D01*
X0177096Y0059801D01*
X0177141Y0059846D01*
X0177185Y0059890D01*
X0177234Y0059931D01*
X0177286Y0059967D01*
X0177339Y0060002D01*
X0177395Y0060033D01*
X0177453Y0060058D01*
X0177512Y0060083D01*
X0177574Y0060102D01*
X0177638Y0060116D01*
X0177702Y0060129D01*
X0177768Y0060136D01*
X0177836Y0060136D01*
X0177883Y0060136D01*
X0177929Y0060133D01*
X0177973Y0060127D01*
X0178018Y0060121D01*
X0178062Y0060112D01*
X0178147Y0060089D01*
X0178188Y0060074D01*
X0178228Y0060057D01*
X0178268Y0060040D01*
X0178307Y0060020D01*
X0178381Y0059975D01*
X0178417Y0059951D01*
X0178451Y0059924D01*
X0178484Y0059897D01*
X0178516Y0059869D01*
X0178546Y0059838D01*
X0178576Y0059807D01*
X0178604Y0059774D01*
X0178630Y0059740D01*
X0178655Y0059705D01*
X0178679Y0059669D01*
X0178700Y0059631D01*
X0178702Y0059629D01*
X0178704Y0059628D01*
X0178706Y0059627D01*
X0178708Y0059625D01*
X0178710Y0059624D01*
X0178712Y0059622D01*
X0178714Y0059621D01*
X0178715Y0059619D01*
X0178980Y0059620D01*
X0179245Y0059621D01*
X0179509Y0059621D01*
X0179774Y0059622D01*
X0180038Y0059623D01*
X0180303Y0059623D01*
X0180567Y0059624D01*
X0180832Y0059625D01*
X0180850Y0059693D01*
X0180868Y0059762D01*
X0180885Y0059831D01*
X0180902Y0059899D01*
X0180918Y0059968D01*
X0180934Y0060037D01*
X0180950Y0060106D01*
X0180966Y0060175D01*
X0180981Y0060244D01*
X0180996Y0060313D01*
X0181011Y0060382D01*
X0181025Y0060451D01*
X0181039Y0060520D01*
X0181052Y0060589D01*
X0181066Y0060658D01*
X0181079Y0060727D01*
X0181091Y0060796D01*
X0181103Y0060865D01*
X0181116Y0060935D01*
X0181127Y0061004D01*
X0181138Y0061073D01*
X0181150Y0061142D01*
X0181160Y0061211D01*
X0181171Y0061280D01*
X0180213Y0061281D01*
X0177341Y0061282D01*
X0176384Y0061282D01*
X0173512Y0061283D01*
X0172613Y0057148D02*
X0172647Y0057140D01*
X0172681Y0057131D01*
X0172714Y0057120D01*
X0172747Y0057109D01*
X0172780Y0057096D01*
X0172811Y0057082D01*
X0172842Y0057067D01*
X0172873Y0057051D01*
X0172902Y0057034D01*
X0172932Y0057016D01*
X0172960Y0056997D01*
X0172988Y0056977D01*
X0173015Y0056957D01*
X0173041Y0056935D01*
X0173067Y0056912D01*
X0173092Y0056889D01*
X0173116Y0056864D01*
X0173138Y0056839D01*
X0173150Y0056827D01*
X0173161Y0056815D01*
X0173172Y0056803D01*
X0173183Y0056791D01*
X0173193Y0056778D01*
X0173203Y0056765D01*
X0173213Y0056752D01*
X0173223Y0056739D01*
X0173232Y0056725D01*
X0173241Y0056711D01*
X0173250Y0056697D01*
X0173259Y0056683D01*
X0173267Y0056668D01*
X0173275Y0056654D01*
X0173283Y0056638D01*
X0173290Y0056623D01*
X0173297Y0056608D01*
X0173304Y0056592D01*
X0173310Y0056576D01*
X0173317Y0056560D01*
X0173322Y0056543D01*
X0173328Y0056527D01*
X0173333Y0056510D01*
X0173337Y0056493D01*
X0173341Y0056481D01*
X0173345Y0056469D01*
X0173348Y0056457D01*
X0173352Y0056444D01*
X0173355Y0056432D01*
X0173358Y0056420D01*
X0173361Y0056408D01*
X0173364Y0056395D01*
X0173367Y0056383D01*
X0173369Y0056370D01*
X0173371Y0056357D01*
X0173374Y0056345D01*
X0173376Y0056332D01*
X0173377Y0056319D01*
X0173379Y0056306D01*
X0173381Y0056293D01*
X0173382Y0056281D01*
X0173383Y0056267D01*
X0173384Y0056254D01*
X0173385Y0056241D01*
X0173386Y0056228D01*
X0173386Y0056215D01*
X0173386Y0056202D01*
X0173386Y0056188D01*
X0173387Y0056147D01*
X0173384Y0056107D01*
X0173379Y0056067D01*
X0173375Y0056028D01*
X0173368Y0055989D01*
X0173358Y0055951D01*
X0173349Y0055913D01*
X0173338Y0055876D01*
X0173324Y0055839D01*
X0173310Y0055803D01*
X0173295Y0055768D01*
X0173277Y0055734D01*
X0173259Y0055700D01*
X0173240Y0055667D01*
X0173219Y0055636D01*
X0173197Y0055604D01*
X0173174Y0055574D01*
X0173150Y0055545D01*
X0173125Y0055516D01*
X0173099Y0055489D01*
X0173071Y0055463D01*
X0173043Y0055437D01*
X0173013Y0055413D01*
X0172983Y0055390D01*
X0172981Y0055388D01*
X0172979Y0055385D01*
X0172976Y0055383D01*
X0172974Y0055380D01*
X0172970Y0055375D01*
X0172968Y0055372D01*
X0172966Y0055370D01*
X0172964Y0055367D01*
X0172961Y0055365D01*
X0172959Y0055362D01*
X0172955Y0055357D01*
X0172953Y0055354D01*
X0172951Y0055352D01*
X0172949Y0055349D01*
X0172945Y0055344D01*
X0172943Y0055341D01*
X0172941Y0055339D01*
X0172939Y0055336D01*
X0172937Y0055334D01*
X0172935Y0055331D01*
X0172933Y0055328D01*
X0172934Y0054906D01*
X0172934Y0054483D01*
X0172935Y0054060D01*
X0172936Y0053637D01*
X0172937Y0053214D01*
X0172938Y0052792D01*
X0172938Y0052369D01*
X0172939Y0051946D01*
X0172952Y0051938D01*
X0172964Y0051929D01*
X0172976Y0051921D01*
X0172989Y0051912D01*
X0173001Y0051903D01*
X0173024Y0051884D01*
X0173036Y0051875D01*
X0173047Y0051865D01*
X0173058Y0051855D01*
X0173070Y0051845D01*
X0173080Y0051835D01*
X0173091Y0051825D01*
X0173102Y0051814D01*
X0173112Y0051803D01*
X0173123Y0051793D01*
X0173133Y0051782D01*
X0173143Y0051770D01*
X0173153Y0051759D01*
X0173162Y0051748D01*
X0173172Y0051736D01*
X0173181Y0051724D01*
X0173190Y0051712D01*
X0173199Y0051700D01*
X0173218Y0051678D01*
X0173235Y0051654D01*
X0173251Y0051630D01*
X0173268Y0051605D01*
X0173283Y0051579D01*
X0173297Y0051552D01*
X0173311Y0051526D01*
X0173324Y0051497D01*
X0173335Y0051468D01*
X0173347Y0051439D01*
X0173357Y0051408D01*
X0173373Y0051344D01*
X0173380Y0051311D01*
X0173385Y0051276D01*
X0173389Y0051241D01*
X0173392Y0051205D01*
X0173393Y0051167D01*
X0173394Y0051129D01*
X0173393Y0051089D01*
X0173386Y0051007D01*
X0173381Y0050964D01*
X0173372Y0050919D01*
X0173371Y0050913D01*
X0173370Y0050907D01*
X0173369Y0050901D01*
X0173367Y0050895D01*
X0173366Y0050889D01*
X0173363Y0050877D01*
X0173361Y0050871D01*
X0173359Y0050865D01*
X0173358Y0050858D01*
X0173356Y0050852D01*
X0173354Y0050846D01*
X0173352Y0050840D01*
X0173350Y0050834D01*
X0173348Y0050828D01*
X0173346Y0050822D01*
X0173343Y0050816D01*
X0173341Y0050809D01*
X0173339Y0050803D01*
X0173336Y0050797D01*
X0173334Y0050791D01*
X0173331Y0050785D01*
X0173329Y0050779D01*
X0173326Y0050773D01*
X0173308Y0050727D01*
X0173288Y0050682D01*
X0173264Y0050639D01*
X0173240Y0050596D01*
X0173213Y0050555D01*
X0173183Y0050517D01*
X0173153Y0050478D01*
X0173120Y0050442D01*
X0173085Y0050408D01*
X0173050Y0050374D01*
X0173012Y0050343D01*
X0172972Y0050315D01*
X0172932Y0050287D01*
X0172890Y0050261D01*
X0172846Y0050239D01*
X0172802Y0050217D01*
X0172756Y0050198D01*
X0172708Y0050183D01*
X0172661Y0050167D01*
X0172612Y0050155D01*
X0172561Y0050147D01*
X0172511Y0050139D01*
X0172459Y0050135D01*
X0172407Y0050134D01*
X0172339Y0050134D01*
X0172272Y0050141D01*
X0172208Y0050154D01*
X0172144Y0050167D01*
X0172082Y0050186D01*
X0172023Y0050211D01*
X0171964Y0050235D01*
X0171908Y0050266D01*
X0171856Y0050301D01*
X0171803Y0050336D01*
X0171754Y0050376D01*
X0171709Y0050421D01*
X0171665Y0050465D01*
X0171624Y0050514D01*
X0171589Y0050566D01*
X0171553Y0050618D01*
X0171522Y0050674D01*
X0171497Y0050733D01*
X0171472Y0050792D01*
X0171453Y0050854D01*
X0171439Y0050918D01*
X0171426Y0050982D01*
X0171419Y0051049D01*
X0171419Y0051116D01*
X0171419Y0051167D01*
X0171422Y0051217D01*
X0171430Y0051266D01*
X0171437Y0051315D01*
X0171448Y0051362D01*
X0171462Y0051409D01*
X0171476Y0051455D01*
X0171493Y0051500D01*
X0171514Y0051543D01*
X0171534Y0051585D01*
X0171558Y0051627D01*
X0171584Y0051666D01*
X0171611Y0051705D01*
X0171640Y0051743D01*
X0171671Y0051778D01*
X0171703Y0051813D01*
X0171737Y0051846D01*
X0171809Y0051906D01*
X0171848Y0051934D01*
X0171888Y0051959D01*
X0171928Y0051984D01*
X0171971Y0052006D01*
X0172015Y0052025D01*
X0172013Y0052432D01*
X0172011Y0053247D01*
X0172010Y0053654D01*
X0172008Y0054061D01*
X0172007Y0054469D01*
X0172006Y0054876D01*
X0172004Y0055284D01*
X0171961Y0055303D01*
X0171920Y0055325D01*
X0171880Y0055350D01*
X0171841Y0055374D01*
X0171803Y0055402D01*
X0171732Y0055462D01*
X0171698Y0055494D01*
X0171667Y0055529D01*
X0171636Y0055564D01*
X0171607Y0055601D01*
X0171581Y0055640D01*
X0171556Y0055678D01*
X0171532Y0055719D01*
X0171512Y0055762D01*
X0171492Y0055804D01*
X0171474Y0055848D01*
X0171460Y0055894D01*
X0171446Y0055939D01*
X0171435Y0055987D01*
X0171428Y0056035D01*
X0171420Y0056083D01*
X0171416Y0056132D01*
X0171416Y0056182D01*
X0171416Y0056250D01*
X0171423Y0056317D01*
X0171436Y0056381D01*
X0171449Y0056445D01*
X0171468Y0056507D01*
X0171493Y0056566D01*
X0171517Y0056625D01*
X0171548Y0056681D01*
X0171583Y0056734D01*
X0171618Y0056786D01*
X0171658Y0056835D01*
X0171703Y0056880D01*
X0171747Y0056924D01*
X0171796Y0056965D01*
X0171848Y0057000D01*
X0171900Y0057036D01*
X0171956Y0057067D01*
X0172015Y0057092D01*
X0172074Y0057117D01*
X0172136Y0057137D01*
X0172200Y0057150D01*
X0172264Y0057163D01*
X0172330Y0057170D01*
X0172398Y0057171D01*
X0172435Y0057171D01*
X0172472Y0057169D01*
X0172507Y0057165D01*
X0172543Y0057161D01*
X0172578Y0057156D01*
X0172613Y0057148D01*
X0172485Y0056535D02*
X0172508Y0056530D01*
X0172531Y0056523D01*
X0172553Y0056514D01*
X0172574Y0056505D01*
X0172595Y0056494D01*
X0172614Y0056481D01*
X0172633Y0056468D01*
X0172651Y0056454D01*
X0172668Y0056437D01*
X0172684Y0056421D01*
X0172699Y0056403D01*
X0172712Y0056384D01*
X0172725Y0056365D01*
X0172736Y0056344D01*
X0172745Y0056323D01*
X0172755Y0056301D01*
X0172762Y0056279D01*
X0172767Y0056255D01*
X0172772Y0056232D01*
X0172774Y0056207D01*
X0172774Y0056183D01*
X0172774Y0056158D01*
X0172772Y0056133D01*
X0172767Y0056110D01*
X0172762Y0056086D01*
X0172755Y0056064D01*
X0172746Y0056042D01*
X0172737Y0056020D01*
X0172726Y0056000D01*
X0172713Y0055980D01*
X0172700Y0055961D01*
X0172686Y0055943D01*
X0172669Y0055927D01*
X0172653Y0055910D01*
X0172635Y0055896D01*
X0172616Y0055883D01*
X0172597Y0055870D01*
X0172576Y0055859D01*
X0172555Y0055849D01*
X0172533Y0055840D01*
X0172510Y0055833D01*
X0172487Y0055828D01*
X0172464Y0055823D01*
X0172439Y0055820D01*
X0172389Y0055820D01*
X0172365Y0055823D01*
X0172318Y0055832D01*
X0172295Y0055839D01*
X0172274Y0055848D01*
X0172252Y0055857D01*
X0172232Y0055869D01*
X0172212Y0055882D01*
X0172193Y0055894D01*
X0172175Y0055909D01*
X0172142Y0055942D01*
X0172128Y0055960D01*
X0172115Y0055979D01*
X0172102Y0055998D01*
X0172090Y0056018D01*
X0172081Y0056040D01*
X0172072Y0056062D01*
X0172065Y0056084D01*
X0172060Y0056108D01*
X0172055Y0056131D01*
X0172052Y0056155D01*
X0172052Y0056180D01*
X0172052Y0056205D01*
X0172055Y0056230D01*
X0172059Y0056253D01*
X0172064Y0056277D01*
X0172071Y0056299D01*
X0172080Y0056321D01*
X0172089Y0056342D01*
X0172100Y0056363D01*
X0172113Y0056382D01*
X0172126Y0056402D01*
X0172141Y0056419D01*
X0172157Y0056436D01*
X0172173Y0056452D01*
X0172191Y0056467D01*
X0172211Y0056480D01*
X0172230Y0056493D01*
X0172250Y0056504D01*
X0172272Y0056513D01*
X0172293Y0056523D01*
X0172316Y0056530D01*
X0172339Y0056535D01*
X0172363Y0056540D01*
X0172387Y0056542D01*
X0172412Y0056542D01*
X0172437Y0056543D01*
X0172461Y0056540D01*
X0172485Y0056535D01*
X0174954Y0054520D02*
X0174998Y0054564D01*
X0175043Y0054609D01*
X0175091Y0054649D01*
X0175144Y0054685D01*
X0175196Y0054721D01*
X0175252Y0054751D01*
X0175311Y0054776D01*
X0175370Y0054801D01*
X0175431Y0054821D01*
X0175495Y0054834D01*
X0175559Y0054847D01*
X0175626Y0054855D01*
X0175694Y0054855D01*
X0175762Y0054855D01*
X0175828Y0054848D01*
X0175893Y0054835D01*
X0175957Y0054823D01*
X0176019Y0054803D01*
X0176078Y0054779D01*
X0176137Y0054754D01*
X0176193Y0054724D01*
X0176245Y0054688D01*
X0176298Y0054653D01*
X0176347Y0054613D01*
X0176391Y0054569D01*
X0176436Y0054524D01*
X0176476Y0054475D01*
X0176512Y0054423D01*
X0176548Y0054371D01*
X0176578Y0054315D01*
X0176628Y0054197D01*
X0176648Y0054136D01*
X0176661Y0054071D01*
X0176675Y0054007D01*
X0176682Y0053941D01*
X0176682Y0053805D01*
X0176675Y0053738D01*
X0176662Y0053674D01*
X0176649Y0053610D01*
X0176630Y0053548D01*
X0176606Y0053489D01*
X0176581Y0053430D01*
X0176551Y0053374D01*
X0176515Y0053322D01*
X0176480Y0053269D01*
X0176440Y0053220D01*
X0176396Y0053176D01*
X0176351Y0053131D01*
X0176302Y0053090D01*
X0176250Y0053055D01*
X0176198Y0053019D01*
X0176142Y0052989D01*
X0176083Y0052963D01*
X0176024Y0052938D01*
X0175963Y0052919D01*
X0175899Y0052905D01*
X0175835Y0052892D01*
X0175768Y0052885D01*
X0175700Y0052885D01*
X0175632Y0052884D01*
X0175566Y0052891D01*
X0175502Y0052904D01*
X0175437Y0052917D01*
X0175375Y0052936D01*
X0175316Y0052961D01*
X0175257Y0052986D01*
X0175201Y0053016D01*
X0175149Y0053051D01*
X0175096Y0053087D01*
X0175047Y0053127D01*
X0175002Y0053171D01*
X0174958Y0053215D01*
X0174917Y0053264D01*
X0174882Y0053317D01*
X0174846Y0053369D01*
X0174815Y0053425D01*
X0174790Y0053484D01*
X0174765Y0053542D01*
X0174746Y0053604D01*
X0174732Y0053668D01*
X0174719Y0053732D01*
X0174712Y0053799D01*
X0174712Y0053867D01*
X0174712Y0053935D01*
X0174718Y0054001D01*
X0174731Y0054065D01*
X0174744Y0054129D01*
X0174763Y0054191D01*
X0174788Y0054251D01*
X0174813Y0054309D01*
X0174843Y0054366D01*
X0174878Y0054418D01*
X0174914Y0054471D01*
X0174954Y0054520D01*
X0175436Y0054130D02*
X0175469Y0054163D01*
X0175487Y0054178D01*
X0175506Y0054191D01*
X0175525Y0054204D01*
X0175545Y0054215D01*
X0175589Y0054234D01*
X0175611Y0054241D01*
X0175635Y0054246D01*
X0175658Y0054251D01*
X0175682Y0054253D01*
X0175732Y0054253D01*
X0175757Y0054251D01*
X0175780Y0054246D01*
X0175804Y0054241D01*
X0175826Y0054234D01*
X0175848Y0054225D01*
X0175870Y0054216D01*
X0175890Y0054205D01*
X0175909Y0054192D01*
X0175929Y0054179D01*
X0175946Y0054165D01*
X0175963Y0054148D01*
X0175979Y0054132D01*
X0175994Y0054114D01*
X0176007Y0054095D01*
X0176020Y0054076D01*
X0176031Y0054055D01*
X0176041Y0054034D01*
X0176050Y0054012D01*
X0176057Y0053990D01*
X0176062Y0053966D01*
X0176067Y0053943D01*
X0176069Y0053918D01*
X0176069Y0053894D01*
X0176069Y0053869D01*
X0176067Y0053844D01*
X0176062Y0053821D01*
X0176057Y0053797D01*
X0176050Y0053774D01*
X0176041Y0053753D01*
X0176032Y0053731D01*
X0176021Y0053711D01*
X0176008Y0053691D01*
X0175995Y0053672D01*
X0175981Y0053654D01*
X0175964Y0053638D01*
X0175948Y0053621D01*
X0175930Y0053607D01*
X0175911Y0053594D01*
X0175892Y0053581D01*
X0175872Y0053569D01*
X0175829Y0053551D01*
X0175806Y0053544D01*
X0175782Y0053539D01*
X0175759Y0053534D01*
X0175735Y0053531D01*
X0175685Y0053531D01*
X0175660Y0053534D01*
X0175637Y0053539D01*
X0175613Y0053543D01*
X0175591Y0053550D01*
X0175569Y0053559D01*
X0175547Y0053568D01*
X0175527Y0053580D01*
X0175508Y0053592D01*
X0175489Y0053605D01*
X0175471Y0053620D01*
X0175438Y0053652D01*
X0175423Y0053670D01*
X0175410Y0053690D01*
X0175397Y0053709D01*
X0175386Y0053729D01*
X0175376Y0053751D01*
X0175367Y0053772D01*
X0175360Y0053795D01*
X0175355Y0053818D01*
X0175350Y0053842D01*
X0175348Y0053866D01*
X0175348Y0053891D01*
X0175348Y0053916D01*
X0175350Y0053941D01*
X0175355Y0053964D01*
X0175360Y0053988D01*
X0175367Y0054010D01*
X0175376Y0054032D01*
X0175385Y0054053D01*
X0175396Y0054074D01*
X0175409Y0054093D01*
X0175422Y0054112D01*
X0175436Y0054130D01*
X0175718Y0051500D02*
X0175768Y0051500D01*
X0175792Y0051497D01*
X0175839Y0051488D01*
X0175862Y0051481D01*
X0175883Y0051472D01*
X0175905Y0051463D01*
X0175925Y0051452D01*
X0175945Y0051439D01*
X0175964Y0051426D01*
X0175982Y0051411D01*
X0176015Y0051378D01*
X0176029Y0051361D01*
X0176042Y0051342D01*
X0176055Y0051322D01*
X0176067Y0051302D01*
X0176076Y0051280D01*
X0176085Y0051259D01*
X0176092Y0051236D01*
X0176097Y0051213D01*
X0176102Y0051189D01*
X0176105Y0051165D01*
X0176105Y0051140D01*
X0176105Y0051115D01*
X0176102Y0051091D01*
X0176098Y0051067D01*
X0176093Y0051044D01*
X0176086Y0051021D01*
X0176068Y0050978D01*
X0176057Y0050957D01*
X0176044Y0050938D01*
X0176031Y0050919D01*
X0176016Y0050901D01*
X0176000Y0050884D01*
X0175983Y0050868D01*
X0175966Y0050853D01*
X0175947Y0050840D01*
X0175927Y0050827D01*
X0175907Y0050816D01*
X0175885Y0050807D01*
X0175864Y0050798D01*
X0175841Y0050790D01*
X0175818Y0050786D01*
X0175794Y0050781D01*
X0175770Y0050778D01*
X0175720Y0050778D01*
X0175696Y0050780D01*
X0175672Y0050785D01*
X0175649Y0050790D01*
X0175626Y0050797D01*
X0175604Y0050806D01*
X0175583Y0050815D01*
X0175562Y0050826D01*
X0175543Y0050839D01*
X0175524Y0050852D01*
X0175506Y0050867D01*
X0175473Y0050899D01*
X0175459Y0050917D01*
X0175445Y0050936D01*
X0175432Y0050955D01*
X0175421Y0050976D01*
X0175412Y0050997D01*
X0175403Y0051019D01*
X0175396Y0051042D01*
X0175391Y0051065D01*
X0175386Y0051089D01*
X0175383Y0051113D01*
X0175383Y0051138D01*
X0175383Y0051163D01*
X0175386Y0051187D01*
X0175390Y0051211D01*
X0175395Y0051234D01*
X0175402Y0051257D01*
X0175411Y0051278D01*
X0175420Y0051300D01*
X0175431Y0051320D01*
X0175444Y0051340D01*
X0175457Y0051359D01*
X0175472Y0051377D01*
X0175488Y0051393D01*
X0175504Y0051410D01*
X0175522Y0051424D01*
X0175541Y0051437D01*
X0175560Y0051450D01*
X0175581Y0051462D01*
X0175602Y0051471D01*
X0175624Y0051480D01*
X0175647Y0051487D01*
X0175670Y0051492D01*
X0175693Y0051497D01*
X0175718Y0051500D01*
X0174985Y0050517D02*
X0174985Y0050517D01*
X0172805Y0050980D02*
X0172798Y0050957D01*
X0172789Y0050936D01*
X0172780Y0050914D01*
X0172769Y0050894D01*
X0172756Y0050874D01*
X0172743Y0050855D01*
X0172728Y0050837D01*
X0172695Y0050805D01*
X0172678Y0050790D01*
X0172659Y0050777D01*
X0172639Y0050764D01*
X0172619Y0050752D01*
X0172597Y0050743D01*
X0172576Y0050734D01*
X0172553Y0050727D01*
X0172506Y0050717D01*
X0172482Y0050715D01*
X0172432Y0050715D01*
X0172408Y0050717D01*
X0172384Y0050722D01*
X0172361Y0050726D01*
X0172338Y0050733D01*
X0172316Y0050742D01*
X0172295Y0050752D01*
X0172274Y0050762D01*
X0172255Y0050775D01*
X0172236Y0050788D01*
X0172218Y0050803D01*
X0172185Y0050836D01*
X0172170Y0050853D01*
X0172157Y0050872D01*
X0172144Y0050892D01*
X0172133Y0050912D01*
X0172115Y0050955D01*
X0172107Y0050978D01*
X0172103Y0051001D01*
X0172098Y0051025D01*
X0172095Y0051049D01*
X0172095Y0051099D01*
X0172097Y0051124D01*
X0172102Y0051147D01*
X0172107Y0051170D01*
X0172114Y0051193D01*
X0172123Y0051215D01*
X0172132Y0051236D01*
X0172143Y0051257D01*
X0172156Y0051276D01*
X0172169Y0051295D01*
X0172184Y0051313D01*
X0172200Y0051330D01*
X0172216Y0051346D01*
X0172234Y0051361D01*
X0172253Y0051374D01*
X0172272Y0051387D01*
X0172293Y0051398D01*
X0172314Y0051407D01*
X0172336Y0051416D01*
X0172358Y0051424D01*
X0172382Y0051428D01*
X0172405Y0051433D01*
X0172430Y0051436D01*
X0172455Y0051436D01*
X0172480Y0051436D01*
X0172504Y0051434D01*
X0172551Y0051424D01*
X0172574Y0051417D01*
X0172595Y0051408D01*
X0172617Y0051399D01*
X0172637Y0051388D01*
X0172676Y0051362D01*
X0172694Y0051347D01*
X0172727Y0051315D01*
X0172741Y0051297D01*
X0172754Y0051278D01*
X0172767Y0051259D01*
X0172778Y0051238D01*
X0172788Y0051217D01*
X0172797Y0051195D01*
X0172804Y0051173D01*
X0172809Y0051149D01*
X0172814Y0051126D01*
X0172817Y0051101D01*
X0172817Y0051076D01*
X0172817Y0051051D01*
X0172814Y0051027D01*
X0172810Y0051004D01*
X0172805Y0050980D01*
X0173763Y0048240D02*
X0173785Y0048247D01*
X0173809Y0048252D01*
X0173832Y0048256D01*
X0173856Y0048259D01*
X0173881Y0048259D01*
X0173906Y0048259D01*
X0173931Y0048257D01*
X0173954Y0048252D01*
X0173978Y0048247D01*
X0174000Y0048240D01*
X0174044Y0048222D01*
X0174064Y0048211D01*
X0174083Y0048198D01*
X0174103Y0048185D01*
X0174121Y0048171D01*
X0174137Y0048154D01*
X0174153Y0048138D01*
X0174168Y0048120D01*
X0174181Y0048101D01*
X0174194Y0048082D01*
X0174206Y0048061D01*
X0174215Y0048040D01*
X0174224Y0048018D01*
X0174231Y0047996D01*
X0174236Y0047972D01*
X0174241Y0047949D01*
X0174244Y0047924D01*
X0174244Y0047900D01*
X0174244Y0047875D01*
X0174241Y0047850D01*
X0174236Y0047827D01*
X0174232Y0047803D01*
X0174225Y0047780D01*
X0174216Y0047759D01*
X0174207Y0047737D01*
X0174195Y0047717D01*
X0174183Y0047697D01*
X0174170Y0047678D01*
X0174155Y0047660D01*
X0174139Y0047644D01*
X0174122Y0047627D01*
X0174104Y0047613D01*
X0174085Y0047600D01*
X0174066Y0047587D01*
X0174046Y0047575D01*
X0174003Y0047557D01*
X0173980Y0047550D01*
X0173956Y0047545D01*
X0173933Y0047540D01*
X0173909Y0047537D01*
X0173859Y0047537D01*
X0173834Y0047540D01*
X0173811Y0047545D01*
X0173788Y0047549D01*
X0173765Y0047556D01*
X0173743Y0047565D01*
X0173722Y0047574D01*
X0173701Y0047586D01*
X0173682Y0047598D01*
X0173663Y0047611D01*
X0173645Y0047626D01*
X0173612Y0047659D01*
X0173597Y0047676D01*
X0173584Y0047696D01*
X0173571Y0047715D01*
X0173560Y0047735D01*
X0173551Y0047757D01*
X0173541Y0047778D01*
X0173534Y0047801D01*
X0173529Y0047824D01*
X0173525Y0047848D01*
X0173522Y0047872D01*
X0173522Y0047897D01*
X0173522Y0047922D01*
X0173524Y0047946D01*
X0173529Y0047970D01*
X0173534Y0047993D01*
X0173541Y0048016D01*
X0173550Y0048038D01*
X0173559Y0048059D01*
X0173570Y0048080D01*
X0173583Y0048099D01*
X0173596Y0048118D01*
X0173610Y0048136D01*
X0173643Y0048169D01*
X0173661Y0048184D01*
X0173680Y0048197D01*
X0173699Y0048210D01*
X0173719Y0048221D01*
X0173741Y0048230D01*
X0173763Y0048240D01*
X0170178Y0048358D02*
X0170176Y0048708D01*
X0170173Y0049058D01*
X0170003Y0049226D01*
X0169832Y0049394D01*
X0169661Y0049561D01*
X0169491Y0049729D01*
X0169320Y0049897D01*
X0169150Y0050065D01*
X0168979Y0050233D01*
X0168808Y0050401D01*
X0168816Y0050123D01*
X0168821Y0049844D01*
X0168826Y0049565D01*
X0168830Y0049285D01*
X0168833Y0049005D01*
X0168834Y0048724D01*
X0168835Y0048443D01*
X0168835Y0048161D01*
X0168833Y0047878D01*
X0168831Y0047595D01*
X0168827Y0047311D01*
X0168822Y0047026D01*
X0168817Y0046741D01*
X0168810Y0046456D01*
X0168802Y0046169D01*
X0168793Y0045882D01*
X0168783Y0045595D01*
X0168771Y0045306D01*
X0168759Y0045017D01*
X0168745Y0044728D01*
X0168730Y0044437D01*
X0168714Y0044146D01*
X0168697Y0043854D01*
X0168678Y0043562D01*
X0168700Y0043593D01*
X0168724Y0043622D01*
X0168750Y0043650D01*
X0168775Y0043678D01*
X0168803Y0043705D01*
X0168831Y0043730D01*
X0168860Y0043755D01*
X0168890Y0043778D01*
X0168922Y0043800D01*
X0168953Y0043821D01*
X0168986Y0043841D01*
X0169020Y0043859D01*
X0169054Y0043877D01*
X0169089Y0043893D01*
X0169125Y0043907D01*
X0169161Y0043920D01*
X0169199Y0043932D01*
X0169237Y0043942D01*
X0169275Y0043951D01*
X0169314Y0043959D01*
X0169353Y0043964D01*
X0169393Y0043969D01*
X0169433Y0043971D01*
X0169474Y0043971D01*
X0169511Y0043971D01*
X0169548Y0043969D01*
X0169583Y0043966D01*
X0169619Y0043962D01*
X0169654Y0043956D01*
X0169689Y0043949D01*
X0169723Y0043941D01*
X0169757Y0043932D01*
X0169790Y0043921D01*
X0169823Y0043910D01*
X0169856Y0043897D01*
X0169887Y0043883D01*
X0169918Y0043868D01*
X0169949Y0043852D01*
X0169978Y0043835D01*
X0170008Y0043817D01*
X0170036Y0043798D01*
X0170064Y0043778D01*
X0170091Y0043758D01*
X0170118Y0043736D01*
X0170143Y0043713D01*
X0170168Y0043690D01*
X0170192Y0043665D01*
X0170215Y0043640D01*
X0170226Y0043628D01*
X0170237Y0043616D01*
X0170248Y0043604D01*
X0170259Y0043592D01*
X0170269Y0043579D01*
X0170279Y0043566D01*
X0170289Y0043553D01*
X0170299Y0043540D01*
X0170308Y0043526D01*
X0170318Y0043512D01*
X0170326Y0043498D01*
X0170335Y0043484D01*
X0170343Y0043469D01*
X0170351Y0043455D01*
X0170359Y0043439D01*
X0170366Y0043424D01*
X0170373Y0043409D01*
X0170380Y0043393D01*
X0170386Y0043377D01*
X0170393Y0043361D01*
X0170398Y0043344D01*
X0170404Y0043328D01*
X0170409Y0043311D01*
X0170414Y0043294D01*
X0170418Y0043282D01*
X0170421Y0043270D01*
X0170425Y0043258D01*
X0170428Y0043245D01*
X0170431Y0043233D01*
X0170435Y0043221D01*
X0170437Y0043208D01*
X0170440Y0043196D01*
X0170443Y0043183D01*
X0170445Y0043171D01*
X0170448Y0043158D01*
X0170452Y0043133D01*
X0170454Y0043120D01*
X0170455Y0043107D01*
X0170457Y0043094D01*
X0170458Y0043081D01*
X0170459Y0043068D01*
X0170460Y0043055D01*
X0170461Y0043042D01*
X0170462Y0043029D01*
X0170462Y0043016D01*
X0170463Y0043003D01*
X0170463Y0042989D01*
X0170463Y0042948D01*
X0170460Y0042908D01*
X0170456Y0042868D01*
X0170451Y0042829D01*
X0170444Y0042790D01*
X0170434Y0042752D01*
X0170425Y0042714D01*
X0170414Y0042677D01*
X0170400Y0042640D01*
X0170386Y0042604D01*
X0170371Y0042569D01*
X0170353Y0042535D01*
X0170336Y0042501D01*
X0170316Y0042468D01*
X0170295Y0042436D01*
X0170274Y0042405D01*
X0170251Y0042375D01*
X0170226Y0042346D01*
X0170201Y0042317D01*
X0170175Y0042290D01*
X0170147Y0042264D01*
X0170119Y0042238D01*
X0170090Y0042214D01*
X0170059Y0042191D01*
X0170057Y0042189D01*
X0170053Y0042184D01*
X0170051Y0042181D01*
X0170048Y0042178D01*
X0170046Y0042176D01*
X0170042Y0042171D01*
X0170040Y0042168D01*
X0170038Y0042166D01*
X0170035Y0042163D01*
X0170033Y0042160D01*
X0170031Y0042158D01*
X0170029Y0042155D01*
X0170027Y0042153D01*
X0170025Y0042150D01*
X0170023Y0042148D01*
X0170021Y0042145D01*
X0170019Y0042142D01*
X0170017Y0042140D01*
X0170015Y0042137D01*
X0170013Y0042135D01*
X0170011Y0042132D01*
X0170009Y0042129D01*
X0170010Y0041284D01*
X0170011Y0040861D01*
X0170013Y0040016D01*
X0170014Y0039593D01*
X0170015Y0039170D01*
X0170015Y0038747D01*
X0170026Y0038740D01*
X0170037Y0038733D01*
X0170047Y0038725D01*
X0170058Y0038718D01*
X0170068Y0038710D01*
X0170078Y0038703D01*
X0170089Y0038695D01*
X0170099Y0038687D01*
X0170108Y0038678D01*
X0170118Y0038670D01*
X0170128Y0038662D01*
X0170138Y0038653D01*
X0170147Y0038645D01*
X0170157Y0038636D01*
X0170166Y0038627D01*
X0170175Y0038618D01*
X0170184Y0038609D01*
X0170193Y0038600D01*
X0170202Y0038591D01*
X0170210Y0038581D01*
X0170219Y0038571D01*
X0170227Y0038562D01*
X0170236Y0038552D01*
X0170244Y0038542D01*
X0170347Y0038759D01*
X0170452Y0038977D01*
X0170557Y0039194D01*
X0170663Y0039411D01*
X0170770Y0039628D01*
X0170877Y0039844D01*
X0170985Y0040061D01*
X0171093Y0040277D01*
X0171202Y0040494D01*
X0171312Y0040710D01*
X0171422Y0040926D01*
X0171532Y0041141D01*
X0171643Y0041357D01*
X0171755Y0041572D01*
X0171867Y0041787D01*
X0171979Y0042002D01*
X0172092Y0042216D01*
X0172205Y0042430D01*
X0172318Y0042644D01*
X0172431Y0042858D01*
X0172545Y0043071D01*
X0172659Y0043285D01*
X0172774Y0043498D01*
X0172889Y0043710D01*
X0172874Y0043705D01*
X0172860Y0043699D01*
X0172845Y0043694D01*
X0172831Y0043689D01*
X0172816Y0043684D01*
X0172802Y0043680D01*
X0172787Y0043675D01*
X0172772Y0043671D01*
X0172757Y0043667D01*
X0172741Y0043663D01*
X0172726Y0043660D01*
X0172711Y0043657D01*
X0172695Y0043654D01*
X0172680Y0043651D01*
X0172664Y0043649D01*
X0172649Y0043647D01*
X0172633Y0043645D01*
X0172617Y0043643D01*
X0172601Y0043642D01*
X0172585Y0043640D01*
X0172569Y0043640D01*
X0172553Y0043639D01*
X0172537Y0043638D01*
X0172521Y0043638D01*
X0172453Y0043638D01*
X0172386Y0043645D01*
X0172322Y0043658D01*
X0172258Y0043670D01*
X0172196Y0043690D01*
X0172137Y0043714D01*
X0172078Y0043739D01*
X0172022Y0043769D01*
X0171969Y0043805D01*
X0171917Y0043840D01*
X0171868Y0043880D01*
X0171823Y0043924D01*
X0171778Y0043969D01*
X0171738Y0044018D01*
X0171703Y0044070D01*
X0171667Y0044122D01*
X0171636Y0044178D01*
X0171611Y0044237D01*
X0171586Y0044296D01*
X0171567Y0044358D01*
X0171553Y0044422D01*
X0171540Y0044486D01*
X0171533Y0044552D01*
X0171533Y0044620D01*
X0171533Y0044634D01*
X0171533Y0044647D01*
X0171533Y0044660D01*
X0171534Y0044673D01*
X0171534Y0044687D01*
X0171536Y0044700D01*
X0171537Y0044713D01*
X0171538Y0044726D01*
X0171539Y0044739D01*
X0171541Y0044752D01*
X0171543Y0044765D01*
X0171547Y0044790D01*
X0171549Y0044803D01*
X0171551Y0044816D01*
X0171554Y0044829D01*
X0171557Y0044841D01*
X0171560Y0044854D01*
X0171563Y0044866D01*
X0171566Y0044879D01*
X0171569Y0044891D01*
X0171573Y0044903D01*
X0171577Y0044916D01*
X0171581Y0044928D01*
X0171234Y0045260D01*
X0171060Y0045426D01*
X0170887Y0045592D01*
X0170714Y0045758D01*
X0170540Y0045925D01*
X0170367Y0046091D01*
X0170194Y0046257D01*
X0170191Y0046607D01*
X0170186Y0047307D01*
X0170183Y0047657D01*
X0170181Y0048007D01*
X0170178Y0048358D01*
X0172319Y0044917D02*
X0172339Y0044929D01*
X0172361Y0044938D01*
X0172383Y0044947D01*
X0172405Y0044954D01*
X0172429Y0044959D01*
X0172452Y0044964D01*
X0172476Y0044967D01*
X0172526Y0044967D01*
X0172551Y0044964D01*
X0172574Y0044959D01*
X0172597Y0044955D01*
X0172620Y0044948D01*
X0172642Y0044939D01*
X0172663Y0044930D01*
X0172684Y0044918D01*
X0172703Y0044906D01*
X0172723Y0044893D01*
X0172740Y0044878D01*
X0172757Y0044862D01*
X0172773Y0044845D01*
X0172788Y0044828D01*
X0172801Y0044808D01*
X0172814Y0044789D01*
X0172825Y0044769D01*
X0172834Y0044747D01*
X0172844Y0044726D01*
X0172851Y0044703D01*
X0172856Y0044680D01*
X0172861Y0044656D01*
X0172863Y0044632D01*
X0172863Y0044607D01*
X0172863Y0044582D01*
X0172861Y0044558D01*
X0172856Y0044534D01*
X0172851Y0044511D01*
X0172844Y0044488D01*
X0172835Y0044466D01*
X0172826Y0044445D01*
X0172815Y0044424D01*
X0172802Y0044405D01*
X0172789Y0044386D01*
X0172775Y0044368D01*
X0172742Y0044335D01*
X0172724Y0044320D01*
X0172705Y0044307D01*
X0172686Y0044294D01*
X0172665Y0044283D01*
X0172622Y0044264D01*
X0172600Y0044257D01*
X0172576Y0044252D01*
X0172553Y0044248D01*
X0172528Y0044245D01*
X0172479Y0044245D01*
X0172454Y0044247D01*
X0172431Y0044252D01*
X0172407Y0044257D01*
X0172385Y0044264D01*
X0172363Y0044273D01*
X0172341Y0044282D01*
X0172321Y0044293D01*
X0172302Y0044306D01*
X0172282Y0044319D01*
X0172265Y0044334D01*
X0172248Y0044350D01*
X0172232Y0044366D01*
X0172217Y0044384D01*
X0172204Y0044403D01*
X0172191Y0044422D01*
X0172180Y0044443D01*
X0172170Y0044464D01*
X0172161Y0044486D01*
X0172154Y0044508D01*
X0172149Y0044532D01*
X0172144Y0044555D01*
X0172142Y0044580D01*
X0172142Y0044629D01*
X0172144Y0044654D01*
X0172149Y0044677D01*
X0172154Y0044701D01*
X0172161Y0044723D01*
X0172170Y0044745D01*
X0172179Y0044767D01*
X0172190Y0044787D01*
X0172216Y0044826D01*
X0172230Y0044844D01*
X0172263Y0044876D01*
X0172281Y0044891D01*
X0172300Y0044904D01*
X0172319Y0044917D01*
X0169775Y0043204D02*
X0169760Y0043222D01*
X0169727Y0043255D01*
X0169709Y0043269D01*
X0169690Y0043282D01*
X0169671Y0043295D01*
X0169650Y0043306D01*
X0169629Y0043315D01*
X0169607Y0043324D01*
X0169584Y0043331D01*
X0169561Y0043336D01*
X0169537Y0043341D01*
X0169513Y0043343D01*
X0169488Y0043343D01*
X0169463Y0043343D01*
X0169439Y0043340D01*
X0169415Y0043336D01*
X0169392Y0043331D01*
X0169369Y0043324D01*
X0169326Y0043305D01*
X0169306Y0043294D01*
X0169287Y0043281D01*
X0169267Y0043268D01*
X0169250Y0043253D01*
X0169217Y0043220D01*
X0169202Y0043202D01*
X0169189Y0043183D01*
X0169177Y0043164D01*
X0169165Y0043143D01*
X0169156Y0043122D01*
X0169147Y0043100D01*
X0169140Y0043077D01*
X0169136Y0043054D01*
X0169131Y0043030D01*
X0169128Y0043006D01*
X0169128Y0042956D01*
X0169131Y0042932D01*
X0169136Y0042908D01*
X0169141Y0042885D01*
X0169148Y0042862D01*
X0169166Y0042819D01*
X0169178Y0042799D01*
X0169191Y0042780D01*
X0169204Y0042760D01*
X0169218Y0042743D01*
X0169235Y0042726D01*
X0169251Y0042710D01*
X0169269Y0042695D01*
X0169288Y0042682D01*
X0169308Y0042670D01*
X0169328Y0042658D01*
X0169350Y0042649D01*
X0169371Y0042640D01*
X0169394Y0042633D01*
X0169418Y0042629D01*
X0169441Y0042624D01*
X0169466Y0042621D01*
X0169491Y0042622D01*
X0169515Y0042622D01*
X0169540Y0042624D01*
X0169563Y0042629D01*
X0169587Y0042634D01*
X0169609Y0042641D01*
X0169631Y0042650D01*
X0169652Y0042660D01*
X0169673Y0042671D01*
X0169692Y0042684D01*
X0169711Y0042697D01*
X0169729Y0042712D01*
X0169762Y0042744D01*
X0169776Y0042762D01*
X0169789Y0042781D01*
X0169802Y0042801D01*
X0169813Y0042821D01*
X0169822Y0042843D01*
X0169831Y0042864D01*
X0169838Y0042887D01*
X0169843Y0042911D01*
X0169848Y0042934D01*
X0169850Y0042958D01*
X0169850Y0043008D01*
X0169847Y0043033D01*
X0169843Y0043056D01*
X0169838Y0043080D01*
X0169831Y0043102D01*
X0169812Y0043145D01*
X0169801Y0043166D01*
X0169788Y0043185D01*
X0169775Y0043204D01*
X0169556Y0038237D02*
X0169531Y0038237D01*
X0169506Y0038237D01*
X0169481Y0038234D01*
X0169458Y0038229D01*
X0169435Y0038224D01*
X0169412Y0038217D01*
X0169390Y0038208D01*
X0169369Y0038199D01*
X0169348Y0038188D01*
X0169329Y0038175D01*
X0169310Y0038161D01*
X0169292Y0038147D01*
X0169276Y0038130D01*
X0169260Y0038114D01*
X0169245Y0038096D01*
X0169232Y0038077D01*
X0169219Y0038058D01*
X0169208Y0038037D01*
X0169199Y0038016D01*
X0169190Y0037994D01*
X0169183Y0037971D01*
X0169178Y0037948D01*
X0169173Y0037924D01*
X0169171Y0037900D01*
X0169171Y0037875D01*
X0169171Y0037850D01*
X0169174Y0037826D01*
X0169179Y0037802D01*
X0169184Y0037779D01*
X0169191Y0037756D01*
X0169200Y0037735D01*
X0169209Y0037713D01*
X0169220Y0037693D01*
X0169233Y0037673D01*
X0169246Y0037654D01*
X0169261Y0037637D01*
X0169294Y0037604D01*
X0169312Y0037589D01*
X0169331Y0037576D01*
X0169350Y0037563D01*
X0169371Y0037552D01*
X0169393Y0037543D01*
X0169414Y0037534D01*
X0169437Y0037527D01*
X0169460Y0037523D01*
X0169484Y0037518D01*
X0169508Y0037515D01*
X0169558Y0037515D01*
X0169582Y0037518D01*
X0169606Y0037523D01*
X0169629Y0037528D01*
X0169652Y0037535D01*
X0169673Y0037544D01*
X0169695Y0037553D01*
X0169715Y0037565D01*
X0169735Y0037578D01*
X0169754Y0037591D01*
X0169771Y0037605D01*
X0169804Y0037638D01*
X0169819Y0037656D01*
X0169832Y0037675D01*
X0169845Y0037695D01*
X0169856Y0037715D01*
X0169865Y0037737D01*
X0169874Y0037758D01*
X0169881Y0037781D01*
X0169886Y0037804D01*
X0169890Y0037828D01*
X0169893Y0037852D01*
X0169893Y0037902D01*
X0169890Y0037927D01*
X0169885Y0037950D01*
X0169880Y0037973D01*
X0169873Y0037996D01*
X0169864Y0038018D01*
X0169855Y0038039D01*
X0169844Y0038060D01*
X0169831Y0038079D01*
X0169817Y0038098D01*
X0169803Y0038116D01*
X0169786Y0038132D01*
X0169770Y0038148D01*
X0169752Y0038163D01*
X0169733Y0038176D01*
X0169714Y0038189D01*
X0169693Y0038200D01*
X0169671Y0038209D01*
X0169650Y0038218D01*
X0169627Y0038225D01*
X0169604Y0038230D01*
X0169580Y0038234D01*
X0169556Y0038237D01*
X0178244Y0027063D02*
X0178246Y0027221D01*
X0178252Y0027379D01*
X0178262Y0027537D01*
X0178276Y0027695D01*
X0178294Y0027852D01*
X0178315Y0028009D01*
X0178341Y0028165D01*
X0178371Y0028321D01*
X0178404Y0028476D01*
X0178442Y0028629D01*
X0178483Y0028782D01*
X0178528Y0028934D01*
X0178577Y0029085D01*
X0178630Y0029234D01*
X0178686Y0029382D01*
X0178746Y0029528D01*
X0178810Y0029673D01*
X0178878Y0029816D01*
X0178949Y0029958D01*
X0179023Y0030098D01*
X0179101Y0030235D01*
X0179183Y0030371D01*
X0179267Y0030505D01*
X0179356Y0030636D01*
X0179447Y0030765D01*
X0179542Y0030892D01*
X0179639Y0031017D01*
X0179740Y0031139D01*
X0179844Y0031258D01*
X0179951Y0031375D01*
X0180061Y0031489D01*
X0180174Y0031600D01*
X0180289Y0031709D01*
X0180407Y0031814D01*
X0180528Y0031916D01*
X0180651Y0032016D01*
X0180777Y0032112D01*
X0180905Y0032205D01*
X0181035Y0032295D01*
X0181168Y0032381D01*
X0181303Y0032465D01*
X0181439Y0032544D01*
X0181578Y0032621D01*
X0181719Y0032693D01*
X0181861Y0032763D01*
X0182005Y0032828D01*
X0182151Y0032890D01*
X0182298Y0032948D01*
X0182447Y0033003D01*
X0182597Y0033054D01*
X0182748Y0033101D01*
X0182900Y0033144D01*
X0183053Y0033183D01*
X0183208Y0033219D01*
X0183363Y0033250D01*
X0183519Y0033278D01*
X0183675Y0033302D01*
X0183832Y0033322D01*
X0183990Y0033338D01*
X0184147Y0033350D01*
X0184306Y0033358D01*
X0184464Y0033362D01*
X0184622Y0033362D01*
X0184780Y0033358D01*
X0184939Y0033350D01*
X0185096Y0033338D01*
X0185254Y0033322D01*
X0185411Y0033302D01*
X0185567Y0033278D01*
X0185723Y0033250D01*
X0185878Y0033219D01*
X0186033Y0033183D01*
X0186186Y0033144D01*
X0186338Y0033101D01*
X0186489Y0033054D01*
X0186639Y0033003D01*
X0186788Y0032948D01*
X0186935Y0032890D01*
X0187081Y0032828D01*
X0187225Y0032763D01*
X0187367Y0032693D01*
X0187508Y0032621D01*
X0187647Y0032544D01*
X0187783Y0032465D01*
X0187918Y0032381D01*
X0188051Y0032295D01*
X0188181Y0032205D01*
X0188309Y0032112D01*
X0188435Y0032016D01*
X0188558Y0031916D01*
X0188679Y0031814D01*
X0188797Y0031709D01*
X0188912Y0031600D01*
X0189025Y0031489D01*
X0189135Y0031375D01*
X0189242Y0031258D01*
X0189346Y0031139D01*
X0189447Y0031017D01*
X0189544Y0030892D01*
X0189639Y0030765D01*
X0189730Y0030636D01*
X0189819Y0030505D01*
X0189903Y0030371D01*
X0189985Y0030235D01*
X0190063Y0030098D01*
X0190137Y0029958D01*
X0190208Y0029816D01*
X0190276Y0029673D01*
X0190340Y0029528D01*
X0190400Y0029382D01*
X0190456Y0029234D01*
X0190509Y0029085D01*
X0190558Y0028934D01*
X0190603Y0028782D01*
X0190644Y0028629D01*
X0190682Y0028476D01*
X0190715Y0028321D01*
X0190745Y0028165D01*
X0190771Y0028009D01*
X0190792Y0027852D01*
X0190810Y0027695D01*
X0190824Y0027537D01*
X0190834Y0027379D01*
X0190840Y0027221D01*
X0190842Y0027063D01*
X0190840Y0026905D01*
X0190834Y0026747D01*
X0190824Y0026589D01*
X0190810Y0026431D01*
X0190792Y0026274D01*
X0190771Y0026117D01*
X0190745Y0025961D01*
X0190715Y0025805D01*
X0190682Y0025650D01*
X0190644Y0025497D01*
X0190603Y0025344D01*
X0190558Y0025192D01*
X0190509Y0025041D01*
X0190456Y0024892D01*
X0190400Y0024744D01*
X0190340Y0024598D01*
X0190276Y0024453D01*
X0190208Y0024310D01*
X0190137Y0024168D01*
X0190063Y0024028D01*
X0189985Y0023891D01*
X0189903Y0023755D01*
X0189819Y0023621D01*
X0189730Y0023490D01*
X0189639Y0023361D01*
X0189544Y0023234D01*
X0189447Y0023109D01*
X0189346Y0022987D01*
X0189242Y0022868D01*
X0189135Y0022751D01*
X0189025Y0022637D01*
X0188912Y0022526D01*
X0188797Y0022417D01*
X0188679Y0022312D01*
X0188558Y0022210D01*
X0188435Y0022110D01*
X0188309Y0022014D01*
X0188181Y0021921D01*
X0188051Y0021831D01*
X0187918Y0021745D01*
X0187783Y0021661D01*
X0187647Y0021582D01*
X0187508Y0021505D01*
X0187367Y0021433D01*
X0187225Y0021363D01*
X0187081Y0021298D01*
X0186935Y0021236D01*
X0186788Y0021178D01*
X0186639Y0021123D01*
X0186489Y0021072D01*
X0186338Y0021025D01*
X0186186Y0020982D01*
X0186033Y0020943D01*
X0185878Y0020907D01*
X0185723Y0020876D01*
X0185567Y0020848D01*
X0185411Y0020824D01*
X0185254Y0020804D01*
X0185096Y0020788D01*
X0184939Y0020776D01*
X0184780Y0020768D01*
X0184622Y0020764D01*
X0184464Y0020764D01*
X0184306Y0020768D01*
X0184147Y0020776D01*
X0183990Y0020788D01*
X0183832Y0020804D01*
X0183675Y0020824D01*
X0183519Y0020848D01*
X0183363Y0020876D01*
X0183208Y0020907D01*
X0183053Y0020943D01*
X0182900Y0020982D01*
X0182748Y0021025D01*
X0182597Y0021072D01*
X0182447Y0021123D01*
X0182298Y0021178D01*
X0182151Y0021236D01*
X0182005Y0021298D01*
X0181861Y0021363D01*
X0181719Y0021433D01*
X0181578Y0021505D01*
X0181439Y0021582D01*
X0181303Y0021661D01*
X0181168Y0021745D01*
X0181035Y0021831D01*
X0180905Y0021921D01*
X0180777Y0022014D01*
X0180651Y0022110D01*
X0180528Y0022210D01*
X0180407Y0022312D01*
X0180289Y0022417D01*
X0180174Y0022526D01*
X0180061Y0022637D01*
X0179951Y0022751D01*
X0179844Y0022868D01*
X0179740Y0022987D01*
X0179639Y0023109D01*
X0179542Y0023234D01*
X0179447Y0023361D01*
X0179356Y0023490D01*
X0179267Y0023621D01*
X0179183Y0023755D01*
X0179101Y0023891D01*
X0179023Y0024028D01*
X0178949Y0024168D01*
X0178878Y0024310D01*
X0178810Y0024453D01*
X0178746Y0024598D01*
X0178686Y0024744D01*
X0178630Y0024892D01*
X0178577Y0025041D01*
X0178528Y0025192D01*
X0178483Y0025344D01*
X0178442Y0025497D01*
X0178404Y0025650D01*
X0178371Y0025805D01*
X0178341Y0025961D01*
X0178315Y0026117D01*
X0178294Y0026274D01*
X0178276Y0026431D01*
X0178262Y0026589D01*
X0178252Y0026747D01*
X0178246Y0026905D01*
X0178244Y0027063D01*
X0170248Y0052591D02*
X0170225Y0052586D01*
X0170201Y0052581D01*
X0170177Y0052579D01*
X0170152Y0052579D01*
X0170127Y0052579D01*
X0170103Y0052581D01*
X0170079Y0052586D01*
X0170056Y0052591D01*
X0170033Y0052598D01*
X0170012Y0052607D01*
X0169990Y0052616D01*
X0169969Y0052627D01*
X0169950Y0052640D01*
X0169931Y0052653D01*
X0169913Y0052667D01*
X0169880Y0052700D01*
X0169865Y0052718D01*
X0169852Y0052737D01*
X0169839Y0052756D01*
X0169828Y0052776D01*
X0169819Y0052798D01*
X0169810Y0052820D01*
X0169802Y0052842D01*
X0169798Y0052866D01*
X0169793Y0052889D01*
X0169790Y0052913D01*
X0169790Y0052938D01*
X0169790Y0052963D01*
X0169792Y0052988D01*
X0169797Y0053011D01*
X0169802Y0053035D01*
X0169809Y0053057D01*
X0169818Y0053079D01*
X0169827Y0053101D01*
X0169838Y0053121D01*
X0169851Y0053140D01*
X0169864Y0053159D01*
X0169879Y0053177D01*
X0169895Y0053194D01*
X0169911Y0053210D01*
X0169929Y0053225D01*
X0169948Y0053238D01*
X0169967Y0053251D01*
X0169988Y0053262D01*
X0170010Y0053271D01*
X0170031Y0053281D01*
X0170054Y0053288D01*
X0170077Y0053293D01*
X0170101Y0053298D01*
X0170125Y0053300D01*
X0170150Y0053300D01*
X0170175Y0053300D01*
X0170199Y0053298D01*
X0170223Y0053293D01*
X0170246Y0053288D01*
X0170269Y0053281D01*
X0170290Y0053272D01*
X0170312Y0053263D01*
X0170333Y0053252D01*
X0170352Y0053239D01*
X0170371Y0053226D01*
X0170389Y0053212D01*
X0170422Y0053179D01*
X0170436Y0053161D01*
X0170450Y0053142D01*
X0170463Y0053123D01*
X0170474Y0053103D01*
X0170483Y0053081D01*
X0170492Y0053059D01*
X0170499Y0053037D01*
X0170504Y0053013D01*
X0170509Y0052990D01*
X0170512Y0052966D01*
X0170512Y0052941D01*
X0170512Y0052916D01*
X0170509Y0052891D01*
X0170505Y0052868D01*
X0170500Y0052844D01*
X0170493Y0052822D01*
X0170484Y0052800D01*
X0170475Y0052778D01*
X0170464Y0052758D01*
X0170438Y0052719D01*
X0170423Y0052701D01*
X0170407Y0052685D01*
X0170391Y0052669D01*
X0170373Y0052654D01*
X0170354Y0052641D01*
X0170334Y0052628D01*
X0170314Y0052617D01*
X0170292Y0052607D01*
X0170271Y0052598D01*
X0170248Y0052591D01*
X0177587Y0058899D02*
X0177572Y0058917D01*
X0177559Y0058936D01*
X0177546Y0058956D01*
X0177535Y0058976D01*
X0177516Y0059019D01*
X0177509Y0059042D01*
X0177504Y0059065D01*
X0177500Y0059089D01*
X0177497Y0059113D01*
X0177497Y0059163D01*
X0177499Y0059187D01*
X0177504Y0059211D01*
X0177509Y0059234D01*
X0177516Y0059257D01*
X0177534Y0059300D01*
X0177545Y0059321D01*
X0177558Y0059340D01*
X0177571Y0059359D01*
X0177586Y0059377D01*
X0177618Y0059410D01*
X0177636Y0059425D01*
X0177655Y0059438D01*
X0177674Y0059451D01*
X0177695Y0059462D01*
X0177716Y0059471D01*
X0177738Y0059480D01*
X0177761Y0059487D01*
X0177784Y0059492D01*
X0177808Y0059497D01*
X0177832Y0059500D01*
X0177857Y0059500D01*
X0177882Y0059500D01*
X0177906Y0059498D01*
X0177930Y0059493D01*
X0177953Y0059488D01*
X0177976Y0059481D01*
X0178019Y0059463D01*
X0178039Y0059452D01*
X0178059Y0059439D01*
X0178078Y0059426D01*
X0178096Y0059411D01*
X0178112Y0059395D01*
X0178129Y0059379D01*
X0178143Y0059361D01*
X0178156Y0059342D01*
X0178169Y0059322D01*
X0178181Y0059302D01*
X0178199Y0059259D01*
X0178206Y0059236D01*
X0178211Y0059213D01*
X0178216Y0059189D01*
X0178219Y0059165D01*
X0178219Y0059115D01*
X0178216Y0059091D01*
X0178211Y0059067D01*
X0178207Y0059044D01*
X0178200Y0059021D01*
X0178191Y0058999D01*
X0178182Y0058978D01*
X0178170Y0058957D01*
X0178158Y0058938D01*
X0178145Y0058919D01*
X0178130Y0058901D01*
X0178097Y0058868D01*
X0178080Y0058853D01*
X0178060Y0058840D01*
X0178041Y0058827D01*
X0178021Y0058816D01*
X0177999Y0058807D01*
X0177978Y0058798D01*
X0177955Y0058790D01*
X0177932Y0058785D01*
X0177908Y0058781D01*
X0177884Y0058778D01*
X0177834Y0058778D01*
X0177810Y0058780D01*
X0177786Y0058785D01*
X0177763Y0058790D01*
X0177740Y0058797D01*
X0177718Y0058806D01*
X0177697Y0058815D01*
X0177676Y0058826D01*
X0177657Y0058839D01*
X0177638Y0058852D01*
X0177620Y0058867D01*
X0177587Y0058899D01*
X0120878Y0141378D02*
X0120880Y0141539D01*
X0120886Y0141699D01*
X0120896Y0141860D01*
X0120910Y0142020D01*
X0120928Y0142180D01*
X0120949Y0142339D01*
X0120975Y0142498D01*
X0121005Y0142656D01*
X0121038Y0142813D01*
X0121076Y0142970D01*
X0121117Y0143125D01*
X0121162Y0143279D01*
X0121211Y0143432D01*
X0121264Y0143584D01*
X0121320Y0143735D01*
X0121381Y0143884D01*
X0121444Y0144032D01*
X0121512Y0144178D01*
X0121583Y0144322D01*
X0121657Y0144464D01*
X0121735Y0144605D01*
X0121817Y0144743D01*
X0121902Y0144880D01*
X0121990Y0145014D01*
X0122082Y0145146D01*
X0122177Y0145276D01*
X0122275Y0145404D01*
X0122376Y0145529D01*
X0122480Y0145651D01*
X0122587Y0145771D01*
X0122697Y0145888D01*
X0122810Y0146003D01*
X0122926Y0146114D01*
X0123045Y0146223D01*
X0123166Y0146328D01*
X0123290Y0146431D01*
X0123416Y0146531D01*
X0123544Y0146627D01*
X0123675Y0146720D01*
X0123809Y0146810D01*
X0123944Y0146897D01*
X0124082Y0146980D01*
X0124221Y0147060D01*
X0124363Y0147136D01*
X0124506Y0147209D01*
X0124651Y0147278D01*
X0124798Y0147344D01*
X0124946Y0147406D01*
X0125096Y0147464D01*
X0125247Y0147519D01*
X0125400Y0147570D01*
X0125554Y0147617D01*
X0125709Y0147660D01*
X0125865Y0147699D01*
X0126021Y0147735D01*
X0126179Y0147766D01*
X0126337Y0147794D01*
X0126496Y0147818D01*
X0126656Y0147838D01*
X0126816Y0147854D01*
X0126976Y0147866D01*
X0127137Y0147874D01*
X0127298Y0147878D01*
X0127458Y0147878D01*
X0127619Y0147874D01*
X0127780Y0147866D01*
X0127940Y0147854D01*
X0128100Y0147838D01*
X0128260Y0147818D01*
X0128419Y0147794D01*
X0128577Y0147766D01*
X0128735Y0147735D01*
X0128891Y0147699D01*
X0129047Y0147660D01*
X0129202Y0147617D01*
X0129356Y0147570D01*
X0129509Y0147519D01*
X0129660Y0147464D01*
X0129810Y0147406D01*
X0129958Y0147344D01*
X0130105Y0147278D01*
X0130250Y0147209D01*
X0130393Y0147136D01*
X0130535Y0147060D01*
X0130674Y0146980D01*
X0130812Y0146897D01*
X0130947Y0146810D01*
X0131081Y0146720D01*
X0131212Y0146627D01*
X0131340Y0146531D01*
X0131466Y0146431D01*
X0131590Y0146328D01*
X0131711Y0146223D01*
X0131830Y0146114D01*
X0131946Y0146003D01*
X0132059Y0145888D01*
X0132169Y0145771D01*
X0132276Y0145651D01*
X0132380Y0145529D01*
X0132481Y0145404D01*
X0132579Y0145276D01*
X0132674Y0145146D01*
X0132766Y0145014D01*
X0132854Y0144880D01*
X0132939Y0144743D01*
X0133021Y0144605D01*
X0133099Y0144464D01*
X0133173Y0144322D01*
X0133244Y0144178D01*
X0133312Y0144032D01*
X0133375Y0143884D01*
X0133436Y0143735D01*
X0133492Y0143584D01*
X0133545Y0143432D01*
X0133594Y0143279D01*
X0133639Y0143125D01*
X0133680Y0142970D01*
X0133718Y0142813D01*
X0133751Y0142656D01*
X0133781Y0142498D01*
X0133807Y0142339D01*
X0133828Y0142180D01*
X0133846Y0142020D01*
X0133860Y0141860D01*
X0133870Y0141699D01*
X0133876Y0141539D01*
X0133878Y0141378D01*
X0133876Y0141217D01*
X0133870Y0141057D01*
X0133860Y0140896D01*
X0133846Y0140736D01*
X0133828Y0140576D01*
X0133807Y0140417D01*
X0133781Y0140258D01*
X0133751Y0140100D01*
X0133718Y0139943D01*
X0133680Y0139786D01*
X0133639Y0139631D01*
X0133594Y0139477D01*
X0133545Y0139324D01*
X0133492Y0139172D01*
X0133436Y0139021D01*
X0133375Y0138872D01*
X0133312Y0138724D01*
X0133244Y0138578D01*
X0133173Y0138434D01*
X0133099Y0138292D01*
X0133021Y0138151D01*
X0132939Y0138013D01*
X0132854Y0137876D01*
X0132766Y0137742D01*
X0132674Y0137610D01*
X0132579Y0137480D01*
X0132481Y0137352D01*
X0132380Y0137227D01*
X0132276Y0137105D01*
X0132169Y0136985D01*
X0132059Y0136868D01*
X0131946Y0136753D01*
X0131830Y0136642D01*
X0131711Y0136533D01*
X0131590Y0136428D01*
X0131466Y0136325D01*
X0131340Y0136225D01*
X0131212Y0136129D01*
X0131081Y0136036D01*
X0130947Y0135946D01*
X0130812Y0135859D01*
X0130674Y0135776D01*
X0130535Y0135696D01*
X0130393Y0135620D01*
X0130250Y0135547D01*
X0130105Y0135478D01*
X0129958Y0135412D01*
X0129810Y0135350D01*
X0129660Y0135292D01*
X0129509Y0135237D01*
X0129356Y0135186D01*
X0129202Y0135139D01*
X0129047Y0135096D01*
X0128891Y0135057D01*
X0128735Y0135021D01*
X0128577Y0134990D01*
X0128419Y0134962D01*
X0128260Y0134938D01*
X0128100Y0134918D01*
X0127940Y0134902D01*
X0127780Y0134890D01*
X0127619Y0134882D01*
X0127458Y0134878D01*
X0127298Y0134878D01*
X0127137Y0134882D01*
X0126976Y0134890D01*
X0126816Y0134902D01*
X0126656Y0134918D01*
X0126496Y0134938D01*
X0126337Y0134962D01*
X0126179Y0134990D01*
X0126021Y0135021D01*
X0125865Y0135057D01*
X0125709Y0135096D01*
X0125554Y0135139D01*
X0125400Y0135186D01*
X0125247Y0135237D01*
X0125096Y0135292D01*
X0124946Y0135350D01*
X0124798Y0135412D01*
X0124651Y0135478D01*
X0124506Y0135547D01*
X0124363Y0135620D01*
X0124221Y0135696D01*
X0124082Y0135776D01*
X0123944Y0135859D01*
X0123809Y0135946D01*
X0123675Y0136036D01*
X0123544Y0136129D01*
X0123416Y0136225D01*
X0123290Y0136325D01*
X0123166Y0136428D01*
X0123045Y0136533D01*
X0122926Y0136642D01*
X0122810Y0136753D01*
X0122697Y0136868D01*
X0122587Y0136985D01*
X0122480Y0137105D01*
X0122376Y0137227D01*
X0122275Y0137352D01*
X0122177Y0137480D01*
X0122082Y0137610D01*
X0121990Y0137742D01*
X0121902Y0137876D01*
X0121817Y0138013D01*
X0121735Y0138151D01*
X0121657Y0138292D01*
X0121583Y0138434D01*
X0121512Y0138578D01*
X0121444Y0138724D01*
X0121381Y0138872D01*
X0121320Y0139021D01*
X0121264Y0139172D01*
X0121211Y0139324D01*
X0121162Y0139477D01*
X0121117Y0139631D01*
X0121076Y0139786D01*
X0121038Y0139943D01*
X0121005Y0140100D01*
X0120975Y0140258D01*
X0120949Y0140417D01*
X0120928Y0140576D01*
X0120910Y0140736D01*
X0120896Y0140896D01*
X0120886Y0141057D01*
X0120880Y0141217D01*
X0120878Y0141378D01*
X0178244Y0145173D02*
X0178246Y0145331D01*
X0178252Y0145489D01*
X0178262Y0145647D01*
X0178276Y0145805D01*
X0178294Y0145962D01*
X0178315Y0146119D01*
X0178341Y0146275D01*
X0178371Y0146431D01*
X0178404Y0146586D01*
X0178442Y0146739D01*
X0178483Y0146892D01*
X0178528Y0147044D01*
X0178577Y0147195D01*
X0178630Y0147344D01*
X0178686Y0147492D01*
X0178746Y0147638D01*
X0178810Y0147783D01*
X0178878Y0147926D01*
X0178949Y0148068D01*
X0179023Y0148208D01*
X0179101Y0148345D01*
X0179183Y0148481D01*
X0179267Y0148615D01*
X0179356Y0148746D01*
X0179447Y0148875D01*
X0179542Y0149002D01*
X0179639Y0149127D01*
X0179740Y0149249D01*
X0179844Y0149368D01*
X0179951Y0149485D01*
X0180061Y0149599D01*
X0180174Y0149710D01*
X0180289Y0149819D01*
X0180407Y0149924D01*
X0180528Y0150026D01*
X0180651Y0150126D01*
X0180777Y0150222D01*
X0180905Y0150315D01*
X0181035Y0150405D01*
X0181168Y0150491D01*
X0181303Y0150575D01*
X0181439Y0150654D01*
X0181578Y0150731D01*
X0181719Y0150803D01*
X0181861Y0150873D01*
X0182005Y0150938D01*
X0182151Y0151000D01*
X0182298Y0151058D01*
X0182447Y0151113D01*
X0182597Y0151164D01*
X0182748Y0151211D01*
X0182900Y0151254D01*
X0183053Y0151293D01*
X0183208Y0151329D01*
X0183363Y0151360D01*
X0183519Y0151388D01*
X0183675Y0151412D01*
X0183832Y0151432D01*
X0183990Y0151448D01*
X0184147Y0151460D01*
X0184306Y0151468D01*
X0184464Y0151472D01*
X0184622Y0151472D01*
X0184780Y0151468D01*
X0184939Y0151460D01*
X0185096Y0151448D01*
X0185254Y0151432D01*
X0185411Y0151412D01*
X0185567Y0151388D01*
X0185723Y0151360D01*
X0185878Y0151329D01*
X0186033Y0151293D01*
X0186186Y0151254D01*
X0186338Y0151211D01*
X0186489Y0151164D01*
X0186639Y0151113D01*
X0186788Y0151058D01*
X0186935Y0151000D01*
X0187081Y0150938D01*
X0187225Y0150873D01*
X0187367Y0150803D01*
X0187508Y0150731D01*
X0187647Y0150654D01*
X0187783Y0150575D01*
X0187918Y0150491D01*
X0188051Y0150405D01*
X0188181Y0150315D01*
X0188309Y0150222D01*
X0188435Y0150126D01*
X0188558Y0150026D01*
X0188679Y0149924D01*
X0188797Y0149819D01*
X0188912Y0149710D01*
X0189025Y0149599D01*
X0189135Y0149485D01*
X0189242Y0149368D01*
X0189346Y0149249D01*
X0189447Y0149127D01*
X0189544Y0149002D01*
X0189639Y0148875D01*
X0189730Y0148746D01*
X0189819Y0148615D01*
X0189903Y0148481D01*
X0189985Y0148345D01*
X0190063Y0148208D01*
X0190137Y0148068D01*
X0190208Y0147926D01*
X0190276Y0147783D01*
X0190340Y0147638D01*
X0190400Y0147492D01*
X0190456Y0147344D01*
X0190509Y0147195D01*
X0190558Y0147044D01*
X0190603Y0146892D01*
X0190644Y0146739D01*
X0190682Y0146586D01*
X0190715Y0146431D01*
X0190745Y0146275D01*
X0190771Y0146119D01*
X0190792Y0145962D01*
X0190810Y0145805D01*
X0190824Y0145647D01*
X0190834Y0145489D01*
X0190840Y0145331D01*
X0190842Y0145173D01*
X0190840Y0145015D01*
X0190834Y0144857D01*
X0190824Y0144699D01*
X0190810Y0144541D01*
X0190792Y0144384D01*
X0190771Y0144227D01*
X0190745Y0144071D01*
X0190715Y0143915D01*
X0190682Y0143760D01*
X0190644Y0143607D01*
X0190603Y0143454D01*
X0190558Y0143302D01*
X0190509Y0143151D01*
X0190456Y0143002D01*
X0190400Y0142854D01*
X0190340Y0142708D01*
X0190276Y0142563D01*
X0190208Y0142420D01*
X0190137Y0142278D01*
X0190063Y0142138D01*
X0189985Y0142001D01*
X0189903Y0141865D01*
X0189819Y0141731D01*
X0189730Y0141600D01*
X0189639Y0141471D01*
X0189544Y0141344D01*
X0189447Y0141219D01*
X0189346Y0141097D01*
X0189242Y0140978D01*
X0189135Y0140861D01*
X0189025Y0140747D01*
X0188912Y0140636D01*
X0188797Y0140527D01*
X0188679Y0140422D01*
X0188558Y0140320D01*
X0188435Y0140220D01*
X0188309Y0140124D01*
X0188181Y0140031D01*
X0188051Y0139941D01*
X0187918Y0139855D01*
X0187783Y0139771D01*
X0187647Y0139692D01*
X0187508Y0139615D01*
X0187367Y0139543D01*
X0187225Y0139473D01*
X0187081Y0139408D01*
X0186935Y0139346D01*
X0186788Y0139288D01*
X0186639Y0139233D01*
X0186489Y0139182D01*
X0186338Y0139135D01*
X0186186Y0139092D01*
X0186033Y0139053D01*
X0185878Y0139017D01*
X0185723Y0138986D01*
X0185567Y0138958D01*
X0185411Y0138934D01*
X0185254Y0138914D01*
X0185096Y0138898D01*
X0184939Y0138886D01*
X0184780Y0138878D01*
X0184622Y0138874D01*
X0184464Y0138874D01*
X0184306Y0138878D01*
X0184147Y0138886D01*
X0183990Y0138898D01*
X0183832Y0138914D01*
X0183675Y0138934D01*
X0183519Y0138958D01*
X0183363Y0138986D01*
X0183208Y0139017D01*
X0183053Y0139053D01*
X0182900Y0139092D01*
X0182748Y0139135D01*
X0182597Y0139182D01*
X0182447Y0139233D01*
X0182298Y0139288D01*
X0182151Y0139346D01*
X0182005Y0139408D01*
X0181861Y0139473D01*
X0181719Y0139543D01*
X0181578Y0139615D01*
X0181439Y0139692D01*
X0181303Y0139771D01*
X0181168Y0139855D01*
X0181035Y0139941D01*
X0180905Y0140031D01*
X0180777Y0140124D01*
X0180651Y0140220D01*
X0180528Y0140320D01*
X0180407Y0140422D01*
X0180289Y0140527D01*
X0180174Y0140636D01*
X0180061Y0140747D01*
X0179951Y0140861D01*
X0179844Y0140978D01*
X0179740Y0141097D01*
X0179639Y0141219D01*
X0179542Y0141344D01*
X0179447Y0141471D01*
X0179356Y0141600D01*
X0179267Y0141731D01*
X0179183Y0141865D01*
X0179101Y0142001D01*
X0179023Y0142138D01*
X0178949Y0142278D01*
X0178878Y0142420D01*
X0178810Y0142563D01*
X0178746Y0142708D01*
X0178686Y0142854D01*
X0178630Y0143002D01*
X0178577Y0143151D01*
X0178528Y0143302D01*
X0178483Y0143454D01*
X0178442Y0143607D01*
X0178404Y0143760D01*
X0178371Y0143915D01*
X0178341Y0144071D01*
X0178315Y0144227D01*
X0178294Y0144384D01*
X0178276Y0144541D01*
X0178262Y0144699D01*
X0178252Y0144857D01*
X0178246Y0145015D01*
X0178244Y0145173D01*
X0020764Y0145173D02*
X0020766Y0145331D01*
X0020772Y0145489D01*
X0020782Y0145647D01*
X0020796Y0145805D01*
X0020814Y0145962D01*
X0020835Y0146119D01*
X0020861Y0146275D01*
X0020891Y0146431D01*
X0020924Y0146586D01*
X0020962Y0146739D01*
X0021003Y0146892D01*
X0021048Y0147044D01*
X0021097Y0147195D01*
X0021150Y0147344D01*
X0021206Y0147492D01*
X0021266Y0147638D01*
X0021330Y0147783D01*
X0021398Y0147926D01*
X0021469Y0148068D01*
X0021543Y0148208D01*
X0021621Y0148345D01*
X0021703Y0148481D01*
X0021787Y0148615D01*
X0021876Y0148746D01*
X0021967Y0148875D01*
X0022062Y0149002D01*
X0022159Y0149127D01*
X0022260Y0149249D01*
X0022364Y0149368D01*
X0022471Y0149485D01*
X0022581Y0149599D01*
X0022694Y0149710D01*
X0022809Y0149819D01*
X0022927Y0149924D01*
X0023048Y0150026D01*
X0023171Y0150126D01*
X0023297Y0150222D01*
X0023425Y0150315D01*
X0023555Y0150405D01*
X0023688Y0150491D01*
X0023823Y0150575D01*
X0023959Y0150654D01*
X0024098Y0150731D01*
X0024239Y0150803D01*
X0024381Y0150873D01*
X0024525Y0150938D01*
X0024671Y0151000D01*
X0024818Y0151058D01*
X0024967Y0151113D01*
X0025117Y0151164D01*
X0025268Y0151211D01*
X0025420Y0151254D01*
X0025573Y0151293D01*
X0025728Y0151329D01*
X0025883Y0151360D01*
X0026039Y0151388D01*
X0026195Y0151412D01*
X0026352Y0151432D01*
X0026510Y0151448D01*
X0026667Y0151460D01*
X0026826Y0151468D01*
X0026984Y0151472D01*
X0027142Y0151472D01*
X0027300Y0151468D01*
X0027459Y0151460D01*
X0027616Y0151448D01*
X0027774Y0151432D01*
X0027931Y0151412D01*
X0028087Y0151388D01*
X0028243Y0151360D01*
X0028398Y0151329D01*
X0028553Y0151293D01*
X0028706Y0151254D01*
X0028858Y0151211D01*
X0029009Y0151164D01*
X0029159Y0151113D01*
X0029308Y0151058D01*
X0029455Y0151000D01*
X0029601Y0150938D01*
X0029745Y0150873D01*
X0029887Y0150803D01*
X0030028Y0150731D01*
X0030167Y0150654D01*
X0030303Y0150575D01*
X0030438Y0150491D01*
X0030571Y0150405D01*
X0030701Y0150315D01*
X0030829Y0150222D01*
X0030955Y0150126D01*
X0031078Y0150026D01*
X0031199Y0149924D01*
X0031317Y0149819D01*
X0031432Y0149710D01*
X0031545Y0149599D01*
X0031655Y0149485D01*
X0031762Y0149368D01*
X0031866Y0149249D01*
X0031967Y0149127D01*
X0032064Y0149002D01*
X0032159Y0148875D01*
X0032250Y0148746D01*
X0032339Y0148615D01*
X0032423Y0148481D01*
X0032505Y0148345D01*
X0032583Y0148208D01*
X0032657Y0148068D01*
X0032728Y0147926D01*
X0032796Y0147783D01*
X0032860Y0147638D01*
X0032920Y0147492D01*
X0032976Y0147344D01*
X0033029Y0147195D01*
X0033078Y0147044D01*
X0033123Y0146892D01*
X0033164Y0146739D01*
X0033202Y0146586D01*
X0033235Y0146431D01*
X0033265Y0146275D01*
X0033291Y0146119D01*
X0033312Y0145962D01*
X0033330Y0145805D01*
X0033344Y0145647D01*
X0033354Y0145489D01*
X0033360Y0145331D01*
X0033362Y0145173D01*
X0033360Y0145015D01*
X0033354Y0144857D01*
X0033344Y0144699D01*
X0033330Y0144541D01*
X0033312Y0144384D01*
X0033291Y0144227D01*
X0033265Y0144071D01*
X0033235Y0143915D01*
X0033202Y0143760D01*
X0033164Y0143607D01*
X0033123Y0143454D01*
X0033078Y0143302D01*
X0033029Y0143151D01*
X0032976Y0143002D01*
X0032920Y0142854D01*
X0032860Y0142708D01*
X0032796Y0142563D01*
X0032728Y0142420D01*
X0032657Y0142278D01*
X0032583Y0142138D01*
X0032505Y0142001D01*
X0032423Y0141865D01*
X0032339Y0141731D01*
X0032250Y0141600D01*
X0032159Y0141471D01*
X0032064Y0141344D01*
X0031967Y0141219D01*
X0031866Y0141097D01*
X0031762Y0140978D01*
X0031655Y0140861D01*
X0031545Y0140747D01*
X0031432Y0140636D01*
X0031317Y0140527D01*
X0031199Y0140422D01*
X0031078Y0140320D01*
X0030955Y0140220D01*
X0030829Y0140124D01*
X0030701Y0140031D01*
X0030571Y0139941D01*
X0030438Y0139855D01*
X0030303Y0139771D01*
X0030167Y0139692D01*
X0030028Y0139615D01*
X0029887Y0139543D01*
X0029745Y0139473D01*
X0029601Y0139408D01*
X0029455Y0139346D01*
X0029308Y0139288D01*
X0029159Y0139233D01*
X0029009Y0139182D01*
X0028858Y0139135D01*
X0028706Y0139092D01*
X0028553Y0139053D01*
X0028398Y0139017D01*
X0028243Y0138986D01*
X0028087Y0138958D01*
X0027931Y0138934D01*
X0027774Y0138914D01*
X0027616Y0138898D01*
X0027459Y0138886D01*
X0027300Y0138878D01*
X0027142Y0138874D01*
X0026984Y0138874D01*
X0026826Y0138878D01*
X0026667Y0138886D01*
X0026510Y0138898D01*
X0026352Y0138914D01*
X0026195Y0138934D01*
X0026039Y0138958D01*
X0025883Y0138986D01*
X0025728Y0139017D01*
X0025573Y0139053D01*
X0025420Y0139092D01*
X0025268Y0139135D01*
X0025117Y0139182D01*
X0024967Y0139233D01*
X0024818Y0139288D01*
X0024671Y0139346D01*
X0024525Y0139408D01*
X0024381Y0139473D01*
X0024239Y0139543D01*
X0024098Y0139615D01*
X0023959Y0139692D01*
X0023823Y0139771D01*
X0023688Y0139855D01*
X0023555Y0139941D01*
X0023425Y0140031D01*
X0023297Y0140124D01*
X0023171Y0140220D01*
X0023048Y0140320D01*
X0022927Y0140422D01*
X0022809Y0140527D01*
X0022694Y0140636D01*
X0022581Y0140747D01*
X0022471Y0140861D01*
X0022364Y0140978D01*
X0022260Y0141097D01*
X0022159Y0141219D01*
X0022062Y0141344D01*
X0021967Y0141471D01*
X0021876Y0141600D01*
X0021787Y0141731D01*
X0021703Y0141865D01*
X0021621Y0142001D01*
X0021543Y0142138D01*
X0021469Y0142278D01*
X0021398Y0142420D01*
X0021330Y0142563D01*
X0021266Y0142708D01*
X0021206Y0142854D01*
X0021150Y0143002D01*
X0021097Y0143151D01*
X0021048Y0143302D01*
X0021003Y0143454D01*
X0020962Y0143607D01*
X0020924Y0143760D01*
X0020891Y0143915D01*
X0020861Y0144071D01*
X0020835Y0144227D01*
X0020814Y0144384D01*
X0020796Y0144541D01*
X0020782Y0144699D01*
X0020772Y0144857D01*
X0020766Y0145015D01*
X0020764Y0145173D01*
D11*
X0021598Y0126168D02*
X0019778Y0126168D01*
X0019778Y0122528D01*
X0021598Y0122528D01*
X0022205Y0123135D01*
X0022205Y0125561D01*
X0021598Y0126168D01*
X0023403Y0126168D02*
X0025223Y0126168D01*
X0025830Y0125561D01*
X0025830Y0124348D01*
X0025223Y0123741D01*
X0023403Y0123741D01*
X0023403Y0122528D02*
X0023403Y0126168D01*
X0024617Y0123741D02*
X0025830Y0122528D01*
X0027028Y0124348D02*
X0029455Y0124348D01*
X0018580Y0122528D02*
X0016153Y0122528D01*
X0016153Y0126168D01*
X0018580Y0126168D01*
X0017366Y0124348D02*
X0016153Y0124348D01*
X0014955Y0122528D02*
X0012528Y0122528D01*
X0012528Y0126168D01*
X0012528Y0101168D02*
X0012528Y0097528D01*
X0014955Y0097528D01*
X0016153Y0097528D02*
X0018580Y0097528D01*
X0019778Y0097528D02*
X0021598Y0097528D01*
X0022205Y0098135D01*
X0022205Y0100561D01*
X0021598Y0101168D01*
X0019778Y0101168D01*
X0019778Y0097528D01*
X0017366Y0099348D02*
X0016153Y0099348D01*
X0016153Y0101168D02*
X0016153Y0097528D01*
X0016153Y0101168D02*
X0018580Y0101168D01*
X0023403Y0101168D02*
X0023403Y0097528D01*
X0023403Y0098741D02*
X0025223Y0098741D01*
X0025830Y0099348D01*
X0025830Y0100561D01*
X0025223Y0101168D01*
X0023403Y0101168D01*
X0027028Y0099348D02*
X0029455Y0099348D01*
X0028242Y0100561D02*
X0028242Y0098135D01*
X0025830Y0097528D02*
X0024617Y0098741D01*
X0032528Y0071168D02*
X0032528Y0067528D01*
X0034955Y0067528D01*
X0036153Y0067528D02*
X0038580Y0067528D01*
X0039778Y0067528D02*
X0041598Y0067528D01*
X0042205Y0068135D01*
X0042205Y0070561D01*
X0041598Y0071168D01*
X0039778Y0071168D01*
X0039778Y0067528D01*
X0037366Y0069348D02*
X0036153Y0069348D01*
X0036153Y0071168D02*
X0036153Y0067528D01*
X0036153Y0071168D02*
X0038580Y0071168D01*
X0043403Y0071168D02*
X0045223Y0071168D01*
X0045830Y0070561D01*
X0045830Y0069955D01*
X0045223Y0069348D01*
X0043403Y0069348D01*
X0043403Y0067528D02*
X0045223Y0067528D01*
X0045830Y0068135D01*
X0045830Y0068741D01*
X0045223Y0069348D01*
X0047028Y0069348D02*
X0049455Y0069348D01*
X0043403Y0067528D02*
X0043403Y0071168D01*
X0043403Y0051168D02*
X0045223Y0051168D01*
X0045830Y0050561D01*
X0045830Y0049955D01*
X0045223Y0049348D01*
X0043403Y0049348D01*
X0042205Y0048135D02*
X0042205Y0050561D01*
X0041598Y0051168D01*
X0039778Y0051168D01*
X0039778Y0047528D01*
X0041598Y0047528D01*
X0042205Y0048135D01*
X0043403Y0047528D02*
X0045223Y0047528D01*
X0045830Y0048135D01*
X0045830Y0048741D01*
X0045223Y0049348D01*
X0047028Y0049348D02*
X0049455Y0049348D01*
X0048242Y0050561D02*
X0048242Y0048135D01*
X0043403Y0047528D02*
X0043403Y0051168D01*
X0038580Y0051168D02*
X0036153Y0051168D01*
X0036153Y0047528D01*
X0038580Y0047528D01*
X0037366Y0049348D02*
X0036153Y0049348D01*
X0034955Y0047528D02*
X0032528Y0047528D01*
X0032528Y0051168D01*
X0187528Y0096954D02*
X0188135Y0096347D01*
X0189348Y0096347D01*
X0189955Y0096954D01*
X0189955Y0098167D01*
X0188741Y0098167D01*
X0187528Y0099380D02*
X0187528Y0096954D01*
X0187528Y0099380D02*
X0188135Y0099987D01*
X0189348Y0099987D01*
X0189955Y0099380D01*
X0191153Y0099987D02*
X0193580Y0096347D01*
X0193580Y0099987D01*
X0194778Y0099987D02*
X0196598Y0099987D01*
X0197205Y0099380D01*
X0197205Y0096954D01*
X0196598Y0096347D01*
X0194778Y0096347D01*
X0194778Y0099987D01*
X0191153Y0099987D02*
X0191153Y0096347D01*
X0191153Y0115559D02*
X0193580Y0117986D01*
X0193580Y0118593D01*
X0192973Y0119200D01*
X0191760Y0119200D01*
X0191153Y0118593D01*
X0187528Y0119200D02*
X0187528Y0115559D01*
X0189955Y0115559D01*
X0191153Y0115559D02*
X0193580Y0115559D01*
X0194778Y0115559D02*
X0194778Y0119200D01*
X0197205Y0119200D01*
X0195992Y0117380D02*
X0194778Y0117380D01*
X0195385Y0127528D02*
X0194778Y0128135D01*
X0194778Y0130561D01*
X0195385Y0131168D01*
X0196598Y0131168D01*
X0197205Y0130561D01*
X0197205Y0128135D02*
X0196598Y0127528D01*
X0195385Y0127528D01*
X0193580Y0128135D02*
X0192973Y0127528D01*
X0191760Y0127528D01*
X0191153Y0128135D01*
X0191153Y0130561D01*
X0191760Y0131168D01*
X0192973Y0131168D01*
X0193580Y0130561D01*
X0189955Y0131168D02*
X0189955Y0128741D01*
X0188741Y0127528D01*
X0187528Y0128741D01*
X0187528Y0131168D01*
D12*
X0174878Y0127378D02*
X0164878Y0127378D01*
X0164878Y0117378D01*
X0164878Y0107378D01*
X0164878Y0097378D01*
X0174878Y0097378D01*
X0174878Y0107378D01*
X0174878Y0117378D01*
X0174878Y0127378D01*
X0174878Y0117378D02*
X0164878Y0117378D01*
X0164878Y0107378D02*
X0174878Y0107378D01*
X0147878Y0092378D02*
X0147878Y0141378D01*
X0144378Y0141378D01*
X0144378Y0147378D01*
X0147878Y0147378D01*
X0147878Y0154878D01*
X0106878Y0154878D01*
X0106878Y0147378D01*
X0110378Y0147378D01*
X0110378Y0141378D01*
X0106878Y0141378D01*
X0106878Y0092378D01*
X0147878Y0092378D01*
X0120278Y0141378D02*
X0120280Y0141552D01*
X0120287Y0141726D01*
X0120297Y0141900D01*
X0120312Y0142074D01*
X0120331Y0142247D01*
X0120355Y0142420D01*
X0120383Y0142592D01*
X0120414Y0142763D01*
X0120451Y0142934D01*
X0120491Y0143103D01*
X0120535Y0143272D01*
X0120584Y0143439D01*
X0120636Y0143605D01*
X0120693Y0143770D01*
X0120754Y0143933D01*
X0120818Y0144095D01*
X0120887Y0144255D01*
X0120960Y0144414D01*
X0121036Y0144570D01*
X0121116Y0144725D01*
X0121200Y0144878D01*
X0121288Y0145028D01*
X0121380Y0145176D01*
X0121475Y0145323D01*
X0121573Y0145466D01*
X0121675Y0145607D01*
X0121781Y0145746D01*
X0121890Y0145882D01*
X0122002Y0146016D01*
X0122117Y0146146D01*
X0122236Y0146274D01*
X0122358Y0146398D01*
X0122482Y0146520D01*
X0122610Y0146639D01*
X0122740Y0146754D01*
X0122874Y0146866D01*
X0123010Y0146975D01*
X0123149Y0147081D01*
X0123290Y0147183D01*
X0123433Y0147281D01*
X0123580Y0147376D01*
X0123728Y0147468D01*
X0123878Y0147556D01*
X0124031Y0147640D01*
X0124186Y0147720D01*
X0124342Y0147796D01*
X0124501Y0147869D01*
X0124661Y0147938D01*
X0124823Y0148002D01*
X0124986Y0148063D01*
X0125151Y0148120D01*
X0125317Y0148172D01*
X0125484Y0148221D01*
X0125653Y0148265D01*
X0125822Y0148305D01*
X0125993Y0148342D01*
X0126164Y0148373D01*
X0126336Y0148401D01*
X0126509Y0148425D01*
X0126682Y0148444D01*
X0126856Y0148459D01*
X0127030Y0148469D01*
X0127204Y0148476D01*
X0127378Y0148478D01*
X0127552Y0148476D01*
X0127726Y0148469D01*
X0127900Y0148459D01*
X0128074Y0148444D01*
X0128247Y0148425D01*
X0128420Y0148401D01*
X0128592Y0148373D01*
X0128763Y0148342D01*
X0128934Y0148305D01*
X0129103Y0148265D01*
X0129272Y0148221D01*
X0129439Y0148172D01*
X0129605Y0148120D01*
X0129770Y0148063D01*
X0129933Y0148002D01*
X0130095Y0147938D01*
X0130255Y0147869D01*
X0130414Y0147796D01*
X0130570Y0147720D01*
X0130725Y0147640D01*
X0130878Y0147556D01*
X0131028Y0147468D01*
X0131176Y0147376D01*
X0131323Y0147281D01*
X0131466Y0147183D01*
X0131607Y0147081D01*
X0131746Y0146975D01*
X0131882Y0146866D01*
X0132016Y0146754D01*
X0132146Y0146639D01*
X0132274Y0146520D01*
X0132398Y0146398D01*
X0132520Y0146274D01*
X0132639Y0146146D01*
X0132754Y0146016D01*
X0132866Y0145882D01*
X0132975Y0145746D01*
X0133081Y0145607D01*
X0133183Y0145466D01*
X0133281Y0145323D01*
X0133376Y0145176D01*
X0133468Y0145028D01*
X0133556Y0144878D01*
X0133640Y0144725D01*
X0133720Y0144570D01*
X0133796Y0144414D01*
X0133869Y0144255D01*
X0133938Y0144095D01*
X0134002Y0143933D01*
X0134063Y0143770D01*
X0134120Y0143605D01*
X0134172Y0143439D01*
X0134221Y0143272D01*
X0134265Y0143103D01*
X0134305Y0142934D01*
X0134342Y0142763D01*
X0134373Y0142592D01*
X0134401Y0142420D01*
X0134425Y0142247D01*
X0134444Y0142074D01*
X0134459Y0141900D01*
X0134469Y0141726D01*
X0134476Y0141552D01*
X0134478Y0141378D01*
X0134476Y0141204D01*
X0134469Y0141030D01*
X0134459Y0140856D01*
X0134444Y0140682D01*
X0134425Y0140509D01*
X0134401Y0140336D01*
X0134373Y0140164D01*
X0134342Y0139993D01*
X0134305Y0139822D01*
X0134265Y0139653D01*
X0134221Y0139484D01*
X0134172Y0139317D01*
X0134120Y0139151D01*
X0134063Y0138986D01*
X0134002Y0138823D01*
X0133938Y0138661D01*
X0133869Y0138501D01*
X0133796Y0138342D01*
X0133720Y0138186D01*
X0133640Y0138031D01*
X0133556Y0137878D01*
X0133468Y0137728D01*
X0133376Y0137580D01*
X0133281Y0137433D01*
X0133183Y0137290D01*
X0133081Y0137149D01*
X0132975Y0137010D01*
X0132866Y0136874D01*
X0132754Y0136740D01*
X0132639Y0136610D01*
X0132520Y0136482D01*
X0132398Y0136358D01*
X0132274Y0136236D01*
X0132146Y0136117D01*
X0132016Y0136002D01*
X0131882Y0135890D01*
X0131746Y0135781D01*
X0131607Y0135675D01*
X0131466Y0135573D01*
X0131323Y0135475D01*
X0131176Y0135380D01*
X0131028Y0135288D01*
X0130878Y0135200D01*
X0130725Y0135116D01*
X0130570Y0135036D01*
X0130414Y0134960D01*
X0130255Y0134887D01*
X0130095Y0134818D01*
X0129933Y0134754D01*
X0129770Y0134693D01*
X0129605Y0134636D01*
X0129439Y0134584D01*
X0129272Y0134535D01*
X0129103Y0134491D01*
X0128934Y0134451D01*
X0128763Y0134414D01*
X0128592Y0134383D01*
X0128420Y0134355D01*
X0128247Y0134331D01*
X0128074Y0134312D01*
X0127900Y0134297D01*
X0127726Y0134287D01*
X0127552Y0134280D01*
X0127378Y0134278D01*
X0127204Y0134280D01*
X0127030Y0134287D01*
X0126856Y0134297D01*
X0126682Y0134312D01*
X0126509Y0134331D01*
X0126336Y0134355D01*
X0126164Y0134383D01*
X0125993Y0134414D01*
X0125822Y0134451D01*
X0125653Y0134491D01*
X0125484Y0134535D01*
X0125317Y0134584D01*
X0125151Y0134636D01*
X0124986Y0134693D01*
X0124823Y0134754D01*
X0124661Y0134818D01*
X0124501Y0134887D01*
X0124342Y0134960D01*
X0124186Y0135036D01*
X0124031Y0135116D01*
X0123878Y0135200D01*
X0123728Y0135288D01*
X0123580Y0135380D01*
X0123433Y0135475D01*
X0123290Y0135573D01*
X0123149Y0135675D01*
X0123010Y0135781D01*
X0122874Y0135890D01*
X0122740Y0136002D01*
X0122610Y0136117D01*
X0122482Y0136236D01*
X0122358Y0136358D01*
X0122236Y0136482D01*
X0122117Y0136610D01*
X0122002Y0136740D01*
X0121890Y0136874D01*
X0121781Y0137010D01*
X0121675Y0137149D01*
X0121573Y0137290D01*
X0121475Y0137433D01*
X0121380Y0137580D01*
X0121288Y0137728D01*
X0121200Y0137878D01*
X0121116Y0138031D01*
X0121036Y0138186D01*
X0120960Y0138342D01*
X0120887Y0138501D01*
X0120818Y0138661D01*
X0120754Y0138823D01*
X0120693Y0138986D01*
X0120636Y0139151D01*
X0120584Y0139317D01*
X0120535Y0139484D01*
X0120491Y0139653D01*
X0120451Y0139822D01*
X0120414Y0139993D01*
X0120383Y0140164D01*
X0120355Y0140336D01*
X0120331Y0140509D01*
X0120312Y0140682D01*
X0120297Y0140856D01*
X0120287Y0141030D01*
X0120280Y0141204D01*
X0120278Y0141378D01*
X0089378Y0137378D02*
X0089378Y0147378D01*
X0089376Y0147438D01*
X0089371Y0147499D01*
X0089362Y0147558D01*
X0089349Y0147617D01*
X0089333Y0147676D01*
X0089313Y0147733D01*
X0089290Y0147788D01*
X0089263Y0147843D01*
X0089234Y0147895D01*
X0089201Y0147946D01*
X0089165Y0147995D01*
X0089127Y0148041D01*
X0089085Y0148085D01*
X0089041Y0148127D01*
X0088995Y0148165D01*
X0088946Y0148201D01*
X0088895Y0148234D01*
X0088843Y0148263D01*
X0088788Y0148290D01*
X0088733Y0148313D01*
X0088676Y0148333D01*
X0088617Y0148349D01*
X0088558Y0148362D01*
X0088499Y0148371D01*
X0088438Y0148376D01*
X0088378Y0148378D01*
X0085878Y0148378D01*
X0085378Y0147878D01*
X0059378Y0147878D01*
X0058878Y0148378D01*
X0056378Y0148378D01*
X0056318Y0148376D01*
X0056257Y0148371D01*
X0056198Y0148362D01*
X0056139Y0148349D01*
X0056080Y0148333D01*
X0056023Y0148313D01*
X0055968Y0148290D01*
X0055913Y0148263D01*
X0055861Y0148234D01*
X0055810Y0148201D01*
X0055761Y0148165D01*
X0055715Y0148127D01*
X0055671Y0148085D01*
X0055629Y0148041D01*
X0055591Y0147995D01*
X0055555Y0147946D01*
X0055522Y0147895D01*
X0055493Y0147843D01*
X0055466Y0147788D01*
X0055443Y0147733D01*
X0055423Y0147676D01*
X0055407Y0147617D01*
X0055394Y0147558D01*
X0055385Y0147499D01*
X0055380Y0147438D01*
X0055378Y0147378D01*
X0055378Y0137378D01*
X0055380Y0137318D01*
X0055385Y0137257D01*
X0055394Y0137198D01*
X0055407Y0137139D01*
X0055423Y0137080D01*
X0055443Y0137023D01*
X0055466Y0136968D01*
X0055493Y0136913D01*
X0055522Y0136861D01*
X0055555Y0136810D01*
X0055591Y0136761D01*
X0055629Y0136715D01*
X0055671Y0136671D01*
X0055715Y0136629D01*
X0055761Y0136591D01*
X0055810Y0136555D01*
X0055861Y0136522D01*
X0055913Y0136493D01*
X0055968Y0136466D01*
X0056023Y0136443D01*
X0056080Y0136423D01*
X0056139Y0136407D01*
X0056198Y0136394D01*
X0056257Y0136385D01*
X0056318Y0136380D01*
X0056378Y0136378D01*
X0058878Y0136378D01*
X0059378Y0136878D01*
X0085378Y0136878D01*
X0085878Y0136378D01*
X0088378Y0136378D01*
X0088438Y0136380D01*
X0088499Y0136385D01*
X0088558Y0136394D01*
X0088617Y0136407D01*
X0088676Y0136423D01*
X0088733Y0136443D01*
X0088788Y0136466D01*
X0088843Y0136493D01*
X0088895Y0136522D01*
X0088946Y0136555D01*
X0088995Y0136591D01*
X0089041Y0136629D01*
X0089085Y0136671D01*
X0089127Y0136715D01*
X0089165Y0136761D01*
X0089201Y0136810D01*
X0089234Y0136861D01*
X0089263Y0136913D01*
X0089290Y0136968D01*
X0089313Y0137023D01*
X0089333Y0137080D01*
X0089349Y0137139D01*
X0089362Y0137198D01*
X0089371Y0137257D01*
X0089376Y0137318D01*
X0089378Y0137378D01*
X0049878Y0122378D02*
X0049878Y0112378D01*
X0039878Y0112378D01*
X0039878Y0122378D01*
X0049878Y0122378D01*
X0049878Y0112378D02*
X0049878Y0102378D01*
X0039878Y0102378D01*
X0039878Y0112378D01*
X0013563Y0145173D02*
X0013567Y0145504D01*
X0013579Y0145835D01*
X0013600Y0146166D01*
X0013628Y0146496D01*
X0013665Y0146826D01*
X0013709Y0147154D01*
X0013762Y0147481D01*
X0013822Y0147807D01*
X0013891Y0148131D01*
X0013968Y0148453D01*
X0014052Y0148774D01*
X0014144Y0149092D01*
X0014244Y0149408D01*
X0014352Y0149721D01*
X0014468Y0150032D01*
X0014591Y0150339D01*
X0014721Y0150644D01*
X0014859Y0150945D01*
X0015004Y0151243D01*
X0015157Y0151537D01*
X0015317Y0151827D01*
X0015484Y0152113D01*
X0015657Y0152395D01*
X0015838Y0152673D01*
X0016026Y0152946D01*
X0016220Y0153215D01*
X0016420Y0153479D01*
X0016627Y0153737D01*
X0016841Y0153991D01*
X0017060Y0154239D01*
X0017286Y0154482D01*
X0017517Y0154719D01*
X0017754Y0154950D01*
X0017997Y0155176D01*
X0018245Y0155395D01*
X0018499Y0155609D01*
X0018757Y0155816D01*
X0019021Y0156016D01*
X0019290Y0156210D01*
X0019563Y0156398D01*
X0019841Y0156579D01*
X0020123Y0156752D01*
X0020409Y0156919D01*
X0020699Y0157079D01*
X0020993Y0157232D01*
X0021291Y0157377D01*
X0021592Y0157515D01*
X0021897Y0157645D01*
X0022204Y0157768D01*
X0022515Y0157884D01*
X0022828Y0157992D01*
X0023144Y0158092D01*
X0023462Y0158184D01*
X0023783Y0158268D01*
X0024105Y0158345D01*
X0024429Y0158414D01*
X0024755Y0158474D01*
X0025082Y0158527D01*
X0025410Y0158571D01*
X0025740Y0158608D01*
X0026070Y0158636D01*
X0026401Y0158657D01*
X0026732Y0158669D01*
X0027063Y0158673D01*
X0027394Y0158669D01*
X0027725Y0158657D01*
X0028056Y0158636D01*
X0028386Y0158608D01*
X0028716Y0158571D01*
X0029044Y0158527D01*
X0029371Y0158474D01*
X0029697Y0158414D01*
X0030021Y0158345D01*
X0030343Y0158268D01*
X0030664Y0158184D01*
X0030982Y0158092D01*
X0031298Y0157992D01*
X0031611Y0157884D01*
X0031922Y0157768D01*
X0032229Y0157645D01*
X0032534Y0157515D01*
X0032835Y0157377D01*
X0033133Y0157232D01*
X0033427Y0157079D01*
X0033717Y0156919D01*
X0034003Y0156752D01*
X0034285Y0156579D01*
X0034563Y0156398D01*
X0034836Y0156210D01*
X0035105Y0156016D01*
X0035369Y0155816D01*
X0035627Y0155609D01*
X0035881Y0155395D01*
X0036129Y0155176D01*
X0036372Y0154950D01*
X0036609Y0154719D01*
X0036840Y0154482D01*
X0037066Y0154239D01*
X0037285Y0153991D01*
X0037499Y0153737D01*
X0037706Y0153479D01*
X0037906Y0153215D01*
X0038100Y0152946D01*
X0038288Y0152673D01*
X0038469Y0152395D01*
X0038642Y0152113D01*
X0038809Y0151827D01*
X0038969Y0151537D01*
X0039122Y0151243D01*
X0039267Y0150945D01*
X0039405Y0150644D01*
X0039535Y0150339D01*
X0039658Y0150032D01*
X0039774Y0149721D01*
X0039882Y0149408D01*
X0039982Y0149092D01*
X0040074Y0148774D01*
X0040158Y0148453D01*
X0040235Y0148131D01*
X0040304Y0147807D01*
X0040364Y0147481D01*
X0040417Y0147154D01*
X0040461Y0146826D01*
X0040498Y0146496D01*
X0040526Y0146166D01*
X0040547Y0145835D01*
X0040559Y0145504D01*
X0040563Y0145173D01*
X0040559Y0144842D01*
X0040547Y0144511D01*
X0040526Y0144180D01*
X0040498Y0143850D01*
X0040461Y0143520D01*
X0040417Y0143192D01*
X0040364Y0142865D01*
X0040304Y0142539D01*
X0040235Y0142215D01*
X0040158Y0141893D01*
X0040074Y0141572D01*
X0039982Y0141254D01*
X0039882Y0140938D01*
X0039774Y0140625D01*
X0039658Y0140314D01*
X0039535Y0140007D01*
X0039405Y0139702D01*
X0039267Y0139401D01*
X0039122Y0139103D01*
X0038969Y0138809D01*
X0038809Y0138519D01*
X0038642Y0138233D01*
X0038469Y0137951D01*
X0038288Y0137673D01*
X0038100Y0137400D01*
X0037906Y0137131D01*
X0037706Y0136867D01*
X0037499Y0136609D01*
X0037285Y0136355D01*
X0037066Y0136107D01*
X0036840Y0135864D01*
X0036609Y0135627D01*
X0036372Y0135396D01*
X0036129Y0135170D01*
X0035881Y0134951D01*
X0035627Y0134737D01*
X0035369Y0134530D01*
X0035105Y0134330D01*
X0034836Y0134136D01*
X0034563Y0133948D01*
X0034285Y0133767D01*
X0034003Y0133594D01*
X0033717Y0133427D01*
X0033427Y0133267D01*
X0033133Y0133114D01*
X0032835Y0132969D01*
X0032534Y0132831D01*
X0032229Y0132701D01*
X0031922Y0132578D01*
X0031611Y0132462D01*
X0031298Y0132354D01*
X0030982Y0132254D01*
X0030664Y0132162D01*
X0030343Y0132078D01*
X0030021Y0132001D01*
X0029697Y0131932D01*
X0029371Y0131872D01*
X0029044Y0131819D01*
X0028716Y0131775D01*
X0028386Y0131738D01*
X0028056Y0131710D01*
X0027725Y0131689D01*
X0027394Y0131677D01*
X0027063Y0131673D01*
X0026732Y0131677D01*
X0026401Y0131689D01*
X0026070Y0131710D01*
X0025740Y0131738D01*
X0025410Y0131775D01*
X0025082Y0131819D01*
X0024755Y0131872D01*
X0024429Y0131932D01*
X0024105Y0132001D01*
X0023783Y0132078D01*
X0023462Y0132162D01*
X0023144Y0132254D01*
X0022828Y0132354D01*
X0022515Y0132462D01*
X0022204Y0132578D01*
X0021897Y0132701D01*
X0021592Y0132831D01*
X0021291Y0132969D01*
X0020993Y0133114D01*
X0020699Y0133267D01*
X0020409Y0133427D01*
X0020123Y0133594D01*
X0019841Y0133767D01*
X0019563Y0133948D01*
X0019290Y0134136D01*
X0019021Y0134330D01*
X0018757Y0134530D01*
X0018499Y0134737D01*
X0018245Y0134951D01*
X0017997Y0135170D01*
X0017754Y0135396D01*
X0017517Y0135627D01*
X0017286Y0135864D01*
X0017060Y0136107D01*
X0016841Y0136355D01*
X0016627Y0136609D01*
X0016420Y0136867D01*
X0016220Y0137131D01*
X0016026Y0137400D01*
X0015838Y0137673D01*
X0015657Y0137951D01*
X0015484Y0138233D01*
X0015317Y0138519D01*
X0015157Y0138809D01*
X0015004Y0139103D01*
X0014859Y0139401D01*
X0014721Y0139702D01*
X0014591Y0140007D01*
X0014468Y0140314D01*
X0014352Y0140625D01*
X0014244Y0140938D01*
X0014144Y0141254D01*
X0014052Y0141572D01*
X0013968Y0141893D01*
X0013891Y0142215D01*
X0013822Y0142539D01*
X0013762Y0142865D01*
X0013709Y0143192D01*
X0013665Y0143520D01*
X0013628Y0143850D01*
X0013600Y0144180D01*
X0013579Y0144511D01*
X0013567Y0144842D01*
X0013563Y0145173D01*
X0059878Y0076378D02*
X0074878Y0076378D01*
X0074938Y0076376D01*
X0074999Y0076371D01*
X0075058Y0076362D01*
X0075117Y0076349D01*
X0075176Y0076333D01*
X0075233Y0076313D01*
X0075288Y0076290D01*
X0075343Y0076263D01*
X0075395Y0076234D01*
X0075446Y0076201D01*
X0075495Y0076165D01*
X0075541Y0076127D01*
X0075585Y0076085D01*
X0075627Y0076041D01*
X0075665Y0075995D01*
X0075701Y0075946D01*
X0075734Y0075895D01*
X0075763Y0075843D01*
X0075790Y0075788D01*
X0075813Y0075733D01*
X0075833Y0075676D01*
X0075849Y0075617D01*
X0075862Y0075558D01*
X0075871Y0075499D01*
X0075876Y0075438D01*
X0075878Y0075378D01*
X0075878Y0071878D01*
X0075378Y0071378D01*
X0075378Y0033378D01*
X0075878Y0032878D01*
X0075878Y0029378D01*
X0075876Y0029318D01*
X0075871Y0029257D01*
X0075862Y0029198D01*
X0075849Y0029139D01*
X0075833Y0029080D01*
X0075813Y0029023D01*
X0075790Y0028968D01*
X0075763Y0028913D01*
X0075734Y0028861D01*
X0075701Y0028810D01*
X0075665Y0028761D01*
X0075627Y0028715D01*
X0075585Y0028671D01*
X0075541Y0028629D01*
X0075495Y0028591D01*
X0075446Y0028555D01*
X0075395Y0028522D01*
X0075343Y0028493D01*
X0075288Y0028466D01*
X0075233Y0028443D01*
X0075176Y0028423D01*
X0075117Y0028407D01*
X0075058Y0028394D01*
X0074999Y0028385D01*
X0074938Y0028380D01*
X0074878Y0028378D01*
X0059878Y0028378D01*
X0059818Y0028380D01*
X0059757Y0028385D01*
X0059698Y0028394D01*
X0059639Y0028407D01*
X0059580Y0028423D01*
X0059523Y0028443D01*
X0059468Y0028466D01*
X0059413Y0028493D01*
X0059361Y0028522D01*
X0059310Y0028555D01*
X0059261Y0028591D01*
X0059215Y0028629D01*
X0059171Y0028671D01*
X0059129Y0028715D01*
X0059091Y0028761D01*
X0059055Y0028810D01*
X0059022Y0028861D01*
X0058993Y0028913D01*
X0058966Y0028968D01*
X0058943Y0029023D01*
X0058923Y0029080D01*
X0058907Y0029139D01*
X0058894Y0029198D01*
X0058885Y0029257D01*
X0058880Y0029318D01*
X0058878Y0029378D01*
X0058878Y0032878D01*
X0059378Y0033378D01*
X0059378Y0071378D01*
X0058878Y0071878D01*
X0058878Y0075378D01*
X0058880Y0075438D01*
X0058885Y0075499D01*
X0058894Y0075558D01*
X0058907Y0075617D01*
X0058923Y0075676D01*
X0058943Y0075733D01*
X0058966Y0075788D01*
X0058993Y0075843D01*
X0059022Y0075895D01*
X0059055Y0075946D01*
X0059091Y0075995D01*
X0059129Y0076041D01*
X0059171Y0076085D01*
X0059215Y0076127D01*
X0059261Y0076165D01*
X0059310Y0076201D01*
X0059361Y0076234D01*
X0059413Y0076263D01*
X0059468Y0076290D01*
X0059523Y0076313D01*
X0059580Y0076333D01*
X0059639Y0076349D01*
X0059698Y0076362D01*
X0059757Y0076371D01*
X0059818Y0076376D01*
X0059878Y0076378D01*
X0013563Y0027063D02*
X0013567Y0027394D01*
X0013579Y0027725D01*
X0013600Y0028056D01*
X0013628Y0028386D01*
X0013665Y0028716D01*
X0013709Y0029044D01*
X0013762Y0029371D01*
X0013822Y0029697D01*
X0013891Y0030021D01*
X0013968Y0030343D01*
X0014052Y0030664D01*
X0014144Y0030982D01*
X0014244Y0031298D01*
X0014352Y0031611D01*
X0014468Y0031922D01*
X0014591Y0032229D01*
X0014721Y0032534D01*
X0014859Y0032835D01*
X0015004Y0033133D01*
X0015157Y0033427D01*
X0015317Y0033717D01*
X0015484Y0034003D01*
X0015657Y0034285D01*
X0015838Y0034563D01*
X0016026Y0034836D01*
X0016220Y0035105D01*
X0016420Y0035369D01*
X0016627Y0035627D01*
X0016841Y0035881D01*
X0017060Y0036129D01*
X0017286Y0036372D01*
X0017517Y0036609D01*
X0017754Y0036840D01*
X0017997Y0037066D01*
X0018245Y0037285D01*
X0018499Y0037499D01*
X0018757Y0037706D01*
X0019021Y0037906D01*
X0019290Y0038100D01*
X0019563Y0038288D01*
X0019841Y0038469D01*
X0020123Y0038642D01*
X0020409Y0038809D01*
X0020699Y0038969D01*
X0020993Y0039122D01*
X0021291Y0039267D01*
X0021592Y0039405D01*
X0021897Y0039535D01*
X0022204Y0039658D01*
X0022515Y0039774D01*
X0022828Y0039882D01*
X0023144Y0039982D01*
X0023462Y0040074D01*
X0023783Y0040158D01*
X0024105Y0040235D01*
X0024429Y0040304D01*
X0024755Y0040364D01*
X0025082Y0040417D01*
X0025410Y0040461D01*
X0025740Y0040498D01*
X0026070Y0040526D01*
X0026401Y0040547D01*
X0026732Y0040559D01*
X0027063Y0040563D01*
X0027394Y0040559D01*
X0027725Y0040547D01*
X0028056Y0040526D01*
X0028386Y0040498D01*
X0028716Y0040461D01*
X0029044Y0040417D01*
X0029371Y0040364D01*
X0029697Y0040304D01*
X0030021Y0040235D01*
X0030343Y0040158D01*
X0030664Y0040074D01*
X0030982Y0039982D01*
X0031298Y0039882D01*
X0031611Y0039774D01*
X0031922Y0039658D01*
X0032229Y0039535D01*
X0032534Y0039405D01*
X0032835Y0039267D01*
X0033133Y0039122D01*
X0033427Y0038969D01*
X0033717Y0038809D01*
X0034003Y0038642D01*
X0034285Y0038469D01*
X0034563Y0038288D01*
X0034836Y0038100D01*
X0035105Y0037906D01*
X0035369Y0037706D01*
X0035627Y0037499D01*
X0035881Y0037285D01*
X0036129Y0037066D01*
X0036372Y0036840D01*
X0036609Y0036609D01*
X0036840Y0036372D01*
X0037066Y0036129D01*
X0037285Y0035881D01*
X0037499Y0035627D01*
X0037706Y0035369D01*
X0037906Y0035105D01*
X0038100Y0034836D01*
X0038288Y0034563D01*
X0038469Y0034285D01*
X0038642Y0034003D01*
X0038809Y0033717D01*
X0038969Y0033427D01*
X0039122Y0033133D01*
X0039267Y0032835D01*
X0039405Y0032534D01*
X0039535Y0032229D01*
X0039658Y0031922D01*
X0039774Y0031611D01*
X0039882Y0031298D01*
X0039982Y0030982D01*
X0040074Y0030664D01*
X0040158Y0030343D01*
X0040235Y0030021D01*
X0040304Y0029697D01*
X0040364Y0029371D01*
X0040417Y0029044D01*
X0040461Y0028716D01*
X0040498Y0028386D01*
X0040526Y0028056D01*
X0040547Y0027725D01*
X0040559Y0027394D01*
X0040563Y0027063D01*
X0040559Y0026732D01*
X0040547Y0026401D01*
X0040526Y0026070D01*
X0040498Y0025740D01*
X0040461Y0025410D01*
X0040417Y0025082D01*
X0040364Y0024755D01*
X0040304Y0024429D01*
X0040235Y0024105D01*
X0040158Y0023783D01*
X0040074Y0023462D01*
X0039982Y0023144D01*
X0039882Y0022828D01*
X0039774Y0022515D01*
X0039658Y0022204D01*
X0039535Y0021897D01*
X0039405Y0021592D01*
X0039267Y0021291D01*
X0039122Y0020993D01*
X0038969Y0020699D01*
X0038809Y0020409D01*
X0038642Y0020123D01*
X0038469Y0019841D01*
X0038288Y0019563D01*
X0038100Y0019290D01*
X0037906Y0019021D01*
X0037706Y0018757D01*
X0037499Y0018499D01*
X0037285Y0018245D01*
X0037066Y0017997D01*
X0036840Y0017754D01*
X0036609Y0017517D01*
X0036372Y0017286D01*
X0036129Y0017060D01*
X0035881Y0016841D01*
X0035627Y0016627D01*
X0035369Y0016420D01*
X0035105Y0016220D01*
X0034836Y0016026D01*
X0034563Y0015838D01*
X0034285Y0015657D01*
X0034003Y0015484D01*
X0033717Y0015317D01*
X0033427Y0015157D01*
X0033133Y0015004D01*
X0032835Y0014859D01*
X0032534Y0014721D01*
X0032229Y0014591D01*
X0031922Y0014468D01*
X0031611Y0014352D01*
X0031298Y0014244D01*
X0030982Y0014144D01*
X0030664Y0014052D01*
X0030343Y0013968D01*
X0030021Y0013891D01*
X0029697Y0013822D01*
X0029371Y0013762D01*
X0029044Y0013709D01*
X0028716Y0013665D01*
X0028386Y0013628D01*
X0028056Y0013600D01*
X0027725Y0013579D01*
X0027394Y0013567D01*
X0027063Y0013563D01*
X0026732Y0013567D01*
X0026401Y0013579D01*
X0026070Y0013600D01*
X0025740Y0013628D01*
X0025410Y0013665D01*
X0025082Y0013709D01*
X0024755Y0013762D01*
X0024429Y0013822D01*
X0024105Y0013891D01*
X0023783Y0013968D01*
X0023462Y0014052D01*
X0023144Y0014144D01*
X0022828Y0014244D01*
X0022515Y0014352D01*
X0022204Y0014468D01*
X0021897Y0014591D01*
X0021592Y0014721D01*
X0021291Y0014859D01*
X0020993Y0015004D01*
X0020699Y0015157D01*
X0020409Y0015317D01*
X0020123Y0015484D01*
X0019841Y0015657D01*
X0019563Y0015838D01*
X0019290Y0016026D01*
X0019021Y0016220D01*
X0018757Y0016420D01*
X0018499Y0016627D01*
X0018245Y0016841D01*
X0017997Y0017060D01*
X0017754Y0017286D01*
X0017517Y0017517D01*
X0017286Y0017754D01*
X0017060Y0017997D01*
X0016841Y0018245D01*
X0016627Y0018499D01*
X0016420Y0018757D01*
X0016220Y0019021D01*
X0016026Y0019290D01*
X0015838Y0019563D01*
X0015657Y0019841D01*
X0015484Y0020123D01*
X0015317Y0020409D01*
X0015157Y0020699D01*
X0015004Y0020993D01*
X0014859Y0021291D01*
X0014721Y0021592D01*
X0014591Y0021897D01*
X0014468Y0022204D01*
X0014352Y0022515D01*
X0014244Y0022828D01*
X0014144Y0023144D01*
X0014052Y0023462D01*
X0013968Y0023783D01*
X0013891Y0024105D01*
X0013822Y0024429D01*
X0013762Y0024755D01*
X0013709Y0025082D01*
X0013665Y0025410D01*
X0013628Y0025740D01*
X0013600Y0026070D01*
X0013579Y0026401D01*
X0013567Y0026732D01*
X0013563Y0027063D01*
X0171043Y0027063D02*
X0171047Y0027394D01*
X0171059Y0027725D01*
X0171080Y0028056D01*
X0171108Y0028386D01*
X0171145Y0028716D01*
X0171189Y0029044D01*
X0171242Y0029371D01*
X0171302Y0029697D01*
X0171371Y0030021D01*
X0171448Y0030343D01*
X0171532Y0030664D01*
X0171624Y0030982D01*
X0171724Y0031298D01*
X0171832Y0031611D01*
X0171948Y0031922D01*
X0172071Y0032229D01*
X0172201Y0032534D01*
X0172339Y0032835D01*
X0172484Y0033133D01*
X0172637Y0033427D01*
X0172797Y0033717D01*
X0172964Y0034003D01*
X0173137Y0034285D01*
X0173318Y0034563D01*
X0173506Y0034836D01*
X0173700Y0035105D01*
X0173900Y0035369D01*
X0174107Y0035627D01*
X0174321Y0035881D01*
X0174540Y0036129D01*
X0174766Y0036372D01*
X0174997Y0036609D01*
X0175234Y0036840D01*
X0175477Y0037066D01*
X0175725Y0037285D01*
X0175979Y0037499D01*
X0176237Y0037706D01*
X0176501Y0037906D01*
X0176770Y0038100D01*
X0177043Y0038288D01*
X0177321Y0038469D01*
X0177603Y0038642D01*
X0177889Y0038809D01*
X0178179Y0038969D01*
X0178473Y0039122D01*
X0178771Y0039267D01*
X0179072Y0039405D01*
X0179377Y0039535D01*
X0179684Y0039658D01*
X0179995Y0039774D01*
X0180308Y0039882D01*
X0180624Y0039982D01*
X0180942Y0040074D01*
X0181263Y0040158D01*
X0181585Y0040235D01*
X0181909Y0040304D01*
X0182235Y0040364D01*
X0182562Y0040417D01*
X0182890Y0040461D01*
X0183220Y0040498D01*
X0183550Y0040526D01*
X0183881Y0040547D01*
X0184212Y0040559D01*
X0184543Y0040563D01*
X0184874Y0040559D01*
X0185205Y0040547D01*
X0185536Y0040526D01*
X0185866Y0040498D01*
X0186196Y0040461D01*
X0186524Y0040417D01*
X0186851Y0040364D01*
X0187177Y0040304D01*
X0187501Y0040235D01*
X0187823Y0040158D01*
X0188144Y0040074D01*
X0188462Y0039982D01*
X0188778Y0039882D01*
X0189091Y0039774D01*
X0189402Y0039658D01*
X0189709Y0039535D01*
X0190014Y0039405D01*
X0190315Y0039267D01*
X0190613Y0039122D01*
X0190907Y0038969D01*
X0191197Y0038809D01*
X0191483Y0038642D01*
X0191765Y0038469D01*
X0192043Y0038288D01*
X0192316Y0038100D01*
X0192585Y0037906D01*
X0192849Y0037706D01*
X0193107Y0037499D01*
X0193361Y0037285D01*
X0193609Y0037066D01*
X0193852Y0036840D01*
X0194089Y0036609D01*
X0194320Y0036372D01*
X0194546Y0036129D01*
X0194765Y0035881D01*
X0194979Y0035627D01*
X0195186Y0035369D01*
X0195386Y0035105D01*
X0195580Y0034836D01*
X0195768Y0034563D01*
X0195949Y0034285D01*
X0196122Y0034003D01*
X0196289Y0033717D01*
X0196449Y0033427D01*
X0196602Y0033133D01*
X0196747Y0032835D01*
X0196885Y0032534D01*
X0197015Y0032229D01*
X0197138Y0031922D01*
X0197254Y0031611D01*
X0197362Y0031298D01*
X0197462Y0030982D01*
X0197554Y0030664D01*
X0197638Y0030343D01*
X0197715Y0030021D01*
X0197784Y0029697D01*
X0197844Y0029371D01*
X0197897Y0029044D01*
X0197941Y0028716D01*
X0197978Y0028386D01*
X0198006Y0028056D01*
X0198027Y0027725D01*
X0198039Y0027394D01*
X0198043Y0027063D01*
X0198039Y0026732D01*
X0198027Y0026401D01*
X0198006Y0026070D01*
X0197978Y0025740D01*
X0197941Y0025410D01*
X0197897Y0025082D01*
X0197844Y0024755D01*
X0197784Y0024429D01*
X0197715Y0024105D01*
X0197638Y0023783D01*
X0197554Y0023462D01*
X0197462Y0023144D01*
X0197362Y0022828D01*
X0197254Y0022515D01*
X0197138Y0022204D01*
X0197015Y0021897D01*
X0196885Y0021592D01*
X0196747Y0021291D01*
X0196602Y0020993D01*
X0196449Y0020699D01*
X0196289Y0020409D01*
X0196122Y0020123D01*
X0195949Y0019841D01*
X0195768Y0019563D01*
X0195580Y0019290D01*
X0195386Y0019021D01*
X0195186Y0018757D01*
X0194979Y0018499D01*
X0194765Y0018245D01*
X0194546Y0017997D01*
X0194320Y0017754D01*
X0194089Y0017517D01*
X0193852Y0017286D01*
X0193609Y0017060D01*
X0193361Y0016841D01*
X0193107Y0016627D01*
X0192849Y0016420D01*
X0192585Y0016220D01*
X0192316Y0016026D01*
X0192043Y0015838D01*
X0191765Y0015657D01*
X0191483Y0015484D01*
X0191197Y0015317D01*
X0190907Y0015157D01*
X0190613Y0015004D01*
X0190315Y0014859D01*
X0190014Y0014721D01*
X0189709Y0014591D01*
X0189402Y0014468D01*
X0189091Y0014352D01*
X0188778Y0014244D01*
X0188462Y0014144D01*
X0188144Y0014052D01*
X0187823Y0013968D01*
X0187501Y0013891D01*
X0187177Y0013822D01*
X0186851Y0013762D01*
X0186524Y0013709D01*
X0186196Y0013665D01*
X0185866Y0013628D01*
X0185536Y0013600D01*
X0185205Y0013579D01*
X0184874Y0013567D01*
X0184543Y0013563D01*
X0184212Y0013567D01*
X0183881Y0013579D01*
X0183550Y0013600D01*
X0183220Y0013628D01*
X0182890Y0013665D01*
X0182562Y0013709D01*
X0182235Y0013762D01*
X0181909Y0013822D01*
X0181585Y0013891D01*
X0181263Y0013968D01*
X0180942Y0014052D01*
X0180624Y0014144D01*
X0180308Y0014244D01*
X0179995Y0014352D01*
X0179684Y0014468D01*
X0179377Y0014591D01*
X0179072Y0014721D01*
X0178771Y0014859D01*
X0178473Y0015004D01*
X0178179Y0015157D01*
X0177889Y0015317D01*
X0177603Y0015484D01*
X0177321Y0015657D01*
X0177043Y0015838D01*
X0176770Y0016026D01*
X0176501Y0016220D01*
X0176237Y0016420D01*
X0175979Y0016627D01*
X0175725Y0016841D01*
X0175477Y0017060D01*
X0175234Y0017286D01*
X0174997Y0017517D01*
X0174766Y0017754D01*
X0174540Y0017997D01*
X0174321Y0018245D01*
X0174107Y0018499D01*
X0173900Y0018757D01*
X0173700Y0019021D01*
X0173506Y0019290D01*
X0173318Y0019563D01*
X0173137Y0019841D01*
X0172964Y0020123D01*
X0172797Y0020409D01*
X0172637Y0020699D01*
X0172484Y0020993D01*
X0172339Y0021291D01*
X0172201Y0021592D01*
X0172071Y0021897D01*
X0171948Y0022204D01*
X0171832Y0022515D01*
X0171724Y0022828D01*
X0171624Y0023144D01*
X0171532Y0023462D01*
X0171448Y0023783D01*
X0171371Y0024105D01*
X0171302Y0024429D01*
X0171242Y0024755D01*
X0171189Y0025082D01*
X0171145Y0025410D01*
X0171108Y0025740D01*
X0171080Y0026070D01*
X0171059Y0026401D01*
X0171047Y0026732D01*
X0171043Y0027063D01*
X0171043Y0145173D02*
X0171047Y0145504D01*
X0171059Y0145835D01*
X0171080Y0146166D01*
X0171108Y0146496D01*
X0171145Y0146826D01*
X0171189Y0147154D01*
X0171242Y0147481D01*
X0171302Y0147807D01*
X0171371Y0148131D01*
X0171448Y0148453D01*
X0171532Y0148774D01*
X0171624Y0149092D01*
X0171724Y0149408D01*
X0171832Y0149721D01*
X0171948Y0150032D01*
X0172071Y0150339D01*
X0172201Y0150644D01*
X0172339Y0150945D01*
X0172484Y0151243D01*
X0172637Y0151537D01*
X0172797Y0151827D01*
X0172964Y0152113D01*
X0173137Y0152395D01*
X0173318Y0152673D01*
X0173506Y0152946D01*
X0173700Y0153215D01*
X0173900Y0153479D01*
X0174107Y0153737D01*
X0174321Y0153991D01*
X0174540Y0154239D01*
X0174766Y0154482D01*
X0174997Y0154719D01*
X0175234Y0154950D01*
X0175477Y0155176D01*
X0175725Y0155395D01*
X0175979Y0155609D01*
X0176237Y0155816D01*
X0176501Y0156016D01*
X0176770Y0156210D01*
X0177043Y0156398D01*
X0177321Y0156579D01*
X0177603Y0156752D01*
X0177889Y0156919D01*
X0178179Y0157079D01*
X0178473Y0157232D01*
X0178771Y0157377D01*
X0179072Y0157515D01*
X0179377Y0157645D01*
X0179684Y0157768D01*
X0179995Y0157884D01*
X0180308Y0157992D01*
X0180624Y0158092D01*
X0180942Y0158184D01*
X0181263Y0158268D01*
X0181585Y0158345D01*
X0181909Y0158414D01*
X0182235Y0158474D01*
X0182562Y0158527D01*
X0182890Y0158571D01*
X0183220Y0158608D01*
X0183550Y0158636D01*
X0183881Y0158657D01*
X0184212Y0158669D01*
X0184543Y0158673D01*
X0184874Y0158669D01*
X0185205Y0158657D01*
X0185536Y0158636D01*
X0185866Y0158608D01*
X0186196Y0158571D01*
X0186524Y0158527D01*
X0186851Y0158474D01*
X0187177Y0158414D01*
X0187501Y0158345D01*
X0187823Y0158268D01*
X0188144Y0158184D01*
X0188462Y0158092D01*
X0188778Y0157992D01*
X0189091Y0157884D01*
X0189402Y0157768D01*
X0189709Y0157645D01*
X0190014Y0157515D01*
X0190315Y0157377D01*
X0190613Y0157232D01*
X0190907Y0157079D01*
X0191197Y0156919D01*
X0191483Y0156752D01*
X0191765Y0156579D01*
X0192043Y0156398D01*
X0192316Y0156210D01*
X0192585Y0156016D01*
X0192849Y0155816D01*
X0193107Y0155609D01*
X0193361Y0155395D01*
X0193609Y0155176D01*
X0193852Y0154950D01*
X0194089Y0154719D01*
X0194320Y0154482D01*
X0194546Y0154239D01*
X0194765Y0153991D01*
X0194979Y0153737D01*
X0195186Y0153479D01*
X0195386Y0153215D01*
X0195580Y0152946D01*
X0195768Y0152673D01*
X0195949Y0152395D01*
X0196122Y0152113D01*
X0196289Y0151827D01*
X0196449Y0151537D01*
X0196602Y0151243D01*
X0196747Y0150945D01*
X0196885Y0150644D01*
X0197015Y0150339D01*
X0197138Y0150032D01*
X0197254Y0149721D01*
X0197362Y0149408D01*
X0197462Y0149092D01*
X0197554Y0148774D01*
X0197638Y0148453D01*
X0197715Y0148131D01*
X0197784Y0147807D01*
X0197844Y0147481D01*
X0197897Y0147154D01*
X0197941Y0146826D01*
X0197978Y0146496D01*
X0198006Y0146166D01*
X0198027Y0145835D01*
X0198039Y0145504D01*
X0198043Y0145173D01*
X0198039Y0144842D01*
X0198027Y0144511D01*
X0198006Y0144180D01*
X0197978Y0143850D01*
X0197941Y0143520D01*
X0197897Y0143192D01*
X0197844Y0142865D01*
X0197784Y0142539D01*
X0197715Y0142215D01*
X0197638Y0141893D01*
X0197554Y0141572D01*
X0197462Y0141254D01*
X0197362Y0140938D01*
X0197254Y0140625D01*
X0197138Y0140314D01*
X0197015Y0140007D01*
X0196885Y0139702D01*
X0196747Y0139401D01*
X0196602Y0139103D01*
X0196449Y0138809D01*
X0196289Y0138519D01*
X0196122Y0138233D01*
X0195949Y0137951D01*
X0195768Y0137673D01*
X0195580Y0137400D01*
X0195386Y0137131D01*
X0195186Y0136867D01*
X0194979Y0136609D01*
X0194765Y0136355D01*
X0194546Y0136107D01*
X0194320Y0135864D01*
X0194089Y0135627D01*
X0193852Y0135396D01*
X0193609Y0135170D01*
X0193361Y0134951D01*
X0193107Y0134737D01*
X0192849Y0134530D01*
X0192585Y0134330D01*
X0192316Y0134136D01*
X0192043Y0133948D01*
X0191765Y0133767D01*
X0191483Y0133594D01*
X0191197Y0133427D01*
X0190907Y0133267D01*
X0190613Y0133114D01*
X0190315Y0132969D01*
X0190014Y0132831D01*
X0189709Y0132701D01*
X0189402Y0132578D01*
X0189091Y0132462D01*
X0188778Y0132354D01*
X0188462Y0132254D01*
X0188144Y0132162D01*
X0187823Y0132078D01*
X0187501Y0132001D01*
X0187177Y0131932D01*
X0186851Y0131872D01*
X0186524Y0131819D01*
X0186196Y0131775D01*
X0185866Y0131738D01*
X0185536Y0131710D01*
X0185205Y0131689D01*
X0184874Y0131677D01*
X0184543Y0131673D01*
X0184212Y0131677D01*
X0183881Y0131689D01*
X0183550Y0131710D01*
X0183220Y0131738D01*
X0182890Y0131775D01*
X0182562Y0131819D01*
X0182235Y0131872D01*
X0181909Y0131932D01*
X0181585Y0132001D01*
X0181263Y0132078D01*
X0180942Y0132162D01*
X0180624Y0132254D01*
X0180308Y0132354D01*
X0179995Y0132462D01*
X0179684Y0132578D01*
X0179377Y0132701D01*
X0179072Y0132831D01*
X0178771Y0132969D01*
X0178473Y0133114D01*
X0178179Y0133267D01*
X0177889Y0133427D01*
X0177603Y0133594D01*
X0177321Y0133767D01*
X0177043Y0133948D01*
X0176770Y0134136D01*
X0176501Y0134330D01*
X0176237Y0134530D01*
X0175979Y0134737D01*
X0175725Y0134951D01*
X0175477Y0135170D01*
X0175234Y0135396D01*
X0174997Y0135627D01*
X0174766Y0135864D01*
X0174540Y0136107D01*
X0174321Y0136355D01*
X0174107Y0136609D01*
X0173900Y0136867D01*
X0173700Y0137131D01*
X0173506Y0137400D01*
X0173318Y0137673D01*
X0173137Y0137951D01*
X0172964Y0138233D01*
X0172797Y0138519D01*
X0172637Y0138809D01*
X0172484Y0139103D01*
X0172339Y0139401D01*
X0172201Y0139702D01*
X0172071Y0140007D01*
X0171948Y0140314D01*
X0171832Y0140625D01*
X0171724Y0140938D01*
X0171624Y0141254D01*
X0171532Y0141572D01*
X0171448Y0141893D01*
X0171371Y0142215D01*
X0171302Y0142539D01*
X0171242Y0142865D01*
X0171189Y0143192D01*
X0171145Y0143520D01*
X0171108Y0143850D01*
X0171080Y0144180D01*
X0171059Y0144511D01*
X0171047Y0144842D01*
X0171043Y0145173D01*
D13*
X0145378Y0127378D02*
X0109378Y0127378D01*
X0109378Y0094878D01*
X0145378Y0094878D01*
X0145378Y0127378D01*
D14*
X0123377Y0118228D02*
X0119173Y0118228D01*
X0121275Y0118228D02*
X0121275Y0124533D01*
X0119173Y0122432D01*
X0116932Y0123482D02*
X0116932Y0119279D01*
X0115881Y0118228D01*
X0113779Y0118228D01*
X0112728Y0119279D01*
X0112728Y0123482D01*
X0113779Y0124533D01*
X0115881Y0124533D01*
X0116932Y0123482D01*
X0114830Y0120330D02*
X0116932Y0118228D01*
D15*
X0121127Y0127377D02*
X0122328Y0128578D01*
X0121728Y0128578D01*
X0121728Y0129178D01*
X0122328Y0129178D01*
X0122328Y0128578D01*
X0123583Y0129178D02*
X0124183Y0128578D01*
X0125384Y0128578D01*
X0125985Y0129178D01*
X0125985Y0130379D01*
X0125384Y0130980D01*
X0124784Y0130980D01*
X0123583Y0130379D01*
X0123583Y0132181D01*
X0125985Y0132181D01*
X0127266Y0130980D02*
X0127866Y0130980D01*
X0128467Y0130379D01*
X0129067Y0130980D01*
X0129668Y0130379D01*
X0129668Y0128578D01*
X0128467Y0128578D02*
X0128467Y0130379D01*
X0127266Y0130980D02*
X0127266Y0128578D01*
X0130949Y0128578D02*
X0130949Y0130980D01*
X0131550Y0130980D01*
X0132150Y0130379D01*
X0132751Y0130980D01*
X0133351Y0130379D01*
X0133351Y0128578D01*
X0132150Y0128578D02*
X0132150Y0130379D01*
X0119846Y0131581D02*
X0117444Y0129178D01*
X0117444Y0128578D01*
X0116163Y0128578D02*
X0113761Y0128578D01*
X0114962Y0128578D02*
X0114962Y0132181D01*
X0113761Y0130980D01*
X0112480Y0130980D02*
X0112480Y0128578D01*
X0112480Y0130379D02*
X0110078Y0130379D01*
X0110078Y0130980D02*
X0111279Y0132181D01*
X0112480Y0130980D01*
X0110078Y0130980D02*
X0110078Y0128578D01*
X0117444Y0132181D02*
X0119846Y0132181D01*
X0119846Y0131581D01*
X0149461Y0046634D02*
X0149461Y0043565D01*
X0149461Y0045099D02*
X0144857Y0045099D01*
X0146392Y0043565D01*
X0144857Y0042030D02*
X0144857Y0040495D01*
X0144857Y0041263D02*
X0148694Y0041263D01*
X0149461Y0040495D01*
X0149461Y0039728D01*
X0148694Y0038961D01*
D16*
X0137378Y0080128D03*
X0127378Y0080128D03*
X0117378Y0080128D03*
D17*
X0117378Y0086878D03*
X0127378Y0086878D03*
X0137378Y0086878D03*
M02*
