%
M48
M72
T01C0.03150
T02C0.03200
T03C0.04000
T04C0.04400
T05C0.12598
T06C0.13000
%
T01
X42378Y82378
T02
X77378Y117378
X87378Y117378
X97378Y117378
X97378Y142378
X47378Y142378
T03
X67378Y22378
X67378Y82378
X57378Y107378
X57378Y117378
X157378Y122378
X157378Y112378
X157378Y102378
T04
X117378Y72378
X127378Y72378
X137378Y72378
T05
X27063Y145173
X184543Y145173
X184543Y27063
X27063Y27063
T06
X127378Y141378
M30
