G75*
%MOIN*%
%OFA0B0*%
%FSLAX25Y25*%
%IPPOS*%
%LPD*%
%AMOC8*
5,1,8,0,0,1.08239X$1,22.5*
%
%ADD10C,0.00000*%
%ADD11C,0.00100*%
%ADD12C,0.01000*%
%ADD13C,0.00500*%
D10*
X0001000Y0001000D02*
X0001000Y0158480D01*
X0079740Y0158480D01*
X0079740Y0001000D01*
X0001000Y0001000D01*
X0006512Y0016748D02*
X0006514Y0016906D01*
X0006520Y0017064D01*
X0006530Y0017222D01*
X0006544Y0017380D01*
X0006562Y0017537D01*
X0006583Y0017694D01*
X0006609Y0017850D01*
X0006639Y0018006D01*
X0006672Y0018161D01*
X0006710Y0018314D01*
X0006751Y0018467D01*
X0006796Y0018619D01*
X0006845Y0018770D01*
X0006898Y0018919D01*
X0006954Y0019067D01*
X0007014Y0019213D01*
X0007078Y0019358D01*
X0007146Y0019501D01*
X0007217Y0019643D01*
X0007291Y0019783D01*
X0007369Y0019920D01*
X0007451Y0020056D01*
X0007535Y0020190D01*
X0007624Y0020321D01*
X0007715Y0020450D01*
X0007810Y0020577D01*
X0007907Y0020702D01*
X0008008Y0020824D01*
X0008112Y0020943D01*
X0008219Y0021060D01*
X0008329Y0021174D01*
X0008442Y0021285D01*
X0008557Y0021394D01*
X0008675Y0021499D01*
X0008796Y0021601D01*
X0008919Y0021701D01*
X0009045Y0021797D01*
X0009173Y0021890D01*
X0009303Y0021980D01*
X0009436Y0022066D01*
X0009571Y0022150D01*
X0009707Y0022229D01*
X0009846Y0022306D01*
X0009987Y0022378D01*
X0010129Y0022448D01*
X0010273Y0022513D01*
X0010419Y0022575D01*
X0010566Y0022633D01*
X0010715Y0022688D01*
X0010865Y0022739D01*
X0011016Y0022786D01*
X0011168Y0022829D01*
X0011321Y0022868D01*
X0011476Y0022904D01*
X0011631Y0022935D01*
X0011787Y0022963D01*
X0011943Y0022987D01*
X0012100Y0023007D01*
X0012258Y0023023D01*
X0012415Y0023035D01*
X0012574Y0023043D01*
X0012732Y0023047D01*
X0012890Y0023047D01*
X0013048Y0023043D01*
X0013207Y0023035D01*
X0013364Y0023023D01*
X0013522Y0023007D01*
X0013679Y0022987D01*
X0013835Y0022963D01*
X0013991Y0022935D01*
X0014146Y0022904D01*
X0014301Y0022868D01*
X0014454Y0022829D01*
X0014606Y0022786D01*
X0014757Y0022739D01*
X0014907Y0022688D01*
X0015056Y0022633D01*
X0015203Y0022575D01*
X0015349Y0022513D01*
X0015493Y0022448D01*
X0015635Y0022378D01*
X0015776Y0022306D01*
X0015915Y0022229D01*
X0016051Y0022150D01*
X0016186Y0022066D01*
X0016319Y0021980D01*
X0016449Y0021890D01*
X0016577Y0021797D01*
X0016703Y0021701D01*
X0016826Y0021601D01*
X0016947Y0021499D01*
X0017065Y0021394D01*
X0017180Y0021285D01*
X0017293Y0021174D01*
X0017403Y0021060D01*
X0017510Y0020943D01*
X0017614Y0020824D01*
X0017715Y0020702D01*
X0017812Y0020577D01*
X0017907Y0020450D01*
X0017998Y0020321D01*
X0018087Y0020190D01*
X0018171Y0020056D01*
X0018253Y0019920D01*
X0018331Y0019783D01*
X0018405Y0019643D01*
X0018476Y0019501D01*
X0018544Y0019358D01*
X0018608Y0019213D01*
X0018668Y0019067D01*
X0018724Y0018919D01*
X0018777Y0018770D01*
X0018826Y0018619D01*
X0018871Y0018467D01*
X0018912Y0018314D01*
X0018950Y0018161D01*
X0018983Y0018006D01*
X0019013Y0017850D01*
X0019039Y0017694D01*
X0019060Y0017537D01*
X0019078Y0017380D01*
X0019092Y0017222D01*
X0019102Y0017064D01*
X0019108Y0016906D01*
X0019110Y0016748D01*
X0019108Y0016590D01*
X0019102Y0016432D01*
X0019092Y0016274D01*
X0019078Y0016116D01*
X0019060Y0015959D01*
X0019039Y0015802D01*
X0019013Y0015646D01*
X0018983Y0015490D01*
X0018950Y0015335D01*
X0018912Y0015182D01*
X0018871Y0015029D01*
X0018826Y0014877D01*
X0018777Y0014726D01*
X0018724Y0014577D01*
X0018668Y0014429D01*
X0018608Y0014283D01*
X0018544Y0014138D01*
X0018476Y0013995D01*
X0018405Y0013853D01*
X0018331Y0013713D01*
X0018253Y0013576D01*
X0018171Y0013440D01*
X0018087Y0013306D01*
X0017998Y0013175D01*
X0017907Y0013046D01*
X0017812Y0012919D01*
X0017715Y0012794D01*
X0017614Y0012672D01*
X0017510Y0012553D01*
X0017403Y0012436D01*
X0017293Y0012322D01*
X0017180Y0012211D01*
X0017065Y0012102D01*
X0016947Y0011997D01*
X0016826Y0011895D01*
X0016703Y0011795D01*
X0016577Y0011699D01*
X0016449Y0011606D01*
X0016319Y0011516D01*
X0016186Y0011430D01*
X0016051Y0011346D01*
X0015915Y0011267D01*
X0015776Y0011190D01*
X0015635Y0011118D01*
X0015493Y0011048D01*
X0015349Y0010983D01*
X0015203Y0010921D01*
X0015056Y0010863D01*
X0014907Y0010808D01*
X0014757Y0010757D01*
X0014606Y0010710D01*
X0014454Y0010667D01*
X0014301Y0010628D01*
X0014146Y0010592D01*
X0013991Y0010561D01*
X0013835Y0010533D01*
X0013679Y0010509D01*
X0013522Y0010489D01*
X0013364Y0010473D01*
X0013207Y0010461D01*
X0013048Y0010453D01*
X0012890Y0010449D01*
X0012732Y0010449D01*
X0012574Y0010453D01*
X0012415Y0010461D01*
X0012258Y0010473D01*
X0012100Y0010489D01*
X0011943Y0010509D01*
X0011787Y0010533D01*
X0011631Y0010561D01*
X0011476Y0010592D01*
X0011321Y0010628D01*
X0011168Y0010667D01*
X0011016Y0010710D01*
X0010865Y0010757D01*
X0010715Y0010808D01*
X0010566Y0010863D01*
X0010419Y0010921D01*
X0010273Y0010983D01*
X0010129Y0011048D01*
X0009987Y0011118D01*
X0009846Y0011190D01*
X0009707Y0011267D01*
X0009571Y0011346D01*
X0009436Y0011430D01*
X0009303Y0011516D01*
X0009173Y0011606D01*
X0009045Y0011699D01*
X0008919Y0011795D01*
X0008796Y0011895D01*
X0008675Y0011997D01*
X0008557Y0012102D01*
X0008442Y0012211D01*
X0008329Y0012322D01*
X0008219Y0012436D01*
X0008112Y0012553D01*
X0008008Y0012672D01*
X0007907Y0012794D01*
X0007810Y0012919D01*
X0007715Y0013046D01*
X0007624Y0013175D01*
X0007535Y0013306D01*
X0007451Y0013440D01*
X0007369Y0013576D01*
X0007291Y0013713D01*
X0007217Y0013853D01*
X0007146Y0013995D01*
X0007078Y0014138D01*
X0007014Y0014283D01*
X0006954Y0014429D01*
X0006898Y0014577D01*
X0006845Y0014726D01*
X0006796Y0014877D01*
X0006751Y0015029D01*
X0006710Y0015182D01*
X0006672Y0015335D01*
X0006639Y0015490D01*
X0006609Y0015646D01*
X0006583Y0015802D01*
X0006562Y0015959D01*
X0006544Y0016116D01*
X0006530Y0016274D01*
X0006520Y0016432D01*
X0006514Y0016590D01*
X0006512Y0016748D01*
X0061630Y0016748D02*
X0061632Y0016906D01*
X0061638Y0017064D01*
X0061648Y0017222D01*
X0061662Y0017380D01*
X0061680Y0017537D01*
X0061701Y0017694D01*
X0061727Y0017850D01*
X0061757Y0018006D01*
X0061790Y0018161D01*
X0061828Y0018314D01*
X0061869Y0018467D01*
X0061914Y0018619D01*
X0061963Y0018770D01*
X0062016Y0018919D01*
X0062072Y0019067D01*
X0062132Y0019213D01*
X0062196Y0019358D01*
X0062264Y0019501D01*
X0062335Y0019643D01*
X0062409Y0019783D01*
X0062487Y0019920D01*
X0062569Y0020056D01*
X0062653Y0020190D01*
X0062742Y0020321D01*
X0062833Y0020450D01*
X0062928Y0020577D01*
X0063025Y0020702D01*
X0063126Y0020824D01*
X0063230Y0020943D01*
X0063337Y0021060D01*
X0063447Y0021174D01*
X0063560Y0021285D01*
X0063675Y0021394D01*
X0063793Y0021499D01*
X0063914Y0021601D01*
X0064037Y0021701D01*
X0064163Y0021797D01*
X0064291Y0021890D01*
X0064421Y0021980D01*
X0064554Y0022066D01*
X0064689Y0022150D01*
X0064825Y0022229D01*
X0064964Y0022306D01*
X0065105Y0022378D01*
X0065247Y0022448D01*
X0065391Y0022513D01*
X0065537Y0022575D01*
X0065684Y0022633D01*
X0065833Y0022688D01*
X0065983Y0022739D01*
X0066134Y0022786D01*
X0066286Y0022829D01*
X0066439Y0022868D01*
X0066594Y0022904D01*
X0066749Y0022935D01*
X0066905Y0022963D01*
X0067061Y0022987D01*
X0067218Y0023007D01*
X0067376Y0023023D01*
X0067533Y0023035D01*
X0067692Y0023043D01*
X0067850Y0023047D01*
X0068008Y0023047D01*
X0068166Y0023043D01*
X0068325Y0023035D01*
X0068482Y0023023D01*
X0068640Y0023007D01*
X0068797Y0022987D01*
X0068953Y0022963D01*
X0069109Y0022935D01*
X0069264Y0022904D01*
X0069419Y0022868D01*
X0069572Y0022829D01*
X0069724Y0022786D01*
X0069875Y0022739D01*
X0070025Y0022688D01*
X0070174Y0022633D01*
X0070321Y0022575D01*
X0070467Y0022513D01*
X0070611Y0022448D01*
X0070753Y0022378D01*
X0070894Y0022306D01*
X0071033Y0022229D01*
X0071169Y0022150D01*
X0071304Y0022066D01*
X0071437Y0021980D01*
X0071567Y0021890D01*
X0071695Y0021797D01*
X0071821Y0021701D01*
X0071944Y0021601D01*
X0072065Y0021499D01*
X0072183Y0021394D01*
X0072298Y0021285D01*
X0072411Y0021174D01*
X0072521Y0021060D01*
X0072628Y0020943D01*
X0072732Y0020824D01*
X0072833Y0020702D01*
X0072930Y0020577D01*
X0073025Y0020450D01*
X0073116Y0020321D01*
X0073205Y0020190D01*
X0073289Y0020056D01*
X0073371Y0019920D01*
X0073449Y0019783D01*
X0073523Y0019643D01*
X0073594Y0019501D01*
X0073662Y0019358D01*
X0073726Y0019213D01*
X0073786Y0019067D01*
X0073842Y0018919D01*
X0073895Y0018770D01*
X0073944Y0018619D01*
X0073989Y0018467D01*
X0074030Y0018314D01*
X0074068Y0018161D01*
X0074101Y0018006D01*
X0074131Y0017850D01*
X0074157Y0017694D01*
X0074178Y0017537D01*
X0074196Y0017380D01*
X0074210Y0017222D01*
X0074220Y0017064D01*
X0074226Y0016906D01*
X0074228Y0016748D01*
X0074226Y0016590D01*
X0074220Y0016432D01*
X0074210Y0016274D01*
X0074196Y0016116D01*
X0074178Y0015959D01*
X0074157Y0015802D01*
X0074131Y0015646D01*
X0074101Y0015490D01*
X0074068Y0015335D01*
X0074030Y0015182D01*
X0073989Y0015029D01*
X0073944Y0014877D01*
X0073895Y0014726D01*
X0073842Y0014577D01*
X0073786Y0014429D01*
X0073726Y0014283D01*
X0073662Y0014138D01*
X0073594Y0013995D01*
X0073523Y0013853D01*
X0073449Y0013713D01*
X0073371Y0013576D01*
X0073289Y0013440D01*
X0073205Y0013306D01*
X0073116Y0013175D01*
X0073025Y0013046D01*
X0072930Y0012919D01*
X0072833Y0012794D01*
X0072732Y0012672D01*
X0072628Y0012553D01*
X0072521Y0012436D01*
X0072411Y0012322D01*
X0072298Y0012211D01*
X0072183Y0012102D01*
X0072065Y0011997D01*
X0071944Y0011895D01*
X0071821Y0011795D01*
X0071695Y0011699D01*
X0071567Y0011606D01*
X0071437Y0011516D01*
X0071304Y0011430D01*
X0071169Y0011346D01*
X0071033Y0011267D01*
X0070894Y0011190D01*
X0070753Y0011118D01*
X0070611Y0011048D01*
X0070467Y0010983D01*
X0070321Y0010921D01*
X0070174Y0010863D01*
X0070025Y0010808D01*
X0069875Y0010757D01*
X0069724Y0010710D01*
X0069572Y0010667D01*
X0069419Y0010628D01*
X0069264Y0010592D01*
X0069109Y0010561D01*
X0068953Y0010533D01*
X0068797Y0010509D01*
X0068640Y0010489D01*
X0068482Y0010473D01*
X0068325Y0010461D01*
X0068166Y0010453D01*
X0068008Y0010449D01*
X0067850Y0010449D01*
X0067692Y0010453D01*
X0067533Y0010461D01*
X0067376Y0010473D01*
X0067218Y0010489D01*
X0067061Y0010509D01*
X0066905Y0010533D01*
X0066749Y0010561D01*
X0066594Y0010592D01*
X0066439Y0010628D01*
X0066286Y0010667D01*
X0066134Y0010710D01*
X0065983Y0010757D01*
X0065833Y0010808D01*
X0065684Y0010863D01*
X0065537Y0010921D01*
X0065391Y0010983D01*
X0065247Y0011048D01*
X0065105Y0011118D01*
X0064964Y0011190D01*
X0064825Y0011267D01*
X0064689Y0011346D01*
X0064554Y0011430D01*
X0064421Y0011516D01*
X0064291Y0011606D01*
X0064163Y0011699D01*
X0064037Y0011795D01*
X0063914Y0011895D01*
X0063793Y0011997D01*
X0063675Y0012102D01*
X0063560Y0012211D01*
X0063447Y0012322D01*
X0063337Y0012436D01*
X0063230Y0012553D01*
X0063126Y0012672D01*
X0063025Y0012794D01*
X0062928Y0012919D01*
X0062833Y0013046D01*
X0062742Y0013175D01*
X0062653Y0013306D01*
X0062569Y0013440D01*
X0062487Y0013576D01*
X0062409Y0013713D01*
X0062335Y0013853D01*
X0062264Y0013995D01*
X0062196Y0014138D01*
X0062132Y0014283D01*
X0062072Y0014429D01*
X0062016Y0014577D01*
X0061963Y0014726D01*
X0061914Y0014877D01*
X0061869Y0015029D01*
X0061828Y0015182D01*
X0061790Y0015335D01*
X0061757Y0015490D01*
X0061727Y0015646D01*
X0061701Y0015802D01*
X0061680Y0015959D01*
X0061662Y0016116D01*
X0061648Y0016274D01*
X0061638Y0016432D01*
X0061632Y0016590D01*
X0061630Y0016748D01*
X0061630Y0107299D02*
X0061632Y0107457D01*
X0061638Y0107615D01*
X0061648Y0107773D01*
X0061662Y0107931D01*
X0061680Y0108088D01*
X0061701Y0108245D01*
X0061727Y0108401D01*
X0061757Y0108557D01*
X0061790Y0108712D01*
X0061828Y0108865D01*
X0061869Y0109018D01*
X0061914Y0109170D01*
X0061963Y0109321D01*
X0062016Y0109470D01*
X0062072Y0109618D01*
X0062132Y0109764D01*
X0062196Y0109909D01*
X0062264Y0110052D01*
X0062335Y0110194D01*
X0062409Y0110334D01*
X0062487Y0110471D01*
X0062569Y0110607D01*
X0062653Y0110741D01*
X0062742Y0110872D01*
X0062833Y0111001D01*
X0062928Y0111128D01*
X0063025Y0111253D01*
X0063126Y0111375D01*
X0063230Y0111494D01*
X0063337Y0111611D01*
X0063447Y0111725D01*
X0063560Y0111836D01*
X0063675Y0111945D01*
X0063793Y0112050D01*
X0063914Y0112152D01*
X0064037Y0112252D01*
X0064163Y0112348D01*
X0064291Y0112441D01*
X0064421Y0112531D01*
X0064554Y0112617D01*
X0064689Y0112701D01*
X0064825Y0112780D01*
X0064964Y0112857D01*
X0065105Y0112929D01*
X0065247Y0112999D01*
X0065391Y0113064D01*
X0065537Y0113126D01*
X0065684Y0113184D01*
X0065833Y0113239D01*
X0065983Y0113290D01*
X0066134Y0113337D01*
X0066286Y0113380D01*
X0066439Y0113419D01*
X0066594Y0113455D01*
X0066749Y0113486D01*
X0066905Y0113514D01*
X0067061Y0113538D01*
X0067218Y0113558D01*
X0067376Y0113574D01*
X0067533Y0113586D01*
X0067692Y0113594D01*
X0067850Y0113598D01*
X0068008Y0113598D01*
X0068166Y0113594D01*
X0068325Y0113586D01*
X0068482Y0113574D01*
X0068640Y0113558D01*
X0068797Y0113538D01*
X0068953Y0113514D01*
X0069109Y0113486D01*
X0069264Y0113455D01*
X0069419Y0113419D01*
X0069572Y0113380D01*
X0069724Y0113337D01*
X0069875Y0113290D01*
X0070025Y0113239D01*
X0070174Y0113184D01*
X0070321Y0113126D01*
X0070467Y0113064D01*
X0070611Y0112999D01*
X0070753Y0112929D01*
X0070894Y0112857D01*
X0071033Y0112780D01*
X0071169Y0112701D01*
X0071304Y0112617D01*
X0071437Y0112531D01*
X0071567Y0112441D01*
X0071695Y0112348D01*
X0071821Y0112252D01*
X0071944Y0112152D01*
X0072065Y0112050D01*
X0072183Y0111945D01*
X0072298Y0111836D01*
X0072411Y0111725D01*
X0072521Y0111611D01*
X0072628Y0111494D01*
X0072732Y0111375D01*
X0072833Y0111253D01*
X0072930Y0111128D01*
X0073025Y0111001D01*
X0073116Y0110872D01*
X0073205Y0110741D01*
X0073289Y0110607D01*
X0073371Y0110471D01*
X0073449Y0110334D01*
X0073523Y0110194D01*
X0073594Y0110052D01*
X0073662Y0109909D01*
X0073726Y0109764D01*
X0073786Y0109618D01*
X0073842Y0109470D01*
X0073895Y0109321D01*
X0073944Y0109170D01*
X0073989Y0109018D01*
X0074030Y0108865D01*
X0074068Y0108712D01*
X0074101Y0108557D01*
X0074131Y0108401D01*
X0074157Y0108245D01*
X0074178Y0108088D01*
X0074196Y0107931D01*
X0074210Y0107773D01*
X0074220Y0107615D01*
X0074226Y0107457D01*
X0074228Y0107299D01*
X0074226Y0107141D01*
X0074220Y0106983D01*
X0074210Y0106825D01*
X0074196Y0106667D01*
X0074178Y0106510D01*
X0074157Y0106353D01*
X0074131Y0106197D01*
X0074101Y0106041D01*
X0074068Y0105886D01*
X0074030Y0105733D01*
X0073989Y0105580D01*
X0073944Y0105428D01*
X0073895Y0105277D01*
X0073842Y0105128D01*
X0073786Y0104980D01*
X0073726Y0104834D01*
X0073662Y0104689D01*
X0073594Y0104546D01*
X0073523Y0104404D01*
X0073449Y0104264D01*
X0073371Y0104127D01*
X0073289Y0103991D01*
X0073205Y0103857D01*
X0073116Y0103726D01*
X0073025Y0103597D01*
X0072930Y0103470D01*
X0072833Y0103345D01*
X0072732Y0103223D01*
X0072628Y0103104D01*
X0072521Y0102987D01*
X0072411Y0102873D01*
X0072298Y0102762D01*
X0072183Y0102653D01*
X0072065Y0102548D01*
X0071944Y0102446D01*
X0071821Y0102346D01*
X0071695Y0102250D01*
X0071567Y0102157D01*
X0071437Y0102067D01*
X0071304Y0101981D01*
X0071169Y0101897D01*
X0071033Y0101818D01*
X0070894Y0101741D01*
X0070753Y0101669D01*
X0070611Y0101599D01*
X0070467Y0101534D01*
X0070321Y0101472D01*
X0070174Y0101414D01*
X0070025Y0101359D01*
X0069875Y0101308D01*
X0069724Y0101261D01*
X0069572Y0101218D01*
X0069419Y0101179D01*
X0069264Y0101143D01*
X0069109Y0101112D01*
X0068953Y0101084D01*
X0068797Y0101060D01*
X0068640Y0101040D01*
X0068482Y0101024D01*
X0068325Y0101012D01*
X0068166Y0101004D01*
X0068008Y0101000D01*
X0067850Y0101000D01*
X0067692Y0101004D01*
X0067533Y0101012D01*
X0067376Y0101024D01*
X0067218Y0101040D01*
X0067061Y0101060D01*
X0066905Y0101084D01*
X0066749Y0101112D01*
X0066594Y0101143D01*
X0066439Y0101179D01*
X0066286Y0101218D01*
X0066134Y0101261D01*
X0065983Y0101308D01*
X0065833Y0101359D01*
X0065684Y0101414D01*
X0065537Y0101472D01*
X0065391Y0101534D01*
X0065247Y0101599D01*
X0065105Y0101669D01*
X0064964Y0101741D01*
X0064825Y0101818D01*
X0064689Y0101897D01*
X0064554Y0101981D01*
X0064421Y0102067D01*
X0064291Y0102157D01*
X0064163Y0102250D01*
X0064037Y0102346D01*
X0063914Y0102446D01*
X0063793Y0102548D01*
X0063675Y0102653D01*
X0063560Y0102762D01*
X0063447Y0102873D01*
X0063337Y0102987D01*
X0063230Y0103104D01*
X0063126Y0103223D01*
X0063025Y0103345D01*
X0062928Y0103470D01*
X0062833Y0103597D01*
X0062742Y0103726D01*
X0062653Y0103857D01*
X0062569Y0103991D01*
X0062487Y0104127D01*
X0062409Y0104264D01*
X0062335Y0104404D01*
X0062264Y0104546D01*
X0062196Y0104689D01*
X0062132Y0104834D01*
X0062072Y0104980D01*
X0062016Y0105128D01*
X0061963Y0105277D01*
X0061914Y0105428D01*
X0061869Y0105580D01*
X0061828Y0105733D01*
X0061790Y0105886D01*
X0061757Y0106041D01*
X0061727Y0106197D01*
X0061701Y0106353D01*
X0061680Y0106510D01*
X0061662Y0106667D01*
X0061648Y0106825D01*
X0061638Y0106983D01*
X0061632Y0107141D01*
X0061630Y0107299D01*
X0006512Y0146669D02*
X0006514Y0146827D01*
X0006520Y0146985D01*
X0006530Y0147143D01*
X0006544Y0147301D01*
X0006562Y0147458D01*
X0006583Y0147615D01*
X0006609Y0147771D01*
X0006639Y0147927D01*
X0006672Y0148082D01*
X0006710Y0148235D01*
X0006751Y0148388D01*
X0006796Y0148540D01*
X0006845Y0148691D01*
X0006898Y0148840D01*
X0006954Y0148988D01*
X0007014Y0149134D01*
X0007078Y0149279D01*
X0007146Y0149422D01*
X0007217Y0149564D01*
X0007291Y0149704D01*
X0007369Y0149841D01*
X0007451Y0149977D01*
X0007535Y0150111D01*
X0007624Y0150242D01*
X0007715Y0150371D01*
X0007810Y0150498D01*
X0007907Y0150623D01*
X0008008Y0150745D01*
X0008112Y0150864D01*
X0008219Y0150981D01*
X0008329Y0151095D01*
X0008442Y0151206D01*
X0008557Y0151315D01*
X0008675Y0151420D01*
X0008796Y0151522D01*
X0008919Y0151622D01*
X0009045Y0151718D01*
X0009173Y0151811D01*
X0009303Y0151901D01*
X0009436Y0151987D01*
X0009571Y0152071D01*
X0009707Y0152150D01*
X0009846Y0152227D01*
X0009987Y0152299D01*
X0010129Y0152369D01*
X0010273Y0152434D01*
X0010419Y0152496D01*
X0010566Y0152554D01*
X0010715Y0152609D01*
X0010865Y0152660D01*
X0011016Y0152707D01*
X0011168Y0152750D01*
X0011321Y0152789D01*
X0011476Y0152825D01*
X0011631Y0152856D01*
X0011787Y0152884D01*
X0011943Y0152908D01*
X0012100Y0152928D01*
X0012258Y0152944D01*
X0012415Y0152956D01*
X0012574Y0152964D01*
X0012732Y0152968D01*
X0012890Y0152968D01*
X0013048Y0152964D01*
X0013207Y0152956D01*
X0013364Y0152944D01*
X0013522Y0152928D01*
X0013679Y0152908D01*
X0013835Y0152884D01*
X0013991Y0152856D01*
X0014146Y0152825D01*
X0014301Y0152789D01*
X0014454Y0152750D01*
X0014606Y0152707D01*
X0014757Y0152660D01*
X0014907Y0152609D01*
X0015056Y0152554D01*
X0015203Y0152496D01*
X0015349Y0152434D01*
X0015493Y0152369D01*
X0015635Y0152299D01*
X0015776Y0152227D01*
X0015915Y0152150D01*
X0016051Y0152071D01*
X0016186Y0151987D01*
X0016319Y0151901D01*
X0016449Y0151811D01*
X0016577Y0151718D01*
X0016703Y0151622D01*
X0016826Y0151522D01*
X0016947Y0151420D01*
X0017065Y0151315D01*
X0017180Y0151206D01*
X0017293Y0151095D01*
X0017403Y0150981D01*
X0017510Y0150864D01*
X0017614Y0150745D01*
X0017715Y0150623D01*
X0017812Y0150498D01*
X0017907Y0150371D01*
X0017998Y0150242D01*
X0018087Y0150111D01*
X0018171Y0149977D01*
X0018253Y0149841D01*
X0018331Y0149704D01*
X0018405Y0149564D01*
X0018476Y0149422D01*
X0018544Y0149279D01*
X0018608Y0149134D01*
X0018668Y0148988D01*
X0018724Y0148840D01*
X0018777Y0148691D01*
X0018826Y0148540D01*
X0018871Y0148388D01*
X0018912Y0148235D01*
X0018950Y0148082D01*
X0018983Y0147927D01*
X0019013Y0147771D01*
X0019039Y0147615D01*
X0019060Y0147458D01*
X0019078Y0147301D01*
X0019092Y0147143D01*
X0019102Y0146985D01*
X0019108Y0146827D01*
X0019110Y0146669D01*
X0019108Y0146511D01*
X0019102Y0146353D01*
X0019092Y0146195D01*
X0019078Y0146037D01*
X0019060Y0145880D01*
X0019039Y0145723D01*
X0019013Y0145567D01*
X0018983Y0145411D01*
X0018950Y0145256D01*
X0018912Y0145103D01*
X0018871Y0144950D01*
X0018826Y0144798D01*
X0018777Y0144647D01*
X0018724Y0144498D01*
X0018668Y0144350D01*
X0018608Y0144204D01*
X0018544Y0144059D01*
X0018476Y0143916D01*
X0018405Y0143774D01*
X0018331Y0143634D01*
X0018253Y0143497D01*
X0018171Y0143361D01*
X0018087Y0143227D01*
X0017998Y0143096D01*
X0017907Y0142967D01*
X0017812Y0142840D01*
X0017715Y0142715D01*
X0017614Y0142593D01*
X0017510Y0142474D01*
X0017403Y0142357D01*
X0017293Y0142243D01*
X0017180Y0142132D01*
X0017065Y0142023D01*
X0016947Y0141918D01*
X0016826Y0141816D01*
X0016703Y0141716D01*
X0016577Y0141620D01*
X0016449Y0141527D01*
X0016319Y0141437D01*
X0016186Y0141351D01*
X0016051Y0141267D01*
X0015915Y0141188D01*
X0015776Y0141111D01*
X0015635Y0141039D01*
X0015493Y0140969D01*
X0015349Y0140904D01*
X0015203Y0140842D01*
X0015056Y0140784D01*
X0014907Y0140729D01*
X0014757Y0140678D01*
X0014606Y0140631D01*
X0014454Y0140588D01*
X0014301Y0140549D01*
X0014146Y0140513D01*
X0013991Y0140482D01*
X0013835Y0140454D01*
X0013679Y0140430D01*
X0013522Y0140410D01*
X0013364Y0140394D01*
X0013207Y0140382D01*
X0013048Y0140374D01*
X0012890Y0140370D01*
X0012732Y0140370D01*
X0012574Y0140374D01*
X0012415Y0140382D01*
X0012258Y0140394D01*
X0012100Y0140410D01*
X0011943Y0140430D01*
X0011787Y0140454D01*
X0011631Y0140482D01*
X0011476Y0140513D01*
X0011321Y0140549D01*
X0011168Y0140588D01*
X0011016Y0140631D01*
X0010865Y0140678D01*
X0010715Y0140729D01*
X0010566Y0140784D01*
X0010419Y0140842D01*
X0010273Y0140904D01*
X0010129Y0140969D01*
X0009987Y0141039D01*
X0009846Y0141111D01*
X0009707Y0141188D01*
X0009571Y0141267D01*
X0009436Y0141351D01*
X0009303Y0141437D01*
X0009173Y0141527D01*
X0009045Y0141620D01*
X0008919Y0141716D01*
X0008796Y0141816D01*
X0008675Y0141918D01*
X0008557Y0142023D01*
X0008442Y0142132D01*
X0008329Y0142243D01*
X0008219Y0142357D01*
X0008112Y0142474D01*
X0008008Y0142593D01*
X0007907Y0142715D01*
X0007810Y0142840D01*
X0007715Y0142967D01*
X0007624Y0143096D01*
X0007535Y0143227D01*
X0007451Y0143361D01*
X0007369Y0143497D01*
X0007291Y0143634D01*
X0007217Y0143774D01*
X0007146Y0143916D01*
X0007078Y0144059D01*
X0007014Y0144204D01*
X0006954Y0144350D01*
X0006898Y0144498D01*
X0006845Y0144647D01*
X0006796Y0144798D01*
X0006751Y0144950D01*
X0006710Y0145103D01*
X0006672Y0145256D01*
X0006639Y0145411D01*
X0006609Y0145567D01*
X0006583Y0145723D01*
X0006562Y0145880D01*
X0006544Y0146037D01*
X0006530Y0146195D01*
X0006520Y0146353D01*
X0006514Y0146511D01*
X0006512Y0146669D01*
D11*
X0033059Y0122749D02*
X0033840Y0123195D01*
X0033933Y0123038D01*
X0034030Y0122884D01*
X0034131Y0122732D01*
X0034236Y0122583D01*
X0034344Y0122436D01*
X0034455Y0122291D01*
X0034570Y0122150D01*
X0034689Y0122011D01*
X0034811Y0121876D01*
X0034936Y0121743D01*
X0035064Y0121613D01*
X0035195Y0121487D01*
X0035329Y0121363D01*
X0035466Y0121243D01*
X0035606Y0121126D01*
X0035749Y0121013D01*
X0035895Y0120903D01*
X0036043Y0120797D01*
X0036194Y0120694D01*
X0036347Y0120595D01*
X0036502Y0120500D01*
X0036660Y0120409D01*
X0036820Y0120321D01*
X0036982Y0120237D01*
X0037145Y0120157D01*
X0037311Y0120081D01*
X0037479Y0120010D01*
X0037648Y0119942D01*
X0037819Y0119878D01*
X0037991Y0119819D01*
X0038165Y0119763D01*
X0038340Y0119712D01*
X0038516Y0119665D01*
X0038693Y0119623D01*
X0038872Y0119584D01*
X0039051Y0119550D01*
X0039231Y0119520D01*
X0039411Y0119495D01*
X0039592Y0119474D01*
X0039774Y0119458D01*
X0039956Y0119445D01*
X0040138Y0119438D01*
X0040320Y0119434D01*
X0040321Y0118535D01*
X0040320Y0118534D01*
X0040116Y0118538D01*
X0039912Y0118546D01*
X0039708Y0118560D01*
X0039504Y0118578D01*
X0039301Y0118602D01*
X0039099Y0118630D01*
X0038897Y0118663D01*
X0038697Y0118701D01*
X0038497Y0118744D01*
X0038298Y0118792D01*
X0038101Y0118844D01*
X0037905Y0118902D01*
X0037710Y0118964D01*
X0037517Y0119030D01*
X0037325Y0119102D01*
X0037136Y0119178D01*
X0036948Y0119258D01*
X0036762Y0119343D01*
X0036578Y0119433D01*
X0036397Y0119526D01*
X0036218Y0119625D01*
X0036041Y0119727D01*
X0035867Y0119834D01*
X0035695Y0119945D01*
X0035526Y0120060D01*
X0035360Y0120179D01*
X0035197Y0120302D01*
X0035037Y0120429D01*
X0034880Y0120560D01*
X0034726Y0120695D01*
X0034576Y0120833D01*
X0034429Y0120975D01*
X0034285Y0121120D01*
X0034145Y0121269D01*
X0034009Y0121421D01*
X0033876Y0121577D01*
X0033748Y0121735D01*
X0033623Y0121897D01*
X0033502Y0122062D01*
X0033385Y0122229D01*
X0033272Y0122400D01*
X0033163Y0122573D01*
X0033058Y0122748D01*
X0033140Y0122795D01*
X0033243Y0122621D01*
X0033351Y0122450D01*
X0033463Y0122282D01*
X0033578Y0122116D01*
X0033698Y0121953D01*
X0033822Y0121794D01*
X0033949Y0121637D01*
X0034080Y0121483D01*
X0034215Y0121333D01*
X0034353Y0121185D01*
X0034495Y0121042D01*
X0034641Y0120901D01*
X0034789Y0120765D01*
X0034941Y0120632D01*
X0035097Y0120502D01*
X0035255Y0120377D01*
X0035416Y0120255D01*
X0035580Y0120137D01*
X0035747Y0120023D01*
X0035917Y0119914D01*
X0036089Y0119808D01*
X0036264Y0119707D01*
X0036441Y0119609D01*
X0036620Y0119517D01*
X0036802Y0119428D01*
X0036986Y0119344D01*
X0037171Y0119264D01*
X0037359Y0119189D01*
X0037548Y0119119D01*
X0037739Y0119053D01*
X0037932Y0118992D01*
X0038126Y0118935D01*
X0038321Y0118883D01*
X0038517Y0118836D01*
X0038715Y0118794D01*
X0038913Y0118756D01*
X0039113Y0118723D01*
X0039313Y0118695D01*
X0039514Y0118672D01*
X0039715Y0118654D01*
X0039916Y0118640D01*
X0040118Y0118632D01*
X0040320Y0118628D01*
X0040320Y0118722D01*
X0040121Y0118726D01*
X0039921Y0118734D01*
X0039722Y0118747D01*
X0039523Y0118766D01*
X0039324Y0118788D01*
X0039127Y0118816D01*
X0038929Y0118849D01*
X0038733Y0118886D01*
X0038538Y0118928D01*
X0038344Y0118974D01*
X0038151Y0119026D01*
X0037959Y0119082D01*
X0037769Y0119142D01*
X0037580Y0119207D01*
X0037393Y0119277D01*
X0037207Y0119351D01*
X0037024Y0119430D01*
X0036842Y0119513D01*
X0036662Y0119601D01*
X0036485Y0119692D01*
X0036310Y0119788D01*
X0036137Y0119889D01*
X0035967Y0119993D01*
X0035799Y0120102D01*
X0035634Y0120214D01*
X0035472Y0120330D01*
X0035313Y0120451D01*
X0035156Y0120575D01*
X0035003Y0120703D01*
X0034852Y0120834D01*
X0034705Y0120970D01*
X0034562Y0121108D01*
X0034421Y0121250D01*
X0034284Y0121396D01*
X0034151Y0121545D01*
X0034021Y0121697D01*
X0033895Y0121852D01*
X0033773Y0122010D01*
X0033655Y0122171D01*
X0033541Y0122334D01*
X0033430Y0122501D01*
X0033324Y0122670D01*
X0033222Y0122841D01*
X0033303Y0122888D01*
X0033404Y0122718D01*
X0033509Y0122551D01*
X0033619Y0122387D01*
X0033732Y0122225D01*
X0033849Y0122066D01*
X0033969Y0121910D01*
X0034094Y0121756D01*
X0034222Y0121606D01*
X0034354Y0121459D01*
X0034489Y0121315D01*
X0034628Y0121175D01*
X0034770Y0121038D01*
X0034915Y0120904D01*
X0035064Y0120774D01*
X0035216Y0120648D01*
X0035370Y0120525D01*
X0035528Y0120406D01*
X0035688Y0120291D01*
X0035851Y0120180D01*
X0036017Y0120073D01*
X0036185Y0119969D01*
X0036356Y0119870D01*
X0036529Y0119775D01*
X0036705Y0119685D01*
X0036882Y0119598D01*
X0037062Y0119516D01*
X0037243Y0119438D01*
X0037426Y0119365D01*
X0037611Y0119296D01*
X0037798Y0119232D01*
X0037986Y0119172D01*
X0038176Y0119116D01*
X0038366Y0119066D01*
X0038558Y0119019D01*
X0038751Y0118978D01*
X0038945Y0118941D01*
X0039140Y0118909D01*
X0039336Y0118882D01*
X0039532Y0118859D01*
X0039729Y0118841D01*
X0039926Y0118828D01*
X0040123Y0118820D01*
X0040320Y0118816D01*
X0040320Y0118910D01*
X0040125Y0118914D01*
X0039930Y0118922D01*
X0039735Y0118935D01*
X0039541Y0118953D01*
X0039347Y0118975D01*
X0039154Y0119002D01*
X0038961Y0119034D01*
X0038770Y0119070D01*
X0038579Y0119111D01*
X0038389Y0119157D01*
X0038201Y0119207D01*
X0038013Y0119262D01*
X0037827Y0119321D01*
X0037643Y0119384D01*
X0037460Y0119453D01*
X0037279Y0119525D01*
X0037100Y0119602D01*
X0036922Y0119683D01*
X0036747Y0119769D01*
X0036573Y0119858D01*
X0036402Y0119952D01*
X0036234Y0120050D01*
X0036067Y0120152D01*
X0035903Y0120258D01*
X0035742Y0120368D01*
X0035584Y0120482D01*
X0035428Y0120599D01*
X0035275Y0120721D01*
X0035125Y0120846D01*
X0034978Y0120974D01*
X0034835Y0121106D01*
X0034694Y0121242D01*
X0034557Y0121381D01*
X0034423Y0121523D01*
X0034293Y0121668D01*
X0034166Y0121816D01*
X0034043Y0121968D01*
X0033924Y0122122D01*
X0033808Y0122279D01*
X0033697Y0122439D01*
X0033589Y0122602D01*
X0033485Y0122767D01*
X0033385Y0122935D01*
X0033466Y0122981D01*
X0033565Y0122816D01*
X0033668Y0122652D01*
X0033775Y0122492D01*
X0033885Y0122334D01*
X0033999Y0122178D01*
X0034117Y0122026D01*
X0034239Y0121876D01*
X0034364Y0121730D01*
X0034493Y0121586D01*
X0034625Y0121446D01*
X0034760Y0121308D01*
X0034899Y0121174D01*
X0035041Y0121044D01*
X0035186Y0120917D01*
X0035334Y0120793D01*
X0035485Y0120674D01*
X0035639Y0120557D01*
X0035796Y0120445D01*
X0035955Y0120336D01*
X0036117Y0120232D01*
X0036282Y0120131D01*
X0036448Y0120034D01*
X0036618Y0119941D01*
X0036789Y0119853D01*
X0036962Y0119768D01*
X0037138Y0119688D01*
X0037315Y0119612D01*
X0037494Y0119540D01*
X0037675Y0119473D01*
X0037857Y0119410D01*
X0038041Y0119352D01*
X0038226Y0119298D01*
X0038412Y0119248D01*
X0038600Y0119203D01*
X0038788Y0119162D01*
X0038977Y0119126D01*
X0039168Y0119095D01*
X0039359Y0119068D01*
X0039550Y0119046D01*
X0039742Y0119029D01*
X0039935Y0119016D01*
X0040127Y0119008D01*
X0040320Y0119004D01*
X0040320Y0119098D01*
X0040130Y0119102D01*
X0039939Y0119110D01*
X0039749Y0119122D01*
X0039559Y0119140D01*
X0039370Y0119162D01*
X0039182Y0119188D01*
X0038994Y0119219D01*
X0038806Y0119255D01*
X0038620Y0119295D01*
X0038435Y0119339D01*
X0038251Y0119388D01*
X0038068Y0119442D01*
X0037886Y0119499D01*
X0037706Y0119562D01*
X0037528Y0119628D01*
X0037351Y0119699D01*
X0037176Y0119774D01*
X0037002Y0119853D01*
X0036831Y0119937D01*
X0036662Y0120024D01*
X0036495Y0120116D01*
X0036330Y0120212D01*
X0036167Y0120311D01*
X0036007Y0120415D01*
X0035850Y0120522D01*
X0035695Y0120633D01*
X0035543Y0120748D01*
X0035394Y0120866D01*
X0035248Y0120988D01*
X0035104Y0121114D01*
X0034964Y0121243D01*
X0034827Y0121375D01*
X0034693Y0121511D01*
X0034562Y0121649D01*
X0034435Y0121791D01*
X0034311Y0121936D01*
X0034191Y0122084D01*
X0034075Y0122235D01*
X0033962Y0122388D01*
X0033853Y0122544D01*
X0033747Y0122703D01*
X0033646Y0122864D01*
X0033548Y0123028D01*
X0033630Y0123075D01*
X0033726Y0122913D01*
X0033826Y0122754D01*
X0033930Y0122597D01*
X0034038Y0122442D01*
X0034150Y0122291D01*
X0034265Y0122142D01*
X0034384Y0121996D01*
X0034506Y0121853D01*
X0034632Y0121713D01*
X0034761Y0121576D01*
X0034893Y0121442D01*
X0035029Y0121311D01*
X0035167Y0121184D01*
X0035309Y0121060D01*
X0035453Y0120939D01*
X0035601Y0120822D01*
X0035751Y0120709D01*
X0035904Y0120599D01*
X0036060Y0120493D01*
X0036218Y0120391D01*
X0036378Y0120292D01*
X0036541Y0120198D01*
X0036706Y0120107D01*
X0036873Y0120021D01*
X0037042Y0119938D01*
X0037213Y0119860D01*
X0037386Y0119786D01*
X0037561Y0119716D01*
X0037738Y0119650D01*
X0037916Y0119589D01*
X0038095Y0119532D01*
X0038276Y0119479D01*
X0038458Y0119430D01*
X0038641Y0119386D01*
X0038825Y0119347D01*
X0039010Y0119312D01*
X0039195Y0119281D01*
X0039382Y0119255D01*
X0039569Y0119233D01*
X0039756Y0119216D01*
X0039944Y0119204D01*
X0040132Y0119196D01*
X0040320Y0119192D01*
X0040320Y0119286D01*
X0040134Y0119290D01*
X0039949Y0119298D01*
X0039763Y0119310D01*
X0039578Y0119327D01*
X0039393Y0119348D01*
X0039209Y0119374D01*
X0039026Y0119404D01*
X0038843Y0119439D01*
X0038661Y0119478D01*
X0038480Y0119522D01*
X0038301Y0119569D01*
X0038122Y0119622D01*
X0037945Y0119678D01*
X0037769Y0119739D01*
X0037595Y0119804D01*
X0037422Y0119873D01*
X0037251Y0119946D01*
X0037082Y0120023D01*
X0036915Y0120105D01*
X0036750Y0120190D01*
X0036587Y0120280D01*
X0036426Y0120373D01*
X0036268Y0120470D01*
X0036112Y0120571D01*
X0035958Y0120676D01*
X0035807Y0120784D01*
X0035658Y0120896D01*
X0035513Y0121012D01*
X0035370Y0121131D01*
X0035230Y0121253D01*
X0035093Y0121379D01*
X0034959Y0121508D01*
X0034829Y0121641D01*
X0034701Y0121776D01*
X0034577Y0121914D01*
X0034456Y0122056D01*
X0034339Y0122200D01*
X0034225Y0122347D01*
X0034115Y0122497D01*
X0034008Y0122649D01*
X0033906Y0122804D01*
X0033807Y0122962D01*
X0033711Y0123121D01*
X0033793Y0123168D01*
X0033887Y0123010D01*
X0033985Y0122855D01*
X0034086Y0122702D01*
X0034192Y0122551D01*
X0034301Y0122403D01*
X0034413Y0122258D01*
X0034529Y0122116D01*
X0034648Y0121976D01*
X0034771Y0121839D01*
X0034897Y0121706D01*
X0035026Y0121575D01*
X0035158Y0121447D01*
X0035293Y0121323D01*
X0035431Y0121202D01*
X0035572Y0121085D01*
X0035716Y0120971D01*
X0035863Y0120860D01*
X0036012Y0120753D01*
X0036164Y0120649D01*
X0036318Y0120550D01*
X0036474Y0120454D01*
X0036633Y0120362D01*
X0036794Y0120273D01*
X0036957Y0120189D01*
X0037122Y0120108D01*
X0037289Y0120032D01*
X0037458Y0119960D01*
X0037629Y0119891D01*
X0037801Y0119827D01*
X0037974Y0119767D01*
X0038149Y0119711D01*
X0038326Y0119660D01*
X0038503Y0119613D01*
X0038682Y0119570D01*
X0038861Y0119531D01*
X0039042Y0119497D01*
X0039223Y0119467D01*
X0039405Y0119442D01*
X0039587Y0119420D01*
X0039770Y0119404D01*
X0039953Y0119391D01*
X0040137Y0119384D01*
X0040320Y0119380D01*
X0040320Y0135433D02*
X0040320Y0134533D01*
X0040320Y0134534D02*
X0040137Y0134530D01*
X0039954Y0134523D01*
X0039771Y0134510D01*
X0039588Y0134493D01*
X0039406Y0134472D01*
X0039225Y0134447D01*
X0039044Y0134417D01*
X0038864Y0134382D01*
X0038685Y0134344D01*
X0038507Y0134301D01*
X0038330Y0134253D01*
X0038155Y0134202D01*
X0037980Y0134146D01*
X0037807Y0134086D01*
X0037636Y0134021D01*
X0037466Y0133953D01*
X0037297Y0133881D01*
X0037131Y0133804D01*
X0036967Y0133723D01*
X0036804Y0133639D01*
X0036644Y0133550D01*
X0036485Y0133458D01*
X0036329Y0133362D01*
X0036176Y0133262D01*
X0036025Y0133158D01*
X0035876Y0133051D01*
X0035730Y0132940D01*
X0035587Y0132826D01*
X0035447Y0132708D01*
X0035310Y0132587D01*
X0035175Y0132463D01*
X0035044Y0132335D01*
X0034915Y0132204D01*
X0034790Y0132070D01*
X0034669Y0131934D01*
X0034550Y0131794D01*
X0034435Y0131651D01*
X0034324Y0131506D01*
X0034216Y0131358D01*
X0034112Y0131207D01*
X0034011Y0131054D01*
X0033914Y0130899D01*
X0033821Y0130741D01*
X0033732Y0130581D01*
X0032938Y0131004D01*
X0033038Y0131184D01*
X0033142Y0131361D01*
X0033250Y0131535D01*
X0033363Y0131707D01*
X0033480Y0131875D01*
X0033601Y0132041D01*
X0033725Y0132204D01*
X0033854Y0132364D01*
X0033987Y0132521D01*
X0034123Y0132674D01*
X0034263Y0132824D01*
X0034407Y0132971D01*
X0034554Y0133114D01*
X0034705Y0133254D01*
X0034859Y0133389D01*
X0035016Y0133521D01*
X0035176Y0133649D01*
X0035340Y0133774D01*
X0035506Y0133894D01*
X0035676Y0134010D01*
X0035848Y0134122D01*
X0036022Y0134230D01*
X0036200Y0134333D01*
X0036379Y0134432D01*
X0036562Y0134527D01*
X0036746Y0134617D01*
X0036932Y0134703D01*
X0037121Y0134784D01*
X0037311Y0134861D01*
X0037504Y0134933D01*
X0037698Y0135000D01*
X0037893Y0135063D01*
X0038090Y0135121D01*
X0038288Y0135174D01*
X0038488Y0135222D01*
X0038689Y0135265D01*
X0038890Y0135303D01*
X0039093Y0135337D01*
X0039296Y0135365D01*
X0039500Y0135389D01*
X0039705Y0135408D01*
X0039909Y0135421D01*
X0040114Y0135430D01*
X0040320Y0135434D01*
X0040320Y0135340D01*
X0040117Y0135336D01*
X0039914Y0135328D01*
X0039711Y0135314D01*
X0039509Y0135296D01*
X0039308Y0135272D01*
X0039107Y0135244D01*
X0038906Y0135211D01*
X0038707Y0135173D01*
X0038509Y0135130D01*
X0038311Y0135082D01*
X0038115Y0135030D01*
X0037920Y0134973D01*
X0037727Y0134911D01*
X0037535Y0134844D01*
X0037345Y0134773D01*
X0037157Y0134698D01*
X0036971Y0134617D01*
X0036786Y0134532D01*
X0036604Y0134443D01*
X0036424Y0134349D01*
X0036246Y0134251D01*
X0036071Y0134149D01*
X0035898Y0134043D01*
X0035728Y0133932D01*
X0035560Y0133817D01*
X0035396Y0133698D01*
X0035234Y0133575D01*
X0035076Y0133449D01*
X0034920Y0133318D01*
X0034768Y0133184D01*
X0034619Y0133046D01*
X0034473Y0132905D01*
X0034331Y0132760D01*
X0034193Y0132611D01*
X0034058Y0132460D01*
X0033927Y0132305D01*
X0033800Y0132147D01*
X0033676Y0131985D01*
X0033557Y0131821D01*
X0033441Y0131654D01*
X0033330Y0131485D01*
X0033222Y0131312D01*
X0033119Y0131137D01*
X0033021Y0130960D01*
X0033104Y0130916D01*
X0033201Y0131091D01*
X0033303Y0131264D01*
X0033409Y0131434D01*
X0033519Y0131602D01*
X0033633Y0131767D01*
X0033752Y0131929D01*
X0033874Y0132089D01*
X0034000Y0132245D01*
X0034129Y0132398D01*
X0034263Y0132548D01*
X0034399Y0132695D01*
X0034540Y0132838D01*
X0034684Y0132978D01*
X0034831Y0133114D01*
X0034982Y0133247D01*
X0035135Y0133376D01*
X0035292Y0133501D01*
X0035452Y0133623D01*
X0035615Y0133740D01*
X0035780Y0133854D01*
X0035948Y0133963D01*
X0036119Y0134069D01*
X0036292Y0134170D01*
X0036468Y0134267D01*
X0036646Y0134359D01*
X0036826Y0134447D01*
X0037009Y0134531D01*
X0037193Y0134611D01*
X0037379Y0134686D01*
X0037567Y0134756D01*
X0037757Y0134822D01*
X0037948Y0134883D01*
X0038140Y0134939D01*
X0038334Y0134991D01*
X0038529Y0135038D01*
X0038725Y0135081D01*
X0038923Y0135118D01*
X0039121Y0135151D01*
X0039319Y0135179D01*
X0039519Y0135202D01*
X0039718Y0135220D01*
X0039919Y0135234D01*
X0040119Y0135242D01*
X0040320Y0135246D01*
X0040320Y0135152D01*
X0040121Y0135148D01*
X0039923Y0135140D01*
X0039725Y0135127D01*
X0039528Y0135108D01*
X0039331Y0135086D01*
X0039134Y0135058D01*
X0038939Y0135026D01*
X0038744Y0134988D01*
X0038550Y0134947D01*
X0038357Y0134900D01*
X0038165Y0134849D01*
X0037975Y0134793D01*
X0037786Y0134733D01*
X0037599Y0134668D01*
X0037413Y0134598D01*
X0037229Y0134524D01*
X0037047Y0134445D01*
X0036867Y0134362D01*
X0036688Y0134275D01*
X0036512Y0134184D01*
X0036339Y0134088D01*
X0036167Y0133988D01*
X0035999Y0133884D01*
X0035832Y0133776D01*
X0035669Y0133663D01*
X0035508Y0133547D01*
X0035350Y0133427D01*
X0035195Y0133303D01*
X0035043Y0133176D01*
X0034894Y0133045D01*
X0034749Y0132910D01*
X0034606Y0132772D01*
X0034468Y0132630D01*
X0034332Y0132485D01*
X0034200Y0132337D01*
X0034072Y0132185D01*
X0033948Y0132031D01*
X0033827Y0131874D01*
X0033710Y0131713D01*
X0033597Y0131550D01*
X0033489Y0131384D01*
X0033384Y0131216D01*
X0033283Y0131045D01*
X0033187Y0130872D01*
X0033269Y0130827D01*
X0033365Y0130999D01*
X0033464Y0131168D01*
X0033568Y0131334D01*
X0033676Y0131498D01*
X0033787Y0131659D01*
X0033903Y0131818D01*
X0034022Y0131973D01*
X0034145Y0132126D01*
X0034272Y0132275D01*
X0034402Y0132422D01*
X0034536Y0132565D01*
X0034673Y0132705D01*
X0034814Y0132842D01*
X0034957Y0132975D01*
X0035104Y0133105D01*
X0035255Y0133231D01*
X0035408Y0133353D01*
X0035564Y0133472D01*
X0035723Y0133587D01*
X0035885Y0133697D01*
X0036049Y0133804D01*
X0036216Y0133907D01*
X0036385Y0134006D01*
X0036557Y0134101D01*
X0036731Y0134191D01*
X0036907Y0134278D01*
X0037085Y0134359D01*
X0037265Y0134437D01*
X0037447Y0134510D01*
X0037630Y0134579D01*
X0037816Y0134643D01*
X0038002Y0134703D01*
X0038190Y0134758D01*
X0038380Y0134809D01*
X0038570Y0134855D01*
X0038762Y0134896D01*
X0038955Y0134933D01*
X0039148Y0134965D01*
X0039342Y0134992D01*
X0039537Y0135015D01*
X0039732Y0135033D01*
X0039928Y0135046D01*
X0040124Y0135054D01*
X0040320Y0135058D01*
X0040320Y0134964D01*
X0040126Y0134960D01*
X0039932Y0134952D01*
X0039739Y0134939D01*
X0039546Y0134921D01*
X0039354Y0134899D01*
X0039162Y0134872D01*
X0038971Y0134840D01*
X0038780Y0134804D01*
X0038591Y0134763D01*
X0038403Y0134718D01*
X0038216Y0134668D01*
X0038030Y0134613D01*
X0037845Y0134554D01*
X0037662Y0134491D01*
X0037481Y0134423D01*
X0037301Y0134350D01*
X0037123Y0134274D01*
X0036947Y0134193D01*
X0036773Y0134107D01*
X0036601Y0134018D01*
X0036431Y0133924D01*
X0036264Y0133827D01*
X0036099Y0133725D01*
X0035937Y0133619D01*
X0035777Y0133510D01*
X0035620Y0133396D01*
X0035466Y0133279D01*
X0035314Y0133158D01*
X0035166Y0133034D01*
X0035021Y0132906D01*
X0034878Y0132774D01*
X0034739Y0132639D01*
X0034604Y0132501D01*
X0034472Y0132359D01*
X0034343Y0132214D01*
X0034218Y0132066D01*
X0034096Y0131915D01*
X0033978Y0131762D01*
X0033864Y0131605D01*
X0033754Y0131446D01*
X0033648Y0131284D01*
X0033545Y0131119D01*
X0033447Y0130952D01*
X0033352Y0130783D01*
X0033435Y0130739D01*
X0033529Y0130906D01*
X0033626Y0131071D01*
X0033727Y0131234D01*
X0033832Y0131394D01*
X0033941Y0131551D01*
X0034054Y0131706D01*
X0034170Y0131858D01*
X0034290Y0132007D01*
X0034414Y0132153D01*
X0034541Y0132296D01*
X0034672Y0132436D01*
X0034806Y0132572D01*
X0034943Y0132706D01*
X0035084Y0132836D01*
X0035227Y0132963D01*
X0035374Y0133086D01*
X0035524Y0133205D01*
X0035676Y0133321D01*
X0035831Y0133433D01*
X0035989Y0133541D01*
X0036150Y0133646D01*
X0036313Y0133746D01*
X0036478Y0133843D01*
X0036645Y0133935D01*
X0036815Y0134023D01*
X0036987Y0134108D01*
X0037161Y0134188D01*
X0037337Y0134263D01*
X0037515Y0134335D01*
X0037694Y0134402D01*
X0037875Y0134465D01*
X0038057Y0134523D01*
X0038241Y0134577D01*
X0038426Y0134627D01*
X0038612Y0134671D01*
X0038799Y0134712D01*
X0038987Y0134748D01*
X0039176Y0134779D01*
X0039365Y0134806D01*
X0039555Y0134828D01*
X0039746Y0134845D01*
X0039937Y0134858D01*
X0040128Y0134866D01*
X0040320Y0134870D01*
X0040320Y0134776D01*
X0040131Y0134772D01*
X0039942Y0134764D01*
X0039753Y0134752D01*
X0039565Y0134734D01*
X0039377Y0134712D01*
X0039190Y0134686D01*
X0039003Y0134655D01*
X0038817Y0134620D01*
X0038632Y0134580D01*
X0038448Y0134535D01*
X0038266Y0134486D01*
X0038084Y0134433D01*
X0037904Y0134376D01*
X0037726Y0134314D01*
X0037548Y0134247D01*
X0037373Y0134177D01*
X0037199Y0134102D01*
X0037027Y0134023D01*
X0036858Y0133939D01*
X0036690Y0133852D01*
X0036524Y0133761D01*
X0036361Y0133665D01*
X0036200Y0133566D01*
X0036041Y0133463D01*
X0035885Y0133356D01*
X0035732Y0133245D01*
X0035581Y0133131D01*
X0035434Y0133013D01*
X0035289Y0132891D01*
X0035147Y0132766D01*
X0035008Y0132638D01*
X0034873Y0132506D01*
X0034740Y0132371D01*
X0034611Y0132233D01*
X0034485Y0132091D01*
X0034363Y0131947D01*
X0034244Y0131800D01*
X0034129Y0131650D01*
X0034018Y0131497D01*
X0033910Y0131341D01*
X0033806Y0131183D01*
X0033706Y0131023D01*
X0033610Y0130860D01*
X0033518Y0130695D01*
X0033601Y0130650D01*
X0033692Y0130814D01*
X0033787Y0130975D01*
X0033886Y0131133D01*
X0033988Y0131289D01*
X0034095Y0131443D01*
X0034205Y0131594D01*
X0034319Y0131742D01*
X0034436Y0131888D01*
X0034557Y0132030D01*
X0034681Y0132170D01*
X0034808Y0132306D01*
X0034939Y0132440D01*
X0035073Y0132570D01*
X0035210Y0132697D01*
X0035350Y0132820D01*
X0035493Y0132940D01*
X0035639Y0133057D01*
X0035788Y0133170D01*
X0035940Y0133279D01*
X0036094Y0133385D01*
X0036250Y0133487D01*
X0036409Y0133585D01*
X0036571Y0133679D01*
X0036734Y0133769D01*
X0036900Y0133856D01*
X0037068Y0133938D01*
X0037237Y0134016D01*
X0037409Y0134090D01*
X0037582Y0134159D01*
X0037757Y0134225D01*
X0037934Y0134286D01*
X0038112Y0134343D01*
X0038291Y0134396D01*
X0038471Y0134444D01*
X0038653Y0134488D01*
X0038836Y0134528D01*
X0039019Y0134563D01*
X0039203Y0134593D01*
X0039388Y0134619D01*
X0039574Y0134641D01*
X0039760Y0134658D01*
X0039946Y0134670D01*
X0040133Y0134678D01*
X0040320Y0134682D01*
X0040320Y0134588D01*
X0040135Y0134584D01*
X0039951Y0134576D01*
X0039767Y0134564D01*
X0039583Y0134547D01*
X0039400Y0134526D01*
X0039217Y0134500D01*
X0039035Y0134470D01*
X0038854Y0134435D01*
X0038674Y0134396D01*
X0038494Y0134353D01*
X0038316Y0134305D01*
X0038139Y0134253D01*
X0037963Y0134197D01*
X0037789Y0134137D01*
X0037616Y0134072D01*
X0037445Y0134003D01*
X0037276Y0133930D01*
X0037108Y0133853D01*
X0036942Y0133772D01*
X0036779Y0133686D01*
X0036617Y0133597D01*
X0036458Y0133504D01*
X0036301Y0133407D01*
X0036146Y0133307D01*
X0035994Y0133202D01*
X0035844Y0133094D01*
X0035697Y0132983D01*
X0035553Y0132868D01*
X0035412Y0132749D01*
X0035273Y0132627D01*
X0035138Y0132502D01*
X0035006Y0132373D01*
X0034876Y0132241D01*
X0034750Y0132107D01*
X0034628Y0131969D01*
X0034509Y0131828D01*
X0034393Y0131684D01*
X0034280Y0131538D01*
X0034172Y0131389D01*
X0034067Y0131237D01*
X0033965Y0131083D01*
X0033868Y0130926D01*
X0033774Y0130767D01*
X0033684Y0130606D01*
X0046829Y0132432D02*
X0046137Y0131855D01*
X0046138Y0131856D02*
X0046019Y0131993D01*
X0045898Y0132127D01*
X0045773Y0132258D01*
X0045645Y0132386D01*
X0045514Y0132510D01*
X0045380Y0132632D01*
X0045243Y0132751D01*
X0045104Y0132866D01*
X0044961Y0132977D01*
X0044816Y0133086D01*
X0044669Y0133191D01*
X0044519Y0133292D01*
X0044367Y0133389D01*
X0044212Y0133483D01*
X0044055Y0133574D01*
X0043896Y0133660D01*
X0043735Y0133743D01*
X0043572Y0133821D01*
X0043407Y0133896D01*
X0043241Y0133967D01*
X0043073Y0134034D01*
X0042903Y0134096D01*
X0042732Y0134155D01*
X0042559Y0134210D01*
X0042386Y0134260D01*
X0042211Y0134306D01*
X0042035Y0134348D01*
X0041858Y0134386D01*
X0041680Y0134419D01*
X0041501Y0134449D01*
X0041322Y0134474D01*
X0041142Y0134494D01*
X0040962Y0134511D01*
X0040782Y0134523D01*
X0040601Y0134530D01*
X0040420Y0134534D01*
X0040419Y0135433D01*
X0040420Y0135434D01*
X0040623Y0135430D01*
X0040825Y0135422D01*
X0041028Y0135408D01*
X0041230Y0135390D01*
X0041431Y0135367D01*
X0041632Y0135339D01*
X0041832Y0135306D01*
X0042032Y0135269D01*
X0042230Y0135227D01*
X0042428Y0135180D01*
X0042624Y0135128D01*
X0042818Y0135071D01*
X0043012Y0135010D01*
X0043204Y0134945D01*
X0043394Y0134874D01*
X0043583Y0134799D01*
X0043769Y0134720D01*
X0043954Y0134636D01*
X0044137Y0134548D01*
X0044317Y0134455D01*
X0044495Y0134359D01*
X0044671Y0134257D01*
X0044844Y0134152D01*
X0045015Y0134043D01*
X0045183Y0133929D01*
X0045349Y0133812D01*
X0045511Y0133690D01*
X0045671Y0133565D01*
X0045827Y0133436D01*
X0045980Y0133303D01*
X0046130Y0133166D01*
X0046277Y0133026D01*
X0046420Y0132883D01*
X0046560Y0132736D01*
X0046697Y0132586D01*
X0046829Y0132432D01*
X0046757Y0132372D01*
X0046626Y0132524D01*
X0046491Y0132672D01*
X0046353Y0132817D01*
X0046211Y0132959D01*
X0046066Y0133098D01*
X0045918Y0133233D01*
X0045766Y0133364D01*
X0045611Y0133492D01*
X0045454Y0133616D01*
X0045293Y0133736D01*
X0045130Y0133852D01*
X0044963Y0133964D01*
X0044795Y0134072D01*
X0044623Y0134177D01*
X0044449Y0134277D01*
X0044273Y0134372D01*
X0044095Y0134464D01*
X0043914Y0134551D01*
X0043731Y0134634D01*
X0043547Y0134713D01*
X0043361Y0134787D01*
X0043172Y0134856D01*
X0042983Y0134921D01*
X0042791Y0134981D01*
X0042599Y0135037D01*
X0042405Y0135088D01*
X0042210Y0135135D01*
X0042014Y0135177D01*
X0041817Y0135214D01*
X0041619Y0135246D01*
X0041420Y0135274D01*
X0041221Y0135297D01*
X0041021Y0135315D01*
X0040821Y0135328D01*
X0040620Y0135336D01*
X0040420Y0135340D01*
X0040420Y0135246D01*
X0040618Y0135242D01*
X0040816Y0135234D01*
X0041014Y0135221D01*
X0041212Y0135203D01*
X0041409Y0135180D01*
X0041605Y0135153D01*
X0041801Y0135121D01*
X0041995Y0135085D01*
X0042189Y0135043D01*
X0042382Y0134997D01*
X0042574Y0134947D01*
X0042764Y0134891D01*
X0042953Y0134832D01*
X0043141Y0134767D01*
X0043327Y0134699D01*
X0043511Y0134626D01*
X0043694Y0134548D01*
X0043874Y0134466D01*
X0044053Y0134380D01*
X0044229Y0134289D01*
X0044403Y0134195D01*
X0044575Y0134096D01*
X0044745Y0133993D01*
X0044912Y0133886D01*
X0045076Y0133775D01*
X0045237Y0133660D01*
X0045396Y0133541D01*
X0045552Y0133419D01*
X0045705Y0133293D01*
X0045855Y0133163D01*
X0046002Y0133029D01*
X0046145Y0132892D01*
X0046285Y0132752D01*
X0046422Y0132609D01*
X0046555Y0132462D01*
X0046685Y0132312D01*
X0046613Y0132252D01*
X0046484Y0132400D01*
X0046353Y0132545D01*
X0046218Y0132687D01*
X0046079Y0132825D01*
X0045937Y0132961D01*
X0045792Y0133093D01*
X0045644Y0133221D01*
X0045493Y0133346D01*
X0045339Y0133467D01*
X0045182Y0133584D01*
X0045022Y0133698D01*
X0044860Y0133807D01*
X0044695Y0133913D01*
X0044527Y0134015D01*
X0044357Y0134113D01*
X0044185Y0134206D01*
X0044011Y0134296D01*
X0043834Y0134381D01*
X0043656Y0134462D01*
X0043476Y0134539D01*
X0043293Y0134611D01*
X0043110Y0134679D01*
X0042924Y0134742D01*
X0042737Y0134801D01*
X0042549Y0134856D01*
X0042360Y0134906D01*
X0042169Y0134951D01*
X0041977Y0134992D01*
X0041785Y0135029D01*
X0041591Y0135060D01*
X0041397Y0135087D01*
X0041202Y0135109D01*
X0041007Y0135127D01*
X0040812Y0135140D01*
X0040616Y0135148D01*
X0040420Y0135152D01*
X0040420Y0135058D01*
X0040614Y0135054D01*
X0040807Y0135046D01*
X0041000Y0135033D01*
X0041193Y0135016D01*
X0041386Y0134994D01*
X0041578Y0134967D01*
X0041769Y0134936D01*
X0041959Y0134900D01*
X0042149Y0134860D01*
X0042337Y0134815D01*
X0042524Y0134765D01*
X0042710Y0134711D01*
X0042895Y0134653D01*
X0043078Y0134590D01*
X0043260Y0134523D01*
X0043440Y0134452D01*
X0043618Y0134376D01*
X0043795Y0134296D01*
X0043969Y0134212D01*
X0044141Y0134123D01*
X0044311Y0134031D01*
X0044479Y0133934D01*
X0044645Y0133833D01*
X0044808Y0133729D01*
X0044968Y0133621D01*
X0045126Y0133508D01*
X0045281Y0133392D01*
X0045434Y0133273D01*
X0045583Y0133149D01*
X0045730Y0133023D01*
X0045873Y0132892D01*
X0046013Y0132759D01*
X0046150Y0132622D01*
X0046283Y0132481D01*
X0046414Y0132338D01*
X0046540Y0132191D01*
X0046468Y0132131D01*
X0046343Y0132276D01*
X0046214Y0132418D01*
X0046082Y0132556D01*
X0045947Y0132692D01*
X0045808Y0132824D01*
X0045667Y0132953D01*
X0045522Y0133078D01*
X0045375Y0133200D01*
X0045224Y0133318D01*
X0045071Y0133433D01*
X0044915Y0133543D01*
X0044756Y0133651D01*
X0044595Y0133754D01*
X0044431Y0133853D01*
X0044265Y0133949D01*
X0044097Y0134040D01*
X0043927Y0134127D01*
X0043755Y0134211D01*
X0043580Y0134290D01*
X0043404Y0134365D01*
X0043226Y0134435D01*
X0043047Y0134502D01*
X0042866Y0134564D01*
X0042683Y0134621D01*
X0042499Y0134675D01*
X0042314Y0134724D01*
X0042128Y0134768D01*
X0041941Y0134808D01*
X0041753Y0134843D01*
X0041564Y0134874D01*
X0041374Y0134901D01*
X0041184Y0134922D01*
X0040994Y0134940D01*
X0040803Y0134952D01*
X0040611Y0134960D01*
X0040420Y0134964D01*
X0040420Y0134870D01*
X0040609Y0134866D01*
X0040798Y0134858D01*
X0040987Y0134846D01*
X0041175Y0134829D01*
X0041363Y0134807D01*
X0041550Y0134781D01*
X0041737Y0134751D01*
X0041923Y0134716D01*
X0042108Y0134676D01*
X0042292Y0134632D01*
X0042474Y0134584D01*
X0042656Y0134531D01*
X0042836Y0134474D01*
X0043015Y0134413D01*
X0043193Y0134347D01*
X0043369Y0134278D01*
X0043543Y0134204D01*
X0043715Y0134126D01*
X0043885Y0134043D01*
X0044053Y0133957D01*
X0044219Y0133867D01*
X0044383Y0133772D01*
X0044545Y0133674D01*
X0044704Y0133572D01*
X0044861Y0133466D01*
X0045015Y0133357D01*
X0045167Y0133243D01*
X0045315Y0133127D01*
X0045461Y0133006D01*
X0045604Y0132883D01*
X0045744Y0132755D01*
X0045881Y0132625D01*
X0046015Y0132491D01*
X0046145Y0132354D01*
X0046272Y0132214D01*
X0046396Y0132071D01*
X0046324Y0132011D01*
X0046201Y0132152D01*
X0046076Y0132290D01*
X0045947Y0132426D01*
X0045815Y0132558D01*
X0045680Y0132687D01*
X0045541Y0132812D01*
X0045400Y0132935D01*
X0045256Y0133054D01*
X0045109Y0133169D01*
X0044960Y0133281D01*
X0044807Y0133389D01*
X0044652Y0133494D01*
X0044495Y0133594D01*
X0044335Y0133691D01*
X0044174Y0133785D01*
X0044009Y0133874D01*
X0043843Y0133959D01*
X0043675Y0134040D01*
X0043505Y0134118D01*
X0043333Y0134191D01*
X0043159Y0134260D01*
X0042984Y0134324D01*
X0042807Y0134385D01*
X0042629Y0134441D01*
X0042450Y0134493D01*
X0042269Y0134541D01*
X0042087Y0134584D01*
X0041905Y0134623D01*
X0041721Y0134658D01*
X0041537Y0134688D01*
X0041352Y0134714D01*
X0041166Y0134735D01*
X0040980Y0134752D01*
X0040793Y0134764D01*
X0040607Y0134772D01*
X0040420Y0134776D01*
X0040420Y0134682D01*
X0040604Y0134678D01*
X0040789Y0134671D01*
X0040973Y0134658D01*
X0041157Y0134642D01*
X0041340Y0134621D01*
X0041523Y0134595D01*
X0041705Y0134565D01*
X0041886Y0134531D01*
X0042067Y0134493D01*
X0042246Y0134450D01*
X0042425Y0134403D01*
X0042602Y0134351D01*
X0042778Y0134296D01*
X0042953Y0134236D01*
X0043126Y0134172D01*
X0043297Y0134104D01*
X0043467Y0134032D01*
X0043635Y0133955D01*
X0043801Y0133875D01*
X0043965Y0133791D01*
X0044128Y0133703D01*
X0044288Y0133611D01*
X0044445Y0133515D01*
X0044601Y0133415D01*
X0044754Y0133312D01*
X0044904Y0133205D01*
X0045052Y0133095D01*
X0045197Y0132981D01*
X0045339Y0132863D01*
X0045479Y0132742D01*
X0045615Y0132618D01*
X0045749Y0132491D01*
X0045879Y0132360D01*
X0046007Y0132227D01*
X0046131Y0132090D01*
X0046251Y0131951D01*
X0046179Y0131890D01*
X0046060Y0132028D01*
X0045937Y0132163D01*
X0045812Y0132295D01*
X0045683Y0132424D01*
X0045551Y0132550D01*
X0045416Y0132672D01*
X0045278Y0132792D01*
X0045138Y0132908D01*
X0044994Y0133020D01*
X0044848Y0133129D01*
X0044700Y0133235D01*
X0044549Y0133337D01*
X0044395Y0133435D01*
X0044240Y0133530D01*
X0044082Y0133621D01*
X0043921Y0133708D01*
X0043759Y0133791D01*
X0043595Y0133870D01*
X0043429Y0133945D01*
X0043261Y0134017D01*
X0043092Y0134084D01*
X0042921Y0134147D01*
X0042749Y0134206D01*
X0042575Y0134261D01*
X0042400Y0134312D01*
X0042224Y0134359D01*
X0042046Y0134401D01*
X0041868Y0134439D01*
X0041689Y0134473D01*
X0041509Y0134502D01*
X0041329Y0134527D01*
X0041148Y0134548D01*
X0040966Y0134565D01*
X0040784Y0134577D01*
X0040602Y0134584D01*
X0040420Y0134588D01*
X0040419Y0118535D02*
X0040419Y0119435D01*
X0040420Y0119434D02*
X0040604Y0119438D01*
X0040789Y0119446D01*
X0040973Y0119458D01*
X0041156Y0119475D01*
X0041340Y0119497D01*
X0041522Y0119522D01*
X0041704Y0119553D01*
X0041885Y0119588D01*
X0042066Y0119627D01*
X0042245Y0119671D01*
X0042423Y0119719D01*
X0042600Y0119771D01*
X0042776Y0119828D01*
X0042950Y0119888D01*
X0043122Y0119954D01*
X0043293Y0120023D01*
X0043463Y0120096D01*
X0043630Y0120174D01*
X0043795Y0120256D01*
X0043959Y0120341D01*
X0044120Y0120431D01*
X0044279Y0120525D01*
X0044436Y0120622D01*
X0044590Y0120723D01*
X0044742Y0120828D01*
X0044891Y0120937D01*
X0045037Y0121049D01*
X0045181Y0121165D01*
X0045321Y0121284D01*
X0045459Y0121407D01*
X0045594Y0121533D01*
X0045726Y0121662D01*
X0045854Y0121795D01*
X0045979Y0121930D01*
X0046101Y0122069D01*
X0046788Y0121488D01*
X0046652Y0121332D01*
X0046511Y0121180D01*
X0046367Y0121031D01*
X0046220Y0120886D01*
X0046069Y0120745D01*
X0045915Y0120608D01*
X0045757Y0120474D01*
X0045596Y0120344D01*
X0045432Y0120218D01*
X0045265Y0120096D01*
X0045095Y0119978D01*
X0044922Y0119865D01*
X0044746Y0119756D01*
X0044568Y0119651D01*
X0044387Y0119550D01*
X0044204Y0119454D01*
X0044019Y0119362D01*
X0043831Y0119275D01*
X0043641Y0119193D01*
X0043450Y0119115D01*
X0043256Y0119042D01*
X0043061Y0118974D01*
X0042864Y0118910D01*
X0042666Y0118852D01*
X0042466Y0118798D01*
X0042265Y0118749D01*
X0042063Y0118705D01*
X0041860Y0118666D01*
X0041656Y0118632D01*
X0041451Y0118603D01*
X0041246Y0118579D01*
X0041040Y0118561D01*
X0040833Y0118547D01*
X0040627Y0118538D01*
X0040420Y0118534D01*
X0040420Y0118628D01*
X0040624Y0118632D01*
X0040829Y0118641D01*
X0041033Y0118654D01*
X0041236Y0118673D01*
X0041439Y0118697D01*
X0041642Y0118725D01*
X0041844Y0118759D01*
X0042044Y0118797D01*
X0042244Y0118841D01*
X0042443Y0118889D01*
X0042640Y0118942D01*
X0042837Y0119000D01*
X0043031Y0119063D01*
X0043224Y0119131D01*
X0043416Y0119203D01*
X0043605Y0119280D01*
X0043793Y0119361D01*
X0043978Y0119447D01*
X0044161Y0119538D01*
X0044343Y0119633D01*
X0044521Y0119732D01*
X0044697Y0119836D01*
X0044871Y0119944D01*
X0045042Y0120056D01*
X0045210Y0120173D01*
X0045375Y0120293D01*
X0045538Y0120418D01*
X0045697Y0120546D01*
X0045853Y0120678D01*
X0046005Y0120814D01*
X0046155Y0120954D01*
X0046300Y0121097D01*
X0046443Y0121244D01*
X0046581Y0121395D01*
X0046716Y0121548D01*
X0046645Y0121609D01*
X0046511Y0121457D01*
X0046374Y0121308D01*
X0046233Y0121163D01*
X0046089Y0121022D01*
X0045942Y0120883D01*
X0045791Y0120749D01*
X0045637Y0120618D01*
X0045479Y0120491D01*
X0045319Y0120368D01*
X0045155Y0120249D01*
X0044989Y0120134D01*
X0044820Y0120023D01*
X0044649Y0119916D01*
X0044474Y0119814D01*
X0044298Y0119715D01*
X0044119Y0119621D01*
X0043937Y0119532D01*
X0043754Y0119447D01*
X0043569Y0119366D01*
X0043381Y0119290D01*
X0043192Y0119219D01*
X0043001Y0119152D01*
X0042809Y0119090D01*
X0042615Y0119033D01*
X0042420Y0118980D01*
X0042223Y0118933D01*
X0042026Y0118890D01*
X0041827Y0118852D01*
X0041628Y0118818D01*
X0041428Y0118790D01*
X0041227Y0118767D01*
X0041026Y0118748D01*
X0040824Y0118734D01*
X0040622Y0118726D01*
X0040420Y0118722D01*
X0040420Y0118816D01*
X0040620Y0118820D01*
X0040819Y0118828D01*
X0041019Y0118842D01*
X0041218Y0118860D01*
X0041416Y0118883D01*
X0041614Y0118911D01*
X0041811Y0118944D01*
X0042007Y0118982D01*
X0042203Y0119024D01*
X0042397Y0119071D01*
X0042590Y0119123D01*
X0042781Y0119180D01*
X0042972Y0119241D01*
X0043160Y0119307D01*
X0043347Y0119378D01*
X0043532Y0119453D01*
X0043716Y0119533D01*
X0043897Y0119617D01*
X0044076Y0119705D01*
X0044253Y0119798D01*
X0044428Y0119895D01*
X0044600Y0119997D01*
X0044769Y0120102D01*
X0044937Y0120212D01*
X0045101Y0120326D01*
X0045262Y0120443D01*
X0045421Y0120565D01*
X0045576Y0120690D01*
X0045729Y0120820D01*
X0045878Y0120953D01*
X0046024Y0121089D01*
X0046166Y0121229D01*
X0046305Y0121373D01*
X0046441Y0121520D01*
X0046573Y0121670D01*
X0046501Y0121730D01*
X0046371Y0121582D01*
X0046237Y0121437D01*
X0046099Y0121295D01*
X0045958Y0121157D01*
X0045814Y0121022D01*
X0045667Y0120890D01*
X0045516Y0120763D01*
X0045362Y0120639D01*
X0045206Y0120518D01*
X0045046Y0120402D01*
X0044884Y0120290D01*
X0044719Y0120181D01*
X0044551Y0120077D01*
X0044381Y0119977D01*
X0044208Y0119881D01*
X0044033Y0119789D01*
X0043856Y0119701D01*
X0043677Y0119618D01*
X0043496Y0119540D01*
X0043313Y0119465D01*
X0043128Y0119396D01*
X0042942Y0119331D01*
X0042754Y0119270D01*
X0042564Y0119214D01*
X0042374Y0119163D01*
X0042182Y0119116D01*
X0041989Y0119074D01*
X0041795Y0119037D01*
X0041600Y0119004D01*
X0041404Y0118977D01*
X0041208Y0118954D01*
X0041012Y0118936D01*
X0040815Y0118922D01*
X0040617Y0118914D01*
X0040420Y0118910D01*
X0040420Y0119004D01*
X0040615Y0119008D01*
X0040810Y0119016D01*
X0041005Y0119029D01*
X0041199Y0119047D01*
X0041393Y0119070D01*
X0041586Y0119097D01*
X0041779Y0119129D01*
X0041970Y0119166D01*
X0042161Y0119208D01*
X0042351Y0119254D01*
X0042539Y0119304D01*
X0042726Y0119360D01*
X0042912Y0119420D01*
X0043096Y0119484D01*
X0043279Y0119553D01*
X0043460Y0119626D01*
X0043639Y0119704D01*
X0043816Y0119786D01*
X0043991Y0119873D01*
X0044163Y0119963D01*
X0044334Y0120058D01*
X0044502Y0120157D01*
X0044668Y0120260D01*
X0044831Y0120367D01*
X0044992Y0120478D01*
X0045149Y0120593D01*
X0045304Y0120712D01*
X0045456Y0120835D01*
X0045605Y0120961D01*
X0045751Y0121091D01*
X0045893Y0121224D01*
X0046032Y0121361D01*
X0046168Y0121501D01*
X0046300Y0121645D01*
X0046429Y0121791D01*
X0046357Y0121852D01*
X0046230Y0121707D01*
X0046099Y0121565D01*
X0045965Y0121427D01*
X0045828Y0121292D01*
X0045687Y0121160D01*
X0045543Y0121032D01*
X0045396Y0120907D01*
X0045246Y0120786D01*
X0045093Y0120669D01*
X0044937Y0120555D01*
X0044778Y0120445D01*
X0044617Y0120339D01*
X0044453Y0120238D01*
X0044287Y0120140D01*
X0044119Y0120046D01*
X0043948Y0119956D01*
X0043775Y0119871D01*
X0043600Y0119790D01*
X0043423Y0119713D01*
X0043245Y0119641D01*
X0043064Y0119572D01*
X0042882Y0119509D01*
X0042699Y0119450D01*
X0042514Y0119395D01*
X0042328Y0119345D01*
X0042140Y0119299D01*
X0041952Y0119258D01*
X0041762Y0119222D01*
X0041572Y0119190D01*
X0041381Y0119163D01*
X0041190Y0119141D01*
X0040998Y0119123D01*
X0040805Y0119110D01*
X0040613Y0119102D01*
X0040420Y0119098D01*
X0040420Y0119192D01*
X0040610Y0119196D01*
X0040801Y0119204D01*
X0040991Y0119217D01*
X0041180Y0119234D01*
X0041370Y0119256D01*
X0041558Y0119283D01*
X0041746Y0119314D01*
X0041933Y0119350D01*
X0042119Y0119391D01*
X0042304Y0119436D01*
X0042488Y0119485D01*
X0042671Y0119540D01*
X0042852Y0119598D01*
X0043032Y0119661D01*
X0043210Y0119728D01*
X0043387Y0119800D01*
X0043562Y0119876D01*
X0043734Y0119956D01*
X0043905Y0120040D01*
X0044074Y0120129D01*
X0044240Y0120221D01*
X0044405Y0120318D01*
X0044566Y0120418D01*
X0044726Y0120523D01*
X0044882Y0120631D01*
X0045036Y0120744D01*
X0045187Y0120860D01*
X0045336Y0120979D01*
X0045481Y0121102D01*
X0045623Y0121229D01*
X0045762Y0121359D01*
X0045898Y0121493D01*
X0046031Y0121629D01*
X0046160Y0121769D01*
X0046286Y0121913D01*
X0046214Y0121973D01*
X0046090Y0121832D01*
X0045962Y0121694D01*
X0045831Y0121559D01*
X0045697Y0121427D01*
X0045560Y0121298D01*
X0045419Y0121173D01*
X0045275Y0121051D01*
X0045129Y0120933D01*
X0044980Y0120819D01*
X0044828Y0120708D01*
X0044673Y0120601D01*
X0044516Y0120498D01*
X0044356Y0120398D01*
X0044194Y0120303D01*
X0044029Y0120211D01*
X0043863Y0120124D01*
X0043694Y0120041D01*
X0043523Y0119961D01*
X0043351Y0119886D01*
X0043176Y0119816D01*
X0043000Y0119749D01*
X0042823Y0119687D01*
X0042643Y0119629D01*
X0042463Y0119576D01*
X0042281Y0119527D01*
X0042099Y0119483D01*
X0041915Y0119443D01*
X0041730Y0119407D01*
X0041544Y0119376D01*
X0041358Y0119350D01*
X0041171Y0119328D01*
X0040984Y0119311D01*
X0040796Y0119298D01*
X0040608Y0119290D01*
X0040420Y0119286D01*
X0040420Y0119380D01*
X0040606Y0119384D01*
X0040791Y0119392D01*
X0040977Y0119404D01*
X0041162Y0119421D01*
X0041346Y0119443D01*
X0041530Y0119469D01*
X0041714Y0119500D01*
X0041896Y0119535D01*
X0042078Y0119574D01*
X0042258Y0119618D01*
X0042438Y0119667D01*
X0042616Y0119719D01*
X0042793Y0119776D01*
X0042968Y0119838D01*
X0043142Y0119903D01*
X0043314Y0119973D01*
X0043485Y0120047D01*
X0043653Y0120125D01*
X0043820Y0120208D01*
X0043984Y0120294D01*
X0044147Y0120384D01*
X0044307Y0120479D01*
X0044465Y0120577D01*
X0044620Y0120679D01*
X0044773Y0120784D01*
X0044923Y0120894D01*
X0045071Y0121007D01*
X0045215Y0121124D01*
X0045357Y0121244D01*
X0045496Y0121367D01*
X0045632Y0121494D01*
X0045764Y0121624D01*
X0045893Y0121758D01*
X0046020Y0121894D01*
X0046142Y0122034D01*
D12*
X0046570Y0121884D02*
X0046570Y0123684D01*
X0046570Y0130084D02*
X0046570Y0132084D01*
D13*
X0048120Y0133238D02*
X0048120Y0128734D01*
X0051123Y0128734D01*
X0052724Y0128734D02*
X0055727Y0128734D01*
X0057328Y0128734D02*
X0059580Y0128734D01*
X0060330Y0129485D01*
X0060330Y0132487D01*
X0059580Y0133238D01*
X0057328Y0133238D01*
X0057328Y0128734D01*
X0055727Y0133238D02*
X0052724Y0133238D01*
X0052724Y0128734D01*
X0052724Y0130986D02*
X0054225Y0130986D01*
X0061932Y0131737D02*
X0063433Y0133238D01*
X0063433Y0128734D01*
X0061932Y0128734D02*
X0064934Y0128734D01*
M02*
